<svg xmlns="http://www.w3.org/2000/svg" xmlns:xlink="http://www.w3.org/1999/xlink" width="493" zoomAndPan="magnify" viewBox="0 0 369.75 543.000006" height="724" preserveAspectRatio="xMidYMid meet" version="1.0"><defs><clipPath id="24d3a0f2d3"><path d="M 114 125 L 210 125 L 210 234 L 114 234 Z M 114 125 " clip-rule="nonzero"/></clipPath><clipPath id="1f5889d178"><path d="M 147.234375 123 L 211.238281 148.566406 L 176.5 235.523438 L 112.496094 209.957031 Z M 147.234375 123 " clip-rule="nonzero"/></clipPath><clipPath id="47b9960115"><path d="M 147.234375 123 L 211.238281 148.566406 L 176.5 235.523438 L 112.496094 209.957031 Z M 147.234375 123 " clip-rule="nonzero"/></clipPath><clipPath id="fa6b0571b4"><path d="M 147 135 L 198 135 L 198 170 L 147 170 Z M 147 135 " clip-rule="nonzero"/></clipPath><clipPath id="89bb14e05a"><path d="M 147.234375 123 L 211.238281 148.566406 L 176.5 235.523438 L 112.496094 209.957031 Z M 147.234375 123 " clip-rule="nonzero"/></clipPath><clipPath id="59ee83c88f"><path d="M 147.234375 123 L 211.238281 148.566406 L 176.5 235.523438 L 112.496094 209.957031 Z M 147.234375 123 " clip-rule="nonzero"/></clipPath><clipPath id="671457d721"><path d="M 155 163 L 174 163 L 174 182 L 155 182 Z M 155 163 " clip-rule="nonzero"/></clipPath><clipPath id="6452c250f8"><path d="M 147.234375 123 L 211.238281 148.566406 L 176.5 235.523438 L 112.496094 209.957031 Z M 147.234375 123 " clip-rule="nonzero"/></clipPath><clipPath id="fc6ecb6c41"><path d="M 147.234375 123 L 211.238281 148.566406 L 176.5 235.523438 L 112.496094 209.957031 Z M 147.234375 123 " clip-rule="nonzero"/></clipPath><clipPath id="535d4a77ae"><path d="M 140 157 L 158 157 L 158 175 L 140 175 Z M 140 157 " clip-rule="nonzero"/></clipPath><clipPath id="22318d6663"><path d="M 147.234375 123 L 211.238281 148.566406 L 176.5 235.523438 L 112.496094 209.957031 Z M 147.234375 123 " clip-rule="nonzero"/></clipPath><clipPath id="d4a95ffcce"><path d="M 147.234375 123 L 211.238281 148.566406 L 176.5 235.523438 L 112.496094 209.957031 Z M 147.234375 123 " clip-rule="nonzero"/></clipPath><clipPath id="5fe2056d32"><path d="M 171 170 L 189 170 L 189 188 L 171 188 Z M 171 170 " clip-rule="nonzero"/></clipPath><clipPath id="9323d33892"><path d="M 147.234375 123 L 211.238281 148.566406 L 176.5 235.523438 L 112.496094 209.957031 Z M 147.234375 123 " clip-rule="nonzero"/></clipPath><clipPath id="0dfed15c8c"><path d="M 147.234375 123 L 211.238281 148.566406 L 176.5 235.523438 L 112.496094 209.957031 Z M 147.234375 123 " clip-rule="nonzero"/></clipPath><clipPath id="e5e8dffd9d"><path d="M 149 179 L 168 179 L 168 197 L 149 197 Z M 149 179 " clip-rule="nonzero"/></clipPath><clipPath id="6c06c179b8"><path d="M 147.234375 123 L 211.238281 148.566406 L 176.5 235.523438 L 112.496094 209.957031 Z M 147.234375 123 " clip-rule="nonzero"/></clipPath><clipPath id="cfb695a0b0"><path d="M 147.234375 123 L 211.238281 148.566406 L 176.5 235.523438 L 112.496094 209.957031 Z M 147.234375 123 " clip-rule="nonzero"/></clipPath><clipPath id="334f71f05e"><path d="M 134 173 L 152 173 L 152 191 L 134 191 Z M 134 173 " clip-rule="nonzero"/></clipPath><clipPath id="90d2ddcf26"><path d="M 147.234375 123 L 211.238281 148.566406 L 176.5 235.523438 L 112.496094 209.957031 Z M 147.234375 123 " clip-rule="nonzero"/></clipPath><clipPath id="91bdc83b86"><path d="M 147.234375 123 L 211.238281 148.566406 L 176.5 235.523438 L 112.496094 209.957031 Z M 147.234375 123 " clip-rule="nonzero"/></clipPath><clipPath id="c4c46f7c00"><path d="M 165 185 L 183 185 L 183 203 L 165 203 Z M 165 185 " clip-rule="nonzero"/></clipPath><clipPath id="a1d7fed208"><path d="M 147.234375 123 L 211.238281 148.566406 L 176.5 235.523438 L 112.496094 209.957031 Z M 147.234375 123 " clip-rule="nonzero"/></clipPath><clipPath id="8122e0bebc"><path d="M 147.234375 123 L 211.238281 148.566406 L 176.5 235.523438 L 112.496094 209.957031 Z M 147.234375 123 " clip-rule="nonzero"/></clipPath><clipPath id="97a52205a8"><path d="M 143 194 L 161 194 L 161 212 L 143 212 Z M 143 194 " clip-rule="nonzero"/></clipPath><clipPath id="e1e58c8690"><path d="M 147.234375 123 L 211.238281 148.566406 L 176.5 235.523438 L 112.496094 209.957031 Z M 147.234375 123 " clip-rule="nonzero"/></clipPath><clipPath id="fe46d6afeb"><path d="M 147.234375 123 L 211.238281 148.566406 L 176.5 235.523438 L 112.496094 209.957031 Z M 147.234375 123 " clip-rule="nonzero"/></clipPath><clipPath id="dd777f2263"><path d="M 128 188 L 146 188 L 146 206 L 128 206 Z M 128 188 " clip-rule="nonzero"/></clipPath><clipPath id="e76472fc7f"><path d="M 147.234375 123 L 211.238281 148.566406 L 176.5 235.523438 L 112.496094 209.957031 Z M 147.234375 123 " clip-rule="nonzero"/></clipPath><clipPath id="0834b1112a"><path d="M 147.234375 123 L 211.238281 148.566406 L 176.5 235.523438 L 112.496094 209.957031 Z M 147.234375 123 " clip-rule="nonzero"/></clipPath><clipPath id="5e58f9a82f"><path d="M 159 200 L 177 200 L 177 219 L 159 219 Z M 159 200 " clip-rule="nonzero"/></clipPath><clipPath id="e8376eadc2"><path d="M 147.234375 123 L 211.238281 148.566406 L 176.5 235.523438 L 112.496094 209.957031 Z M 147.234375 123 " clip-rule="nonzero"/></clipPath><clipPath id="46c16e65ae"><path d="M 147.234375 123 L 211.238281 148.566406 L 176.5 235.523438 L 112.496094 209.957031 Z M 147.234375 123 " clip-rule="nonzero"/></clipPath><clipPath id="ae246b312c"><path d="M 1 471 L 266 471 L 266 541.621094 L 1 541.621094 Z M 1 471 " clip-rule="nonzero"/></clipPath><clipPath id="fb4c5c9e8f"><path d="M 268 41 L 369.285156 41 L 369.285156 168 L 268 168 Z M 268 41 " clip-rule="nonzero"/></clipPath></defs><g clip-path="url(#24d3a0f2d3)"><g clip-path="url(#1f5889d178)"><g clip-path="url(#47b9960115)"><path fill="#423f3f" d="M 119.023438 212.429688 L 170.085938 232.828125 C 170.511719 232.996094 170.949219 233.125 171.398438 233.207031 C 171.851562 233.292969 172.304688 233.332031 172.761719 233.328125 C 173.21875 233.320312 173.671875 233.273438 174.121094 233.175781 C 174.566406 233.082031 175.003906 232.945312 175.421875 232.765625 C 175.84375 232.585938 176.242188 232.367188 176.621094 232.109375 C 176.996094 231.851562 177.34375 231.558594 177.664062 231.230469 C 177.984375 230.90625 178.269531 230.550781 178.515625 230.167969 C 178.765625 229.785156 178.976562 229.382812 179.144531 228.957031 L 208.628906 155.148438 C 208.800781 154.722656 208.925781 154.285156 209.007812 153.835938 C 209.089844 153.386719 209.128906 152.9375 209.125 152.480469 C 209.117188 152.023438 209.066406 151.570312 208.972656 151.125 C 208.875 150.675781 208.738281 150.242188 208.554688 149.824219 C 208.375 149.402344 208.15625 149.003906 207.894531 148.628906 C 207.636719 148.25 207.339844 147.902344 207.011719 147.582031 C 206.683594 147.261719 206.328125 146.980469 205.945312 146.730469 C 205.5625 146.480469 205.15625 146.269531 204.730469 146.101562 L 153.667969 125.703125 C 153.242188 125.53125 152.804688 125.40625 152.355469 125.320312 C 151.902344 125.238281 151.449219 125.199219 150.992188 125.203125 C 150.535156 125.210938 150.082031 125.257812 149.632812 125.351562 C 149.1875 125.449219 148.75 125.585938 148.332031 125.765625 C 147.910156 125.945312 147.511719 126.164062 147.132812 126.421875 C 146.757812 126.679688 146.410156 126.972656 146.089844 127.296875 C 145.769531 127.625 145.484375 127.980469 145.238281 128.363281 C 144.988281 128.746094 144.777344 129.148438 144.609375 129.574219 L 115.125 203.382812 C 114.953125 203.808594 114.828125 204.246094 114.746094 204.691406 C 114.664062 205.140625 114.625 205.59375 114.628906 206.050781 C 114.636719 206.507812 114.6875 206.960938 114.78125 207.40625 C 114.878906 207.855469 115.015625 208.289062 115.199219 208.707031 C 115.378906 209.128906 115.597656 209.527344 115.859375 209.902344 C 116.117188 210.28125 116.410156 210.628906 116.738281 210.949219 C 117.066406 211.265625 117.425781 211.550781 117.808594 211.800781 C 118.191406 212.050781 118.597656 212.261719 119.023438 212.429688 Z M 148.3125 131.050781 C 148.457031 130.683594 148.667969 130.359375 148.945312 130.078125 C 149.222656 129.792969 149.542969 129.574219 149.90625 129.417969 C 150.269531 129.265625 150.652344 129.183594 151.046875 129.179688 C 151.441406 129.175781 151.824219 129.246094 152.195312 129.394531 L 203.257812 149.792969 C 203.625 149.9375 203.949219 150.148438 204.234375 150.425781 C 204.519531 150.703125 204.738281 151.023438 204.894531 151.386719 C 205.050781 151.75 205.132812 152.128906 205.140625 152.523438 C 205.144531 152.921875 205.074219 153.300781 204.925781 153.667969 L 175.441406 227.480469 C 175.296875 227.847656 175.085938 228.171875 174.808594 228.453125 C 174.53125 228.738281 174.210938 228.957031 173.847656 229.109375 C 173.484375 229.265625 173.101562 229.347656 172.707031 229.351562 C 172.3125 229.355469 171.929688 229.285156 171.558594 229.136719 L 120.496094 208.738281 C 120.128906 208.59375 119.804688 208.378906 119.519531 208.105469 C 119.234375 207.828125 119.015625 207.507812 118.859375 207.144531 C 118.699219 206.78125 118.621094 206.402344 118.613281 206.007812 C 118.609375 205.609375 118.679688 205.230469 118.828125 204.863281 Z M 148.3125 131.050781 " fill-opacity="1" fill-rule="nonzero"/></g></g></g><g clip-path="url(#fa6b0571b4)"><g clip-path="url(#89bb14e05a)"><g clip-path="url(#59ee83c88f)"><path fill="#423f3f" d="M 197.574219 152.8125 L 154.214844 135.492188 L 147.511719 152.28125 L 190.867188 169.597656 Z M 188.640625 164.429688 L 152.6875 150.066406 L 156.445312 140.660156 L 192.398438 155.023438 Z M 188.640625 164.429688 " fill-opacity="1" fill-rule="nonzero"/></g></g></g><g clip-path="url(#671457d721)"><g clip-path="url(#6452c250f8)"><g clip-path="url(#fc6ecb6c41)"><path fill="#423f3f" d="M 155.914062 176.191406 L 168.3125 181.144531 L 173.246094 168.785156 L 160.851562 163.835938 Z M 163.078125 169.003906 L 168.070312 171 L 166.082031 175.976562 L 161.089844 173.980469 Z M 163.078125 169.003906 " fill-opacity="1" fill-rule="nonzero"/></g></g></g><g clip-path="url(#535d4a77ae)"><g clip-path="url(#22318d6663)"><g clip-path="url(#d4a95ffcce)"><path fill="#423f3f" d="M 157.761719 162.601562 L 145.367188 157.648438 L 140.429688 170.007812 L 152.828125 174.960938 Z M 150.597656 169.789062 L 145.605469 167.796875 L 147.59375 162.820312 L 152.585938 164.8125 Z M 150.597656 169.789062 " fill-opacity="1" fill-rule="nonzero"/></g></g></g><g clip-path="url(#5fe2056d32)"><g clip-path="url(#9323d33892)"><g clip-path="url(#0dfed15c8c)"><path fill="#423f3f" d="M 171.402344 182.378906 L 183.785156 187.328125 L 188.722656 174.96875 L 176.339844 170.023438 Z M 178.566406 175.191406 L 183.546875 177.179688 L 181.558594 182.15625 L 176.578125 180.167969 Z M 178.566406 175.191406 " fill-opacity="1" fill-rule="nonzero"/></g></g></g><g clip-path="url(#e5e8dffd9d)"><g clip-path="url(#6c06c179b8)"><g clip-path="url(#cfb695a0b0)"><path fill="#423f3f" d="M 149.777344 191.550781 L 162.175781 196.503906 L 167.105469 184.164062 L 154.707031 179.210938 Z M 156.945312 184.359375 L 161.9375 186.355469 L 159.949219 191.332031 L 154.957031 189.339844 Z M 156.945312 184.359375 " fill-opacity="1" fill-rule="nonzero"/></g></g></g><g clip-path="url(#334f71f05e)"><g clip-path="url(#90d2ddcf26)"><g clip-path="url(#91bdc83b86)"><path fill="#423f3f" d="M 151.621094 177.976562 L 139.222656 173.023438 L 134.292969 185.363281 L 146.691406 190.316406 Z M 144.464844 185.148438 L 139.46875 183.152344 L 141.453125 178.195312 L 146.445312 180.1875 Z M 144.464844 185.148438 " fill-opacity="1" fill-rule="nonzero"/></g></g></g><g clip-path="url(#c4c46f7c00)"><g clip-path="url(#a1d7fed208)"><g clip-path="url(#8122e0bebc)"><path fill="#423f3f" d="M 165.269531 197.738281 L 177.652344 202.683594 L 182.582031 190.34375 L 170.199219 185.398438 Z M 172.433594 190.546875 L 177.414062 192.539062 L 175.421875 197.515625 L 170.445312 195.527344 Z M 172.433594 190.546875 " fill-opacity="1" fill-rule="nonzero"/></g></g></g><g clip-path="url(#97a52205a8)"><g clip-path="url(#e1e58c8690)"><g clip-path="url(#fe46d6afeb)"><path fill="#423f3f" d="M 143.628906 206.945312 L 156.027344 211.898438 L 160.964844 199.539062 L 148.566406 194.585938 Z M 150.792969 199.753906 L 155.789062 201.75 L 153.800781 206.726562 L 148.804688 204.734375 Z M 150.792969 199.753906 " fill-opacity="1" fill-rule="nonzero"/></g></g></g><g clip-path="url(#dd777f2263)"><g clip-path="url(#e76472fc7f)"><g clip-path="url(#0834b1112a)"><path fill="#423f3f" d="M 145.480469 193.351562 L 133.082031 188.398438 L 128.144531 200.757812 L 140.542969 205.710938 Z M 138.316406 200.542969 L 133.320312 198.546875 L 135.308594 193.570312 L 140.304688 195.5625 Z M 138.316406 200.542969 " fill-opacity="1" fill-rule="nonzero"/></g></g></g><g clip-path="url(#5e58f9a82f)"><g clip-path="url(#e8376eadc2)"><g clip-path="url(#46c16e65ae)"><path fill="#423f3f" d="M 159.117188 213.132812 L 171.503906 218.078125 L 176.4375 205.71875 L 164.054688 200.773438 Z M 166.285156 205.941406 L 171.261719 207.933594 L 169.273438 212.910156 L 164.292969 210.921875 Z M 166.285156 205.941406 " fill-opacity="1" fill-rule="nonzero"/></g></g></g><g clip-path="url(#ae246b312c)"><path fill="#ec3337" d="M 68.296875 473.578125 L 63.035156 500.878906 C 63.035156 500.878906 91.09375 505.335938 105.824219 530.75 C 108.617188 535.574219 105.132812 541.621094 99.566406 541.621094 L 11.34375 541.621094 C 5.179688 541.621094 0.574219 535.929688 1.882812 529.910156 L 14.058594 473.578125 Z M 167.128906 473.578125 C 161.914062 473.578125 157.988281 478.328125 158.988281 483.449219 L 168.855469 534.167969 C 169.695312 538.496094 173.5 541.632812 177.921875 541.632812 L 258.398438 541.632812 C 263.980469 541.632812 267.464844 535.585938 264.660156 530.761719 C 249.941406 505.347656 216.683594 500.054688 216.683594 500.054688 L 209.535156 471.910156 Z M 167.128906 473.578125 " fill-opacity="1" fill-rule="nonzero"/></g><path fill="#fff3d0" d="M 315.453125 116.503906 C 315.453125 116.503906 303.636719 125.472656 284.347656 124.683594 L 284.347656 125.867188 L 213.746094 130.703125 L 215.214844 88.410156 L 282.652344 88.410156 L 282.652344 86.96875 C 282.652344 86.96875 282.976562 67.574219 292.742188 68.203125 C 292.742188 68.203125 296.84375 59.378906 302.203125 62.527344 C 302.203125 62.527344 306.191406 55.40625 312.710938 60.28125 C 312.710938 60.28125 323.34375 47.511719 330.160156 52.605469 C 334.222656 55.640625 332.902344 62.527344 326.839844 67.796875 C 323.542969 70.65625 319.503906 75.59375 318.515625 79.847656 L 317.515625 84.167969 C 316.230469 89.730469 319.144531 95.417969 324.429688 97.589844 C 327.40625 98.8125 331 99.75 335.039062 99.710938 C 346.460938 99.601562 350.351562 118.390625 315.453125 116.503906 Z M 315.453125 116.503906 " fill-opacity="1" fill-rule="nonzero"/><path fill="#000000" d="M 213.757812 131.9375 C 213.4375 131.9375 213.128906 131.816406 212.894531 131.59375 C 212.644531 131.347656 212.511719 131.011719 212.523438 130.667969 L 213.992188 88.386719 C 214.015625 87.71875 214.5625 87.191406 215.226562 87.191406 L 281.429688 87.191406 L 281.429688 86.980469 C 281.445312 86.4375 281.703125 74 287.085938 69.042969 C 288.507812 67.734375 290.164062 67.03125 292.003906 66.96875 C 292.855469 65.414062 295.089844 61.859375 298.214844 60.886719 C 299.410156 60.515625 300.621094 60.539062 301.78125 60.972656 C 302.660156 59.835938 304.375 58.023438 306.859375 57.503906 C 308.710938 57.109375 310.613281 57.503906 312.515625 58.664062 C 315.167969 55.742188 324.296875 46.683594 330.914062 51.632812 C 332.679688 52.953125 333.65625 54.878906 333.742188 57.222656 C 333.878906 61.007812 331.605469 65.316406 327.667969 68.746094 C 324.480469 71.519531 320.628906 76.269531 319.738281 80.144531 L 318.738281 84.464844 C 317.578125 89.472656 320.183594 94.519531 324.925781 96.46875 C 328.273438 97.835938 331.65625 98.492188 335.050781 98.492188 C 335.089844 98.492188 335.125 98.492188 335.152344 98.492188 C 338.746094 98.492188 341.917969 100.195312 343.460938 102.933594 C 344.769531 105.265625 344.683594 107.953125 343.214844 110.308594 C 341.214844 113.519531 335.015625 118.722656 315.835938 117.773438 C 313.675781 119.292969 302.722656 126.300781 285.59375 125.964844 C 285.554688 126.570312 285.0625 127.066406 284.445312 127.113281 L 213.84375 131.949219 C 213.808594 131.9375 213.78125 131.9375 213.757812 131.9375 Z M 216.414062 89.65625 L 215.03125 129.382812 L 283.109375 124.71875 L 283.109375 124.683594 C 283.109375 124.351562 283.246094 124.03125 283.492188 123.796875 C 283.742188 123.5625 284.074219 123.4375 284.394531 123.449219 C 302.96875 124.214844 314.589844 115.617188 314.699219 115.527344 C 314.933594 115.355469 315.230469 115.269531 315.515625 115.28125 C 334.433594 116.304688 339.707031 111.234375 341.101562 109.003906 C 342.089844 107.410156 342.164062 105.683594 341.300781 104.128906 C 340.175781 102.144531 337.804688 100.933594 335.050781 100.945312 C 331.398438 100.96875 327.617188 100.242188 323.960938 98.738281 C 318.097656 96.332031 314.875 90.089844 316.304688 83.894531 L 317.304688 79.578125 C 318.332031 75.136719 322.429688 69.992188 326.023438 66.871094 C 329.359375 63.96875 331.371094 60.304688 331.261719 57.296875 C 331.199219 55.730469 330.570312 54.445312 329.421875 53.59375 C 324.617188 49.992188 316.417969 57.777344 313.664062 61.070312 C 313.242188 61.578125 312.503906 61.664062 311.972656 61.269531 C 310.351562 60.058594 308.796875 59.601562 307.351562 59.898438 C 304.84375 60.429688 303.289062 63.09375 303.277344 63.132812 C 303.117188 63.414062 302.84375 63.636719 302.523438 63.722656 C 302.203125 63.808594 301.855469 63.761719 301.574219 63.601562 C 300.683594 63.082031 299.820312 62.957031 298.929688 63.242188 C 296.511719 63.996094 294.449219 67.460938 293.855469 68.734375 C 293.644531 69.1875 293.164062 69.484375 292.65625 69.449219 C 291.164062 69.347656 289.878906 69.804688 288.742188 70.855469 C 284.136719 75.097656 283.875 86.882812 283.875 87.003906 L 283.875 88.4375 C 283.875 89.113281 283.320312 89.667969 282.640625 89.667969 L 216.414062 89.667969 Z M 216.414062 89.65625 " fill-opacity="1" fill-rule="nonzero"/><path fill="#fff3d0" d="M 269.28125 147.496094 C 269.28125 147.496094 278.652344 117.230469 304.882812 116.640625 L 316.578125 150.777344 L 295.3125 166.113281 Z M 269.28125 147.496094 " fill-opacity="1" fill-rule="nonzero"/><g clip-path="url(#fb4c5c9e8f)"><path fill="#000000" d="M 295.3125 167.347656 C 295.066406 167.347656 294.804688 167.273438 294.597656 167.113281 L 268.5625 148.484375 C 268.132812 148.175781 267.945312 147.617188 268.105469 147.113281 C 268.207031 146.804688 278.058594 115.984375 304.859375 115.394531 C 304.871094 115.394531 304.882812 115.394531 304.882812 115.394531 C 305.414062 115.394531 305.882812 115.726562 306.054688 116.230469 L 317.75 150.371094 C 317.921875 150.886719 317.75 151.457031 317.304688 151.765625 L 296.039062 167.101562 C 295.820312 167.273438 295.558594 167.347656 295.3125 167.347656 Z M 270.75 147.027344 L 295.3125 164.609375 L 315.121094 150.320312 L 304.019531 117.910156 C 282.035156 119.007812 272.464844 142.289062 270.75 147.027344 Z M 369.394531 45.339844 C 369.433594 45.648438 369.320312 45.96875 369.097656 46.179688 L 366.171875 48.917969 C 365.886719 49.175781 365.492188 49.238281 365.148438 49.105469 L 326.875 104.226562 C 326.640625 104.574219 326.246094 104.757812 325.863281 104.757812 C 325.617188 104.757812 325.371094 104.683594 325.160156 104.535156 C 324.605469 104.152344 324.457031 103.375 324.851562 102.820312 L 363.121094 47.695312 C 362.875 47.425781 362.789062 47.03125 362.9375 46.671875 L 364.480469 42.972656 C 364.605469 42.675781 364.863281 42.464844 365.160156 42.390625 L 367.839844 41.773438 C 368.40625 41.652344 368.949219 42.035156 369.023438 42.601562 Z M 369.394531 45.339844 " fill-opacity="1" fill-rule="nonzero"/></g><path fill="#ec3337" d="M 341.351562 102.128906 L 336.375 104.5 C 336.25 104.992188 336.039062 105.460938 335.742188 105.90625 L 307.339844 146.816406 C 304.796875 150.480469 299.769531 151.382812 296.101562 148.851562 L 293.507812 147.050781 C 290.015625 144.632812 289.148438 139.847656 291.570312 136.355469 L 320.183594 95.136719 C 320.503906 94.679688 320.898438 94.308594 321.332031 94.011719 L 321.75 88.683594 C 321.914062 86.648438 324.222656 85.535156 325.914062 86.695312 L 341.707031 97.539062 C 343.398438 98.6875 343.203125 101.242188 341.351562 102.128906 Z M 341.351562 102.128906 " fill-opacity="1" fill-rule="nonzero"/><path fill="#fff3d0" d="M 288.988281 136.664062 L 336.300781 111.308594 C 336.300781 111.308594 344.597656 108.261719 346.808594 116.566406 C 349.019531 124.867188 325.789062 136.242188 325.789062 136.242188 C 325.789062 136.242188 332.941406 141.03125 328.730469 147.433594 C 328.730469 147.433594 332.828125 153 328.097656 158.980469 C 328.097656 158.980469 340.84375 173.921875 291.125 184.890625 C 288.851562 185.398438 286.742188 186.496094 285 188.050781 C 275.046875 197.007812 236.628906 227.148438 186.640625 210.21875 L 221.316406 161.707031 C 221.316406 161.707031 248.964844 158.832031 270.292969 146.125 " fill-opacity="1" fill-rule="nonzero"/><path fill="#000000" d="M 328.039062 136.464844 C 330.433594 138.785156 332.71875 142.820312 330.1875 147.398438 C 331.570312 149.789062 332.742188 154.417969 329.605469 158.996094 C 330.359375 160.265625 331.445312 162.917969 330.308594 166.296875 C 327.617188 174.316406 314.515625 180.980469 291.386719 186.074219 C 289.335938 186.53125 287.410156 187.519531 285.828125 188.949219 C 277.480469 196.464844 251.855469 216.523438 216.84375 216.523438 C 207.285156 216.523438 197.035156 215.03125 186.230469 211.378906 C 185.859375 211.257812 185.578125 210.960938 185.453125 210.589844 C 185.328125 210.21875 185.390625 209.8125 185.625 209.492188 L 220.304688 160.980469 C 220.511719 160.695312 220.820312 160.511719 221.179688 160.476562 C 221.453125 160.449219 248.804688 157.476562 269.652344 145.066406 C 270.230469 144.71875 270.996094 144.90625 271.34375 145.496094 C 271.6875 146.078125 271.503906 146.839844 270.910156 147.1875 C 251.261719 158.882812 226.046875 162.375 221.984375 162.867188 L 188.589844 209.566406 C 236.875 225.011719 273.875 196.363281 284.148438 187.125 C 286.050781 185.410156 288.359375 184.222656 290.828125 183.683594 C 319.886719 177.265625 326.542969 169.59375 327.925781 165.582031 C 329.085938 162.203125 327.210938 159.871094 327.136719 159.773438 C 326.765625 159.328125 326.753906 158.671875 327.109375 158.21875 C 331.175781 153.070312 327.851562 148.359375 327.714844 148.160156 C 327.421875 147.742188 327.394531 147.1875 327.679688 146.753906 C 331.148438 141.460938 325.332031 137.429688 325.074219 137.269531 C 324.714844 137.019531 324.503906 136.601562 324.53125 136.15625 C 324.554688 135.714844 324.828125 135.332031 325.222656 135.132812 C 333.855469 130.902344 347.007812 122.203125 345.597656 116.886719 C 345.054688 114.839844 344.054688 113.417969 342.621094 112.667969 C 340.238281 111.421875 337.273438 112.296875 336.78125 112.457031 L 289.558594 137.761719 C 288.953125 138.082031 288.210938 137.859375 287.890625 137.253906 C 287.570312 136.652344 287.792969 135.910156 288.398438 135.589844 L 335.707031 110.234375 C 335.753906 110.210938 335.804688 110.1875 335.867188 110.164062 C 336.039062 110.101562 340.175781 108.621094 343.757812 110.46875 C 345.832031 111.554688 347.265625 113.492188 347.992188 116.246094 C 350.105469 124.140625 333.753906 133.480469 328.039062 136.464844 Z M 328.039062 136.464844 " fill-opacity="1" fill-rule="nonzero"/><path fill="#ec3337" d="M 127.574219 182.363281 L 127.574219 86.757812 C 127.574219 84.019531 129.796875 81.796875 132.535156 81.796875 L 213.722656 81.796875 C 216.460938 81.796875 218.683594 84.019531 218.683594 86.757812 L 218.683594 182.363281 C 218.683594 185.101562 216.460938 187.320312 213.722656 187.320312 L 132.535156 187.320312 C 129.796875 187.320312 127.574219 185.101562 127.574219 182.363281 Z M 127.574219 182.363281 " fill-opacity="1" fill-rule="nonzero"/><path fill="#fff3d0" d="M 199.914062 57.640625 L 199.914062 59.921875 C 199.914062 62.179688 198.074219 64.019531 195.8125 64.019531 C 195.800781 64.019531 195.800781 64.019531 195.789062 64.019531 L 195.789062 65.375 C 195.789062 80.207031 183.886719 92.261719 169.117188 92.53125 L 162.71875 117.972656 L 118.015625 96.074219 L 132.191406 66.078125 C 131.476562 65.328125 130.796875 64.5 130.203125 63.574219 C 126.265625 57.46875 126.929688 50.042969 131.683594 46.96875 C 134.488281 45.15625 138.09375 45.292969 141.390625 46.945312 L 141.390625 33.164062 L 195.777344 33.164062 L 195.777344 53.558594 C 195.789062 53.558594 195.789062 53.558594 195.800781 53.558594 C 198.074219 53.546875 199.914062 55.382812 199.914062 57.640625 Z M 199.914062 57.640625 " fill-opacity="1" fill-rule="nonzero"/><path fill="#000000" d="M 197.023438 52.460938 L 197.023438 33.164062 C 197.023438 32.484375 196.46875 31.929688 195.789062 31.929688 L 141.402344 31.929688 C 140.726562 31.929688 140.167969 32.484375 140.167969 33.164062 L 140.167969 36.125 L 121.496094 37.816406 C 116.988281 49.695312 122.015625 57.382812 127.96875 62.046875 C 128.3125 62.796875 128.707031 63.539062 129.179688 64.253906 C 129.636719 64.957031 130.152344 65.648438 130.734375 66.300781 L 116.902344 95.542969 C 116.617188 96.148438 116.867188 96.875 117.472656 97.183594 L 162.164062 119.070312 C 162.335938 119.15625 162.519531 119.191406 162.707031 119.191406 C 162.878906 119.191406 163.0625 119.15625 163.226562 119.082031 C 163.558594 118.921875 163.816406 118.625 163.902344 118.269531 L 170.078125 93.726562 C 185.019531 92.953125 197.023438 80.429688 197.023438 65.375 L 197.023438 65.117188 C 199.382812 64.574219 201.148438 62.453125 201.148438 59.921875 L 201.148438 57.640625 C 201.148438 55.125 199.382812 53.003906 197.023438 52.460938 Z M 142.640625 34.398438 L 159.25 34.398438 L 142.640625 35.902344 Z M 198.679688 59.921875 C 198.679688 61.492188 197.417969 62.761719 195.851562 62.785156 C 195.828125 62.785156 195.800781 62.785156 195.777344 62.785156 C 195.097656 62.785156 194.542969 63.339844 194.542969 64.019531 L 194.542969 65.375 C 194.542969 79.40625 183.121094 91.039062 169.078125 91.296875 C 168.980469 91.296875 168.878906 91.324219 168.792969 91.347656 C 168.734375 91.335938 168.671875 91.308594 168.597656 91.308594 C 163.398438 91.308594 158.371094 89.78125 154.085938 86.882812 C 153.519531 86.5 152.753906 86.648438 152.371094 87.214844 C 151.988281 87.78125 152.136719 88.546875 152.703125 88.929688 C 157.113281 91.902344 162.226562 93.542969 167.535156 93.742188 L 161.890625 116.195312 L 119.65625 95.503906 L 133.316406 66.609375 C 133.539062 66.152344 133.4375 65.597656 133.09375 65.230469 C 132.390625 64.488281 131.769531 63.710938 131.253906 62.910156 C 129.5 60.183594 128.671875 57.109375 128.929688 54.25 C 129.179688 51.496094 130.402344 49.289062 132.375 48.019531 C 134.722656 46.511719 137.808594 46.523438 140.859375 48.066406 C 140.933594 48.105469 141.019531 48.128906 141.109375 48.152344 C 142.960938 49.375 144.714844 51.214844 146.207031 53.546875 C 147.011719 54.777344 147.515625 55.789062 147.863281 56.816406 C 148.457031 58.617188 150.085938 59.847656 151.976562 59.847656 L 157.308594 59.847656 C 159.730469 59.847656 161.695312 57.886719 161.695312 55.46875 L 161.695312 34.398438 L 194.566406 34.398438 L 194.566406 53.558594 C 194.566406 54.261719 195.097656 54.816406 195.875 54.792969 C 197.433594 54.816406 198.691406 56.085938 198.691406 57.652344 L 198.691406 59.921875 Z M 190.292969 52.226562 C 189.714844 54.25 187.613281 55.421875 185.589844 54.839844 C 183.5625 54.261719 182.390625 52.164062 182.972656 50.140625 C 183.550781 48.117188 185.652344 46.945312 187.675781 47.523438 C 189.703125 48.105469 190.875 50.214844 190.292969 52.226562 Z M 190.292969 52.226562 " fill-opacity="1" fill-rule="nonzero"/><path fill="#ec3337" d="M 205.152344 35.457031 L 205.152344 35.730469 C 205.152344 37.359375 203.828125 38.664062 202.210938 38.664062 L 121.832031 38.664062 C 120.59375 38.664062 119.632812 37.605469 119.730469 36.371094 C 120.570312 26.785156 124.84375 18.148438 131.300781 11.707031 C 138.539062 4.480469 148.515625 0 159.484375 0 C 178.910156 0 195.210938 14.066406 198.679688 32.507812 L 202.199219 32.507812 C 203.828125 32.507812 205.152344 33.828125 205.152344 35.457031 Z M 205.152344 35.457031 " fill-opacity="1" fill-rule="nonzero"/><path fill="#000000" d="M 151.40625 32.507812 C 151.40625 31.832031 151.960938 31.277344 152.640625 31.277344 L 198.039062 31.277344 C 198.714844 31.277344 199.273438 31.832031 199.273438 32.507812 C 199.273438 33.1875 198.714844 33.742188 198.039062 33.742188 L 152.640625 33.742188 C 151.960938 33.742188 151.40625 33.1875 151.40625 32.507812 Z M 181.441406 46.042969 C 181.625 46.140625 181.835938 46.191406 182.03125 46.191406 C 182.464844 46.191406 182.898438 45.957031 183.121094 45.550781 C 183.578125 44.722656 184.144531 44.21875 184.886719 44.007812 C 186.441406 43.578125 188.230469 44.613281 188.246094 44.613281 C 188.835938 44.957031 189.589844 44.761719 189.9375 44.179688 C 190.28125 43.601562 190.097656 42.835938 189.503906 42.492188 C 189.394531 42.429688 186.824219 40.910156 184.242188 41.613281 C 182.847656 41.996094 181.738281 42.910156 180.957031 44.355469 C 180.625 44.957031 180.847656 45.710938 181.441406 46.042969 Z M 178.984375 65.746094 C 178.414062 66.117188 178.253906 66.882812 178.625 67.449219 C 178.734375 67.621094 181.402344 71.558594 190.070312 71.558594 C 190.195312 71.558594 190.332031 71.558594 190.46875 71.558594 C 191.148438 71.546875 191.691406 70.992188 191.691406 70.3125 C 191.675781 69.632812 191.132812 69.089844 190.453125 69.089844 C 190.453125 69.089844 190.441406 69.089844 190.441406 69.089844 C 183.03125 69.203125 180.761719 66.179688 180.699219 66.09375 C 180.304688 65.539062 179.550781 65.375 178.984375 65.746094 Z M 222.882812 494.699219 C 206.324219 431.902344 189.777344 349.558594 173.226562 286.75 L 46.746094 286.75 C 27.011719 370.199219 8.761719 475.121094 4.5625 494.898438 C 4.066406 497.242188 5.636719 499.511719 7.996094 499.855469 C 17.304688 501.25 28.039062 502.261719 39.917969 502.3125 C 53.355469 502.386719 65.34375 501.226562 75.519531 499.632812 C 77.25 499.363281 78.609375 498.066406 78.964844 496.363281 C 87.917969 452.566406 96.859375 408.769531 105.8125 364.980469 L 153.914062 496.871094 C 154.433594 498.289062 155.679688 499.324219 157.171875 499.546875 C 166.757812 501.015625 178.03125 502.078125 190.628906 502.003906 C 201.308594 501.941406 210.980469 501.078125 219.476562 499.867188 C 221.921875 499.523438 223.515625 497.105469 222.882812 494.699219 Z M 222.882812 494.699219 " fill-opacity="1" fill-rule="nonzero"/><path fill="#ec3337" d="M 228.527344 164.730469 L 207.3125 225.050781 C 205.59375 229.933594 200.210938 232.476562 195.34375 230.6875 L 188.738281 228.269531 L 171.796875 271.636719 L 171.375 272.695312 C 170.660156 274.523438 170.535156 276.535156 171.042969 278.433594 C 171.769531 281.210938 172.5 283.972656 173.226562 286.75 L 46.746094 286.75 C 47.933594 281.703125 49.144531 276.65625 50.339844 271.636719 C 68.382812 196.339844 87.019531 126.003906 96.886719 111.085938 C 119.792969 76.429688 160.148438 92.605469 172.140625 111.085938 C 181.402344 125.386719 211.558594 145.460938 224.734375 153.824219 C 228.390625 156.132812 229.960938 160.660156 228.527344 164.730469 Z M 228.527344 164.730469 " fill-opacity="1" fill-rule="nonzero"/><path fill="#fff3d0" d="M 129.03125 286.75 L 129.03125 324.859375 C 129.03125 328.449219 126.117188 331.375 122.507812 331.375 L 83.867188 331.375 C 80.273438 331.375 77.347656 328.464844 77.347656 324.859375 L 77.347656 286.75 L 46.746094 286.75 C 47.933594 281.703125 49.144531 276.65625 50.339844 271.636719 L 77.347656 271.636719 L 77.347656 268.589844 C 77.347656 265 80.261719 262.074219 83.867188 262.074219 L 122.507812 262.074219 C 126.101562 262.074219 129.03125 264.984375 129.03125 268.589844 L 129.03125 271.636719 L 171.796875 271.636719 L 171.375 272.695312 C 170.660156 274.523438 170.535156 276.535156 171.042969 278.433594 C 171.769531 281.210938 172.5 283.972656 173.226562 286.75 Z M 129.03125 286.75 " fill-opacity="1" fill-rule="nonzero"/><path fill="#000000" d="M 188.738281 229.503906 C 188.515625 229.503906 188.28125 229.441406 188.070312 229.304688 L 124.066406 188.359375 C 123.484375 187.988281 123.324219 187.222656 123.695312 186.65625 C 124.066406 186.074219 124.832031 185.914062 125.398438 186.285156 L 189.40625 227.234375 C 189.972656 227.601562 190.144531 228.367188 189.777344 228.9375 C 189.542969 229.304688 189.144531 229.503906 188.738281 229.503906 Z M 216.757812 201.929688 L 229.6875 165.152344 C 231.320312 160.511719 229.550781 155.429688 225.402344 152.789062 C 212.757812 144.769531 182.355469 124.585938 173.179688 110.421875 C 164.386719 96.863281 142.230469 85.5 121.769531 90.816406 C 118.953125 91.542969 116.199219 92.59375 113.605469 93.925781 C 113 94.234375 112.753906 94.972656 113.074219 95.589844 C 113.382812 96.195312 114.125 96.441406 114.742188 96.121094 C 117.175781 94.875 119.753906 93.902344 122.398438 93.210938 C 141.167969 88.324219 162.742188 98.859375 171.105469 111.765625 C 180.550781 126.335938 211.300781 146.769531 224.082031 154.875 C 227.269531 156.898438 228.613281 160.78125 227.367188 164.335938 L 214.4375 201.113281 C 214.214844 201.757812 214.546875 202.460938 215.191406 202.679688 C 215.328125 202.730469 215.460938 202.753906 215.597656 202.753906 C 216.09375 202.753906 216.574219 202.433594 216.757812 201.929688 Z M 122.507812 260.851562 L 83.867188 260.851562 C 79.597656 260.851562 76.113281 264.332031 76.113281 268.601562 L 76.113281 286.761719 C 76.113281 287.441406 76.667969 287.996094 77.347656 287.996094 C 78.027344 287.996094 78.582031 287.441406 78.582031 286.761719 L 78.582031 283.035156 L 127.78125 283.035156 L 127.78125 286.761719 C 127.78125 287.441406 128.339844 287.996094 129.019531 287.996094 C 129.695312 287.996094 130.253906 287.441406 130.253906 286.761719 L 130.253906 268.589844 C 130.265625 264.320312 126.78125 260.851562 122.507812 260.851562 Z M 78.582031 280.554688 L 78.582031 268.589844 C 78.582031 265.675781 80.953125 263.308594 83.867188 263.308594 L 122.507812 263.308594 C 125.425781 263.308594 127.796875 265.675781 127.796875 268.589844 L 127.796875 280.554688 Z M 110.753906 274.128906 C 110.753906 276.039062 109.195312 277.59375 107.28125 277.59375 L 99.082031 277.59375 C 97.167969 277.59375 95.613281 276.039062 95.613281 274.128906 C 95.613281 272.214844 97.167969 270.660156 99.082031 270.660156 L 107.28125 270.660156 C 109.195312 270.660156 110.753906 272.214844 110.753906 274.128906 Z M 313.824219 60.859375 L 308.550781 70.902344 C 308.328125 71.324219 307.894531 71.570312 307.453125 71.570312 C 307.253906 71.570312 307.054688 71.519531 306.882812 71.433594 C 306.277344 71.113281 306.042969 70.375 306.363281 69.769531 L 311.636719 59.726562 C 311.957031 59.121094 312.699219 58.886719 313.304688 59.207031 C 313.910156 59.515625 314.132812 60.257812 313.824219 60.859375 Z M 303.328125 63.082031 L 299.894531 70.066406 C 299.683594 70.496094 299.238281 70.757812 298.78125 70.757812 C 298.597656 70.757812 298.410156 70.71875 298.238281 70.632812 C 297.621094 70.335938 297.375 69.597656 297.671875 68.980469 L 301.105469 61.996094 C 301.398438 61.378906 302.152344 61.132812 302.757812 61.429688 C 303.375 61.726562 303.625 62.464844 303.328125 63.082031 Z M 303.328125 63.082031 " fill-opacity="1" fill-rule="nonzero"/></svg>