<svg xmlns="http://www.w3.org/2000/svg" xmlns:xlink="http://www.w3.org/1999/xlink" width="1920" zoomAndPan="magnify" viewBox="0 0 1440 809.999993" height="1080" preserveAspectRatio="xMidYMid meet" version="1.0"><defs><clipPath id="f43b825201"><path d="M 770 166 L 1439.707031 166 L 1439.707031 807.980469 L 770 807.980469 Z M 770 166 " clip-rule="nonzero"/></clipPath><clipPath id="5589095ee6"><path d="M 769.554688 197 L 1269.769531 197 L 1269.769531 809.800781 L 769.554688 809.800781 Z M 769.554688 197 " clip-rule="nonzero"/></clipPath><clipPath id="8b0873b97b"><path d="M 804 156.605469 L 1411 156.605469 L 1411 782 L 804 782 Z M 804 156.605469 " clip-rule="nonzero"/></clipPath></defs><g clip-path="url(#f43b825201)"><path fill="#ffde59" d="M 1121.691406 216.683594 L 1138.507812 217.78125 L 1175.246094 220.191406 L 1180.828125 220.558594 L 1181.414062 211.589844 L 1178.808594 209.625 C 1178.808594 209.625 1179.214844 194.269531 1169.847656 191.265625 C 1160.488281 188.265625 1147.402344 187.261719 1142.246094 190.652344 C 1137.097656 194.050781 1132.929688 209.75 1132.929688 209.75 L 1121.351562 214.710938 C 1120.355469 215.136719 1120.613281 216.609375 1121.691406 216.683594 Z M 1046.71875 199.648438 L 1068.871094 175.667969 L 1069.792969 176.558594 L 1075.90625 169.300781 L 1073.214844 166.699219 L 1066.164062 173.050781 L 1067.089844 173.945312 L 1043.859375 196.886719 Z M 1265.917969 273.269531 C 1275.089844 275.046875 1283.117188 268.078125 1283.117188 259.230469 C 1283.117188 256.640625 1282.425781 254.207031 1281.210938 252.113281 C 1278.203125 246.902344 1276.207031 241.179688 1276.207031 235.164062 L 1276.207031 233.164062 L 1261.382812 233.164062 L 1261.382812 234.035156 C 1261.382812 240.191406 1260.015625 246.382812 1256.703125 251.570312 C 1254.886719 254.425781 1254.046875 257.960938 1254.679688 261.714844 C 1255.644531 267.457031 1260.191406 272.15625 1265.917969 273.269531 Z M 830.589844 639.792969 C 872.328125 566.484375 896.191406 564.695312 846 460.109375 C 795.808594 355.53125 840.175781 268.15625 930.078125 229.589844 C 1006.71875 196.710938 1019.640625 267.875 1214.375 335.910156 C 1409.113281 403.9375 1313.054688 573.636719 1370.03125 613.445312 C 1427.015625 653.257812 1439.710938 807.941406 1439.710938 807.941406 L 770.722656 807.941406 C 770.722656 807.941406 788.847656 713.101562 830.589844 639.792969 " fill-opacity="1" fill-rule="nonzero"/></g><g clip-path="url(#5589095ee6)"><path fill="#f9b126" d="M 1250.4375 511.339844 C 1250.164062 511.34375 1250.003906 511.351562 1250.003906 511.351562 C 1250.003906 511.351562 1249.910156 511.847656 1249.746094 512.582031 C 1250.015625 512.160156 1250.246094 511.746094 1250.4375 511.339844 Z M 1269.386719 511.847656 C 1269.1875 514.628906 1266.4375 515.253906 1264.21875 515.714844 C 1262 516.171875 1261.335938 518.203125 1258.75 518.078125 C 1256.167969 517.945312 1254.078125 520.191406 1252.09375 520.191406 C 1250.878906 520.191406 1249.054688 519.40625 1247.8125 518.792969 C 1247.746094 518.859375 1247.683594 518.898438 1247.621094 518.898438 C 1247.375 518.898438 1246.953125 518.574219 1246.457031 518.078125 L 1246.453125 518.070312 C 1245.152344 516.769531 1243.289062 514.234375 1242.351562 512.941406 C 1241.0625 511.152344 1241.851562 506.773438 1242.75 504.496094 C 1243.644531 502.21875 1243.941406 499.03125 1244.640625 496.945312 C 1245.292969 494.980469 1248.824219 490.183594 1249.21875 489.648438 C 1248.773438 488.019531 1244.371094 471.8125 1241.359375 455.324219 C 1239.105469 443.027344 1236.0625 414.6875 1234.472656 399.148438 C 1233.859375 398.398438 1233.308594 397.578125 1232.84375 396.683594 L 1213.820312 360.296875 L 1249.253906 350.632812 L 1259.683594 385.824219 C 1260.007812 386.929688 1260.183594 388.042969 1260.246094 389.148438 C 1260.253906 389.191406 1260.269531 389.222656 1260.28125 389.265625 C 1266.066406 410.160156 1268.265625 485.171875 1268.386719 489.585938 C 1268.390625 489.589844 1268.390625 489.589844 1268.390625 489.597656 C 1268.878906 490.566406 1268.847656 493.207031 1268.390625 496.257812 C 1268.390625 496.257812 1268.390625 496.257812 1268.390625 496.261719 C 1268.191406 497.820312 1269.585938 509.066406 1269.386719 511.847656 Z M 1179.816406 220.90625 C 1178.460938 220.636719 1177.035156 220.949219 1175.816406 221.605469 C 1175.714844 221.128906 1175.617188 220.65625 1175.511719 220.191406 L 1138.773438 217.78125 C 1138.648438 218.1875 1138.507812 218.582031 1138.398438 218.996094 C 1134.871094 232.792969 1136.3125 251.953125 1138.679688 255.152344 C 1142.164062 259.855469 1147.375 259.347656 1147.375 259.347656 L 1145.742188 276.816406 L 1181.519531 276.816406 C 1181.519531 276.816406 1180.839844 256.292969 1178.292969 236.730469 C 1178.523438 236.613281 1178.738281 236.484375 1178.9375 236.320312 C 1179.707031 235.671875 1180.167969 234.734375 1180.578125 233.8125 C 1181.367188 232.042969 1182.074219 230.238281 1182.695312 228.398438 C 1183.222656 226.820312 1183.683594 225.066406 1183.078125 223.515625 C 1182.550781 222.164062 1181.242188 221.191406 1179.816406 220.90625 Z M 1051.726562 283.585938 L 1045.542969 229.890625 C 1047.246094 226.726562 1048.683594 223.566406 1048.4375 222.332031 C 1048.03125 220.296875 1049.191406 214.808594 1049.105469 210.367188 C 1049.136719 209.773438 1049.144531 209.179688 1049.117188 208.589844 C 1049.117188 208.589844 1049.574219 205.296875 1046.746094 203.804688 C 1046.671875 203.765625 1046.582031 203.75 1046.503906 203.71875 C 1044.617188 202.355469 1042.363281 203.003906 1040.5 202.957031 C 1038.011719 202.894531 1037.960938 198.007812 1035.640625 197.410156 C 1033.324219 196.808594 1030.226562 198.175781 1027.054688 200.699219 C 1023.878906 203.21875 1021.464844 201.996094 1018.273438 202.746094 C 1015.078125 203.488281 1014.714844 211.488281 1012.601562 213.023438 C 1010.484375 214.550781 1011.855469 218.535156 1014.035156 222.777344 C 1016.214844 227.023438 1023.984375 231.730469 1023.984375 231.730469 L 1024.925781 232.089844 L 1020.042969 298.597656 C 1019.964844 299.21875 1019.90625 299.859375 1019.90625 300.507812 C 1019.90625 308.179688 1025.867188 314.527344 1033.527344 315.015625 L 1074.519531 317.621094 L 1068.988281 281.335938 Z M 934.773438 227.75 L 934.773438 807 C 934.773438 807 767.773438 808.007812 769.570312 809.800781 C 769.570312 809.800781 788.769531 731.980469 812.101562 674.894531 C 839.675781 607.414062 895.785156 572.253906 860.601562 500.972656 C 825.414062 429.691406 778.816406 295.230469 934.773438 227.75 " fill-opacity="1" fill-rule="nonzero"/></g><path fill="#ec3337" d="M 905.867188 340.652344 L 899.34375 340.652344 C 875.09375 335.601562 853.222656 328.757812 835.558594 320.613281 C 835.386719 321.046875 835.203125 321.480469 835.035156 321.921875 C 851.234375 329.375 870.917969 335.746094 892.710938 340.652344 L 827.695312 340.652344 L 827.695312 442.582031 L 885.289062 442.582031 C 876.285156 452.226562 868.347656 462.015625 863.863281 471.828125 C 859.414062 481.566406 858.359375 491.464844 860.6875 501.339844 C 863.285156 506.628906 865.378906 511.714844 867.023438 516.636719 C 877.984375 535.214844 900.683594 553.179688 934.761719 570.285156 L 934.761719 568.667969 C 896.4375 549.226562 872.171875 528.292969 864.042969 507.386719 C 859.503906 495.714844 859.871094 483.953125 865.140625 472.414062 C 869.695312 462.449219 877.929688 452.445312 887.210938 442.582031 L 905.867188 442.582031 L 905.867188 423.640625 C 914.738281 414.71875 923.519531 405.582031 930.097656 396.488281 C 931.789062 394.148438 933.332031 391.796875 934.761719 389.449219 L 934.761719 386.699219 C 933.03125 389.695312 931.113281 392.6875 928.957031 395.660156 C 922.6875 404.335938 914.355469 413.082031 905.867188 421.640625 L 905.867188 343.382812 C 915.214844 345.171875 924.875 346.695312 934.761719 347.929688 L 934.761719 346.511719 C 924.871094 345.277344 915.210938 343.746094 905.867188 341.953125 Z M 1228.070312 783.734375 L 1226.671875 777.636719 C 1226.179688 775.476562 1224.109375 773.730469 1222.050781 773.730469 L 1221.523438 773.730469 C 1221.523438 773.730469 1221.804688 771.089844 1222.207031 766.195312 C 1224.890625 733.882812 1233.003906 602.164062 1201.601562 465.085938 C 1199.304688 455.078125 1198.792969 445.933594 1199.363281 436.945312 C 1199.351562 437.0625 1199.34375 437.179688 1199.335938 437.292969 L 1239.773438 437.292969 C 1239.65625 436.382812 1239.542969 435.457031 1239.421875 434.519531 L 1199.539062 434.515625 C 1200.671875 421.179688 1204.070312 408.054688 1207.539062 392.84375 C 1210.253906 380.949219 1212.5625 367.515625 1213.183594 354.527344 L 1186.800781 330.613281 C 1186.800781 330.613281 1189.195312 297.410156 1197.460938 274.90625 C 1198.007812 273.417969 1197.019531 271.886719 1195.46875 271.777344 L 1185.953125 271.09375 C 1185.054688 271.027344 1184.164062 271.460938 1183.664062 272.238281 C 1169.839844 293.648438 1165.972656 326.710938 1165.972656 326.710938 L 1127.714844 323.660156 C 1127.714844 323.660156 1131.417969 291.574219 1140.089844 273.644531 C 1141.058594 271.648438 1139.734375 269.417969 1137.554688 269.417969 L 1128.152344 269.417969 C 1127.160156 269.417969 1126.21875 269.957031 1125.695312 270.816406 C 1115.945312 286.769531 1110.371094 299.511719 1109.429688 324.773438 L 1101.089844 329.476562 L 1096.472656 434.5 L 1027.894531 434.492188 L 1027.894531 437.292969 L 1096.351562 437.292969 L 1096.394531 436.253906 L 1081.96875 764.714844 L 1098.433594 765.054688 L 1098.070312 773.722656 L 1096.5 773.722656 C 1094.792969 773.722656 1093.414062 775.128906 1093.355469 776.914062 L 1093.140625 783.734375 C 1093.140625 783.734375 1070.4375 785.929688 1070.835938 806.570312 L 1124.808594 806.570312 C 1124.808594 806.570312 1128.628906 786.832031 1123.902344 776.015625 C 1123.300781 774.636719 1122.007812 773.730469 1120.566406 773.730469 L 1121.792969 773.730469 L 1122.886719 765.558594 L 1149.660156 512.460938 C 1151.253906 512.449219 1150.722656 512.453125 1152.316406 512.4375 L 1182.671875 765.527344 L 1196.691406 765.761719 L 1198.011719 773.730469 L 1198.046875 773.730469 C 1191.992188 783.734375 1197.511719 806.570312 1197.511719 806.570312 L 1247.011719 806.570312 C 1240.527344 788.667969 1228.070312 783.734375 1228.070312 783.734375 Z M 1150.03125 238.929688 C 1151.671875 238.625 1150.125 234.191406 1149.296875 232.101562 C 1149.121094 231.644531 1148.496094 231.597656 1148.246094 232.019531 C 1147.167969 233.761719 1145.039062 237.289062 1144.929688 238.035156 C 1144.777344 239.023438 1147.878906 239.320312 1150.03125 238.929688 Z M 1333.742188 437.292969 C 1333.742188 437.292969 1333.148438 435.839844 1332.582031 434.53125 L 1316.203125 434.53125 L 1316.203125 435.890625 L 1313.390625 435.890625 L 1313.390625 434.53125 L 1266.699219 434.523438 C 1266.761719 435.445312 1266.824219 436.371094 1266.882812 437.292969 Z M 870.902344 559.625 C 870.808594 560.101562 870.710938 560.578125 870.605469 561.050781 C 881.992188 567.027344 892.015625 573.453125 901.722656 579.699219 L 935.515625 601.414062 L 935.515625 599.746094 L 902.480469 578.515625 C 892.648438 572.191406 882.492188 565.679688 870.902344 559.625 Z M 876.074219 584.808594 C 870.449219 584.027344 864.84375 585.414062 860.835938 587.582031 C 860.4375 588.390625 860.023438 589.199219 859.609375 590.007812 C 862.914062 587.65625 868.980469 585.25 875.878906 586.199219 C 880.019531 586.773438 882.355469 588.351562 884.578125 590.054688 L 935.515625 629.132812 L 935.515625 627.363281 L 885.433594 588.9375 C 883.152344 587.191406 880.554688 585.425781 876.074219 584.808594 Z M 902.226562 690.539062 C 902.386719 689.449219 902.566406 688.351562 902.742188 687.253906 C 904.335938 677.359375 905.980469 667.128906 900.433594 657.257812 C 895.90625 649.203125 886.6875 641.671875 877.773438 634.394531 C 873.796875 631.148438 869.6875 627.785156 866.0625 624.441406 C 857.335938 616.378906 852.871094 609.058594 852.792969 602.683594 C 852.792969 602.539062 852.808594 602.398438 852.816406 602.253906 C 852.386719 602.980469 851.949219 603.714844 851.515625 604.445312 C 852.269531 610.832031 856.726562 617.730469 865.109375 625.472656 C 868.765625 628.847656 872.890625 632.21875 876.882812 635.480469 C 885.699219 642.679688 894.808594 650.121094 899.207031 657.949219 C 904.515625 667.390625 902.90625 677.375 901.355469 687.035156 C 901.175781 688.128906 901 689.230469 900.832031 690.328125 C 899.246094 700.753906 898.421875 712.773438 908.761719 723.484375 C 914.640625 729.574219 924.09375 734.695312 935.515625 738.347656 L 935.515625 736.882812 C 924.519531 733.324219 915.429688 728.371094 909.773438 722.511719 C 899.878906 712.261719 900.617188 701.09375 902.226562 690.539062 Z M 919.558594 266.199219 C 919.542969 272.132812 925.425781 277.964844 935.515625 282.230469 L 935.515625 280.707031 C 926.304688 276.707031 920.953125 271.457031 920.96875 266.207031 C 920.984375 260.976562 926.335938 255.746094 935.515625 251.761719 L 935.515625 250.230469 C 925.460938 254.484375 919.578125 260.292969 919.558594 266.199219 Z M 895.09375 268.058594 C 892.453125 262.300781 892.523438 257.058594 895.285156 252.90625 C 896.917969 250.445312 898.917969 248.023438 901.191406 245.636719 C 899.761719 246.523438 898.332031 247.421875 896.949219 248.324219 C 895.933594 249.582031 894.964844 250.847656 894.109375 252.128906 C 891.066406 256.707031 890.960938 262.421875 893.816406 268.644531 C 898.988281 279.90625 914.339844 292.550781 935.515625 298.589844 L 935.515625 297.136719 C 914.960938 291.183594 900.09375 278.953125 895.09375 268.058594 Z M 855.171875 286.125 C 854.878906 286.503906 854.589844 286.886719 854.304688 287.261719 C 857.171875 290.347656 860.535156 293.265625 864.433594 296 C 880.683594 307.375 907.027344 315.664062 935.515625 318.464844 L 935.515625 317.050781 C 907.316406 314.261719 881.277344 306.074219 865.246094 294.84375 C 861.355469 292.121094 858.011719 289.210938 855.171875 286.125 Z M 910.328125 489.046875 C 905.519531 507.292969 914.46875 526.285156 935.515625 542.609375 L 935.515625 540.824219 C 915.558594 525.023438 907.101562 506.820312 911.6875 489.402344 C 914.601562 478.335938 922.816406 467.371094 935.515625 457.273438 L 935.515625 455.492188 C 922.078125 465.980469 913.382812 477.441406 910.328125 489.046875 Z M 857.644531 785.367188 L 853.566406 785.246094 C 838.488281 784.792969 820.859375 783.960938 804.378906 781.277344 C 794.5625 779.6875 786.035156 777.523438 779.246094 774.960938 C 779.121094 775.414062 778.988281 775.867188 778.867188 776.316406 C 785.742188 778.898438 794.316406 781.070312 804.15625 782.667969 C 820.714844 785.359375 838.398438 786.195312 853.523438 786.65625 L 857.601562 786.777344 C 868.855469 787.09375 880.492188 787.429688 890.925781 789.148438 C 908.839844 792.089844 920.382812 798.414062 930.476562 805.679688 C 931.382812 805.675781 932.179688 805.671875 932.847656 805.671875 C 922.234375 797.828125 910.285156 790.90625 891.152344 787.761719 C 880.625 786.027344 868.945312 785.691406 857.644531 785.367188 Z M 787.246094 796.441406 C 783.351562 794.617188 779.359375 792.765625 774.796875 791.179688 C 774.679688 791.636719 774.550781 792.09375 774.4375 792.539062 C 778.898438 794.101562 782.824219 795.921875 786.652344 797.714844 C 788.339844 798.503906 790.027344 799.292969 791.75 800.058594 C 797.460938 802.585938 803.742188 804.894531 810.472656 806.957031 C 812.019531 806.933594 813.585938 806.90625 815.175781 806.878906 C 806.851562 804.523438 799.179688 801.8125 792.320312 798.777344 C 790.601562 798.011719 788.925781 797.226562 787.246094 796.441406 Z M 863.039062 765.761719 C 857.125 765.199219 851.003906 764.625 845.089844 763.929688 C 825.832031 761.660156 812.6875 758.414062 804.898438 753.992188 C 795.847656 748.855469 793.605469 742.019531 797.847656 732.472656 C 798.644531 730.6875 799.59375 728.867188 800.515625 727.101562 C 803.558594 721.261719 806.707031 715.214844 805.078125 709.082031 C 804.789062 708.015625 803.898438 705.960938 801.175781 704.554688 C 801.015625 705.003906 800.859375 705.449219 800.703125 705.898438 C 802.804688 707.050781 803.496094 708.609375 803.714844 709.445312 C 805.207031 715.046875 802.320312 720.589844 799.261719 726.453125 C 798.335938 728.238281 797.375 730.082031 796.5625 731.902344 C 792.03125 742.101562 794.53125 749.726562 804.203125 755.21875 C 812.160156 759.730469 825.476562 763.039062 844.921875 765.328125 C 850.855469 766.023438 856.984375 766.597656 862.910156 767.164062 C 872.582031 768.074219 882.574219 769.023438 891.925781 770.5 C 909.316406 773.253906 924.441406 777.949219 935.515625 783.78125 L 935.515625 782.222656 C 924.335938 776.457031 909.316406 771.828125 892.144531 769.113281 C 882.753906 767.625 872.730469 766.675781 863.039062 765.761719 Z M 828.257812 731.316406 C 820.34375 718.941406 827.902344 706.53125 835.90625 693.398438 C 839.804688 687 843.835938 680.382812 845.859375 673.8125 C 850.511719 658.6875 844.550781 643.570312 836.492188 628.761719 C 836.203125 629.222656 835.921875 629.679688 835.636719 630.140625 C 843.347656 644.460938 848.933594 659.019531 844.511719 673.398438 C 842.546875 679.800781 838.5625 686.339844 834.707031 692.667969 C 826.828125 705.59375 818.679688 718.960938 827.074219 732.078125 C 834.828125 744.191406 857.4375 755.089844 887.550781 761.238281 C 902.199219 764.226562 918.492188 766.132812 935.515625 766.914062 L 935.515625 765.503906 C 918.589844 764.71875 902.390625 762.828125 887.835938 759.859375 C 858.078125 753.789062 835.8125 743.117188 828.257812 731.316406 Z M 1259.992188 273.078125 C 1259.667969 272.871094 1259.234375 272.964844 1259.019531 273.289062 L 1253.503906 281.828125 C 1253.292969 282.152344 1253.386719 282.585938 1253.710938 282.800781 C 1253.832031 282.875 1253.964844 282.910156 1254.09375 282.910156 C 1254.324219 282.910156 1254.550781 282.796875 1254.6875 282.59375 L 1260.203125 274.054688 C 1260.414062 273.726562 1260.316406 273.292969 1259.992188 273.078125 Z M 1281.765625 239.394531 C 1281.878906 239.46875 1282.015625 239.503906 1282.148438 239.503906 C 1282.378906 239.503906 1282.601562 239.394531 1282.738281 239.183594 L 1286.316406 233.644531 C 1286.527344 233.320312 1286.433594 232.882812 1286.105469 232.671875 C 1285.78125 232.460938 1285.347656 232.558594 1285.136719 232.882812 L 1281.554688 238.421875 C 1281.34375 238.746094 1281.441406 239.183594 1281.765625 239.394531 Z M 1245.042969 242.519531 L 1253.585938 248.03125 C 1253.703125 248.113281 1253.832031 248.148438 1253.96875 248.148438 C 1254.195312 248.148438 1254.417969 248.03125 1254.554688 247.824219 C 1254.769531 247.5 1254.671875 247.0625 1254.347656 246.855469 L 1245.808594 241.34375 C 1245.476562 241.132812 1245.042969 241.222656 1244.832031 241.550781 C 1244.617188 241.875 1244.71875 242.3125 1245.042969 242.519531 Z M 1286.238281 267.441406 C 1285.914062 267.230469 1285.476562 267.320312 1285.265625 267.648438 C 1285.054688 267.976562 1285.148438 268.410156 1285.472656 268.617188 L 1294.011719 274.132812 C 1294.132812 274.210938 1294.261719 274.246094 1294.394531 274.246094 C 1294.625 274.246094 1294.851562 274.132812 1294.988281 273.921875 C 1295.199219 273.597656 1295.101562 273.164062 1294.777344 272.953125 Z M 1285.136719 282.59375 C 1285.269531 282.796875 1285.496094 282.910156 1285.726562 282.910156 C 1285.855469 282.910156 1285.992188 282.875 1286.105469 282.800781 C 1286.433594 282.585938 1286.527344 282.152344 1286.316406 281.828125 L 1280.800781 273.289062 C 1280.589844 272.964844 1280.152344 272.875 1279.824219 273.078125 C 1279.5 273.292969 1279.40625 273.726562 1279.617188 274.054688 Z M 1257.085938 239.183594 C 1257.21875 239.394531 1257.441406 239.503906 1257.671875 239.503906 C 1257.804688 239.503906 1257.941406 239.46875 1258.054688 239.394531 C 1258.386719 239.183594 1258.472656 238.746094 1258.265625 238.421875 L 1254.6875 232.882812 C 1254.476562 232.558594 1254.035156 232.46875 1253.710938 232.671875 C 1253.386719 232.882812 1253.292969 233.320312 1253.503906 233.644531 Z M 1285.265625 247.824219 C 1285.398438 248.03125 1285.625 248.148438 1285.855469 248.148438 C 1285.988281 248.148438 1286.117188 248.113281 1286.238281 248.03125 L 1294.777344 242.519531 C 1295.101562 242.3125 1295.199219 241.875 1294.988281 241.550781 C 1294.777344 241.222656 1294.34375 241.132812 1294.011719 241.34375 L 1285.472656 246.855469 C 1285.148438 247.0625 1285.054688 247.5 1285.265625 247.824219 Z M 1253.585938 267.441406 L 1245.042969 272.953125 C 1244.71875 273.164062 1244.617188 273.597656 1244.832031 273.921875 C 1244.96875 274.132812 1245.195312 274.246094 1245.425781 274.246094 C 1245.554688 274.246094 1245.6875 274.210938 1245.808594 274.132812 L 1254.347656 268.617188 C 1254.671875 268.410156 1254.769531 267.976562 1254.554688 267.648438 C 1254.347656 267.320312 1253.910156 267.230469 1253.585938 267.441406 Z M 1288.1875 257.734375 C 1288.1875 258.125 1288.5 258.441406 1288.894531 258.441406 L 1299.0625 258.441406 C 1299.449219 258.441406 1299.765625 258.125 1299.765625 257.734375 C 1299.765625 257.347656 1299.449219 257.03125 1299.0625 257.03125 L 1288.894531 257.03125 C 1288.5 257.03125 1288.1875 257.347656 1288.1875 257.734375 Z M 1240.757812 258.441406 L 1250.929688 258.441406 C 1251.316406 258.441406 1251.632812 258.125 1251.632812 257.734375 C 1251.632812 257.347656 1251.316406 257.03125 1250.929688 257.03125 L 1240.757812 257.03125 C 1240.371094 257.03125 1240.054688 257.347656 1240.054688 257.734375 C 1240.054688 258.125 1240.371094 258.441406 1240.757812 258.441406 Z M 1269.910156 287.570312 C 1270.296875 287.570312 1270.613281 287.257812 1270.613281 286.871094 L 1270.613281 276.707031 C 1270.613281 276.320312 1270.296875 276.007812 1269.910156 276.007812 C 1269.523438 276.007812 1269.207031 276.320312 1269.207031 276.707031 L 1269.207031 286.871094 C 1269.207031 287.257812 1269.523438 287.570312 1269.910156 287.570312 Z M 1359.152344 680.296875 C 1359.152344 676.613281 1356.160156 673.617188 1352.46875 673.617188 C 1348.78125 673.617188 1345.785156 676.613281 1345.785156 680.296875 C 1345.785156 683.988281 1348.78125 686.976562 1352.46875 686.976562 C 1356.160156 686.976562 1359.152344 683.988281 1359.152344 680.296875 Z M 1326.753906 680.296875 C 1326.753906 676.613281 1323.761719 673.617188 1320.066406 673.617188 C 1316.375 673.617188 1313.382812 676.613281 1313.382812 680.296875 C 1313.382812 683.988281 1316.375 686.976562 1320.066406 686.976562 C 1323.761719 686.976562 1326.753906 683.988281 1326.753906 680.296875 Z M 1294.347656 680.296875 C 1294.347656 676.613281 1291.355469 673.617188 1287.664062 673.617188 C 1283.976562 673.617188 1280.980469 676.613281 1280.980469 680.296875 C 1280.980469 683.988281 1283.976562 686.976562 1287.664062 686.976562 C 1291.355469 686.976562 1294.347656 683.988281 1294.347656 680.296875 Z M 1373.300781 704.871094 L 1266.828125 704.871094 C 1261.554688 704.871094 1257.273438 700.601562 1257.273438 695.324219 L 1257.273438 665.273438 C 1257.273438 660 1261.554688 655.722656 1266.828125 655.722656 L 1373.300781 655.722656 C 1378.582031 655.722656 1382.855469 660 1382.855469 665.273438 L 1382.855469 695.324219 C 1382.855469 700.601562 1378.582031 704.871094 1373.300781 704.871094 Z M 1282.757812 745.042969 C 1282.757812 750.75 1287.390625 755.375 1293.09375 755.375 C 1298.804688 755.375 1303.4375 750.75 1303.4375 745.042969 C 1303.4375 739.339844 1298.804688 734.714844 1293.09375 734.714844 C 1287.390625 734.714844 1282.757812 739.339844 1282.757812 745.042969 Z M 1257.273438 722.472656 L 1325.5 722.472656 L 1325.5 771.628906 L 1257.273438 771.628906 Z M 1394.78125 751.367188 L 1402.679688 751.367188 L 1402.679688 748.558594 L 1394.78125 748.558594 Z M 1394.78125 743.636719 L 1394.78125 746.453125 L 1402.679688 746.453125 L 1402.679688 743.636719 Z M 1376.089844 751.367188 L 1383.992188 751.367188 L 1383.992188 748.558594 L 1376.089844 748.558594 Z M 1376.089844 746.453125 L 1383.992188 746.453125 L 1383.992188 743.636719 L 1376.089844 743.636719 Z M 1357.402344 751.367188 L 1365.308594 751.367188 L 1365.308594 748.558594 L 1357.402344 748.558594 Z M 1357.402344 746.453125 L 1365.308594 746.453125 L 1365.308594 743.636719 L 1357.402344 743.636719 Z M 988.871094 223.515625 C 988.871094 223.515625 986.800781 222.898438 986.078125 222.652344 L 986.035156 434.484375 L 978.320312 434.484375 L 978.320312 364.785156 L 978.152344 364.785156 L 978.152344 356.4375 L 985.804688 356.4375 L 985.804688 348.09375 L 978.320312 348.09375 L 978.320312 322.167969 L 978.152344 322.167969 L 978.152344 313.828125 L 985.804688 313.828125 L 985.804688 305.480469 L 978.320312 305.480469 L 978.324219 279.554688 L 978.152344 279.554688 L 978.152344 271.210938 L 985.804688 271.210938 L 985.804688 262.863281 L 978.324219 262.863281 L 978.324219 220.902344 L 975.558594 220.484375 L 975.507812 437.292969 L 1002.3125 437.292969 L 1002.3125 434.488281 L 988.847656 434.484375 Z M 1023.753906 441.242188 C 1022.433594 441.242188 1021.351562 442.210938 1021.15625 443.472656 C 1021.132812 443.609375 1021.113281 443.746094 1021.113281 443.886719 C 1021.113281 444.0625 1021.128906 444.238281 1021.164062 444.402344 C 1021.179688 444.476562 1021.207031 444.550781 1021.226562 444.625 C 1021.253906 444.714844 1021.273438 444.800781 1021.3125 444.886719 C 1021.351562 444.980469 1021.40625 445.074219 1021.457031 445.167969 C 1021.484375 445.214844 1021.511719 445.269531 1021.535156 445.316406 C 1021.609375 445.425781 1021.695312 445.53125 1021.78125 445.628906 C 1021.804688 445.648438 1021.820312 445.671875 1021.835938 445.691406 C 1021.941406 445.800781 1022.0625 445.90625 1022.1875 445.996094 C 1022.1875 446 1022.191406 446 1022.191406 446.007812 C 1022.585938 446.289062 1023.054688 446.472656 1023.570312 446.503906 C 1023.632812 446.507812 1023.691406 446.523438 1023.753906 446.523438 C 1023.816406 446.523438 1023.875 446.507812 1023.929688 446.503906 C 1024.445312 446.472656 1024.921875 446.289062 1025.3125 446.007812 C 1025.3125 446.007812 1025.3125 446 1025.320312 446 C 1025.445312 445.90625 1025.558594 445.800781 1025.671875 445.691406 C 1025.6875 445.671875 1025.703125 445.648438 1025.71875 445.632812 C 1025.804688 445.535156 1025.890625 445.425781 1025.96875 445.316406 C 1025.996094 445.269531 1026.015625 445.222656 1026.046875 445.171875 C 1026.097656 445.078125 1026.152344 444.984375 1026.195312 444.886719 C 1026.230469 444.800781 1026.25 444.707031 1026.277344 444.617188 C 1026.296875 444.546875 1026.324219 444.476562 1026.339844 444.402344 C 1026.378906 444.238281 1026.394531 444.0625 1026.394531 443.886719 C 1026.394531 443.746094 1026.371094 443.609375 1026.351562 443.472656 C 1026.152344 442.210938 1025.066406 441.242188 1023.753906 441.242188 Z M 1015.105469 441.242188 C 1013.789062 441.242188 1012.703125 442.214844 1012.503906 443.472656 C 1012.484375 443.609375 1012.464844 443.746094 1012.464844 443.886719 C 1012.464844 444.0625 1012.484375 444.238281 1012.515625 444.402344 C 1012.53125 444.476562 1012.558594 444.546875 1012.578125 444.617188 C 1012.605469 444.707031 1012.632812 444.796875 1012.664062 444.878906 C 1012.703125 444.980469 1012.757812 445.070312 1012.808594 445.164062 C 1012.835938 445.210938 1012.855469 445.261719 1012.886719 445.308594 C 1012.960938 445.417969 1013.046875 445.523438 1013.128906 445.617188 C 1013.148438 445.640625 1013.164062 445.664062 1013.1875 445.6875 C 1013.292969 445.796875 1013.40625 445.894531 1013.527344 445.984375 C 1013.53125 445.992188 1013.53125 445.996094 1013.539062 446 C 1013.925781 446.285156 1014.398438 446.46875 1014.90625 446.503906 C 1014.972656 446.507812 1015.035156 446.523438 1015.105469 446.523438 C 1015.171875 446.523438 1015.234375 446.507812 1015.304688 446.503906 C 1015.8125 446.46875 1016.28125 446.285156 1016.671875 446 C 1016.675781 445.996094 1016.679688 445.992188 1016.6875 445.984375 C 1016.804688 445.894531 1016.921875 445.796875 1017.027344 445.6875 C 1017.046875 445.664062 1017.058594 445.644531 1017.078125 445.625 C 1017.167969 445.523438 1017.246094 445.417969 1017.320312 445.308594 C 1017.351562 445.261719 1017.378906 445.210938 1017.402344 445.164062 C 1017.457031 445.070312 1017.507812 444.980469 1017.550781 444.878906 C 1017.582031 444.796875 1017.601562 444.703125 1017.628906 444.617188 C 1017.648438 444.546875 1017.679688 444.476562 1017.691406 444.402344 C 1017.726562 444.238281 1017.746094 444.0625 1017.746094 443.886719 C 1017.746094 442.425781 1016.566406 441.242188 1015.105469 441.242188 Z M 1009.058594 443.472656 C 1009.078125 443.609375 1009.09375 443.746094 1009.09375 443.886719 C 1009.09375 444.0625 1009.078125 444.238281 1009.046875 444.398438 C 1009.03125 444.472656 1009.007812 444.546875 1008.980469 444.613281 C 1008.960938 444.703125 1008.9375 444.796875 1008.902344 444.878906 C 1008.859375 444.976562 1008.808594 445.0625 1008.761719 445.152344 C 1008.730469 445.207031 1008.707031 445.257812 1008.675781 445.308594 C 1008.609375 445.414062 1008.523438 445.515625 1008.441406 445.609375 C 1008.417969 445.632812 1008.402344 445.660156 1008.382812 445.679688 C 1008.277344 445.792969 1008.167969 445.886719 1008.054688 445.976562 C 1008.042969 445.980469 1008.039062 445.992188 1008.027344 445.996094 C 1007.644531 446.277344 1007.179688 446.460938 1006.671875 446.503906 C 1006.601562 446.507812 1006.535156 446.523438 1006.460938 446.523438 C 1006.386719 446.523438 1006.3125 446.507812 1006.242188 446.503906 C 1005.738281 446.460938 1005.269531 446.277344 1004.882812 445.996094 C 1004.878906 445.992188 1004.875 445.980469 1004.863281 445.976562 C 1004.746094 445.886719 1004.636719 445.792969 1004.53125 445.679688 C 1004.511719 445.660156 1004.496094 445.632812 1004.476562 445.609375 C 1004.390625 445.515625 1004.308594 445.414062 1004.238281 445.308594 C 1004.207031 445.257812 1004.183594 445.199219 1004.15625 445.148438 C 1004.101562 445.0625 1004.054688 444.976562 1004.015625 444.878906 C 1003.976562 444.792969 1003.957031 444.699219 1003.929688 444.609375 C 1003.910156 444.539062 1003.882812 444.472656 1003.867188 444.402344 C 1003.835938 444.238281 1003.816406 444.0625 1003.816406 443.886719 C 1003.816406 443.746094 1003.835938 443.609375 1003.855469 443.476562 C 1004.054688 442.214844 1005.140625 441.242188 1006.460938 441.242188 C 1007.773438 441.242188 1008.859375 442.214844 1009.058594 443.472656 " fill-opacity="1" fill-rule="nonzero"/><path fill="#ffffff" d="M 864.628906 394.40625 L 857.277344 396.375 L 867.015625 376.472656 L 865.445312 388.683594 L 872.800781 386.71875 L 863.054688 406.621094 Z M 818.863281 448.933594 C 818.863281 450.609375 817.507812 451.964844 815.832031 451.964844 C 814.160156 451.964844 812.804688 450.609375 812.804688 448.933594 C 812.804688 447.257812 814.160156 445.902344 815.832031 445.902344 C 817.507812 445.902344 818.863281 447.257812 818.863281 448.933594 Z M 818.863281 328.820312 C 818.863281 330.492188 817.507812 331.851562 815.832031 331.851562 C 814.160156 331.851562 812.804688 330.492188 812.804688 328.820312 C 812.804688 327.144531 814.160156 325.789062 815.832031 325.789062 C 817.507812 325.789062 818.863281 327.144531 818.863281 328.820312 Z M 915.640625 448.933594 C 915.640625 450.609375 914.285156 451.964844 912.613281 451.964844 C 910.9375 451.964844 909.578125 450.609375 909.578125 448.933594 C 909.578125 447.257812 910.9375 445.902344 912.613281 445.902344 C 914.285156 445.902344 915.640625 447.257812 915.640625 448.933594 Z M 915.640625 328.820312 C 915.640625 330.492188 914.285156 331.851562 912.613281 331.851562 C 910.9375 331.851562 909.578125 330.492188 909.578125 328.820312 C 909.578125 327.144531 910.9375 325.789062 912.613281 325.789062 C 914.285156 325.789062 915.640625 327.144531 915.640625 328.820312 Z M 826.523438 339.507812 L 901.921875 339.507812 L 901.921875 438.246094 L 826.523438 438.246094 Z M 825.121094 439.65625 L 903.324219 439.65625 L 903.324219 338.097656 L 825.121094 338.097656 Z M 1244.757812 801.640625 C 1244.757812 802.414062 1244.132812 803.042969 1243.355469 803.042969 L 1195.835938 803.042969 C 1195.0625 803.042969 1194.433594 802.414062 1194.433594 801.640625 C 1194.433594 800.859375 1195.0625 800.230469 1195.835938 800.230469 L 1243.355469 800.230469 C 1244.132812 800.230469 1244.757812 800.859375 1244.757812 801.640625 Z M 1126.273438 801.640625 C 1126.273438 802.414062 1125.648438 803.042969 1124.867188 803.042969 L 1070.699219 803.042969 C 1069.917969 803.042969 1069.289062 802.414062 1069.289062 801.640625 C 1069.289062 800.859375 1069.917969 800.230469 1070.699219 800.230469 L 1124.867188 800.230469 C 1125.648438 800.230469 1126.273438 800.859375 1126.273438 801.640625 Z M 1119.046875 347.59375 L 1171.015625 350.882812 L 1167.242188 393.929688 C 1160.070312 396.640625 1142.074219 403.066406 1138.664062 402.671875 C 1134.175781 402.175781 1116.964844 388.53125 1116.402344 386.589844 C 1115.929688 384.941406 1117.746094 362.09375 1119.046875 347.59375 Z M 1138.507812 404.070312 C 1138.632812 404.085938 1138.769531 404.089844 1138.921875 404.089844 C 1144.390625 404.089844 1167.160156 395.46875 1168.152344 395.085938 L 1168.566406 394.933594 L 1172.546875 349.570312 L 1117.769531 346.101562 L 1117.707031 346.785156 C 1117.359375 350.640625 1114.335938 384.535156 1115.050781 386.980469 C 1115.871094 389.808594 1133.9375 403.5625 1138.507812 404.070312 Z M 1188.335938 445.699219 L 1198.320312 446.0625 L 1199.875 446.121094 L 1199.875 454.894531 L 1198.828125 454.859375 L 1181.210938 454.214844 L 1180.796875 448.769531 L 1180.539062 445.414062 Z M 1200.160156 463.640625 L 1147.03125 469.132812 L 1093.109375 493.230469 L 1091.585938 527.941406 L 1072.988281 518.125 C 1071.039062 517.09375 1070.003906 514.90625 1070.445312 512.746094 L 1073.359375 498.398438 L 1070.25 497.203125 C 1068.042969 496.351562 1067.027344 493.800781 1068.054688 491.667969 L 1075.382812 476.386719 L 1077.773438 476.691406 L 1078.632812 472.457031 C 1078.957031 470.871094 1080.03125 469.539062 1081.507812 468.894531 L 1094.425781 463.25 L 1198.882812 455.394531 L 1199.980469 455.308594 C 1200.710938 455.257812 1201.359375 455.777344 1201.464844 456.496094 L 1202.253906 461.96875 C 1202.371094 462.75 1201.808594 463.464844 1201.023438 463.550781 Z M 1095.34375 442.308594 L 1109.605469 442.832031 L 1108.941406 451.582031 L 1095.34375 451.089844 Z M 1074.519531 317.621094 L 1068.988281 281.335938 L 1123.804688 274.195312 C 1123.445312 274.726562 1122.769531 275.972656 1122.769531 275.726562 C 1122.269531 276.582031 1121.78125 277.425781 1121.304688 278.269531 C 1121.117188 278.609375 1120.9375 278.941406 1120.75 279.277344 C 1120.476562 279.777344 1120.199219 280.277344 1119.929688 280.777344 C 1119.699219 281.203125 1119.480469 281.628906 1119.253906 282.0625 C 1119.046875 282.460938 1118.835938 282.859375 1118.636719 283.257812 C 1118.390625 283.742188 1118.15625 284.230469 1117.921875 284.71875 C 1117.753906 285.058594 1117.589844 285.394531 1117.425781 285.734375 C 1117.175781 286.265625 1116.929688 286.808594 1116.6875 287.347656 C 1116.558594 287.632812 1116.433594 287.917969 1116.304688 288.203125 C 1116.050781 288.796875 1115.796875 289.382812 1115.550781 289.980469 C 1115.457031 290.210938 1115.363281 290.445312 1115.269531 290.675781 C 1115.007812 291.332031 1114.757812 291.984375 1114.507812 292.644531 C 1114.445312 292.800781 1114.394531 292.964844 1114.335938 293.121094 C 1114.0625 293.859375 1113.796875 294.609375 1113.546875 295.367188 C 1113.539062 295.386719 1113.535156 295.410156 1113.53125 295.425781 C 1111.21875 302.375 1109.683594 310.128906 1108.945312 319.816406 C 1108.792969 321.863281 1108.660156 323.972656 1108.574219 326.207031 L 1107.273438 326.941406 C 1107.363281 324.5 1107.496094 322.097656 1107.65625 319.730469 Z M 1188.351562 311.527344 C 1188.90625 307.8125 1189.582031 303.8125 1190.382812 299.722656 C 1190.382812 299.71875 1190.390625 299.710938 1190.390625 299.707031 C 1190.71875 298.003906 1191.074219 296.289062 1191.457031 294.570312 C 1191.824219 292.910156 1192.21875 291.25 1192.625 289.601562 C 1192.65625 289.472656 1192.6875 289.339844 1192.726562 289.214844 C 1193.117188 287.648438 1193.53125 286.101562 1193.96875 284.570312 C 1194.003906 284.445312 1194.039062 284.308594 1194.078125 284.183594 C 1194.542969 282.5625 1195.03125 280.964844 1195.550781 279.414062 C 1195.832031 278.550781 1196.128906 277.710938 1196.429688 276.875 C 1208.636719 277.535156 1224.621094 279.988281 1229.234375 288.140625 C 1236.984375 301.847656 1249.253906 350.632812 1249.253906 350.632812 L 1213.820312 360.296875 L 1210.863281 354.621094 L 1185.953125 332.046875 C 1185.953125 332.046875 1186.589844 323.199219 1188.347656 311.542969 L 1188.335938 311.527344 Z M 1114.460938 451.785156 L 1115.132812 443.03125 L 1118.101562 443.140625 L 1174.984375 445.214844 L 1175.660156 454.011719 Z M 1165.125 328.144531 L 1126.867188 325.09375 C 1126.867188 325.09375 1127.046875 323.566406 1127.40625 320.988281 C 1127.410156 320.984375 1127.410156 320.984375 1127.410156 320.976562 C 1127.832031 318.003906 1128.507812 313.636719 1129.457031 308.617188 C 1129.457031 308.605469 1129.460938 308.601562 1129.460938 308.589844 C 1131.371094 298.472656 1134.390625 285.710938 1138.667969 276.308594 L 1133.613281 274.132812 L 1138.289062 264.617188 L 1146.773438 263.09375 L 1148.472656 273.171875 C 1149.445312 273.214844 1150.445312 273.261719 1151.457031 273.316406 L 1157.367188 264.617188 L 1183.363281 259.855469 L 1189.671875 270.855469 L 1183.363281 274.6875 L 1180.875 276.894531 C 1168.632812 298.242188 1165.125 328.144531 1165.125 328.144531 Z M 1313.945312 553.433594 L 1313.945312 565.203125 L 1195.664062 565.203125 L 1195.664062 553.433594 L 1202.296875 553.433594 L 1209.453125 524.652344 L 1300.160156 524.652344 L 1307.3125 553.433594 Z M 1296.257812 606.199219 L 1269.867188 606.199219 L 1274.777344 569.960938 L 1302.179688 569.960938 Z M 1303.007812 568.550781 L 1274.164062 568.550781 C 1273.8125 568.550781 1273.515625 568.8125 1273.464844 569.164062 L 1268.363281 606.8125 C 1268.339844 607.011719 1268.394531 607.214844 1268.527344 607.367188 C 1268.664062 607.519531 1268.855469 607.609375 1269.0625 607.609375 L 1296.855469 607.609375 C 1297.195312 607.609375 1297.496094 607.359375 1297.546875 607.015625 L 1303.699219 569.367188 C 1303.730469 569.164062 1303.671875 568.960938 1303.539062 568.804688 C 1303.410156 568.648438 1303.210938 568.550781 1303.007812 568.550781 Z M 984.953125 366.21875 L 977.304688 366.21875 L 977.304688 349.53125 L 984.953125 349.53125 Z M 995.183594 344.621094 L 967.070312 344.621094 L 967.070312 372.714844 L 995.183594 372.714844 Z M 984.953125 323.605469 L 977.304688 323.605469 L 977.304688 306.914062 L 984.953125 306.914062 Z M 995.183594 302.011719 L 967.070312 302.011719 L 967.070312 330.105469 L 995.183594 330.105469 Z M 984.953125 280.988281 L 977.304688 280.988281 L 977.304688 264.300781 L 984.953125 264.300781 Z M 995.183594 259.394531 L 967.070312 259.394531 L 967.070312 287.488281 L 995.183594 287.488281 Z M 1025.359375 445.320312 C 1025.359375 445.484375 1025.34375 445.644531 1025.3125 445.800781 C 1025.308594 445.828125 1025.296875 445.855469 1025.292969 445.875 C 1025.261719 446.007812 1025.226562 446.132812 1025.175781 446.253906 C 1025.15625 446.300781 1025.125 446.339844 1025.105469 446.394531 C 1025.0625 446.476562 1025.019531 446.570312 1024.960938 446.648438 C 1024.894531 446.761719 1024.816406 446.859375 1024.730469 446.953125 C 1024.714844 446.96875 1024.707031 446.984375 1024.691406 447 C 1024.683594 447 1024.683594 447 1024.683594 447 C 1024.601562 447.089844 1024.507812 447.171875 1024.40625 447.246094 C 1024.390625 447.261719 1024.375 447.277344 1024.359375 447.292969 C 1024.199219 447.410156 1024.007812 447.503906 1023.820312 447.582031 C 1023.773438 447.597656 1023.726562 447.617188 1023.679688 447.628906 C 1023.484375 447.695312 1023.28125 447.75 1023.066406 447.761719 L 1022.738281 447.761719 C 1021.457031 447.675781 1020.441406 446.617188 1020.441406 445.320312 C 1020.441406 445.191406 1020.464844 445.0625 1020.484375 444.9375 C 1020.667969 443.765625 1021.679688 442.859375 1022.902344 442.859375 C 1024.128906 442.859375 1025.140625 443.765625 1025.324219 444.9375 C 1025.34375 445.0625 1025.359375 445.191406 1025.359375 445.320312 Z M 1014.433594 447.761719 L 1014.078125 447.761719 C 1012.804688 447.664062 1011.796875 446.617188 1011.796875 445.320312 C 1011.796875 445.191406 1011.8125 445.0625 1011.835938 444.9375 C 1012.019531 443.765625 1013.03125 442.859375 1014.253906 442.859375 C 1015.488281 442.859375 1016.492188 443.765625 1016.675781 444.9375 C 1016.695312 445.0625 1016.71875 445.191406 1016.71875 445.320312 C 1016.71875 446.617188 1015.707031 447.664062 1014.433594 447.761719 Z M 1005.804688 447.761719 L 1005.414062 447.761719 C 1005.199219 447.738281 1005 447.6875 1004.804688 447.625 C 1004.757812 447.609375 1004.710938 447.585938 1004.667969 447.570312 C 1004.480469 447.492188 1004.300781 447.402344 1004.144531 447.285156 C 1004.097656 447.253906 1004.0625 447.210938 1004.019531 447.171875 C 1003.945312 447.117188 1003.878906 447.058594 1003.816406 446.996094 C 1003.800781 446.976562 1003.777344 446.949219 1003.761719 446.925781 C 1003.761719 446.925781 1003.761719 446.925781 1003.757812 446.925781 C 1003.730469 446.894531 1003.710938 446.863281 1003.683594 446.832031 C 1003.488281 446.585938 1003.34375 446.308594 1003.253906 446 C 1003.253906 446 1003.253906 445.996094 1003.253906 445.996094 C 1003.25 445.980469 1003.25 445.96875 1003.242188 445.960938 C 1003.226562 445.90625 1003.207031 445.855469 1003.195312 445.800781 C 1003.164062 445.644531 1003.148438 445.484375 1003.148438 445.320312 C 1003.148438 445.191406 1003.164062 445.0625 1003.1875 444.9375 C 1003.371094 443.765625 1004.378906 442.859375 1005.605469 442.859375 C 1006.835938 442.859375 1007.84375 443.765625 1008.027344 444.9375 C 1008.046875 445.0625 1008.070312 445.191406 1008.070312 445.320312 C 1008.070312 446.613281 1007.066406 447.65625 1005.804688 447.761719 Z M 1029.097656 420.375 L 999.414062 420.375 C 997.078125 420.375 995.183594 422.269531 995.183594 424.605469 L 995.183594 461.121094 C 995.183594 463.457031 997.078125 465.351562 999.414062 465.351562 L 1029.097656 465.351562 C 1031.433594 465.351562 1033.328125 463.457031 1033.328125 461.121094 L 1033.328125 424.605469 C 1033.328125 422.269531 1031.433594 420.375 1029.097656 420.375 " fill-opacity="1" fill-rule="nonzero"/><g clip-path="url(#8b0873b97b)"><path fill="#151e34" d="M 1160.90625 361.738281 C 1161.503906 359.800781 1159.71875 346.238281 1156.4375 345.792969 C 1153.160156 345.34375 1147.636719 342.21875 1145.40625 341.769531 C 1143.167969 341.324219 1136.789062 347.234375 1136.789062 347.234375 C 1136.789062 347.234375 1138.542969 349.070312 1138.398438 350.414062 C 1138.246094 351.753906 1134.671875 356.222656 1133.625 360.339844 C 1132.582031 364.453125 1138.996094 362.777344 1141.078125 360.339844 C 1143.167969 357.898438 1145.253906 352.800781 1145.253906 352.800781 C 1145.253906 352.800781 1145.253906 355.925781 1143.613281 360.339844 C 1141.976562 364.753906 1143.761719 369.785156 1146.449219 369.636719 C 1149.132812 369.484375 1148.832031 366.355469 1150.472656 363.710938 C 1152.113281 361.066406 1151.667969 351.605469 1151.667969 351.605469 C 1151.667969 351.605469 1153.605469 360.695312 1155.691406 362.632812 C 1157.78125 364.570312 1160.316406 363.671875 1160.90625 361.738281 Z M 867.015625 376.472656 L 857.277344 396.375 L 864.628906 394.40625 L 863.054688 406.621094 L 872.800781 386.71875 L 865.445312 388.683594 Z M 826.441406 438.226562 L 826.523438 438.226562 L 826.523438 438.246094 L 827.601562 438.246094 L 827.601562 438.226562 L 827.6875 438.226562 L 827.6875 340.578125 L 901.921875 340.578125 L 901.921875 340.570312 L 901.980469 340.570312 L 901.980469 339.324219 C 901.921875 339.382812 826.441406 339.445312 826.441406 339.445312 Z M 905.765625 442.507812 L 905.765625 340.578125 L 903.324219 340.578125 L 903.324219 338.097656 L 825.121094 338.097656 L 825.121094 439.65625 L 827.601562 439.65625 L 827.601562 442.507812 Z M 818.863281 328.820312 C 818.863281 327.144531 817.507812 325.789062 815.832031 325.789062 C 814.160156 325.789062 812.804688 327.144531 812.804688 328.820312 C 812.804688 330.492188 814.160156 331.851562 815.832031 331.851562 C 817.507812 331.851562 818.863281 330.492188 818.863281 328.820312 Z M 818.863281 448.933594 C 818.863281 447.257812 817.507812 445.902344 815.832031 445.902344 C 814.160156 445.902344 812.804688 447.257812 812.804688 448.933594 C 812.804688 450.609375 814.160156 451.964844 815.832031 451.964844 C 817.507812 451.964844 818.863281 450.609375 818.863281 448.933594 Z M 909.578125 448.933594 C 909.578125 450.609375 910.9375 451.964844 912.613281 451.964844 C 914.285156 451.964844 915.640625 450.609375 915.640625 448.933594 C 915.640625 447.257812 914.285156 445.902344 912.613281 445.902344 C 910.9375 445.902344 909.578125 447.257812 909.578125 448.933594 Z M 909.578125 328.820312 C 909.578125 330.492188 910.9375 331.851562 912.613281 331.851562 C 914.285156 331.851562 915.640625 330.492188 915.640625 328.820312 C 915.640625 327.144531 914.285156 325.789062 912.613281 325.789062 C 910.9375 325.789062 909.578125 327.144531 909.578125 328.820312 Z M 881.167969 732.558594 L 881.167969 464.875 L 804.820312 464.875 L 804.820312 312.878906 L 923.625 312.878906 L 923.625 464.875 L 899.261719 464.875 L 899.261719 714.480469 L 935.925781 714.480469 L 935.925781 717.292969 L 896.445312 717.292969 L 896.445312 464.875 L 883.980469 464.875 L 883.980469 729.746094 L 935.925781 729.746094 L 935.925781 732.558594 Z M 1176.402344 445.261719 L 1176.171875 442.316406 L 1176.167969 442.207031 C 1176.105469 441.429688 1175.445312 440.84375 1174.652344 440.910156 C 1173.882812 440.96875 1173.300781 441.644531 1173.359375 442.417969 L 1173.570312 445.164062 L 1173.898438 449.429688 L 1174.246094 453.964844 L 1174.355469 455.429688 C 1174.410156 456.167969 1175.03125 456.726562 1175.757812 456.726562 C 1175.792969 456.726562 1175.828125 456.726562 1175.863281 456.726562 C 1176.601562 456.671875 1177.144531 456.054688 1177.144531 455.324219 C 1177.144531 455.289062 1177.160156 455.253906 1177.160156 455.21875 L 1177.074219 454.0625 L 1176.699219 449.210938 Z M 1182.191406 448.5625 L 1181.957031 445.46875 L 1181.703125 442.207031 C 1181.644531 441.429688 1180.996094 440.84375 1180.195312 440.910156 C 1179.457031 440.964844 1178.917969 441.585938 1178.917969 442.316406 C 1178.910156 442.347656 1178.894531 442.382812 1178.902344 442.417969 L 1179.125 445.363281 L 1179.398438 448.9375 L 1179.796875 454.164062 L 1179.886719 455.324219 L 1179.890625 455.429688 C 1179.949219 456.152344 1180.539062 456.695312 1181.242188 456.722656 C 1181.265625 456.722656 1181.28125 456.726562 1181.296875 456.726562 C 1181.332031 456.726562 1181.363281 456.726562 1181.40625 456.726562 C 1181.429688 456.722656 1181.457031 456.707031 1181.488281 456.703125 C 1182.21875 456.601562 1182.757812 455.964844 1182.699219 455.21875 L 1182.625 454.269531 Z M 1090.175781 527.878906 C 1090.144531 528.652344 1090.746094 529.308594 1091.523438 529.34375 C 1091.542969 529.34375 1091.566406 529.34375 1091.585938 529.34375 C 1092.335938 529.34375 1092.953125 528.757812 1092.988281 528.003906 L 1094.09375 502.804688 C 1094.09375 502.785156 1094.09375 502.765625 1094.101562 502.742188 L 1094.546875 492.585938 L 1095.414062 472.753906 C 1095.453125 471.972656 1094.851562 471.320312 1094.074219 471.28125 C 1094.074219 471.28125 1094.074219 471.28125 1094.070312 471.28125 C 1093.289062 471.273438 1092.640625 471.855469 1092.601562 472.628906 L 1091.527344 497.175781 L 1077.640625 498.402344 L 1074.746094 498.660156 L 1079.578125 476.921875 L 1080.113281 474.535156 C 1080.28125 473.78125 1079.804688 473.027344 1079.046875 472.859375 C 1078.878906 472.820312 1078.710938 472.828125 1078.550781 472.847656 C 1077.988281 472.925781 1077.5 473.335938 1077.363281 473.925781 L 1076.777344 476.558594 L 1072.03125 497.882812 L 1071.585938 499.890625 C 1071.582031 499.910156 1071.574219 499.9375 1071.570312 499.960938 L 1070.632812 504.1875 C 1070.621094 504.21875 1070.609375 504.25 1070.605469 504.289062 L 1069.082031 511.144531 C 1068.914062 511.90625 1069.390625 512.652344 1070.148438 512.820312 C 1070.246094 512.847656 1070.339844 512.828125 1070.433594 512.828125 C 1071.082031 512.835938 1071.679688 512.417969 1071.828125 511.757812 L 1073.140625 505.851562 L 1091.214844 504.25 L 1090.207031 527.214844 Z M 1079.726562 317.804688 C 1079.730469 317.859375 1079.761719 317.90625 1079.773438 317.957031 C 1079.929688 318.582031 1080.476562 319.03125 1081.121094 319.03125 C 1081.175781 319.03125 1081.238281 319.027344 1081.304688 319.019531 C 1081.828125 318.953125 1082.230469 318.589844 1082.414062 318.125 C 1082.496094 317.914062 1082.542969 317.683594 1082.511719 317.445312 L 1077.699219 280.199219 C 1077.59375 279.429688 1076.890625 278.878906 1076.121094 278.984375 C 1075.351562 279.085938 1074.808594 279.792969 1074.90625 280.5625 L 1074.90625 280.566406 Z M 1105.867188 319.621094 C 1106.238281 320.183594 1106.488281 320.523438 1106.53125 320.582031 C 1106.789062 320.914062 1107.171875 321.09375 1107.5625 321.121094 C 1107.59375 321.121094 1107.625 321.140625 1107.652344 321.140625 C 1107.949219 321.140625 1108.246094 321.046875 1108.496094 320.859375 C 1108.691406 320.714844 1108.816406 320.527344 1108.910156 320.328125 C 1108.910156 320.324219 1108.910156 320.320312 1108.914062 320.3125 C 1108.988281 320.15625 1109.03125 319.996094 1109.039062 319.820312 C 1109.050781 319.660156 1109.039062 319.492188 1108.988281 319.335938 C 1108.988281 319.328125 1108.988281 319.324219 1108.984375 319.324219 C 1108.941406 319.171875 1108.878906 319.027344 1108.777344 318.890625 C 1108.769531 318.875 1108.386719 318.359375 1107.824219 317.449219 C 1106.511719 315.339844 1104.167969 311.058594 1102.984375 305.71875 C 1102.8125 304.957031 1102.058594 304.488281 1101.304688 304.648438 C 1100.542969 304.816406 1100.066406 305.570312 1100.234375 306.328125 C 1101.660156 312.742188 1104.5625 317.636719 1105.867188 319.621094 Z M 1108.433594 439.734375 L 1108.203125 442.78125 L 1107.53125 451.535156 L 1107.4375 452.746094 C 1107.378906 453.519531 1107.960938 454.195312 1108.738281 454.257812 C 1108.773438 454.257812 1108.808594 454.261719 1108.847656 454.261719 C 1109.574219 454.261719 1110.1875 453.695312 1110.246094 452.957031 L 1110.257812 452.855469 L 1110.34375 451.632812 L 1111.015625 442.878906 L 1111.242188 439.949219 C 1111.242188 439.914062 1111.226562 439.878906 1111.226562 439.839844 C 1111.226562 439.117188 1110.679688 438.492188 1109.945312 438.441406 C 1109.140625 438.378906 1108.492188 438.960938 1108.433594 439.734375 Z M 1147.691406 457.847656 C 1146.882812 457.796875 1146.25 458.394531 1146.207031 459.167969 L 1146.199219 459.355469 L 1145.625 469.046875 C 1145.617188 469.28125 1145.671875 469.496094 1145.761719 469.703125 C 1145.972656 470.164062 1146.40625 470.503906 1146.945312 470.535156 C 1146.976562 470.539062 1147.003906 470.539062 1147.035156 470.539062 C 1147.773438 470.539062 1148.390625 469.964844 1148.433594 469.214844 L 1148.449219 468.984375 L 1149.015625 459.332031 C 1149.019531 459.265625 1148.996094 459.210938 1148.988281 459.148438 C 1148.933594 458.457031 1148.402344 457.890625 1147.691406 457.847656 Z M 1150.921875 444.414062 L 1140.71875 444.230469 L 1140.625 449.382812 L 1140.570312 452.5625 L 1150.777344 452.738281 L 1150.828125 449.890625 L 1145.746094 449.890625 C 1145.402344 449.890625 1145.097656 449.753906 1144.855469 449.550781 C 1144.546875 449.292969 1144.335938 448.921875 1144.335938 448.488281 C 1144.335938 447.714844 1144.964844 447.078125 1145.746094 447.078125 L 1150.875 447.078125 Z M 1151.320312 455.566406 L 1139.925781 455.363281 C 1139.335938 455.351562 1138.78125 455.109375 1138.367188 454.6875 C 1137.957031 454.257812 1137.738281 453.695312 1137.746094 453.105469 L 1137.753906 452.632812 L 1137.816406 449.257812 L 1137.910156 443.859375 L 1137.914062 443.585938 C 1137.925781 442.996094 1138.167969 442.445312 1138.589844 442.03125 C 1139.019531 441.617188 1139.566406 441.414062 1140.171875 441.410156 L 1151.566406 441.613281 C 1152.160156 441.625 1152.714844 441.863281 1153.121094 442.289062 C 1153.535156 442.71875 1153.757812 443.277344 1153.746094 443.871094 L 1153.734375 444.441406 L 1153.640625 449.78125 L 1153.578125 453.210938 L 1153.578125 453.386719 C 1153.558594 454.597656 1152.5625 455.566406 1151.355469 455.566406 C 1151.347656 455.566406 1151.332031 455.566406 1151.320312 455.566406 Z M 1114.273438 454.257812 C 1114.3125 454.257812 1114.347656 454.261719 1114.382812 454.261719 C 1115.113281 454.261719 1115.730469 453.695312 1115.789062 452.957031 L 1115.871094 451.832031 L 1116.535156 443.085938 L 1116.777344 439.949219 C 1116.839844 439.175781 1116.257812 438.5 1115.484375 438.441406 C 1114.691406 438.378906 1114.03125 438.960938 1113.976562 439.734375 L 1113.964844 439.839844 L 1113.722656 442.980469 L 1113.058594 451.734375 L 1112.980469 452.746094 C 1112.980469 452.785156 1112.996094 452.816406 1112.996094 452.855469 C 1112.996094 453.582031 1113.539062 454.199219 1114.273438 454.257812 Z M 1189.824219 455.765625 C 1189.59375 455.023438 1188.808594 454.609375 1188.0625 454.832031 C 1187.425781 455.027344 1187.050781 455.640625 1187.097656 456.285156 C 1187.109375 456.382812 1187.097656 456.480469 1187.132812 456.585938 L 1189.621094 464.726562 L 1189.703125 464.988281 C 1189.886719 465.597656 1190.441406 465.988281 1191.042969 465.988281 C 1191.179688 465.988281 1191.320312 465.96875 1191.457031 465.925781 C 1192.109375 465.726562 1192.484375 465.09375 1192.417969 464.441406 C 1192.40625 464.351562 1192.417969 464.261719 1192.390625 464.171875 L 1189.914062 456.070312 Z M 1202.695312 333.28125 C 1204.726562 339.46875 1206.855469 345.480469 1208.597656 350.300781 C 1209.042969 351.523438 1209.457031 352.652344 1209.84375 353.707031 C 1210.195312 354.652344 1210.515625 355.511719 1210.808594 356.292969 C 1211.363281 357.777344 1211.804688 358.945312 1212.097656 359.714844 C 1212.347656 360.375 1212.5 360.777344 1212.511719 360.804688 C 1212.726562 361.359375 1213.261719 361.703125 1213.820312 361.703125 C 1213.992188 361.703125 1214.167969 361.671875 1214.328125 361.605469 C 1214.382812 361.589844 1214.417969 361.546875 1214.464844 361.523438 C 1215.046875 361.21875 1215.328125 360.5625 1215.164062 359.929688 C 1215.144531 359.882812 1215.152344 359.835938 1215.136719 359.789062 C 1215.121094 359.746094 1214.710938 358.6875 1214.03125 356.878906 L 1247.421875 345.835938 L 1247.972656 345.652344 L 1248.054688 345.621094 C 1248.792969 345.378906 1249.191406 344.585938 1248.949219 343.847656 C 1248.714844 343.140625 1247.972656 342.757812 1247.257812 342.945312 C 1247.226562 342.953125 1247.199219 342.945312 1247.167969 342.953125 L 1246.414062 343.203125 L 1213.046875 354.246094 C 1212.609375 353.082031 1212.125 351.753906 1211.601562 350.3125 C 1208.980469 343.136719 1205.390625 332.9375 1202.546875 323.496094 C 1200.566406 316.921875 1200.851562 311.925781 1201.871094 308.289062 C 1203.3125 303.167969 1206.226562 300.757812 1206.441406 300.585938 C 1207.054688 300.109375 1207.164062 299.230469 1206.6875 298.625 C 1206.214844 298.003906 1205.328125 297.894531 1204.710938 298.367188 C 1204.445312 298.574219 1200.273438 301.917969 1198.785156 309.027344 C 1197.984375 312.859375 1197.957031 317.785156 1199.738281 323.90625 C 1199.78125 324.042969 1199.8125 324.171875 1199.855469 324.308594 C 1200.4375 326.238281 1201.050781 328.199219 1201.679688 330.160156 C 1196.539062 328.679688 1195.664062 325.375 1195.617188 325.1875 C 1195.535156 324.820312 1195.320312 324.527344 1195.03125 324.335938 C 1194.722656 324.125 1194.339844 324.035156 1193.953125 324.121094 C 1193.191406 324.28125 1192.703125 325.027344 1192.867188 325.785156 C 1192.914062 325.992188 1193.855469 330.023438 1199.164062 332.246094 C 1200.175781 332.664062 1201.332031 333.03125 1202.695312 333.28125 Z M 1171.382812 280.316406 L 1168.773438 276.816406 L 1167.058594 274.515625 L 1162.667969 268.625 C 1162.414062 268.285156 1162.019531 268.078125 1161.59375 268.058594 C 1161.175781 268.042969 1160.761719 268.222656 1160.484375 268.546875 L 1156.097656 273.585938 L 1153.289062 276.816406 L 1149.628906 281.03125 L 1148.769531 282.019531 L 1147.953125 280.308594 L 1146.285156 276.816406 L 1145.832031 275.859375 L 1144.484375 273.042969 L 1142.578125 269.03125 C 1142.5625 269 1142.550781 268.976562 1142.535156 268.941406 L 1141.171875 266.09375 C 1140.84375 265.398438 1140.003906 265.09375 1139.304688 265.429688 C 1138.601562 265.765625 1138.304688 266.601562 1138.636719 267.304688 L 1139.566406 269.253906 L 1137.628906 271.007812 L 1135.449219 272.972656 L 1135.320312 273.089844 C 1134.851562 273.519531 1134.757812 274.1875 1135.023438 274.738281 C 1135.082031 274.855469 1135.132812 274.972656 1135.226562 275.074219 C 1135.609375 275.5 1136.191406 275.628906 1136.707031 275.460938 C 1136.882812 275.402344 1137.0625 275.308594 1137.214844 275.171875 L 1139.480469 273.121094 L 1139.660156 272.957031 L 1140.828125 271.902344 L 1141.339844 272.972656 L 1144.027344 278.617188 L 1147.15625 285.171875 C 1147.355469 285.597656 1147.761719 285.894531 1148.234375 285.957031 C 1148.296875 285.96875 1148.359375 285.972656 1148.421875 285.972656 C 1148.828125 285.972656 1149.214844 285.796875 1149.488281 285.488281 L 1152.34375 282.199219 L 1157.019531 276.816406 L 1159.601562 273.84375 L 1161.457031 271.707031 L 1163.28125 274.152344 L 1165.265625 276.816406 L 1169.890625 283.019531 C 1170.324219 283.601562 1171.128906 283.757812 1171.75 283.382812 L 1177.472656 279.910156 L 1180.058594 278.335938 L 1181.71875 277.332031 L 1182.652344 276.765625 L 1182.820312 276.660156 L 1189.152344 272.816406 L 1190.40625 272.058594 C 1191.066406 271.65625 1191.28125 270.792969 1190.875 270.125 C 1190.476562 269.476562 1189.640625 269.269531 1188.980469 269.644531 C 1188.964844 269.648438 1188.953125 269.648438 1188.945312 269.65625 L 1181.414062 274.226562 L 1178.550781 275.964844 L 1177.144531 276.816406 Z M 1107.59375 634.597656 C 1108.117188 634.597656 1108.621094 634.304688 1108.863281 633.800781 C 1109.199219 633.101562 1108.910156 632.261719 1108.207031 631.921875 C 1101.136719 628.507812 1095.199219 622.816406 1091.492188 615.898438 C 1091.125 615.214844 1090.269531 614.953125 1089.589844 615.324219 C 1088.902344 615.691406 1088.648438 616.539062 1089.015625 617.226562 C 1092.996094 624.664062 1099.382812 630.785156 1106.980469 634.457031 C 1107.179688 634.550781 1107.390625 634.597656 1107.59375 634.597656 Z M 1121.425781 512.851562 L 1139.917969 513.664062 L 1124.808594 518.863281 C 1124.070312 519.113281 1123.683594 519.914062 1123.933594 520.648438 C 1124.191406 521.382812 1124.988281 521.773438 1125.726562 521.523438 L 1143.367188 515.449219 L 1136.195312 524.695312 C 1135.714844 525.308594 1135.832031 526.191406 1136.441406 526.667969 C 1137.0625 527.144531 1137.941406 527.03125 1138.417969 526.417969 L 1148.042969 514.019531 L 1148.789062 514.050781 L 1151.503906 514.171875 L 1152.316406 514.207031 L 1161.445312 528.691406 C 1161.714844 529.113281 1162.167969 529.34375 1162.636719 529.34375 C 1162.890625 529.34375 1163.15625 529.277344 1163.386719 529.128906 C 1164.042969 528.714844 1164.238281 527.847656 1163.824219 527.191406 L 1155.738281 514.359375 L 1166.746094 514.84375 C 1167.550781 514.863281 1168.183594 514.277344 1168.21875 513.496094 C 1168.25 512.722656 1167.648438 512.066406 1166.875 512.03125 L 1147.464844 511.183594 C 1147.445312 511.183594 1147.429688 511.183594 1147.40625 511.175781 L 1121.550781 510.046875 C 1120.78125 510.019531 1120.113281 510.617188 1120.082031 511.390625 C 1120.046875 512.160156 1120.648438 512.820312 1121.425781 512.851562 Z M 1192.527344 641.96875 C 1184.9375 640.519531 1178.078125 636.039062 1173.703125 629.671875 C 1173.265625 629.03125 1172.390625 628.871094 1171.75 629.304688 C 1171.113281 629.746094 1170.949219 630.617188 1171.382812 631.261719 C 1176.171875 638.230469 1183.683594 643.140625 1191.996094 644.726562 C 1192.085938 644.75 1192.175781 644.753906 1192.257812 644.753906 C 1192.925781 644.753906 1193.511719 644.289062 1193.640625 643.613281 C 1193.789062 642.847656 1193.285156 642.117188 1192.527344 641.96875 Z M 1013.296875 225.328125 C 1011.621094 227.066406 1011.667969 229.828125 1013.402344 231.511719 C 1015.140625 233.183594 1017.90625 233.136719 1019.589844 231.40625 L 1021.128906 229.808594 L 1025.417969 225.375 L 1028.414062 222.273438 C 1028.304688 222.273438 1028.195312 222.269531 1028.089844 222.269531 C 1028.253906 221.773438 1028.144531 221.210938 1027.746094 220.824219 L 1026.09375 219.226562 L 1022.53125 215.777344 L 1017.410156 210.8125 L 1015.742188 209.203125 C 1015.433594 208.902344 1015.03125 208.792969 1014.632812 208.828125 C 1014.3125 208.859375 1013.992188 208.980469 1013.753906 209.234375 C 1013.210938 209.792969 1013.222656 210.683594 1013.785156 211.222656 L 1016.097656 213.464844 L 1020.578125 217.796875 L 1025.171875 222.25 C 1024.996094 222.285156 1024.828125 222.332031 1024.675781 222.398438 C 1023.035156 223.175781 1023.484375 224.070312 1020.949219 223.472656 C 1020.882812 223.457031 1020.820312 223.421875 1020.75 223.398438 C 1021.097656 222.828125 1021.023438 222.089844 1020.503906 221.628906 L 1018.550781 219.898438 L 1015.738281 217.398438 L 1015.097656 216.835938 C 1014.515625 216.320312 1013.632812 216.367188 1013.113281 216.957031 C 1012.601562 217.535156 1012.652344 218.421875 1013.234375 218.941406 L 1016.589844 221.917969 L 1014.710938 223.867188 Z M 1021.863281 205.546875 L 1026.058594 212.140625 L 1030.703125 219.4375 C 1030.761719 219.53125 1030.851562 219.597656 1030.929688 219.671875 C 1030.964844 219.710938 1030.996094 219.757812 1031.039062 219.789062 C 1031.4375 220.097656 1031.972656 220.152344 1032.449219 219.945312 C 1032.511719 219.917969 1032.585938 219.90625 1032.640625 219.867188 C 1033.300781 219.453125 1033.496094 218.582031 1033.078125 217.929688 L 1032.894531 217.640625 L 1030.867188 214.457031 C 1031.554688 214.820312 1032.363281 215.101562 1033.300781 215.316406 C 1033.433594 215.84375 1033.558594 216.363281 1033.652344 216.855469 L 1034.878906 215.59375 C 1035.378906 215.65625 1035.910156 215.703125 1036.464844 215.734375 C 1036.535156 215.742188 1036.585938 215.75 1036.65625 215.757812 C 1035.628906 216.597656 1034.597656 217.609375 1033.769531 218.734375 C 1033.617188 218.945312 1033.460938 219.148438 1033.324219 219.363281 C 1033.191406 219.574219 1033.085938 219.789062 1032.976562 220.007812 C 1032.804688 220.328125 1032.667969 220.652344 1032.546875 220.988281 C 1032.214844 221.921875 1032.0625 222.902344 1032.238281 223.914062 C 1032.3125 224.328125 1032.570312 224.652344 1032.90625 224.851562 C 1033.121094 224.980469 1033.359375 225.074219 1033.621094 225.074219 C 1033.699219 225.074219 1033.785156 225.066406 1033.867188 225.054688 C 1034.632812 224.917969 1035.144531 224.191406 1035.003906 223.425781 C 1034.832031 222.429688 1035.292969 221.367188 1036.0625 220.351562 C 1037.671875 218.21875 1040.632812 216.269531 1041.972656 215.546875 C 1042.546875 215.234375 1042.835938 214.558594 1042.652344 213.929688 C 1042.476562 213.296875 1041.929688 212.875 1041.21875 212.910156 C 1039.75 212.992188 1038.5 213.003906 1037.421875 212.964844 C 1035.445312 212.898438 1034.0625 212.65625 1033.097656 212.347656 C 1032.308594 212.085938 1031.792969 211.78125 1031.464844 211.488281 C 1030.757812 210.851562 1030.648438 210.035156 1030.589844 208.964844 C 1031.082031 208.304688 1033.675781 207.410156 1036.777344 206.75 C 1037.808594 206.53125 1038.898438 206.335938 1039.988281 206.191406 C 1040.757812 206.085938 1041.296875 205.378906 1041.1875 204.609375 C 1041.175781 204.527344 1041.132812 204.457031 1041.109375 204.378906 C 1043.269531 203.703125 1045.167969 203.269531 1046.398438 203.679688 L 1046.414062 203.664062 L 1048.777344 201.222656 C 1049.257812 200.726562 1049.242188 199.929688 1048.746094 199.453125 L 1047.914062 198.640625 L 1045.097656 195.925781 L 1044.261719 195.117188 C 1043.765625 194.636719 1042.972656 194.652344 1042.484375 195.148438 L 1039.75 197.976562 L 1038.75 197.007812 L 1037.132812 198.683594 L 1035.445312 200.425781 C 1035.523438 200.671875 1035.609375 200.933594 1035.6875 201.210938 L 1036.171875 201.679688 L 1035.902344 201.957031 C 1036.078125 202.585938 1036.246094 203.253906 1036.386719 203.933594 C 1035.3125 204.144531 1034.257812 204.394531 1033.261719 204.683594 C 1030.105469 205.617188 1027.679688 206.972656 1027.777344 208.972656 C 1027.785156 209.179688 1027.796875 209.410156 1027.8125 209.664062 L 1024.082031 203.792969 L 1023.15625 202.339844 L 1022.738281 201.683594 C 1022.324219 201.023438 1021.453125 200.832031 1020.792969 201.25 C 1020.359375 201.527344 1020.148438 202.003906 1020.167969 202.484375 C 1020.175781 202.726562 1020.222656 202.972656 1020.363281 203.191406 Z M 1042.863281 298.382812 C 1042.515625 299.078125 1042.804688 299.921875 1043.5 300.261719 C 1043.699219 300.359375 1043.914062 300.410156 1044.121094 300.410156 C 1044.644531 300.410156 1045.140625 300.121094 1045.386719 299.621094 L 1046.203125 297.96875 L 1052.023438 286.167969 L 1052.988281 284.210938 C 1053.121094 283.953125 1053.136719 283.675781 1053.097656 283.410156 C 1053.035156 282.957031 1052.785156 282.546875 1052.351562 282.332031 C 1052.097656 282.203125 1051.832031 282.1875 1051.570312 282.21875 C 1051.113281 282.273438 1050.683594 282.523438 1050.46875 282.96875 L 1050.050781 283.808594 L 1042.910156 298.28125 Z M 1242.078125 506.773438 L 1240.070312 506.773438 L 1236.792969 524.652344 L 1244.691406 524.652344 L 1245.992188 517.585938 L 1246.984375 512.140625 L 1250.015625 512.140625 C 1250.175781 511.867188 1250.3125 511.601562 1250.4375 511.339844 C 1250.785156 510.613281 1250.992188 509.921875 1250.898438 509.367188 C 1250.601562 507.574219 1246.027344 506.773438 1246.027344 506.773438 Z M 1266.414062 515.144531 L 1268.160156 524.652344 L 1276.058594 524.652344 L 1272.78125 506.773438 L 1269.160156 506.773438 C 1269.339844 508.96875 1269.453125 510.898438 1269.386719 511.847656 C 1269.25 513.738281 1267.933594 514.621094 1266.414062 515.144531 Z M 1215.441406 549.140625 L 1203.363281 549.140625 L 1202.800781 551.410156 L 1202.296875 553.433594 L 1307.3125 553.433594 L 1306.25 549.140625 L 1266.414062 549.140625 L 1260.449219 524.652344 L 1259.003906 524.652344 L 1264.96875 549.140625 L 1262.886719 549.140625 L 1256.917969 524.652344 L 1255.472656 524.652344 L 1261.4375 549.140625 Z M 1302.179688 569.960938 L 1274.777344 569.960938 L 1269.867188 606.199219 L 1296.257812 606.199219 Z M 1268.363281 606.8125 C 1268.339844 607.011719 1268.394531 607.214844 1268.527344 607.367188 C 1268.664062 607.519531 1268.855469 607.609375 1269.0625 607.609375 L 1296.855469 607.609375 C 1297.195312 607.609375 1297.496094 607.359375 1297.546875 607.015625 L 1303.699219 569.367188 C 1303.730469 569.164062 1303.671875 568.960938 1303.539062 568.804688 C 1303.410156 568.648438 1303.210938 568.550781 1303.007812 568.550781 L 1274.164062 568.550781 C 1273.8125 568.550781 1273.515625 568.8125 1273.464844 569.164062 Z M 1217.402344 565.203125 L 1307.816406 565.203125 L 1300.160156 612.070312 L 1209.453125 612.070312 L 1201.796875 565.203125 Z M 1195.835938 767.199219 L 1197.019531 775.164062 L 1197.183594 775.183594 C 1197.1875 775.179688 1197.195312 775.167969 1197.199219 775.164062 L 1220.671875 775.164062 L 1220.671875 775.160156 L 1221.40625 767.050781 L 1221.410156 766.996094 Z M 1097.222656 775.164062 L 1119.714844 775.164062 C 1119.714844 775.164062 1119.722656 775.164062 1119.722656 775.164062 C 1120.136719 775.164062 1120.535156 775.246094 1120.910156 775.390625 L 1121.042969 774.441406 L 1122.039062 766.996094 L 1097.578125 766.488281 Z M 1143.691406 243.277344 C 1143.394531 243.039062 1142.949219 243.089844 1142.707031 243.394531 C 1142.460938 243.699219 1142.515625 244.136719 1142.820312 244.378906 C 1144.8125 245.976562 1147.328125 246.859375 1149.886719 246.875 C 1149.910156 246.875 1149.9375 246.875 1149.964844 246.875 C 1152.492188 246.875 1154.980469 246.027344 1156.988281 244.476562 C 1157.292969 244.242188 1157.351562 243.796875 1157.109375 243.488281 C 1156.875 243.183594 1156.433594 243.128906 1156.125 243.367188 C 1154.347656 244.738281 1152.121094 245.472656 1149.894531 245.472656 C 1147.652344 245.457031 1145.449219 244.683594 1143.691406 243.277344 Z M 1143.675781 225.761719 C 1142.734375 225.25 1141.632812 225.085938 1140.59375 225.300781 C 1140.210938 225.378906 1139.964844 225.75 1140.042969 226.128906 C 1140.121094 226.511719 1140.496094 226.757812 1140.871094 226.675781 C 1141.585938 226.535156 1142.367188 226.644531 1143.007812 226.996094 C 1143.652344 227.34375 1144.171875 227.933594 1144.4375 228.613281 C 1144.546875 228.890625 1144.8125 229.058594 1145.09375 229.058594 C 1145.179688 229.058594 1145.265625 229.042969 1145.347656 229.011719 C 1145.710938 228.867188 1145.894531 228.457031 1145.746094 228.101562 C 1145.359375 227.101562 1144.621094 226.269531 1143.675781 225.761719 Z M 1160.414062 229.011719 C 1160.777344 228.867188 1160.953125 228.457031 1160.8125 228.101562 C 1160.425781 227.101562 1159.6875 226.269531 1158.742188 225.761719 C 1157.816406 225.257812 1156.691406 225.085938 1155.652344 225.300781 C 1155.269531 225.378906 1155.03125 225.75 1155.101562 226.128906 C 1155.179688 226.511719 1155.554688 226.757812 1155.9375 226.675781 C 1156.652344 226.53125 1157.429688 226.644531 1158.074219 226.996094 C 1158.71875 227.34375 1159.234375 227.933594 1159.503906 228.613281 C 1159.613281 228.890625 1159.878906 229.058594 1160.15625 229.058594 C 1160.242188 229.058594 1160.332031 229.042969 1160.414062 229.011719 Z M 1143.828125 234.101562 C 1144.527344 234.101562 1145.09375 233.238281 1145.09375 232.164062 C 1145.09375 231.097656 1144.527344 230.226562 1143.828125 230.226562 C 1143.128906 230.226562 1142.5625 231.097656 1142.5625 232.164062 C 1142.5625 233.238281 1143.128906 234.101562 1143.828125 234.101562 Z M 1158.585938 230.226562 C 1157.882812 230.226562 1157.320312 231.097656 1157.320312 232.164062 C 1157.320312 233.238281 1157.882812 234.101562 1158.585938 234.101562 C 1159.289062 234.101562 1159.855469 233.238281 1159.855469 232.164062 C 1159.855469 231.097656 1159.289062 230.226562 1158.585938 230.226562 Z M 1168.847656 228.964844 L 1171.960938 228.964844 C 1171.671875 226.113281 1173.140625 223.128906 1175.632812 221.695312 C 1175.691406 221.65625 1175.757812 221.636719 1175.816406 221.605469 C 1176.230469 221.378906 1176.667969 221.210938 1177.121094 221.082031 C 1177.136719 220.820312 1177.144531 220.558594 1177.15625 220.300781 L 1175.515625 220.191406 L 1166.570312 219.605469 C 1165.699219 226.914062 1168.847656 228.964844 1168.847656 228.964844 Z M 1137.667969 221.902344 C 1137.667969 221.902344 1137.714844 221.90625 1137.742188 221.914062 C 1138.519531 221.988281 1149.226562 223.027344 1154.683594 223.027344 C 1159.273438 223.027344 1164.242188 220.519531 1165.976562 219.566406 L 1138.773438 217.78125 L 1133.222656 217.421875 C 1133.015625 221.53125 1137.667969 221.902344 1137.667969 221.902344 Z M 1003.542969 446.644531 C 1003.585938 446.714844 1003.636719 446.769531 1003.683594 446.832031 C 1003.589844 446.707031 1003.507812 446.582031 1003.433594 446.441406 C 1003.441406 446.460938 1003.453125 446.484375 1003.464844 446.5 C 1003.488281 446.546875 1003.511719 446.597656 1003.542969 446.644531 Z M 1003.433594 446.433594 C 1003.359375 446.300781 1003.300781 446.152344 1003.253906 446 C 1003.28125 446.085938 1003.300781 446.167969 1003.332031 446.246094 C 1003.359375 446.316406 1003.394531 446.371094 1003.433594 446.433594 Z M 1004.125 447.269531 C 1004.085938 447.242188 1004.054688 447.207031 1004.019531 447.171875 C 1004.0625 447.210938 1004.097656 447.253906 1004.144531 447.285156 C 1004.140625 447.277344 1004.128906 447.273438 1004.125 447.269531 Z M 934.515625 764.574219 L 977.46875 764.574219 L 977.46875 447.753906 L 995.183594 447.753906 L 995.183594 444.9375 L 974.65625 444.945312 L 974.65625 761.761719 L 934.515625 761.761719 Z M 1033.328125 447.765625 L 1095.105469 447.777344 L 1095.226562 444.925781 L 1033.328125 444.9375 Z M 1004.554688 465.351562 L 1001.742188 465.351562 L 1001.742188 778.238281 L 934.515625 778.238281 L 934.515625 781.046875 L 1004.554688 781.046875 L 1004.554688 754.566406 L 1081.628906 754.566406 L 1081.753906 751.757812 L 1004.554688 751.757812 L 1004.554688 741.207031 L 1082.214844 741.207031 L 1082.339844 738.394531 L 1004.554688 738.394531 L 1004.554688 689.972656 L 1084.46875 689.976562 L 1084.585938 687.171875 L 1004.554688 687.160156 L 1004.554688 676.613281 L 1085.054688 676.628906 L 1085.175781 673.800781 L 1004.554688 673.800781 Z M 1239.746094 444.917969 L 1198.308594 444.921875 C 1198.308594 445.875 1198.304688 446.828125 1198.335938 447.792969 L 1240.148438 447.800781 C 1240.019531 446.871094 1239.882812 445.910156 1239.746094 444.917969 Z M 1326.054688 657.15625 L 1326.054688 447.816406 L 1335.953125 447.816406 L 1335.0625 444.90625 L 1266.414062 444.910156 C 1266.472656 445.878906 1266.53125 446.847656 1266.582031 447.808594 L 1323.242188 447.816406 L 1323.242188 657.15625 Z M 1407.992188 736.789062 L 1348.65625 736.789062 C 1347.257812 736.789062 1346.121094 737.925781 1346.121094 739.328125 L 1346.121094 747.082031 L 1324.652344 747.082031 L 1324.652344 749.890625 L 1346.121094 749.890625 L 1346.121094 757.652344 C 1346.121094 759.054688 1347.257812 760.191406 1348.65625 760.191406 L 1407.992188 760.191406 C 1409.390625 760.191406 1410.527344 759.054688 1410.527344 757.652344 L 1410.527344 739.328125 C 1410.527344 737.925781 1409.390625 736.789062 1407.992188 736.789062 Z M 1276.941406 223.667969 L 1270.464844 223.667969 L 1270.464844 159.417969 L 1312.539062 159.417969 L 1312.539062 437.324219 L 1315.355469 437.324219 L 1315.355469 156.605469 L 1267.652344 156.605469 L 1267.652344 223.667969 L 1261.183594 223.667969 L 1261.183594 236.027344 L 1276.941406 236.027344 Z M 1289.128906 706.3125 L 1289.128906 723.914062 L 1291.941406 723.914062 L 1291.941406 706.3125 Z M 984.953125 366.21875 L 984.953125 357.878906 L 977.304688 357.878906 L 977.304688 366.21875 Z M 984.953125 323.605469 L 984.953125 315.261719 L 977.304688 315.261719 L 977.304688 323.605469 Z M 984.953125 280.988281 L 984.953125 272.644531 L 977.304688 272.644531 L 977.304688 280.988281 Z M 1027.046875 438.730469 L 1027.046875 426.132812 L 1001.464844 426.132812 L 1001.464844 438.847656 L 1027.046875 438.847656 Z M 1131.894531 673.800781 L 1131.597656 676.632812 L 1170.992188 676.644531 L 1170.652344 673.804688 Z M 1256.394531 673.804688 L 1224.203125 673.804688 C 1224.21875 674.757812 1224.230469 675.710938 1224.242188 676.652344 L 1256.394531 676.660156 Z M 1130.480469 687.175781 L 1130.183594 689.988281 L 1172.589844 689.992188 L 1172.253906 687.183594 Z M 1124.765625 741.207031 L 1178.734375 741.207031 L 1178.398438 738.394531 L 1125.066406 738.394531 Z M 1123.652344 751.757812 L 1123.351562 754.566406 L 1180.335938 754.566406 L 1180 751.757812 Z M 1224.308594 690 L 1256.394531 690 L 1256.414062 687.191406 L 1224.308594 687.1875 C 1224.308594 688.125 1224.308594 689.074219 1224.308594 690 Z M 1222.3125 754.566406 L 1256.160156 754.566406 L 1256.160156 751.757812 L 1222.484375 751.757812 C 1222.429688 752.71875 1222.371094 753.65625 1222.3125 754.566406 Z M 1223.199219 738.394531 L 1256.160156 738.394531 L 1256.160156 741.207031 L 1223.066406 741.207031 C 1223.113281 740.285156 1223.15625 739.347656 1223.199219 738.394531 " fill-opacity="1" fill-rule="nonzero"/></g></svg>