<svg xmlns="http://www.w3.org/2000/svg" xmlns:xlink="http://www.w3.org/1999/xlink" width="500" zoomAndPan="magnify" viewBox="0 0 375 374.999991" height="500" preserveAspectRatio="xMidYMid meet" version="1.0"><path fill="#000000" d="M 365.625 430.429688 L 109.089844 430.429688 C 100.417969 430.429688 93.386719 423.402344 93.386719 414.742188 L 93.386719 45.289062 C 93.386719 36.625 100.417969 29.601562 109.089844 29.601562 L 365.625 29.601562 C 374.300781 29.601562 381.332031 36.625 381.332031 45.289062 L 381.332031 414.742188 C 381.332031 423.402344 374.300781 430.429688 365.625 430.429688 " fill-opacity="1" fill-rule="nonzero"/><path fill="#ffffff" d="M 365.796875 416.945312 L 108.921875 416.945312 L 108.921875 50.21875 L 365.796875 50.21875 L 365.796875 416.945312 " fill-opacity="1" fill-rule="nonzero"/><path fill="#423f3f" d="M 237.359375 22.234375 C 233.011719 22.234375 229.484375 18.710938 229.484375 14.367188 C 229.484375 10.023438 233.011719 6.5 237.359375 6.5 C 241.707031 6.5 245.234375 10.023438 245.234375 14.367188 C 245.234375 18.710938 241.707031 22.234375 237.359375 22.234375 Z M 287.574219 18.574219 L 258.585938 18.574219 C 257.019531 8.269531 248.113281 0.371094 237.359375 0.371094 C 226.605469 0.371094 217.695312 8.269531 216.128906 18.574219 L 187.140625 18.574219 C 174.210938 18.574219 163.726562 29.042969 163.726562 41.960938 L 163.726562 59.210938 L 310.984375 59.210938 L 310.984375 41.960938 C 310.984375 29.042969 300.503906 18.574219 287.574219 18.574219 " fill-opacity="1" fill-rule="nonzero"/><path fill="#000000" d="M 237.359375 6.875 C 233.222656 6.875 229.859375 10.234375 229.859375 14.367188 C 229.859375 18.5 233.222656 21.859375 237.359375 21.859375 C 241.496094 21.859375 244.859375 18.5 244.859375 14.367188 C 244.859375 10.234375 241.496094 6.875 237.359375 6.875 Z M 237.359375 22.605469 C 232.808594 22.605469 229.109375 18.910156 229.109375 14.367188 C 229.109375 9.828125 232.808594 6.125 237.359375 6.125 C 241.90625 6.125 245.605469 9.828125 245.605469 14.367188 C 245.605469 18.910156 241.90625 22.605469 237.359375 22.605469 Z M 164.101562 58.835938 L 310.617188 58.835938 L 310.617188 41.960938 C 310.617188 29.269531 300.277344 18.945312 287.574219 18.945312 L 258.585938 18.945312 C 258.402344 18.945312 258.246094 18.8125 258.21875 18.628906 C 256.667969 8.433594 247.699219 0.746094 237.359375 0.746094 C 227.019531 0.746094 218.050781 8.433594 216.496094 18.628906 C 216.472656 18.8125 216.3125 18.945312 216.128906 18.945312 L 187.140625 18.945312 C 174.4375 18.945312 164.101562 29.269531 164.101562 41.960938 Z M 310.984375 59.582031 L 163.726562 59.582031 C 163.523438 59.582031 163.355469 59.414062 163.355469 59.210938 L 163.355469 41.960938 C 163.355469 28.855469 174.023438 18.195312 187.140625 18.195312 L 215.808594 18.195312 C 217.554688 7.800781 226.757812 0 237.359375 0 C 247.957031 0 257.164062 7.800781 258.90625 18.195312 L 287.574219 18.195312 C 300.691406 18.195312 311.363281 28.855469 311.363281 41.960938 L 311.363281 59.210938 C 311.363281 59.414062 311.195312 59.582031 310.984375 59.582031 " fill-opacity="1" fill-rule="nonzero"/><path fill="#ec3337" d="M 142.246094 307.75 C 141.820312 307.75 141.410156 307.566406 141.125 307.242188 L 131.304688 296.0625 C 130.761719 295.441406 130.824219 294.5 131.445312 293.957031 C 132.066406 293.410156 133.011719 293.472656 133.554688 294.09375 L 142.074219 303.792969 L 160.136719 276.183594 C 160.585938 275.492188 161.515625 275.296875 162.207031 275.75 C 162.898438 276.203125 163.089844 277.125 162.640625 277.816406 L 143.5 307.074219 C 143.242188 307.464844 142.820312 307.714844 142.355469 307.746094 C 142.320312 307.75 142.28125 307.75 142.246094 307.75 " fill-opacity="1" fill-rule="nonzero"/><path fill="#000000" d="M 126.667969 124.617188 L 157.828125 124.617188 L 157.828125 93.496094 L 126.667969 93.496094 Z M 158.199219 125.367188 L 126.296875 125.367188 C 126.089844 125.367188 125.921875 125.199219 125.921875 124.992188 L 125.921875 93.121094 C 125.921875 92.917969 126.089844 92.75 126.296875 92.75 L 158.199219 92.75 C 158.40625 92.75 158.574219 92.917969 158.574219 93.121094 L 158.574219 124.992188 C 158.574219 125.199219 158.40625 125.367188 158.199219 125.367188 " fill-opacity="1" fill-rule="nonzero"/><path fill="#000000" d="M 126.667969 172.421875 L 157.828125 172.421875 L 157.828125 141.300781 L 126.667969 141.300781 Z M 158.199219 173.167969 L 126.296875 173.167969 C 126.089844 173.167969 125.921875 173.003906 125.921875 172.796875 L 125.921875 140.925781 C 125.921875 140.722656 126.089844 140.554688 126.296875 140.554688 L 158.199219 140.554688 C 158.40625 140.554688 158.574219 140.722656 158.574219 140.925781 L 158.574219 172.796875 C 158.574219 173.003906 158.40625 173.167969 158.199219 173.167969 " fill-opacity="1" fill-rule="nonzero"/><path fill="#000000" d="M 126.667969 220.226562 L 157.828125 220.226562 L 157.828125 189.105469 L 126.667969 189.105469 Z M 158.199219 220.972656 L 126.296875 220.972656 C 126.089844 220.972656 125.921875 220.808594 125.921875 220.601562 L 125.921875 188.730469 C 125.921875 188.523438 126.089844 188.359375 126.296875 188.359375 L 158.199219 188.359375 C 158.40625 188.359375 158.574219 188.523438 158.574219 188.730469 L 158.574219 220.601562 C 158.574219 220.808594 158.40625 220.972656 158.199219 220.972656 " fill-opacity="1" fill-rule="nonzero"/><path fill="#000000" d="M 126.667969 268.03125 L 157.828125 268.03125 L 157.828125 236.910156 L 126.667969 236.910156 Z M 158.199219 268.78125 L 126.296875 268.78125 C 126.089844 268.78125 125.921875 268.613281 125.921875 268.40625 L 125.921875 236.535156 C 125.921875 236.328125 126.089844 236.164062 126.296875 236.164062 L 158.199219 236.164062 C 158.40625 236.164062 158.574219 236.328125 158.574219 236.535156 L 158.574219 268.40625 C 158.574219 268.613281 158.40625 268.78125 158.199219 268.78125 " fill-opacity="1" fill-rule="nonzero"/><path fill="#000000" d="M 126.667969 315.835938 L 157.828125 315.835938 L 157.828125 284.714844 L 126.667969 284.714844 Z M 158.199219 316.582031 L 126.296875 316.582031 C 126.089844 316.582031 125.921875 316.417969 125.921875 316.210938 L 125.921875 284.339844 C 125.921875 284.136719 126.089844 283.964844 126.296875 283.964844 L 158.199219 283.964844 C 158.40625 283.964844 158.574219 284.136719 158.574219 284.339844 L 158.574219 316.210938 C 158.574219 316.417969 158.40625 316.582031 158.199219 316.582031 " fill-opacity="1" fill-rule="nonzero"/><path fill="#000000" d="M 126.667969 363.640625 L 157.828125 363.640625 L 157.828125 332.519531 L 126.667969 332.519531 Z M 158.199219 364.386719 L 126.296875 364.386719 C 126.089844 364.386719 125.921875 364.222656 125.921875 364.015625 L 125.921875 332.144531 C 125.921875 331.9375 126.089844 331.773438 126.296875 331.773438 L 158.199219 331.773438 C 158.40625 331.773438 158.574219 331.9375 158.574219 332.144531 L 158.574219 364.015625 C 158.574219 364.222656 158.40625 364.386719 158.199219 364.386719 " fill-opacity="1" fill-rule="nonzero"/><path fill="#000000" d="M 331.304688 102.074219 L 175.867188 102.074219 C 175.660156 102.074219 175.496094 101.910156 175.496094 101.703125 C 175.496094 101.496094 175.660156 101.328125 175.867188 101.328125 L 331.304688 101.328125 C 331.515625 101.328125 331.683594 101.496094 331.683594 101.703125 C 331.683594 101.910156 331.515625 102.074219 331.304688 102.074219 " fill-opacity="1" fill-rule="nonzero"/><path fill="#000000" d="M 275.675781 118.160156 L 175.867188 118.160156 C 175.660156 118.160156 175.496094 117.992188 175.496094 117.785156 C 175.496094 117.578125 175.660156 117.410156 175.867188 117.410156 L 275.675781 117.410156 C 275.882812 117.410156 276.054688 117.578125 276.054688 117.785156 C 276.054688 117.992188 275.882812 118.160156 275.675781 118.160156 " fill-opacity="1" fill-rule="nonzero"/><path fill="#000000" d="M 331.304688 244.800781 L 175.867188 244.800781 C 175.660156 244.800781 175.496094 244.636719 175.496094 244.429688 C 175.496094 244.222656 175.660156 244.054688 175.867188 244.054688 L 331.304688 244.054688 C 331.515625 244.054688 331.683594 244.222656 331.683594 244.429688 C 331.683594 244.636719 331.515625 244.800781 331.304688 244.800781 " fill-opacity="1" fill-rule="nonzero"/><path fill="#000000" d="M 275.675781 260.882812 L 175.867188 260.882812 C 175.660156 260.882812 175.496094 260.71875 175.496094 260.511719 C 175.496094 260.304688 175.660156 260.136719 175.867188 260.136719 L 275.675781 260.136719 C 275.882812 260.136719 276.054688 260.304688 276.054688 260.511719 C 276.054688 260.71875 275.882812 260.882812 275.675781 260.882812 " fill-opacity="1" fill-rule="nonzero"/><path fill="#000000" d="M 282.320312 290.949219 L 175.867188 290.949219 C 175.660156 290.949219 175.496094 290.78125 175.496094 290.574219 C 175.496094 290.367188 175.660156 290.203125 175.867188 290.203125 L 282.320312 290.203125 C 282.523438 290.203125 282.695312 290.367188 282.695312 290.574219 C 282.695312 290.78125 282.523438 290.949219 282.320312 290.949219 " fill-opacity="1" fill-rule="nonzero"/><path fill="#000000" d="M 320.773438 307.03125 L 175.867188 307.03125 C 175.660156 307.03125 175.496094 306.863281 175.496094 306.65625 C 175.496094 306.449219 175.660156 306.285156 175.867188 306.285156 L 320.773438 306.285156 C 320.976562 306.285156 321.144531 306.449219 321.144531 306.65625 C 321.144531 306.863281 320.976562 307.03125 320.773438 307.03125 " fill-opacity="1" fill-rule="nonzero"/><path fill="#000000" d="M 287.539062 149.195312 L 175.867188 149.195312 C 175.660156 149.195312 175.496094 149.027344 175.496094 148.820312 C 175.496094 148.613281 175.660156 148.449219 175.867188 148.449219 L 287.539062 148.449219 C 287.742188 148.449219 287.914062 148.613281 287.914062 148.820312 C 287.914062 149.027344 287.742188 149.195312 287.539062 149.195312 " fill-opacity="1" fill-rule="nonzero"/><path fill="#000000" d="M 240.089844 165.277344 L 175.867188 165.277344 C 175.660156 165.277344 175.496094 165.109375 175.496094 164.902344 C 175.496094 164.695312 175.660156 164.53125 175.867188 164.53125 L 240.089844 164.53125 C 240.296875 164.53125 240.464844 164.695312 240.464844 164.902344 C 240.464844 165.109375 240.296875 165.277344 240.089844 165.277344 " fill-opacity="1" fill-rule="nonzero"/><path fill="#000000" d="M 287.539062 338.945312 L 175.867188 338.945312 C 175.660156 338.945312 175.496094 338.777344 175.496094 338.570312 C 175.496094 338.363281 175.660156 338.199219 175.867188 338.199219 L 287.539062 338.199219 C 287.742188 338.199219 287.914062 338.363281 287.914062 338.570312 C 287.914062 338.777344 287.742188 338.945312 287.539062 338.945312 " fill-opacity="1" fill-rule="nonzero"/><path fill="#000000" d="M 240.089844 355.027344 L 175.867188 355.027344 C 175.660156 355.027344 175.496094 354.859375 175.496094 354.652344 C 175.496094 354.445312 175.660156 354.28125 175.867188 354.28125 L 240.089844 354.28125 C 240.296875 354.28125 240.464844 354.445312 240.464844 354.652344 C 240.464844 354.859375 240.296875 355.027344 240.089844 355.027344 " fill-opacity="1" fill-rule="nonzero"/><path fill="#000000" d="M 263.914062 196.3125 L 175.867188 196.3125 C 175.660156 196.3125 175.496094 196.144531 175.496094 195.9375 C 175.496094 195.730469 175.660156 195.566406 175.867188 195.566406 L 263.914062 195.566406 C 264.117188 195.566406 264.285156 195.730469 264.285156 195.9375 C 264.285156 196.144531 264.117188 196.3125 263.914062 196.3125 " fill-opacity="1" fill-rule="nonzero"/><path fill="#000000" d="M 313.207031 212.394531 L 175.867188 212.394531 C 175.660156 212.394531 175.496094 212.226562 175.496094 212.019531 C 175.496094 211.816406 175.660156 211.648438 175.867188 211.648438 L 313.207031 211.648438 C 313.414062 211.648438 313.585938 211.816406 313.585938 212.019531 C 313.585938 212.226562 313.414062 212.394531 313.207031 212.394531 " fill-opacity="1" fill-rule="nonzero"/><path fill="#ec3337" d="M 142.246094 119.277344 C 141.820312 119.277344 141.410156 119.09375 141.125 118.769531 L 131.304688 107.589844 C 130.761719 106.96875 130.824219 106.027344 131.445312 105.484375 C 132.066406 104.9375 133.011719 105 133.554688 105.621094 L 142.074219 115.320312 L 160.136719 87.710938 C 160.585938 87.019531 161.515625 86.828125 162.207031 87.28125 C 162.898438 87.726562 163.089844 88.65625 162.640625 89.34375 L 143.5 118.601562 C 143.242188 118.992188 142.820312 119.242188 142.355469 119.277344 C 142.320312 119.277344 142.28125 119.277344 142.246094 119.277344 " fill-opacity="1" fill-rule="nonzero"/><path fill="#ec3337" d="M 142.246094 166.394531 C 141.820312 166.394531 141.410156 166.210938 141.125 165.886719 L 131.304688 154.707031 C 130.761719 154.085938 130.824219 153.144531 131.445312 152.601562 C 132.066406 152.058594 133.011719 152.121094 133.554688 152.738281 L 142.074219 162.441406 L 160.136719 134.828125 C 160.585938 134.140625 161.515625 133.945312 162.207031 134.394531 C 162.898438 134.847656 163.089844 135.773438 162.640625 136.460938 L 143.5 165.71875 C 143.242188 166.109375 142.820312 166.359375 142.355469 166.394531 C 142.320312 166.394531 142.28125 166.394531 142.246094 166.394531 " fill-opacity="1" fill-rule="nonzero"/><path fill="#ec3337" d="M 142.246094 213.515625 C 141.820312 213.515625 141.410156 213.332031 141.125 213.003906 L 131.304688 201.828125 C 130.761719 201.207031 130.824219 200.261719 131.445312 199.71875 C 132.066406 199.175781 133.011719 199.238281 133.554688 199.855469 L 142.074219 209.558594 L 160.136719 181.949219 C 160.585938 181.257812 161.515625 181.0625 162.207031 181.515625 C 162.898438 181.964844 163.089844 182.890625 162.640625 183.582031 L 143.5 212.835938 C 143.242188 213.230469 142.820312 213.476562 142.355469 213.511719 C 142.320312 213.515625 142.28125 213.515625 142.246094 213.515625 " fill-opacity="1" fill-rule="nonzero"/><path fill="#ec3337" d="M 143.90625 260.632812 C 143.476562 260.632812 143.066406 260.449219 142.78125 260.121094 L 132.964844 248.945312 C 132.417969 248.324219 132.484375 247.382812 133.101562 246.835938 C 133.722656 246.292969 134.667969 246.355469 135.210938 246.972656 L 143.730469 256.675781 L 161.792969 229.066406 C 162.246094 228.375 163.171875 228.179688 163.863281 228.632812 C 164.554688 229.085938 164.75 230.007812 164.296875 230.699219 L 145.15625 259.957031 C 144.902344 260.347656 144.476562 260.597656 144.011719 260.628906 C 143.976562 260.632812 143.941406 260.632812 143.90625 260.632812 " fill-opacity="1" fill-rule="nonzero"/><path fill="#423f3f" d="M 356.996094 359.816406 L 254.832031 331.304688 L 261.238281 308.394531 L 363.402344 336.90625 C 369.734375 338.671875 373.433594 345.238281 371.664062 351.566406 C 370.78125 354.722656 368.691406 357.230469 366.042969 358.726562 C 363.386719 360.214844 360.160156 360.699219 356.996094 359.816406 " fill-opacity="1" fill-rule="nonzero"/><path fill="#000000" d="M 357.09375 359.457031 C 360.058594 360.285156 363.167969 359.910156 365.859375 358.402344 C 368.542969 356.886719 370.476562 354.421875 371.304688 351.464844 C 373.015625 345.34375 369.429688 338.972656 363.300781 337.265625 L 261.5 308.855469 L 255.292969 331.046875 Z M 360.21875 360.632812 C 359.109375 360.632812 357.992188 360.480469 356.894531 360.175781 L 254.730469 331.664062 C 254.53125 331.609375 254.417969 331.402344 254.472656 331.207031 L 260.882812 308.296875 C 260.90625 308.199219 260.96875 308.117188 261.054688 308.070312 C 261.140625 308.023438 261.242188 308.011719 261.339844 308.039062 L 363.503906 336.546875 C 370.023438 338.367188 373.847656 345.148438 372.023438 351.664062 C 371.140625 354.816406 369.082031 357.441406 366.226562 359.054688 C 364.355469 360.101562 362.296875 360.632812 360.21875 360.632812 " fill-opacity="1" fill-rule="nonzero"/><path fill="#ffffff" d="M 171.429688 304.808594 L 176.25 287.582031 L 261.355469 308.667969 L 255.152344 330.835938 L 171.429688 304.808594 " fill-opacity="1" fill-rule="nonzero"/><path fill="#000000" d="M 175.984375 287.132812 L 170.972656 305.058594 L 255.414062 331.308594 L 261.820312 308.398438 Z M 176.511719 288.03125 L 260.894531 308.9375 L 254.902344 330.367188 L 171.886719 304.558594 L 176.511719 288.03125 " fill-opacity="1" fill-rule="nonzero"/><path fill="#ffffff" d="M 159.210938 295.546875 L 160.878906 289.59375 L 176.382812 288.46875 L 172 304.136719 L 159.210938 295.546875 " fill-opacity="1" fill-rule="nonzero"/><path fill="#000000" d="M 176.886719 288.058594 L 160.585938 289.238281 L 158.777344 295.707031 L 172.222656 304.734375 Z M 175.878906 288.878906 L 171.78125 303.535156 L 159.644531 295.386719 L 161.167969 289.945312 L 175.878906 288.878906 " fill-opacity="1" fill-rule="nonzero"/><path fill="#000000" d="M 160.585938 289.238281 L 151.460938 289.949219 L 158.777344 295.707031 Z M 160.585938 289.238281 " fill-opacity="1" fill-rule="nonzero"/><path fill="#000000" d="M 349.535156 364.765625 C 347.992188 364.765625 346.433594 364.554688 344.898438 364.128906 L 263.472656 341.40625 C 262.679688 341.183594 262.210938 340.359375 262.433594 339.5625 C 262.65625 338.769531 263.480469 338.304688 264.277344 338.527344 L 345.707031 361.25 C 349.921875 362.429688 354.363281 361.613281 357.890625 359.007812 L 365.695312 353.242188 C 366.355469 352.75 367.292969 352.894531 367.78125 353.554688 C 368.273438 354.21875 368.132812 355.152344 367.46875 355.644531 L 359.667969 361.410156 C 356.675781 363.617188 353.144531 364.765625 349.535156 364.765625 " fill-opacity="1" fill-rule="nonzero"/><path fill="#ffffff" d="M 360.207031 359.882812 C 359.15625 359.882812 358.109375 359.738281 357.09375 359.457031 L 350.765625 357.691406 L 356.972656 335.5 L 363.300781 337.265625 C 369.429688 338.972656 373.015625 345.34375 371.304688 351.464844 C 370.476562 354.421875 368.542969 356.886719 365.855469 358.402344 C 364.128906 359.371094 362.175781 359.882812 360.207031 359.882812 " fill-opacity="1" fill-rule="nonzero"/><path fill="#000000" d="M 356.710938 335.039062 L 350.304688 357.949219 L 356.996094 359.816406 C 358.066406 360.113281 359.140625 360.257812 360.207031 360.257812 C 362.277344 360.257812 364.285156 359.714844 366.042969 358.726562 C 368.691406 357.230469 370.78125 354.722656 371.664062 351.566406 C 373.433594 345.238281 369.734375 338.671875 363.402344 336.90625 Z M 357.226562 335.960938 L 363.203125 337.625 C 369.128906 339.28125 372.601562 345.441406 370.945312 351.363281 C 370.144531 354.226562 368.273438 356.613281 365.675781 358.078125 C 364.003906 359.015625 362.109375 359.511719 360.207031 359.511719 C 359.191406 359.511719 358.179688 359.371094 357.195312 359.097656 L 351.222656 357.429688 L 357.226562 335.960938 " fill-opacity="1" fill-rule="nonzero"/><path fill="#000000" d="M 262.609375 357.371094 L 281.644531 507.636719 L 309.351562 507.636719 L 293.539062 381.597656 L 295.339844 381.597656 L 312.066406 507.636719 L 336.773438 507.636719 L 322.25 358.035156 L 262.609375 357.371094 " fill-opacity="1" fill-rule="nonzero"/><path fill="#ffffff" d="M 274.980469 239.789062 L 275.445312 249.59375 C 275.621094 253.210938 277.757812 256.441406 281.019531 258.019531 L 281.492188 258.246094 L 281.492188 263.289062 L 296.925781 263.289062 L 296.925781 245.984375 L 274.980469 239.789062 " fill-opacity="1" fill-rule="nonzero"/><path fill="#000000" d="M 281.867188 262.914062 L 296.550781 262.914062 L 296.550781 246.269531 L 275.382812 240.289062 L 275.820312 249.578125 C 275.988281 253.058594 278.039062 256.164062 281.183594 257.683594 L 281.652344 257.910156 C 281.785156 257.972656 281.867188 258.105469 281.867188 258.246094 Z M 296.925781 263.660156 L 281.492188 263.660156 C 281.285156 263.660156 281.121094 263.496094 281.121094 263.289062 L 281.121094 258.480469 L 280.855469 258.355469 C 277.46875 256.71875 275.253906 253.367188 275.074219 249.613281 L 274.609375 239.804688 C 274.605469 239.683594 274.65625 239.570312 274.75 239.496094 C 274.84375 239.417969 274.96875 239.394531 275.085938 239.425781 L 297.027344 245.628906 C 297.183594 245.671875 297.296875 245.820312 297.296875 245.984375 L 297.296875 263.289062 C 297.296875 263.496094 297.128906 263.660156 296.925781 263.660156 " fill-opacity="1" fill-rule="nonzero"/><path fill="#000000" d="M 278.476562 251.933594 C 278.359375 251.933594 278.25 251.925781 278.132812 251.90625 C 277.933594 251.875 277.792969 251.683594 277.824219 251.480469 C 277.855469 251.277344 278.046875 251.136719 278.253906 251.167969 C 279.152344 251.3125 280.097656 250.585938 280.671875 249.320312 C 281.292969 247.945312 281.367188 246.09375 280.113281 245.054688 C 279.546875 244.578125 278.980469 244.394531 278.429688 244.503906 C 277.207031 244.746094 276.375 246.316406 276.367188 246.332031 C 276.265625 246.515625 276.046875 246.585938 275.859375 246.492188 C 275.675781 246.394531 275.605469 246.171875 275.703125 245.988281 C 275.742188 245.910156 276.707031 244.089844 278.277344 243.773438 C 279.0625 243.617188 279.839844 243.855469 280.59375 244.480469 C 282.144531 245.773438 282.09375 247.996094 281.355469 249.628906 C 280.699219 251.066406 279.597656 251.933594 278.476562 251.933594 " fill-opacity="1" fill-rule="nonzero"/><path fill="#000000" d="M 288.09375 226.296875 C 274.371094 226.296875 274.421875 232.949219 274.421875 241.15625 C 274.421875 243.222656 275.367188 244.292969 276.539062 245.40625 C 277.246094 244.519531 278.636719 243.335938 280.355469 244.769531 C 281.949219 246.09375 281.671875 248.625 280.605469 250.195312 C 283.320312 253.347656 287.4375 255.9375 291.007812 255.9375 C 298.558594 255.9375 301.765625 249.363281 301.765625 241.15625 C 301.765625 232.949219 299.535156 226.296875 288.09375 226.296875 " fill-opacity="1" fill-rule="nonzero"/><path fill="#000000" d="M 278.335938 250.363281 C 278.230469 250.363281 278.132812 250.324219 278.0625 250.246094 C 277.917969 250.097656 277.929688 249.859375 278.078125 249.71875 C 278.765625 249.066406 279.125 248.378906 279.140625 247.675781 C 279.167969 246.660156 278.492188 245.9375 278.484375 245.929688 C 278.34375 245.78125 278.347656 245.542969 278.496094 245.402344 C 278.648438 245.261719 278.886719 245.265625 279.027344 245.414062 C 279.0625 245.453125 279.921875 246.371094 279.890625 247.691406 C 279.867188 248.605469 279.425781 249.46875 278.589844 250.261719 C 278.519531 250.328125 278.421875 250.363281 278.335938 250.363281 " fill-opacity="1" fill-rule="nonzero"/><path fill="#ec3337" d="M 262.074219 362.644531 C 262.09375 361.5 262.066406 359.074219 262.039062 355.605469 C 261.9375 345.300781 261.761719 326.121094 262.335938 308.289062 C 262.339844 308.128906 262.246094 307.984375 262.09375 307.925781 C 262.050781 307.914062 262.007812 307.902344 261.964844 307.902344 C 261.855469 307.902344 261.746094 307.953125 261.675781 308.042969 L 255.726562 315.382812 C 251.84375 320.179688 246.070312 322.929688 239.894531 322.929688 C 238.441406 322.929688 236.988281 322.777344 235.566406 322.46875 L 199.660156 314.675781 L 200.550781 303.710938 C 200.550781 303.710938 238.5625 305.886719 238.570312 305.886719 C 238.691406 305.886719 238.808594 305.828125 238.878906 305.726562 C 239.078125 305.4375 258.921875 276.832031 267.375 268.496094 C 270 265.902344 277.953125 263.625 281.371094 263.625 C 281.59375 263.625 281.789062 263.636719 281.960938 263.65625 C 281.972656 263.660156 282.015625 263.660156 282.019531 263.660156 L 296.9375 263.121094 C 297.011719 263.128906 307.46875 263.71875 310.652344 267.683594 C 310.664062 267.695312 310.675781 267.707031 310.6875 267.71875 C 320.828125 277.566406 329.121094 295.082031 334.027344 317.03125 C 334.558594 319.402344 333.996094 321.847656 332.472656 323.738281 C 330.941406 325.652344 328.671875 326.75 326.253906 326.75 C 325.707031 326.75 325.152344 326.691406 324.601562 326.578125 L 323.070312 326.261719 C 323.046875 326.257812 323.019531 326.253906 322.996094 326.253906 C 322.90625 326.253906 322.820312 326.285156 322.75 326.347656 C 322.660156 326.421875 322.613281 326.535156 322.625 326.652344 C 323.816406 344.492188 323.921875 360.066406 323.929688 362.644531 L 262.074219 362.644531 " fill-opacity="1" fill-rule="nonzero"/><path fill="#000000" d="M 296.925781 262.75 L 282.007812 263.289062 C 281.820312 263.265625 281.605469 263.253906 281.371094 263.253906 C 278.023438 263.253906 269.890625 265.488281 267.113281 268.230469 C 258.539062 276.691406 238.570312 305.511719 238.570312 305.511719 L 200.207031 303.316406 L 199.261719 314.972656 L 235.488281 322.832031 C 236.953125 323.148438 238.429688 323.304688 239.890625 323.304688 C 246.074219 323.304688 252.035156 320.539062 256.019531 315.617188 L 261.964844 308.277344 C 261.171875 332.777344 261.808594 359.714844 261.695312 363.019531 L 324.304688 363.019531 C 324.304688 363.019531 324.308594 346.3125 322.996094 326.628906 L 324.527344 326.945312 C 325.113281 327.0625 325.691406 327.121094 326.253906 327.121094 C 331.441406 327.121094 335.585938 322.285156 334.390625 316.949219 C 327.140625 284.542969 315.105469 271.488281 310.949219 267.453125 C 307.617188 263.304688 296.925781 262.75 296.925781 262.75 Z M 296.917969 263.496094 C 297.542969 263.535156 307.363281 264.183594 310.363281 267.917969 C 310.382812 267.941406 310.402344 267.964844 310.425781 267.988281 C 320.515625 277.785156 328.769531 295.230469 333.660156 317.113281 C 334.167969 319.371094 333.632812 321.703125 332.183594 323.503906 C 330.722656 325.328125 328.558594 326.375 326.253906 326.375 C 325.730469 326.375 325.203125 326.320312 324.675781 326.210938 L 323.148438 325.894531 C 323.097656 325.886719 323.046875 325.878906 322.996094 325.878906 C 322.816406 325.878906 322.640625 325.945312 322.503906 326.0625 C 322.328125 326.21875 322.234375 326.445312 322.25 326.675781 C 323.390625 343.789062 323.539062 358.8125 323.554688 362.273438 L 262.453125 362.273438 C 262.460938 361.007812 262.441406 358.726562 262.410156 355.597656 C 262.316406 345.296875 262.132812 326.121094 262.714844 308.300781 C 262.722656 307.980469 262.523438 307.691406 262.226562 307.578125 C 262.140625 307.546875 262.050781 307.53125 261.964844 307.53125 C 261.742188 307.53125 261.53125 307.628906 261.386719 307.808594 L 255.4375 315.148438 C 251.621094 319.855469 245.957031 322.558594 239.890625 322.558594 C 238.46875 322.558594 237.039062 322.402344 235.648438 322.101562 L 200.058594 314.378906 L 200.894531 304.105469 L 238.527344 306.257812 C 238.542969 306.257812 238.554688 306.257812 238.570312 306.257812 C 238.816406 306.257812 239.042969 306.140625 239.183594 305.9375 C 239.382812 305.652344 259.210938 277.074219 267.636719 268.761719 C 270.207031 266.226562 278.015625 264 281.371094 264 C 281.578125 264 281.761719 264.007812 281.914062 264.027344 C 281.945312 264.03125 281.972656 264.035156 282.007812 264.035156 C 282.015625 264.035156 282.027344 264.035156 282.035156 264.035156 L 296.917969 263.496094 " fill-opacity="1" fill-rule="nonzero"/><path fill="#ffffff" d="M 200.003906 305.832031 L 192.859375 304.558594 C 191.835938 304.375 190.863281 305.066406 190.699219 306.089844 C 190.550781 307.011719 191.113281 307.902344 192.011719 308.164062 L 195.222656 309.097656 C 195.222656 309.097656 192.179688 311.417969 184.007812 308.878906 C 184.007812 308.878906 189.824219 321.820312 199.261719 314.972656 L 200.003906 305.832031 " fill-opacity="1" fill-rule="nonzero"/><path fill="#000000" d="M 184.734375 309.480469 C 185.671875 311.207031 188.273438 315.355469 192.09375 316.367188 C 194.285156 316.953125 196.578125 316.414062 198.902344 314.769531 L 199.605469 306.140625 L 192.792969 304.925781 C 192.398438 304.855469 192 304.945312 191.671875 305.175781 C 191.34375 305.40625 191.128906 305.753906 191.066406 306.148438 C 190.949219 306.882812 191.398438 307.59375 192.117188 307.804688 L 195.324219 308.742188 C 195.460938 308.777344 195.5625 308.890625 195.589844 309.03125 C 195.613281 309.167969 195.558594 309.308594 195.449219 309.394531 C 195.320312 309.492188 192.371094 311.644531 184.734375 309.480469 Z M 193.835938 317.34375 C 193.183594 317.34375 192.539062 317.261719 191.898438 317.089844 C 186.722656 315.710938 183.789062 309.300781 183.667969 309.027344 C 183.605469 308.894531 183.628906 308.738281 183.730469 308.628906 C 183.824219 308.519531 183.980469 308.476562 184.121094 308.519531 C 189.699219 310.253906 192.832031 309.671875 194.183594 309.183594 L 191.90625 308.519531 C 190.828125 308.207031 190.152344 307.136719 190.328125 306.03125 C 190.421875 305.433594 190.746094 304.914062 191.238281 304.566406 C 191.730469 304.21875 192.328125 304.082031 192.921875 304.191406 L 200.070312 305.46875 C 200.257812 305.5 200.390625 305.671875 200.375 305.863281 L 199.632812 315.003906 C 199.625 315.109375 199.570312 315.210938 199.484375 315.273438 C 197.582031 316.652344 195.691406 317.34375 193.835938 317.34375 " fill-opacity="1" fill-rule="nonzero"/><path fill="#000000" d="M 261.964844 308.652344 C 261.761719 308.652344 261.59375 308.488281 261.589844 308.28125 L 261.410156 291.820312 C 261.40625 291.613281 261.570312 291.445312 261.777344 291.441406 C 261.78125 291.441406 261.78125 291.441406 261.78125 291.441406 C 261.988281 291.441406 262.152344 291.605469 262.15625 291.8125 L 262.335938 308.273438 C 262.339844 308.480469 262.175781 308.648438 261.96875 308.652344 C 261.964844 308.652344 261.964844 308.652344 261.964844 308.652344 " fill-opacity="1" fill-rule="nonzero"/><path fill="#000000" d="M 322.996094 327 C 322.800781 327 322.640625 326.855469 322.625 326.664062 C 322.601562 326.425781 320.34375 302.628906 317.558594 289.316406 C 317.515625 289.113281 317.644531 288.914062 317.847656 288.875 C 318.042969 288.832031 318.246094 288.960938 318.292969 289.160156 C 321.085938 302.515625 323.34375 326.355469 323.367188 326.59375 C 323.386719 326.796875 323.238281 326.980469 323.027344 327 C 323.019531 327 323.007812 327 322.996094 327 " fill-opacity="1" fill-rule="nonzero"/><path fill="#000000" d="M 38.324219 365.386719 L 57.667969 377.910156 L 27.089844 378.308594 L 27.871094 365.523438 L 38.324219 365.386719 " fill-opacity="1" fill-rule="nonzero"/><path fill="#ec3337" d="M 61.800781 235.828125 L 47.316406 366.511719 L 22.664062 366.511719 L 33.546875 260.714844 L 22.242188 302.171875 C 21.433594 305.152344 19.902344 307.882812 17.78125 310.128906 L -23.027344 353.402344 L -40.269531 338.875 L -2.980469 291.53125 L 7.519531 235.828125 L 61.800781 235.828125 " fill-opacity="1" fill-rule="nonzero"/><path fill="#000000" d="M 23.078125 366.136719 L 46.980469 366.136719 L 61.382812 236.199219 L 7.828125 236.199219 L -2.613281 291.601562 C -2.625 291.660156 -2.648438 291.714844 -2.6875 291.761719 L -39.75 338.824219 L -23.054688 352.890625 L 17.511719 309.871094 C 19.578125 307.679688 21.089844 304.980469 21.882812 302.074219 L 33.1875 260.621094 C 33.238281 260.429688 33.421875 260.316406 33.617188 260.351562 C 33.808594 260.386719 33.9375 260.5625 33.917969 260.753906 Z M 47.316406 366.886719 L 22.664062 366.886719 C 22.558594 366.886719 22.457031 366.839844 22.386719 366.761719 C 22.316406 366.683594 22.28125 366.578125 22.292969 366.472656 L 32.710938 265.210938 L 22.605469 302.273438 C 21.78125 305.296875 20.207031 308.101562 18.054688 310.382812 L -22.753906 353.660156 C -22.890625 353.804688 -23.113281 353.816406 -23.265625 353.691406 L -40.511719 339.160156 C -40.664062 339.03125 -40.6875 338.800781 -40.5625 338.644531 L -3.332031 291.375 L 7.152344 235.757812 C 7.183594 235.582031 7.339844 235.453125 7.519531 235.453125 L 61.800781 235.453125 C 61.90625 235.453125 62.007812 235.5 62.078125 235.578125 C 62.148438 235.65625 62.183594 235.761719 62.171875 235.867188 L 47.6875 366.554688 C 47.667969 366.742188 47.507812 366.886719 47.316406 366.886719 " fill-opacity="1" fill-rule="nonzero"/><path fill="#000000" d="M 5.65625 246.09375 C 5.449219 246.09375 5.28125 245.925781 5.28125 245.71875 C 5.28125 245.511719 5.449219 245.347656 5.65625 245.347656 C 6.03125 245.34375 14.890625 245.222656 16.949219 235.847656 C 16.996094 235.648438 17.191406 235.519531 17.398438 235.5625 C 17.597656 235.609375 17.726562 235.808594 17.679688 236.007812 C 15.488281 245.976562 5.753906 246.09375 5.65625 246.09375 " fill-opacity="1" fill-rule="nonzero"/><path fill="#000000" d="M 60.914062 244.21875 C 60.855469 244.21875 60.796875 244.207031 60.742188 244.175781 C 56.5 242.050781 57.261719 236.03125 57.296875 235.777344 C 57.324219 235.574219 57.511719 235.429688 57.714844 235.457031 C 57.921875 235.484375 58.0625 235.671875 58.039062 235.875 C 58.027344 235.933594 57.316406 241.625 61.078125 243.511719 C 61.265625 243.601562 61.335938 243.828125 61.246094 244.011719 C 61.179688 244.144531 61.046875 244.21875 60.914062 244.21875 " fill-opacity="1" fill-rule="nonzero"/><path fill="#000000" d="M 33.546875 261.089844 C 33.515625 261.089844 33.484375 261.085938 33.453125 261.078125 C 33.253906 261.027344 33.132812 260.824219 33.183594 260.625 L 34.96875 253.679688 C 34.984375 253.628906 35.011719 253.578125 35.046875 253.535156 L 39.65625 248.03125 C 39.789062 247.871094 40.023438 247.851562 40.183594 247.984375 C 40.339844 248.117188 40.363281 248.351562 40.230469 248.511719 L 35.675781 253.949219 L 33.910156 260.808594 C 33.867188 260.976562 33.714844 261.089844 33.546875 261.089844 " fill-opacity="1" fill-rule="nonzero"/><path fill="#ffffff" d="M 48.855469 235.902344 C 34.070312 235.902344 11.191406 235.449219 8.066406 235.382812 C 7.945312 230.890625 6.726562 185.449219 6.589844 165.558594 C 6.542969 159.023438 7.648438 143.8125 18.828125 143.722656 C 18.84375 143.722656 18.859375 143.722656 18.871094 143.722656 L 25.550781 142.894531 L 40.742188 142.851562 C 43.398438 143.199219 79.480469 153.746094 84.683594 155.269531 L 72.042969 167.359375 C 72.042969 167.359375 57.089844 166.761719 57.085938 166.761719 C 56.972656 166.761719 56.867188 166.8125 56.796875 166.898438 C 56.722656 166.988281 56.695312 167.109375 56.722656 167.222656 C 63.058594 193.605469 61.582031 232.363281 61.4375 235.585938 C 60.804688 235.71875 58.222656 235.902344 48.855469 235.902344 " fill-opacity="1" fill-rule="nonzero"/><path fill="#000000" d="M 40.765625 142.476562 L 25.527344 142.519531 L 18.828125 143.351562 C 7.734375 143.4375 6.160156 157.695312 6.214844 165.5625 C 6.359375 186.636719 7.703125 235.75 7.703125 235.75 C 7.703125 235.75 32.851562 236.273438 48.855469 236.273438 C 56.308594 236.273438 61.773438 236.160156 61.800781 235.828125 C 61.851562 235.117188 63.65625 194.488281 57.085938 167.136719 L 72.1875 167.738281 L 85.410156 155.09375 C 85.410156 155.09375 43.484375 142.796875 40.765625 142.476562 Z M 40.714844 143.222656 C 43.042969 143.550781 69.273438 151.144531 83.960938 155.445312 L 71.898438 166.980469 L 57.113281 166.390625 C 57.105469 166.390625 57.09375 166.390625 57.085938 166.390625 C 56.863281 166.390625 56.648438 166.488281 56.507812 166.664062 C 56.359375 166.84375 56.304688 167.082031 56.359375 167.3125 C 62.484375 192.8125 61.269531 230.457031 61.078125 235.261719 C 60.167969 235.375 57.375 235.527344 48.855469 235.527344 C 34.542969 235.527344 12.644531 235.101562 8.429688 235.015625 C 8.265625 228.890625 7.097656 185.003906 6.960938 165.558594 C 6.9375 161.785156 7.273438 156.339844 9.035156 151.808594 C 11.011719 146.726562 14.308594 144.132812 18.832031 144.097656 C 18.859375 144.097656 18.890625 144.097656 18.917969 144.09375 L 25.574219 143.265625 L 40.714844 143.222656 " fill-opacity="1" fill-rule="nonzero"/><path fill="#ffffff" d="M 36.746094 151.789062 C 36.671875 151.789062 36.597656 151.765625 36.535156 151.722656 L 24.046875 143.3125 C 23.941406 143.242188 23.878906 143.125 23.878906 143 L 24.074219 128.082031 C 23.90625 128.09375 23.695312 128.105469 23.460938 128.105469 C 22.71875 128.105469 21.648438 127.996094 20.761719 127.460938 C 19.695312 126.816406 19.152344 125.75 19.152344 124.289062 C 19.152344 120.898438 21.332031 120.390625 22.632812 120.390625 C 23.1875 120.390625 23.691406 120.480469 24.050781 120.5625 C 24.003906 118.90625 24.0625 113.800781 26.34375 111.367188 C 27.164062 110.492188 28.1875 110.050781 29.382812 110.050781 C 29.527344 110.050781 29.675781 110.058594 29.832031 110.070312 C 31.21875 110.191406 32.746094 110.195312 34.363281 110.199219 C 39.597656 110.210938 45.527344 110.222656 45.527344 115.058594 L 45.527344 129.800781 C 45.527344 133.359375 43.308594 136.503906 39.980469 137.707031 L 40.210938 142.460938 C 40.214844 142.507812 40.207031 142.554688 40.191406 142.597656 L 37.097656 151.535156 C 37.0625 151.644531 36.972656 151.734375 36.863281 151.769531 C 36.824219 151.78125 36.785156 151.789062 36.746094 151.789062 " fill-opacity="1" fill-rule="nonzero"/><path fill="#000000" d="M 29.382812 109.675781 C 28.078125 109.675781 26.964844 110.160156 26.070312 111.113281 C 23.882812 113.445312 23.65625 118.0625 23.667969 120.105469 C 23.363281 120.058594 23.007812 120.019531 22.632812 120.019531 C 21.585938 120.019531 20.722656 120.304688 20.066406 120.867188 C 19.214844 121.597656 18.78125 122.75 18.78125 124.289062 C 18.78125 126.914062 20.53125 128.480469 23.460938 128.480469 C 23.542969 128.480469 23.621094 128.480469 23.695312 128.476562 L 23.507812 142.996094 C 23.503906 143.246094 23.628906 143.484375 23.835938 143.621094 L 36.328125 152.035156 C 36.453125 152.117188 36.597656 152.160156 36.746094 152.160156 C 36.824219 152.160156 36.90625 152.148438 36.984375 152.121094 C 37.203125 152.050781 37.375 151.878906 37.453125 151.65625 L 40.546875 142.722656 C 40.574219 142.632812 40.589844 142.535156 40.585938 142.441406 L 40.375 138.179688 L 40.363281 137.960938 C 43.699219 136.636719 45.898438 133.425781 45.898438 129.800781 L 45.898438 115.058594 C 45.898438 109.851562 39.773438 109.835938 34.367188 109.824219 C 32.757812 109.820312 31.234375 109.820312 29.863281 109.699219 C 29.703125 109.683594 29.539062 109.675781 29.382812 109.675781 Z M 29.382812 110.421875 C 29.519531 110.421875 29.65625 110.429688 29.800781 110.441406 C 35.886719 110.976562 45.152344 109.257812 45.152344 115.058594 L 45.152344 129.800781 C 45.152344 133.371094 42.820312 136.398438 39.59375 137.445312 L 39.628906 138.21875 L 39.835938 142.476562 L 36.746094 151.414062 L 24.253906 143.003906 L 24.453125 127.664062 C 24.453125 127.664062 24.042969 127.734375 23.460938 127.734375 C 22.019531 127.734375 19.527344 127.300781 19.527344 124.289062 C 19.527344 121.367188 21.230469 120.765625 22.632812 120.765625 C 23.613281 120.765625 24.445312 121.058594 24.445312 121.058594 C 24.445312 121.058594 23.75 110.421875 29.382812 110.421875 " fill-opacity="1" fill-rule="nonzero"/><path fill="#000000" d="M 38.761719 129.507812 C 38.648438 129.507812 38.539062 129.457031 38.460938 129.359375 C 38.339844 129.195312 38.371094 128.957031 38.539062 128.835938 L 40.085938 127.675781 C 40.292969 127.519531 40.421875 127.292969 40.445312 127.035156 C 40.46875 126.777344 40.386719 126.53125 40.214844 126.335938 L 38.964844 124.953125 C 38.902344 124.882812 38.867188 124.785156 38.871094 124.6875 L 39.027344 121.308594 C 39.035156 121.101562 39.199219 120.9375 39.417969 120.953125 C 39.625 120.960938 39.78125 121.136719 39.773438 121.34375 L 39.625 124.570312 L 40.769531 125.835938 C 41.082031 126.183594 41.234375 126.644531 41.1875 127.105469 C 41.144531 127.570312 40.90625 127.992188 40.535156 128.273438 L 38.988281 129.433594 C 38.921875 129.484375 38.839844 129.507812 38.761719 129.507812 " fill-opacity="1" fill-rule="nonzero"/><path fill="#000000" d="M 39.910156 138.140625 C 39.90625 138.140625 39.902344 138.140625 39.902344 138.140625 C 39.722656 138.136719 35.546875 138.03125 33.648438 137.195312 C 33.457031 137.113281 33.371094 136.890625 33.457031 136.703125 C 33.535156 136.515625 33.757812 136.425781 33.949219 136.511719 C 35.714844 137.289062 39.875 137.394531 39.917969 137.394531 C 40.125 137.398438 40.289062 137.570312 40.285156 137.777344 C 40.277344 137.980469 40.113281 138.140625 39.910156 138.140625 " fill-opacity="1" fill-rule="nonzero"/><path fill="#000000" d="M 36.359375 118.941406 C 36.246094 118.941406 36.132812 118.890625 36.058594 118.789062 C 36.015625 118.730469 35.121094 117.566406 33.527344 118.34375 C 33.34375 118.433594 33.117188 118.355469 33.027344 118.171875 C 32.9375 117.984375 33.015625 117.761719 33.199219 117.671875 C 34.9375 116.824219 36.226562 117.746094 36.664062 118.347656 C 36.785156 118.515625 36.746094 118.75 36.578125 118.871094 C 36.515625 118.917969 36.4375 118.941406 36.359375 118.941406 " fill-opacity="1" fill-rule="nonzero"/><path fill="#000000" d="M 44.019531 118.941406 C 43.925781 118.941406 43.832031 118.90625 43.757812 118.832031 C 43.714844 118.789062 42.640625 117.773438 41.191406 118.796875 C 41.019531 118.914062 40.789062 118.875 40.667969 118.707031 C 40.550781 118.539062 40.589844 118.304688 40.757812 118.183594 C 42.335938 117.074219 43.753906 117.777344 44.285156 118.304688 C 44.429688 118.449219 44.429688 118.683594 44.285156 118.832031 C 44.210938 118.90625 44.117188 118.941406 44.019531 118.941406 " fill-opacity="1" fill-rule="nonzero"/><path fill="#000000" d="M 21.125 126.960938 C 21.003906 126.960938 20.890625 126.902344 20.816406 126.800781 C 18.589844 123.53125 21.433594 121.445312 21.464844 121.425781 C 21.632812 121.304688 21.863281 121.34375 21.984375 121.511719 C 22.105469 121.679688 22.066406 121.914062 21.898438 122.03125 C 21.804688 122.101562 19.625 123.726562 21.433594 126.378906 C 21.550781 126.550781 21.507812 126.78125 21.335938 126.898438 C 21.269531 126.941406 21.199219 126.960938 21.125 126.960938 " fill-opacity="1" fill-rule="nonzero"/><path fill="#000000" d="M 23.164062 125.117188 C 23.042969 125.117188 22.921875 125.058594 22.847656 124.945312 C 22.140625 123.84375 20.746094 123.820312 20.734375 123.820312 C 20.527344 123.820312 20.363281 123.652344 20.363281 123.449219 C 20.363281 123.242188 20.527344 123.074219 20.734375 123.074219 C 20.808594 123.074219 22.542969 123.09375 23.480469 124.542969 C 23.589844 124.71875 23.539062 124.949219 23.367188 125.0625 C 23.304688 125.101562 23.234375 125.117188 23.164062 125.117188 " fill-opacity="1" fill-rule="nonzero"/><path fill="#000000" d="M 35.691406 121.382812 C 35.722656 121.949219 35.492188 122.425781 35.175781 122.441406 C 34.855469 122.457031 34.570312 122.015625 34.539062 121.445312 C 34.507812 120.882812 34.738281 120.40625 35.058594 120.390625 C 35.378906 120.371094 35.660156 120.816406 35.691406 121.382812 " fill-opacity="1" fill-rule="nonzero"/><path fill="#000000" d="M 43.242188 121.382812 C 43.273438 121.949219 43.042969 122.425781 42.722656 122.441406 C 42.40625 122.457031 42.121094 122.015625 42.089844 121.445312 C 42.058594 120.882812 42.289062 120.40625 42.609375 120.390625 C 42.929688 120.371094 43.210938 120.816406 43.242188 121.382812 " fill-opacity="1" fill-rule="nonzero"/><path fill="#000000" d="M 26.148438 106.398438 C 26.207031 106.257812 23.773438 109.539062 23.597656 114.59375 C 23.511719 117.097656 23.320312 120.453125 23.320312 120.453125 C 24.761719 120.964844 26.46875 122.804688 26.46875 122.804688 L 26.992188 112.191406 C 30.203125 113.890625 41.617188 117.789062 46.421875 114.207031 C 49.496094 111.917969 50.382812 109.597656 50.382812 107.175781 C 45.03125 108.917969 42.941406 104.546875 39.921875 103.332031 C 37.53125 102.371094 35.960938 101.914062 33.386719 101.898438 C 32.292969 101.890625 30.203125 102.25 29.085938 102.773438 C 27.613281 103.460938 26.167969 104.648438 26.148438 106.398438 " fill-opacity="1" fill-rule="nonzero"/><path fill="#000000" d="M 34.050781 130.710938 C 34.050781 130.710938 37.429688 132.507812 39.910156 131.351562 C 39.910156 131.351562 37.925781 134.050781 36.359375 133.925781 C 34.792969 133.792969 34.050781 130.710938 34.050781 130.710938 " fill-opacity="1" fill-rule="nonzero"/><path fill="#000000" d="M 123.898438 135.945312 C 111.132812 124.039062 110.445312 104.046875 122.363281 91.296875 C 134.285156 78.542969 154.296875 77.855469 167.066406 89.761719 C 179.835938 101.667969 180.523438 121.660156 168.601562 134.414062 C 156.679688 147.164062 136.667969 147.851562 123.898438 135.945312 Z M 116.914062 155.09375 L 124.625 146.839844 C 140.464844 156.558594 161.476562 154.144531 174.648438 140.050781 C 189.6875 123.960938 188.820312 98.742188 172.714844 83.722656 C 156.605469 68.699219 131.355469 69.566406 116.316406 85.65625 C 103.140625 99.75 102.175781 120.851562 112.964844 135.964844 L 105.253906 144.21875 L 116.914062 155.09375 " fill-opacity="1" fill-rule="nonzero"/><path fill="#423f3f" d="M 28.640625 234 C 34.546875 239.699219 43.960938 239.53125 49.664062 233.628906 L 121.519531 159.265625 L 100.121094 138.636719 L 28.265625 213 C 22.5625 218.902344 22.730469 228.304688 28.640625 234 " fill-opacity="1" fill-rule="nonzero"/><path fill="#000000" d="M 100.128906 139.164062 L 28.535156 213.257812 C 25.847656 216.039062 24.402344 219.703125 24.472656 223.570312 C 24.539062 227.4375 26.113281 231.046875 28.898438 233.734375 C 31.683594 236.417969 35.355469 237.855469 39.222656 237.789062 C 43.09375 237.722656 46.707031 236.152344 49.394531 233.371094 L 120.992188 159.273438 Z M 38.957031 238.539062 C 34.988281 238.539062 31.242188 237.027344 28.378906 234.269531 C 25.449219 231.445312 23.796875 227.648438 23.722656 223.585938 C 23.652344 219.515625 25.167969 215.664062 27.996094 212.742188 L 99.851562 138.375 C 99.996094 138.226562 100.230469 138.222656 100.378906 138.367188 L 121.777344 158.996094 C 121.851562 159.066406 121.890625 159.160156 121.890625 159.257812 C 121.894531 159.359375 121.855469 159.453125 121.789062 159.523438 L 49.933594 233.886719 C 47.105469 236.8125 43.308594 238.464844 39.234375 238.539062 C 39.144531 238.539062 39.050781 238.539062 38.957031 238.539062 " fill-opacity="1" fill-rule="nonzero"/><path fill="#ffffff" d="M 80.894531 189.171875 C 82.742188 189.691406 84.128906 190.054688 84.863281 190.238281 L 92.644531 194.171875 C 93.402344 194.476562 94.949219 195.015625 95.601562 193.824219 C 96.023438 193.066406 95.941406 192.425781 95.277344 191.96875 C 96.003906 192.089844 97.007812 192.503906 97.660156 191.269531 C 97.972656 190.496094 97.636719 189.632812 96.917969 189.253906 C 97.699219 189.484375 98.542969 189.097656 98.851562 188.328125 C 99.1875 187.503906 98.792969 186.570312 97.96875 186.238281 L 90.125 182.886719 C 90.125 182.886719 90.535156 182.484375 92.597656 181.167969 C 93.625 180.511719 93.527344 178.460938 89.835938 179.292969 C 87.992188 179.710938 83.824219 180.347656 83.824219 180.347656 L 80.894531 189.171875 " fill-opacity="1" fill-rule="nonzero"/><path fill="#000000" d="M 81.371094 188.921875 C 82.964844 189.363281 84.1875 189.683594 84.953125 189.878906 C 84.980469 189.886719 85.003906 189.894531 85.03125 189.90625 L 92.816406 193.835938 C 94.121094 194.363281 94.914062 194.308594 95.277344 193.644531 C 95.707031 192.859375 95.390625 192.5 95.066406 192.277344 C 94.921875 192.179688 94.867188 191.992188 94.933594 191.832031 C 94.996094 191.667969 95.167969 191.574219 95.339844 191.601562 C 95.4375 191.617188 95.539062 191.640625 95.644531 191.660156 C 96.316406 191.800781 96.894531 191.921875 97.328125 191.09375 C 97.550781 190.542969 97.304688 189.878906 96.742188 189.585938 C 96.574219 189.496094 96.496094 189.292969 96.570312 189.113281 C 96.640625 188.9375 96.835938 188.84375 97.019531 188.894531 C 97.632812 189.078125 98.269531 188.769531 98.507812 188.183594 C 98.761719 187.558594 98.457031 186.839844 97.828125 186.585938 L 89.976562 183.230469 C 89.859375 183.179688 89.78125 183.078125 89.757812 182.953125 C 89.734375 182.832031 89.773438 182.707031 89.863281 182.621094 C 89.90625 182.574219 90.363281 182.152344 92.394531 180.851562 C 92.707031 180.652344 92.863281 180.277344 92.746094 180 C 92.570312 179.585938 91.726562 179.25 89.917969 179.660156 C 88.375 180.007812 85.289062 180.5 84.105469 180.679688 Z M 94.289062 194.933594 C 93.785156 194.933594 93.191406 194.792969 92.507812 194.515625 L 84.730469 190.589844 C 83.894531 190.378906 82.546875 190.023438 80.792969 189.535156 C 80.695312 189.503906 80.613281 189.4375 80.566406 189.347656 C 80.515625 189.257812 80.507812 189.152344 80.539062 189.058594 L 83.46875 180.230469 C 83.472656 180.214844 83.480469 180.195312 83.488281 180.179688 C 83.542969 180.070312 83.675781 179.992188 83.796875 179.972656 C 84.5 179.863281 88.097656 179.304688 89.753906 178.929688 C 92.519531 178.304688 93.25 179.269531 93.433594 179.710938 C 93.691406 180.324219 93.417969 181.085938 92.796875 181.480469 C 91.804688 182.113281 91.203125 182.53125 90.851562 182.789062 L 98.117188 185.894531 C 98.601562 186.089844 98.984375 186.46875 99.1875 186.953125 C 99.394531 187.441406 99.398438 187.976562 99.199219 188.464844 C 98.957031 189.070312 98.449219 189.488281 97.855469 189.636719 C 98.175781 190.152344 98.25 190.808594 98.007812 191.410156 C 97.496094 192.378906 96.777344 192.539062 96.160156 192.496094 C 96.308594 192.9375 96.234375 193.453125 95.929688 194.003906 C 95.589844 194.621094 95.039062 194.929688 94.289062 194.933594 " fill-opacity="1" fill-rule="nonzero"/><path fill="#000000" d="M 95.277344 192.34375 C 95.21875 192.34375 95.15625 192.332031 95.101562 192.300781 L 91.40625 190.3125 C 91.222656 190.214844 91.15625 189.988281 91.253906 189.804688 C 91.351562 189.625 91.578125 189.554688 91.761719 189.652344 L 95.453125 191.640625 C 95.636719 191.738281 95.703125 191.964844 95.605469 192.148438 C 95.539062 192.273438 95.410156 192.34375 95.277344 192.34375 " fill-opacity="1" fill-rule="nonzero"/><path fill="#000000" d="M 97.179688 189.6875 C 97.121094 189.6875 97.058594 189.675781 97.003906 189.644531 L 93.308594 187.65625 C 93.125 187.558594 93.058594 187.332031 93.15625 187.148438 C 93.253906 186.96875 93.480469 186.898438 93.664062 187 L 97.355469 188.988281 C 97.539062 189.085938 97.605469 189.308594 97.507812 189.492188 C 97.441406 189.617188 97.3125 189.6875 97.179688 189.6875 " fill-opacity="1" fill-rule="nonzero"/><path fill="#ffffff" d="M 73.617188 189.761719 C 58.5 189.761719 44.8125 186.886719 32.9375 181.21875 C 26.753906 178.265625 21.316406 174.660156 16.785156 170.5 L 16.640625 170.367188 C 10.71875 164.953125 7.355469 158.351562 7.855469 153.136719 C 8.15625 149.980469 9.800781 147.464844 12.746094 145.660156 C 13.847656 144.984375 15.082031 144.644531 16.414062 144.644531 C 21.546875 144.644531 27.621094 149.628906 32.503906 153.632812 C 34.535156 155.300781 36.457031 156.875 38.074219 157.90625 C 49.589844 165.234375 80.621094 177.507812 83.96875 178.820312 L 81.863281 189.484375 C 79.085938 189.667969 76.3125 189.761719 73.621094 189.761719 C 73.621094 189.761719 73.617188 189.761719 73.617188 189.761719 " fill-opacity="1" fill-rule="nonzero"/><path fill="#000000" d="M 16.414062 144.269531 C 15.066406 144.269531 13.769531 144.597656 12.550781 145.34375 C 3.507812 150.886719 7.488281 162.503906 16.386719 170.640625 C 19.144531 173.164062 37.03125 190.136719 73.617188 190.136719 C 76.367188 190.136719 79.210938 190.039062 82.175781 189.835938 L 84.394531 178.589844 C 84.394531 178.589844 50.503906 165.375 38.273438 157.589844 C 32.761719 154.082031 23.828125 144.269531 16.414062 144.269531 Z M 16.414062 145.019531 C 21.410156 145.019531 27.429688 149.953125 32.265625 153.921875 C 34.308594 155.597656 36.238281 157.179688 37.871094 158.21875 C 49.136719 165.390625 78.988281 177.261719 83.539062 179.054688 L 81.550781 189.128906 C 78.878906 189.300781 76.210938 189.390625 73.617188 189.390625 C 58.554688 189.390625 44.925781 186.527344 33.101562 180.882812 C 26.949219 177.945312 21.542969 174.363281 17.039062 170.226562 L 16.890625 170.089844 C 11.058594 164.757812 7.738281 158.273438 8.226562 153.171875 C 8.519531 150.140625 10.101562 147.71875 12.941406 145.980469 C 13.996094 145.332031 15.132812 145.019531 16.414062 145.019531 " fill-opacity="1" fill-rule="nonzero"/><path fill="#ffffff" d="M 107.417969 174.078125 L 106.328125 173.21875 C 105.726562 172.742188 105.621094 171.867188 106.101562 171.265625 C 106.578125 170.664062 107.453125 170.5625 108.054688 171.039062 L 109.144531 171.902344 C 109.746094 172.375 109.847656 173.25 109.371094 173.851562 C 108.894531 174.453125 108.019531 174.554688 107.417969 174.078125 " fill-opacity="1" fill-rule="nonzero"/><path fill="#000000" d="M 107.191406 171.113281 C 107.152344 171.113281 107.113281 171.113281 107.074219 171.121094 C 106.804688 171.152344 106.5625 171.285156 106.394531 171.5 C 106.046875 171.9375 106.121094 172.578125 106.558594 172.925781 L 107.648438 173.785156 C 107.863281 173.953125 108.128906 174.03125 108.398438 174 C 108.667969 173.96875 108.910156 173.835938 109.078125 173.621094 C 109.246094 173.40625 109.324219 173.144531 109.289062 172.875 C 109.257812 172.601562 109.125 172.363281 108.910156 172.191406 L 107.820312 171.332031 C 107.640625 171.1875 107.421875 171.113281 107.191406 171.113281 Z M 108.277344 174.753906 C 107.878906 174.753906 107.5 174.621094 107.183594 174.375 L 106.09375 173.511719 C 105.332031 172.90625 105.203125 171.796875 105.808594 171.035156 C 106.101562 170.664062 106.519531 170.429688 106.988281 170.378906 C 107.457031 170.324219 107.917969 170.453125 108.285156 170.746094 L 109.375 171.609375 C 109.746094 171.898438 109.976562 172.316406 110.03125 172.785156 C 110.089844 173.253906 109.957031 173.714844 109.664062 174.085938 C 109.371094 174.453125 108.953125 174.6875 108.484375 174.742188 C 108.414062 174.75 108.347656 174.753906 108.277344 174.753906 " fill-opacity="1" fill-rule="nonzero"/><path fill="#ffffff" d="M 105.652344 176.304688 L 104.5625 175.441406 C 103.960938 174.96875 103.859375 174.09375 104.335938 173.492188 C 104.8125 172.890625 105.6875 172.789062 106.289062 173.265625 L 107.378906 174.125 C 107.980469 174.601562 108.085938 175.476562 107.605469 176.078125 C 107.128906 176.679688 106.253906 176.78125 105.652344 176.304688 " fill-opacity="1" fill-rule="nonzero"/><path fill="#000000" d="M 105.882812 176.011719 C 106.324219 176.359375 106.964844 176.285156 107.3125 175.847656 C 107.660156 175.40625 107.585938 174.765625 107.144531 174.417969 L 106.058594 173.558594 C 105.617188 173.210938 104.976562 173.285156 104.628906 173.722656 C 104.460938 173.9375 104.386719 174.203125 104.417969 174.472656 C 104.445312 174.742188 104.582031 174.984375 104.796875 175.152344 Z M 106.515625 176.976562 C 106.128906 176.976562 105.742188 176.851562 105.417969 176.597656 L 104.332031 175.738281 C 103.960938 175.445312 103.726562 175.027344 103.675781 174.558594 C 103.617188 174.089844 103.75 173.628906 104.042969 173.257812 C 104.648438 172.5 105.761719 172.371094 106.523438 172.972656 L 107.613281 173.832031 C 108.375 174.4375 108.503906 175.546875 107.898438 176.308594 C 107.550781 176.75 107.035156 176.976562 106.515625 176.976562 " fill-opacity="1" fill-rule="nonzero"/><path fill="#ffffff" d="M 103.867188 178.554688 L 102.78125 177.691406 C 102.175781 177.21875 102.074219 176.34375 102.550781 175.742188 C 103.03125 175.140625 103.902344 175.039062 104.507812 175.515625 L 105.597656 176.375 C 106.199219 176.851562 106.300781 177.726562 105.824219 178.328125 C 105.347656 178.929688 104.472656 179.03125 103.867188 178.554688 " fill-opacity="1" fill-rule="nonzero"/><path fill="#000000" d="M 103.644531 175.589844 C 103.605469 175.589844 103.566406 175.589844 103.527344 175.59375 C 103.253906 175.625 103.011719 175.761719 102.84375 175.972656 C 102.675781 176.1875 102.601562 176.453125 102.632812 176.722656 C 102.664062 176.992188 102.796875 177.234375 103.011719 177.402344 L 104.097656 178.261719 C 104.101562 178.261719 104.101562 178.261719 104.101562 178.261719 C 104.3125 178.429688 104.578125 178.511719 104.847656 178.476562 C 105.117188 178.441406 105.359375 178.308594 105.53125 178.097656 C 105.699219 177.882812 105.773438 177.617188 105.742188 177.347656 C 105.710938 177.078125 105.578125 176.839844 105.363281 176.667969 L 104.273438 175.808594 C 104.09375 175.664062 103.871094 175.589844 103.644531 175.589844 Z M 104.730469 179.226562 C 104.332031 179.226562 103.949219 179.097656 103.636719 178.847656 L 102.546875 177.988281 C 102.175781 177.695312 101.945312 177.277344 101.890625 176.808594 C 101.835938 176.339844 101.96875 175.878906 102.257812 175.511719 C 102.550781 175.140625 102.972656 174.90625 103.4375 174.851562 C 103.90625 174.796875 104.371094 174.929688 104.738281 175.222656 L 105.828125 176.082031 C 106.195312 176.375 106.429688 176.792969 106.484375 177.261719 C 106.539062 177.730469 106.410156 178.191406 106.113281 178.558594 C 105.824219 178.929688 105.40625 179.164062 104.933594 179.214844 C 104.867188 179.226562 104.796875 179.226562 104.730469 179.226562 " fill-opacity="1" fill-rule="nonzero"/></svg>