<svg xmlns="http://www.w3.org/2000/svg" xmlns:xlink="http://www.w3.org/1999/xlink" width="500" zoomAndPan="magnify" viewBox="0 0 375 53.25" height="71" preserveAspectRatio="xMidYMid meet" version="1.0"><defs><g/></defs><g fill="#ffffff" fill-opacity="1"><g transform="translate(2.629074, 41.094748)"><g><path d="M 3.328125 0 L 3.328125 -23.625 L 6.953125 -23.625 L 6.953125 0 Z M 5.171875 -27.5625 C 4.460938 -27.5625 3.851562 -27.800781 3.34375 -28.28125 C 2.832031 -28.769531 2.578125 -29.351562 2.578125 -30.03125 C 2.578125 -30.695312 2.832031 -31.269531 3.34375 -31.75 C 3.851562 -32.238281 4.460938 -32.484375 5.171875 -32.484375 C 5.878906 -32.484375 6.484375 -32.238281 6.984375 -31.75 C 7.492188 -31.269531 7.75 -30.695312 7.75 -30.03125 C 7.75 -29.351562 7.492188 -28.769531 6.984375 -28.28125 C 6.484375 -27.800781 5.878906 -27.5625 5.171875 -27.5625 Z M 5.171875 -27.5625 "/></g></g></g><g fill="#ffffff" fill-opacity="1"><g transform="translate(12.90297, 41.094748)"><g><path d="M 6.953125 -14.21875 L 6.953125 0 L 3.328125 0 L 3.328125 -23.625 L 6.828125 -23.625 L 6.828125 -19.9375 L 7.140625 -19.9375 C 7.691406 -21.132812 8.53125 -22.097656 9.65625 -22.828125 C 10.78125 -23.566406 12.238281 -23.9375 14.03125 -23.9375 C 16.414062 -23.9375 18.34375 -23.203125 19.8125 -21.734375 C 21.289062 -20.265625 22.03125 -18.023438 22.03125 -15.015625 L 22.03125 0 L 18.390625 0 L 18.390625 -14.765625 C 18.390625 -16.617188 17.90625 -18.066406 16.9375 -19.109375 C 15.976562 -20.148438 14.660156 -20.671875 12.984375 -20.671875 C 11.242188 -20.671875 9.800781 -20.109375 8.65625 -18.984375 C 7.519531 -17.859375 6.953125 -16.269531 6.953125 -14.21875 Z M 6.953125 -14.21875 "/></g></g></g><g fill="#ffffff" fill-opacity="1"><g transform="translate(38.249334, 41.094748)"><g><path d="M 13.84375 -23.625 L 13.84375 -20.546875 L 8.546875 -20.546875 L 8.546875 0 L 4.921875 0 L 4.921875 -20.546875 L 1.109375 -20.546875 L 1.109375 -23.625 L 4.921875 -23.625 L 4.921875 -26.890625 C 4.921875 -28.242188 5.238281 -29.367188 5.875 -30.265625 C 6.507812 -31.171875 7.332031 -31.847656 8.34375 -32.296875 C 9.363281 -32.753906 10.4375 -32.984375 11.5625 -32.984375 C 12.457031 -32.984375 13.1875 -32.910156 13.75 -32.765625 C 14.3125 -32.617188 14.734375 -32.484375 15.015625 -32.359375 L 13.96875 -29.21875 C 13.78125 -29.28125 13.523438 -29.359375 13.203125 -29.453125 C 12.878906 -29.546875 12.457031 -29.59375 11.9375 -29.59375 C 10.738281 -29.59375 9.875 -29.289062 9.34375 -28.6875 C 8.8125 -28.082031 8.546875 -27.195312 8.546875 -26.03125 L 8.546875 -23.625 Z M 13.84375 -23.625 "/></g></g></g><g fill="#ffffff" fill-opacity="1"><g transform="translate(53.87549, 41.094748)"><g><path d="M 12.921875 0.5 C 10.785156 0.5 8.914062 -0.00390625 7.3125 -1.015625 C 5.707031 -2.035156 4.457031 -3.457031 3.5625 -5.28125 C 2.664062 -7.113281 2.21875 -9.25 2.21875 -11.6875 C 2.21875 -14.144531 2.664062 -16.289062 3.5625 -18.125 C 4.457031 -19.96875 5.707031 -21.394531 7.3125 -22.40625 C 8.914062 -23.425781 10.785156 -23.9375 12.921875 -23.9375 C 15.054688 -23.9375 16.925781 -23.425781 18.53125 -22.40625 C 20.132812 -21.394531 21.382812 -19.96875 22.28125 -18.125 C 23.175781 -16.289062 23.625 -14.144531 23.625 -11.6875 C 23.625 -9.25 23.175781 -7.113281 22.28125 -5.28125 C 21.382812 -3.457031 20.132812 -2.035156 18.53125 -1.015625 C 16.925781 -0.00390625 15.054688 0.5 12.921875 0.5 Z M 12.921875 -2.765625 C 14.535156 -2.765625 15.863281 -3.179688 16.90625 -4.015625 C 17.957031 -4.847656 18.734375 -5.941406 19.234375 -7.296875 C 19.742188 -8.648438 20 -10.113281 20 -11.6875 C 20 -13.269531 19.742188 -14.742188 19.234375 -16.109375 C 18.734375 -17.472656 17.957031 -18.570312 16.90625 -19.40625 C 15.863281 -20.25 14.535156 -20.671875 12.921875 -20.671875 C 11.296875 -20.671875 9.960938 -20.25 8.921875 -19.40625 C 7.878906 -18.570312 7.101562 -17.472656 6.59375 -16.109375 C 6.09375 -14.742188 5.84375 -13.269531 5.84375 -11.6875 C 5.84375 -10.113281 6.09375 -8.648438 6.59375 -7.296875 C 7.101562 -5.941406 7.878906 -4.847656 8.921875 -4.015625 C 9.960938 -3.179688 11.296875 -2.765625 12.921875 -2.765625 Z M 12.921875 -2.765625 "/></g></g></g><g fill="#ffffff" fill-opacity="1"><g transform="translate(79.714023, 41.094748)"><g><path d="M 21.046875 -30.328125 C 23.921875 -30.328125 26.441406 -29.859375 28.609375 -28.921875 C 30.785156 -27.984375 32.601562 -26.71875 34.0625 -25.125 C 35.519531 -23.53125 36.613281 -21.738281 37.34375 -19.75 C 38.082031 -17.757812 38.453125 -15.707031 38.453125 -13.59375 C 38.453125 -12.101562 38.378906 -10.59375 38.234375 -9.0625 C 38.085938 -7.539062 37.785156 -6.140625 37.328125 -4.859375 C 36.867188 -3.585938 36.160156 -2.5625 35.203125 -1.78125 C 34.242188 -1 32.945312 -0.609375 31.3125 -0.609375 C 30.59375 -0.609375 29.800781 -0.722656 28.9375 -0.953125 C 28.082031 -1.179688 27.320312 -1.554688 26.65625 -2.078125 C 25.988281 -2.597656 25.59375 -3.300781 25.46875 -4.1875 L 25.28125 -4.1875 C 24.914062 -3.289062 24.25 -2.484375 23.28125 -1.765625 C 22.3125 -1.054688 20.953125 -0.734375 19.203125 -0.796875 C 17.410156 -0.859375 15.910156 -1.359375 14.703125 -2.296875 C 13.503906 -3.234375 12.597656 -4.484375 11.984375 -6.046875 C 11.378906 -7.609375 11.078125 -9.367188 11.078125 -11.328125 C 11.078125 -13.171875 11.429688 -14.800781 12.140625 -16.21875 C 12.859375 -17.632812 13.828125 -18.769531 15.046875 -19.625 C 16.273438 -20.488281 17.660156 -21.003906 19.203125 -21.171875 C 20.734375 -21.316406 22.046875 -21.148438 23.140625 -20.671875 C 24.234375 -20.203125 24.890625 -19.628906 25.109375 -18.953125 L 25.28125 -18.953125 L 25.28125 -20.671875 L 28.546875 -20.671875 L 28.546875 -6.765625 C 28.546875 -5.898438 28.785156 -5.140625 29.265625 -4.484375 C 29.753906 -3.828125 30.457031 -3.5 31.375 -3.5 C 32.945312 -3.5 33.984375 -4.3125 34.484375 -5.9375 C 34.992188 -7.570312 35.25 -10.144531 35.25 -13.65625 C 35.25 -15.382812 34.957031 -17.066406 34.375 -18.703125 C 33.789062 -20.347656 32.90625 -21.828125 31.71875 -23.140625 C 30.539062 -24.453125 29.046875 -25.492188 27.234375 -26.265625 C 25.429688 -27.046875 23.304688 -27.4375 20.859375 -27.4375 C 17.640625 -27.4375 14.878906 -26.78125 12.578125 -25.46875 C 10.285156 -24.15625 8.523438 -22.273438 7.296875 -19.828125 C 6.078125 -17.378906 5.46875 -14.441406 5.46875 -11.015625 C 5.46875 -5.785156 6.835938 -1.75 9.578125 1.09375 C 12.328125 3.9375 16.332031 5.359375 21.59375 5.359375 C 22.71875 5.359375 23.828125 5.25 24.921875 5.03125 C 26.023438 4.8125 26.992188 4.570312 27.828125 4.3125 C 28.671875 4.0625 29.28125 3.875 29.65625 3.75 L 30.515625 6.578125 C 29.878906 6.847656 29.050781 7.113281 28.03125 7.375 C 27.007812 7.644531 25.921875 7.867188 24.765625 8.046875 C 23.617188 8.222656 22.519531 8.3125 21.46875 8.3125 C 15.195312 8.3125 10.398438 6.625 7.078125 3.25 C 3.753906 -0.125 2.09375 -4.921875 2.09375 -11.140625 C 2.09375 -15.140625 2.84375 -18.570312 4.34375 -21.4375 C 5.851562 -24.300781 8.023438 -26.5 10.859375 -28.03125 C 13.691406 -29.5625 17.085938 -30.328125 21.046875 -30.328125 Z M 19.8125 -18.15625 C 18.644531 -18.15625 17.644531 -17.847656 16.8125 -17.234375 C 15.988281 -16.617188 15.359375 -15.804688 14.921875 -14.796875 C 14.492188 -13.796875 14.28125 -12.695312 14.28125 -11.5 C 14.28125 -10.1875 14.453125 -8.953125 14.796875 -7.796875 C 15.140625 -6.648438 15.707031 -5.71875 16.5 -5 C 17.289062 -4.289062 18.351562 -3.9375 19.6875 -3.9375 C 21.75 -3.9375 23.226562 -4.554688 24.125 -5.796875 C 25.019531 -7.046875 25.46875 -8.945312 25.46875 -11.5 C 25.46875 -14.082031 24.984375 -15.835938 24.015625 -16.765625 C 23.054688 -17.691406 21.65625 -18.15625 19.8125 -18.15625 Z M 19.8125 -18.15625 "/></g></g></g><g fill="#ffffff" fill-opacity="1"><g transform="translate(120.255908, 41.094748)"><g><path d="M 13.109375 0.4375 C 11.296875 0.4375 9.664062 0.078125 8.21875 -0.640625 C 6.78125 -1.359375 5.625 -2.34375 4.75 -3.59375 C 3.882812 -4.84375 3.410156 -6.269531 3.328125 -7.875 L 7.015625 -7.875 C 7.160156 -6.445312 7.804688 -5.269531 8.953125 -4.34375 C 10.109375 -3.414062 11.492188 -2.953125 13.109375 -2.953125 C 14.398438 -2.953125 15.550781 -3.253906 16.5625 -3.859375 C 17.570312 -4.460938 18.363281 -5.296875 18.9375 -6.359375 C 19.519531 -7.421875 19.8125 -8.625 19.8125 -9.96875 C 19.8125 -11.34375 19.507812 -12.566406 18.90625 -13.640625 C 18.3125 -14.722656 17.488281 -15.578125 16.4375 -16.203125 C 15.394531 -16.835938 14.203125 -17.160156 12.859375 -17.171875 C 11.890625 -17.179688 10.898438 -17.03125 9.890625 -16.71875 C 8.878906 -16.414062 8.046875 -16.03125 7.390625 -15.5625 L 3.8125 -16 L 5.71875 -31.5 L 22.09375 -31.5 L 22.09375 -28.109375 L 8.921875 -28.109375 L 7.8125 -18.828125 L 8 -18.828125 C 8.644531 -19.335938 9.453125 -19.757812 10.421875 -20.09375 C 11.398438 -20.4375 12.414062 -20.609375 13.46875 -20.609375 C 15.394531 -20.609375 17.113281 -20.148438 18.625 -19.234375 C 20.144531 -18.316406 21.335938 -17.0625 22.203125 -15.46875 C 23.066406 -13.882812 23.5 -12.070312 23.5 -10.03125 C 23.5 -8.019531 23.050781 -6.226562 22.15625 -4.65625 C 21.257812 -3.082031 20.023438 -1.835938 18.453125 -0.921875 C 16.890625 -0.015625 15.109375 0.4375 13.109375 0.4375 Z M 13.109375 0.4375 "/></g></g></g><g fill="#ffffff" fill-opacity="1"><g transform="translate(146.586597, 41.094748)"><g><path d="M 20.0625 -18.328125 L 16.796875 -17.40625 C 16.472656 -18.226562 15.9375 -19 15.1875 -19.71875 C 14.445312 -20.4375 13.28125 -20.796875 11.6875 -20.796875 C 10.238281 -20.796875 9.035156 -20.460938 8.078125 -19.796875 C 7.117188 -19.140625 6.640625 -18.300781 6.640625 -17.28125 C 6.640625 -16.382812 6.96875 -15.671875 7.625 -15.140625 C 8.28125 -14.617188 9.304688 -14.1875 10.703125 -13.84375 L 14.21875 -12.984375 C 18.394531 -11.953125 20.484375 -9.816406 20.484375 -6.578125 C 20.484375 -5.222656 20.097656 -4.015625 19.328125 -2.953125 C 18.554688 -1.890625 17.476562 -1.046875 16.09375 -0.421875 C 14.707031 0.191406 13.097656 0.5 11.265625 0.5 C 8.847656 0.5 6.847656 -0.0195312 5.265625 -1.0625 C 3.691406 -2.113281 2.695312 -3.644531 2.28125 -5.65625 L 5.71875 -6.515625 C 6.363281 -3.972656 8.191406 -2.703125 11.203125 -2.703125 C 12.890625 -2.703125 14.234375 -3.0625 15.234375 -3.78125 C 16.234375 -4.507812 16.734375 -5.382812 16.734375 -6.40625 C 16.734375 -8.070312 15.566406 -9.175781 13.234375 -9.71875 L 9.296875 -10.640625 C 7.128906 -11.148438 5.539062 -11.945312 4.53125 -13.03125 C 3.519531 -14.113281 3.015625 -15.472656 3.015625 -17.109375 C 3.015625 -18.441406 3.390625 -19.617188 4.140625 -20.640625 C 4.898438 -21.660156 5.929688 -22.460938 7.234375 -23.046875 C 8.546875 -23.640625 10.03125 -23.9375 11.6875 -23.9375 C 14.03125 -23.9375 15.867188 -23.421875 17.203125 -22.390625 C 18.535156 -21.367188 19.488281 -20.015625 20.0625 -18.328125 Z M 20.0625 -18.328125 "/></g></g></g><g fill="#ffffff" fill-opacity="1"><g transform="translate(169.22607, 41.094748)"><g><path d="M 13.84375 -23.625 L 13.84375 -20.546875 L 8.546875 -20.546875 L 8.546875 0 L 4.921875 0 L 4.921875 -20.546875 L 1.109375 -20.546875 L 1.109375 -23.625 L 4.921875 -23.625 L 4.921875 -26.890625 C 4.921875 -28.242188 5.238281 -29.367188 5.875 -30.265625 C 6.507812 -31.171875 7.332031 -31.847656 8.34375 -32.296875 C 9.363281 -32.753906 10.4375 -32.984375 11.5625 -32.984375 C 12.457031 -32.984375 13.1875 -32.910156 13.75 -32.765625 C 14.3125 -32.617188 14.734375 -32.484375 15.015625 -32.359375 L 13.96875 -29.21875 C 13.78125 -29.28125 13.523438 -29.359375 13.203125 -29.453125 C 12.878906 -29.546875 12.457031 -29.59375 11.9375 -29.59375 C 10.738281 -29.59375 9.875 -29.289062 9.34375 -28.6875 C 8.8125 -28.082031 8.546875 -27.195312 8.546875 -26.03125 L 8.546875 -23.625 Z M 13.84375 -23.625 "/></g></g></g><g fill="#ffffff" fill-opacity="1"><g transform="translate(184.852227, 41.094748)"><g><path d="M 12.921875 0.5 C 10.785156 0.5 8.914062 -0.00390625 7.3125 -1.015625 C 5.707031 -2.035156 4.457031 -3.457031 3.5625 -5.28125 C 2.664062 -7.113281 2.21875 -9.25 2.21875 -11.6875 C 2.21875 -14.144531 2.664062 -16.289062 3.5625 -18.125 C 4.457031 -19.96875 5.707031 -21.394531 7.3125 -22.40625 C 8.914062 -23.425781 10.785156 -23.9375 12.921875 -23.9375 C 15.054688 -23.9375 16.925781 -23.425781 18.53125 -22.40625 C 20.132812 -21.394531 21.382812 -19.96875 22.28125 -18.125 C 23.175781 -16.289062 23.625 -14.144531 23.625 -11.6875 C 23.625 -9.25 23.175781 -7.113281 22.28125 -5.28125 C 21.382812 -3.457031 20.132812 -2.035156 18.53125 -1.015625 C 16.925781 -0.00390625 15.054688 0.5 12.921875 0.5 Z M 12.921875 -2.765625 C 14.535156 -2.765625 15.863281 -3.179688 16.90625 -4.015625 C 17.957031 -4.847656 18.734375 -5.941406 19.234375 -7.296875 C 19.742188 -8.648438 20 -10.113281 20 -11.6875 C 20 -13.269531 19.742188 -14.742188 19.234375 -16.109375 C 18.734375 -17.472656 17.957031 -18.570312 16.90625 -19.40625 C 15.863281 -20.25 14.535156 -20.671875 12.921875 -20.671875 C 11.296875 -20.671875 9.960938 -20.25 8.921875 -19.40625 C 7.878906 -18.570312 7.101562 -17.472656 6.59375 -16.109375 C 6.09375 -14.742188 5.84375 -13.269531 5.84375 -11.6875 C 5.84375 -10.113281 6.09375 -8.648438 6.59375 -7.296875 C 7.101562 -5.941406 7.878906 -4.847656 8.921875 -4.015625 C 9.960938 -3.179688 11.296875 -2.765625 12.921875 -2.765625 Z M 12.921875 -2.765625 "/></g></g></g><g fill="#ffffff" fill-opacity="1"><g transform="translate(210.690771, 41.094748)"><g><path d="M 10.28125 0.546875 C 8.78125 0.546875 7.421875 0.265625 6.203125 -0.296875 C 4.984375 -0.867188 4.015625 -1.695312 3.296875 -2.78125 C 2.578125 -3.863281 2.21875 -5.171875 2.21875 -6.703125 C 2.21875 -8.054688 2.484375 -9.15625 3.015625 -10 C 3.546875 -10.851562 4.253906 -11.519531 5.140625 -12 C 6.035156 -12.476562 7.023438 -12.835938 8.109375 -13.078125 C 9.191406 -13.316406 10.28125 -13.507812 11.375 -13.65625 C 12.8125 -13.84375 13.976562 -13.984375 14.875 -14.078125 C 15.78125 -14.179688 16.4375 -14.347656 16.84375 -14.578125 C 17.257812 -14.816406 17.46875 -15.226562 17.46875 -15.8125 L 17.46875 -15.9375 C 17.46875 -17.457031 17.054688 -18.632812 16.234375 -19.46875 C 15.410156 -20.3125 14.160156 -20.734375 12.484375 -20.734375 C 10.753906 -20.734375 9.394531 -20.351562 8.40625 -19.59375 C 7.425781 -18.832031 6.738281 -18.023438 6.34375 -17.171875 L 2.890625 -18.390625 C 3.503906 -19.828125 4.328125 -20.945312 5.359375 -21.75 C 6.390625 -22.5625 7.515625 -23.128906 8.734375 -23.453125 C 9.960938 -23.773438 11.171875 -23.9375 12.359375 -23.9375 C 13.117188 -23.9375 13.992188 -23.84375 14.984375 -23.65625 C 15.972656 -23.476562 16.929688 -23.113281 17.859375 -22.5625 C 18.785156 -22.007812 19.554688 -21.171875 20.171875 -20.046875 C 20.796875 -18.929688 21.109375 -17.4375 21.109375 -15.5625 L 21.109375 0 L 17.46875 0 L 17.46875 -3.203125 L 17.28125 -3.203125 C 17.039062 -2.691406 16.632812 -2.140625 16.0625 -1.546875 C 15.488281 -0.960938 14.722656 -0.46875 13.765625 -0.0625 C 12.804688 0.34375 11.644531 0.546875 10.28125 0.546875 Z M 10.828125 -2.703125 C 12.265625 -2.703125 13.476562 -2.984375 14.46875 -3.546875 C 15.457031 -4.117188 16.203125 -4.847656 16.703125 -5.734375 C 17.210938 -6.628906 17.46875 -7.566406 17.46875 -8.546875 L 17.46875 -11.875 C 17.3125 -11.6875 16.972656 -11.519531 16.453125 -11.375 C 15.941406 -11.226562 15.347656 -11.097656 14.671875 -10.984375 C 14.003906 -10.878906 13.351562 -10.785156 12.71875 -10.703125 C 12.09375 -10.628906 11.585938 -10.566406 11.203125 -10.515625 C 10.253906 -10.398438 9.375 -10.203125 8.5625 -9.921875 C 7.75 -9.648438 7.09375 -9.242188 6.59375 -8.703125 C 6.09375 -8.171875 5.84375 -7.441406 5.84375 -6.515625 C 5.84375 -5.253906 6.3125 -4.300781 7.25 -3.65625 C 8.1875 -3.019531 9.378906 -2.703125 10.828125 -2.703125 Z M 10.828125 -2.703125 "/></g></g></g><g fill="#ffffff" fill-opacity="1"><g transform="translate(235.114331, 41.094748)"><g><path d="M 3.328125 0 L 3.328125 -23.625 L 6.828125 -23.625 L 6.828125 -19.9375 L 7.140625 -19.9375 C 7.628906 -21.195312 8.421875 -22.175781 9.515625 -22.875 C 10.617188 -23.582031 11.9375 -23.9375 13.46875 -23.9375 C 15.03125 -23.9375 16.332031 -23.582031 17.375 -22.875 C 18.414062 -22.175781 19.226562 -21.195312 19.8125 -19.9375 L 20.0625 -19.9375 C 20.664062 -21.15625 21.570312 -22.125 22.78125 -22.84375 C 23.988281 -23.570312 25.4375 -23.9375 27.125 -23.9375 C 29.238281 -23.9375 30.96875 -23.273438 32.3125 -21.953125 C 33.65625 -20.640625 34.328125 -18.59375 34.328125 -15.8125 L 34.328125 0 L 30.703125 0 L 30.703125 -15.8125 C 30.703125 -17.550781 30.222656 -18.796875 29.265625 -19.546875 C 28.316406 -20.296875 27.195312 -20.671875 25.90625 -20.671875 C 24.238281 -20.671875 22.945312 -20.171875 22.03125 -19.171875 C 21.125 -18.171875 20.671875 -16.90625 20.671875 -15.375 L 20.671875 0 L 16.984375 0 L 16.984375 -16.1875 C 16.984375 -17.53125 16.546875 -18.613281 15.671875 -19.4375 C 14.796875 -20.257812 13.675781 -20.671875 12.3125 -20.671875 C 11.363281 -20.671875 10.476562 -20.421875 9.65625 -19.921875 C 8.84375 -19.421875 8.1875 -18.722656 7.6875 -17.828125 C 7.195312 -16.941406 6.953125 -15.921875 6.953125 -14.765625 L 6.953125 0 Z M 3.328125 0 "/></g></g></g><g fill="#ffffff" fill-opacity="1"><g transform="translate(272.764762, 41.094748)"><g><path d="M 5.96875 0.25 C 5.207031 0.25 4.554688 -0.0195312 4.015625 -0.5625 C 3.472656 -1.113281 3.203125 -1.765625 3.203125 -2.515625 C 3.203125 -3.273438 3.472656 -3.925781 4.015625 -4.46875 C 4.554688 -5.019531 5.207031 -5.296875 5.96875 -5.296875 C 6.726562 -5.296875 7.378906 -5.019531 7.921875 -4.46875 C 8.460938 -3.925781 8.734375 -3.273438 8.734375 -2.515625 C 8.734375 -1.765625 8.460938 -1.113281 7.921875 -0.5625 C 7.378906 -0.0195312 6.726562 0.25 5.96875 0.25 Z M 5.96875 0.25 "/></g></g></g><g fill="#ffffff" fill-opacity="1"><g transform="translate(284.699704, 41.094748)"><g><path d="M 12.921875 0.5 C 10.703125 0.5 8.789062 -0.0195312 7.1875 -1.0625 C 5.59375 -2.113281 4.363281 -3.554688 3.5 -5.390625 C 2.644531 -7.234375 2.21875 -9.332031 2.21875 -11.6875 C 2.21875 -14.082031 2.660156 -16.203125 3.546875 -18.046875 C 4.429688 -19.890625 5.671875 -21.332031 7.265625 -22.375 C 8.859375 -23.414062 10.722656 -23.9375 12.859375 -23.9375 C 14.515625 -23.9375 16.007812 -23.628906 17.34375 -23.015625 C 18.675781 -22.398438 19.769531 -21.535156 20.625 -20.421875 C 21.476562 -19.316406 22.003906 -18.023438 22.203125 -16.546875 L 18.578125 -16.546875 C 18.304688 -17.628906 17.691406 -18.585938 16.734375 -19.421875 C 15.785156 -20.253906 14.515625 -20.671875 12.921875 -20.671875 C 10.796875 -20.671875 9.082031 -19.863281 7.78125 -18.25 C 6.488281 -16.632812 5.84375 -14.488281 5.84375 -11.8125 C 5.84375 -9.070312 6.484375 -6.878906 7.765625 -5.234375 C 9.046875 -3.585938 10.765625 -2.765625 12.921875 -2.765625 C 14.335938 -2.765625 15.550781 -3.128906 16.5625 -3.859375 C 17.570312 -4.585938 18.242188 -5.597656 18.578125 -6.890625 L 22.203125 -6.890625 C 22.003906 -5.492188 21.5 -4.238281 20.6875 -3.125 C 19.882812 -2.019531 18.820312 -1.140625 17.5 -0.484375 C 16.1875 0.171875 14.660156 0.5 12.921875 0.5 Z M 12.921875 0.5 "/></g></g></g><g fill="#ffffff" fill-opacity="1"><g transform="translate(308.87718, 41.094748)"><g><path d="M 12.921875 0.5 C 10.785156 0.5 8.914062 -0.00390625 7.3125 -1.015625 C 5.707031 -2.035156 4.457031 -3.457031 3.5625 -5.28125 C 2.664062 -7.113281 2.21875 -9.25 2.21875 -11.6875 C 2.21875 -14.144531 2.664062 -16.289062 3.5625 -18.125 C 4.457031 -19.96875 5.707031 -21.394531 7.3125 -22.40625 C 8.914062 -23.425781 10.785156 -23.9375 12.921875 -23.9375 C 15.054688 -23.9375 16.925781 -23.425781 18.53125 -22.40625 C 20.132812 -21.394531 21.382812 -19.96875 22.28125 -18.125 C 23.175781 -16.289062 23.625 -14.144531 23.625 -11.6875 C 23.625 -9.25 23.175781 -7.113281 22.28125 -5.28125 C 21.382812 -3.457031 20.132812 -2.035156 18.53125 -1.015625 C 16.925781 -0.00390625 15.054688 0.5 12.921875 0.5 Z M 12.921875 -2.765625 C 14.535156 -2.765625 15.863281 -3.179688 16.90625 -4.015625 C 17.957031 -4.847656 18.734375 -5.941406 19.234375 -7.296875 C 19.742188 -8.648438 20 -10.113281 20 -11.6875 C 20 -13.269531 19.742188 -14.742188 19.234375 -16.109375 C 18.734375 -17.472656 17.957031 -18.570312 16.90625 -19.40625 C 15.863281 -20.25 14.535156 -20.671875 12.921875 -20.671875 C 11.296875 -20.671875 9.960938 -20.25 8.921875 -19.40625 C 7.878906 -18.570312 7.101562 -17.472656 6.59375 -16.109375 C 6.09375 -14.742188 5.84375 -13.269531 5.84375 -11.6875 C 5.84375 -10.113281 6.09375 -8.648438 6.59375 -7.296875 C 7.101562 -5.941406 7.878906 -4.847656 8.921875 -4.015625 C 9.960938 -3.179688 11.296875 -2.765625 12.921875 -2.765625 Z M 12.921875 -2.765625 "/></g></g></g><g fill="#ffffff" fill-opacity="1"><g transform="translate(334.715712, 41.094748)"><g><path d="M 3.328125 0 L 3.328125 -23.625 L 6.828125 -23.625 L 6.828125 -19.9375 L 7.140625 -19.9375 C 7.628906 -21.195312 8.421875 -22.175781 9.515625 -22.875 C 10.617188 -23.582031 11.9375 -23.9375 13.46875 -23.9375 C 15.03125 -23.9375 16.332031 -23.582031 17.375 -22.875 C 18.414062 -22.175781 19.226562 -21.195312 19.8125 -19.9375 L 20.0625 -19.9375 C 20.664062 -21.15625 21.570312 -22.125 22.78125 -22.84375 C 23.988281 -23.570312 25.4375 -23.9375 27.125 -23.9375 C 29.238281 -23.9375 30.96875 -23.273438 32.3125 -21.953125 C 33.65625 -20.640625 34.328125 -18.59375 34.328125 -15.8125 L 34.328125 0 L 30.703125 0 L 30.703125 -15.8125 C 30.703125 -17.550781 30.222656 -18.796875 29.265625 -19.546875 C 28.316406 -20.296875 27.195312 -20.671875 25.90625 -20.671875 C 24.238281 -20.671875 22.945312 -20.171875 22.03125 -19.171875 C 21.125 -18.171875 20.671875 -16.90625 20.671875 -15.375 L 20.671875 0 L 16.984375 0 L 16.984375 -16.1875 C 16.984375 -17.53125 16.546875 -18.613281 15.671875 -19.4375 C 14.796875 -20.257812 13.675781 -20.671875 12.3125 -20.671875 C 11.363281 -20.671875 10.476562 -20.421875 9.65625 -19.921875 C 8.84375 -19.421875 8.1875 -18.722656 7.6875 -17.828125 C 7.195312 -16.941406 6.953125 -15.921875 6.953125 -14.765625 L 6.953125 0 Z M 3.328125 0 "/></g></g></g><g fill="#ffffff" fill-opacity="1"><g transform="translate(2.629074, 41.094748)"><g><path d="M 3.328125 0 L 3.328125 -23.625 L 6.953125 -23.625 L 6.953125 0 Z M 5.171875 -27.5625 C 4.460938 -27.5625 3.851562 -27.800781 3.34375 -28.28125 C 2.832031 -28.769531 2.578125 -29.351562 2.578125 -30.03125 C 2.578125 -30.695312 2.832031 -31.269531 3.34375 -31.75 C 3.851562 -32.238281 4.460938 -32.484375 5.171875 -32.484375 C 5.878906 -32.484375 6.484375 -32.238281 6.984375 -31.75 C 7.492188 -31.269531 7.75 -30.695312 7.75 -30.03125 C 7.75 -29.351562 7.492188 -28.769531 6.984375 -28.28125 C 6.484375 -27.800781 5.878906 -27.5625 5.171875 -27.5625 Z M 5.171875 -27.5625 "/></g></g></g><g fill="#ffffff" fill-opacity="1"><g transform="translate(12.90297, 41.094748)"><g><path d="M 6.953125 -14.21875 L 6.953125 0 L 3.328125 0 L 3.328125 -23.625 L 6.828125 -23.625 L 6.828125 -19.9375 L 7.140625 -19.9375 C 7.691406 -21.132812 8.53125 -22.097656 9.65625 -22.828125 C 10.78125 -23.566406 12.238281 -23.9375 14.03125 -23.9375 C 16.414062 -23.9375 18.34375 -23.203125 19.8125 -21.734375 C 21.289062 -20.265625 22.03125 -18.023438 22.03125 -15.015625 L 22.03125 0 L 18.390625 0 L 18.390625 -14.765625 C 18.390625 -16.617188 17.90625 -18.066406 16.9375 -19.109375 C 15.976562 -20.148438 14.660156 -20.671875 12.984375 -20.671875 C 11.242188 -20.671875 9.800781 -20.109375 8.65625 -18.984375 C 7.519531 -17.859375 6.953125 -16.269531 6.953125 -14.21875 Z M 6.953125 -14.21875 "/></g></g></g><g fill="#ffffff" fill-opacity="1"><g transform="translate(38.249334, 41.094748)"><g><path d="M 13.84375 -23.625 L 13.84375 -20.546875 L 8.546875 -20.546875 L 8.546875 0 L 4.921875 0 L 4.921875 -20.546875 L 1.109375 -20.546875 L 1.109375 -23.625 L 4.921875 -23.625 L 4.921875 -26.890625 C 4.921875 -28.242188 5.238281 -29.367188 5.875 -30.265625 C 6.507812 -31.171875 7.332031 -31.847656 8.34375 -32.296875 C 9.363281 -32.753906 10.4375 -32.984375 11.5625 -32.984375 C 12.457031 -32.984375 13.1875 -32.910156 13.75 -32.765625 C 14.3125 -32.617188 14.734375 -32.484375 15.015625 -32.359375 L 13.96875 -29.21875 C 13.78125 -29.28125 13.523438 -29.359375 13.203125 -29.453125 C 12.878906 -29.546875 12.457031 -29.59375 11.9375 -29.59375 C 10.738281 -29.59375 9.875 -29.289062 9.34375 -28.6875 C 8.8125 -28.082031 8.546875 -27.195312 8.546875 -26.03125 L 8.546875 -23.625 Z M 13.84375 -23.625 "/></g></g></g><g fill="#ffffff" fill-opacity="1"><g transform="translate(53.87549, 41.094748)"><g><path d="M 12.921875 0.5 C 10.785156 0.5 8.914062 -0.00390625 7.3125 -1.015625 C 5.707031 -2.035156 4.457031 -3.457031 3.5625 -5.28125 C 2.664062 -7.113281 2.21875 -9.25 2.21875 -11.6875 C 2.21875 -14.144531 2.664062 -16.289062 3.5625 -18.125 C 4.457031 -19.96875 5.707031 -21.394531 7.3125 -22.40625 C 8.914062 -23.425781 10.785156 -23.9375 12.921875 -23.9375 C 15.054688 -23.9375 16.925781 -23.425781 18.53125 -22.40625 C 20.132812 -21.394531 21.382812 -19.96875 22.28125 -18.125 C 23.175781 -16.289062 23.625 -14.144531 23.625 -11.6875 C 23.625 -9.25 23.175781 -7.113281 22.28125 -5.28125 C 21.382812 -3.457031 20.132812 -2.035156 18.53125 -1.015625 C 16.925781 -0.00390625 15.054688 0.5 12.921875 0.5 Z M 12.921875 -2.765625 C 14.535156 -2.765625 15.863281 -3.179688 16.90625 -4.015625 C 17.957031 -4.847656 18.734375 -5.941406 19.234375 -7.296875 C 19.742188 -8.648438 20 -10.113281 20 -11.6875 C 20 -13.269531 19.742188 -14.742188 19.234375 -16.109375 C 18.734375 -17.472656 17.957031 -18.570312 16.90625 -19.40625 C 15.863281 -20.25 14.535156 -20.671875 12.921875 -20.671875 C 11.296875 -20.671875 9.960938 -20.25 8.921875 -19.40625 C 7.878906 -18.570312 7.101562 -17.472656 6.59375 -16.109375 C 6.09375 -14.742188 5.84375 -13.269531 5.84375 -11.6875 C 5.84375 -10.113281 6.09375 -8.648438 6.59375 -7.296875 C 7.101562 -5.941406 7.878906 -4.847656 8.921875 -4.015625 C 9.960938 -3.179688 11.296875 -2.765625 12.921875 -2.765625 Z M 12.921875 -2.765625 "/></g></g></g><g fill="#ffffff" fill-opacity="1"><g transform="translate(79.714023, 41.094748)"><g><path d="M 21.046875 -30.328125 C 23.921875 -30.328125 26.441406 -29.859375 28.609375 -28.921875 C 30.785156 -27.984375 32.601562 -26.71875 34.0625 -25.125 C 35.519531 -23.53125 36.613281 -21.738281 37.34375 -19.75 C 38.082031 -17.757812 38.453125 -15.707031 38.453125 -13.59375 C 38.453125 -12.101562 38.378906 -10.59375 38.234375 -9.0625 C 38.085938 -7.539062 37.785156 -6.140625 37.328125 -4.859375 C 36.867188 -3.585938 36.160156 -2.5625 35.203125 -1.78125 C 34.242188 -1 32.945312 -0.609375 31.3125 -0.609375 C 30.59375 -0.609375 29.800781 -0.722656 28.9375 -0.953125 C 28.082031 -1.179688 27.320312 -1.554688 26.65625 -2.078125 C 25.988281 -2.597656 25.59375 -3.300781 25.46875 -4.1875 L 25.28125 -4.1875 C 24.914062 -3.289062 24.25 -2.484375 23.28125 -1.765625 C 22.3125 -1.054688 20.953125 -0.734375 19.203125 -0.796875 C 17.410156 -0.859375 15.910156 -1.359375 14.703125 -2.296875 C 13.503906 -3.234375 12.597656 -4.484375 11.984375 -6.046875 C 11.378906 -7.609375 11.078125 -9.367188 11.078125 -11.328125 C 11.078125 -13.171875 11.429688 -14.800781 12.140625 -16.21875 C 12.859375 -17.632812 13.828125 -18.769531 15.046875 -19.625 C 16.273438 -20.488281 17.660156 -21.003906 19.203125 -21.171875 C 20.734375 -21.316406 22.046875 -21.148438 23.140625 -20.671875 C 24.234375 -20.203125 24.890625 -19.628906 25.109375 -18.953125 L 25.28125 -18.953125 L 25.28125 -20.671875 L 28.546875 -20.671875 L 28.546875 -6.765625 C 28.546875 -5.898438 28.785156 -5.140625 29.265625 -4.484375 C 29.753906 -3.828125 30.457031 -3.5 31.375 -3.5 C 32.945312 -3.5 33.984375 -4.3125 34.484375 -5.9375 C 34.992188 -7.570312 35.25 -10.144531 35.25 -13.65625 C 35.25 -15.382812 34.957031 -17.066406 34.375 -18.703125 C 33.789062 -20.347656 32.90625 -21.828125 31.71875 -23.140625 C 30.539062 -24.453125 29.046875 -25.492188 27.234375 -26.265625 C 25.429688 -27.046875 23.304688 -27.4375 20.859375 -27.4375 C 17.640625 -27.4375 14.878906 -26.78125 12.578125 -25.46875 C 10.285156 -24.15625 8.523438 -22.273438 7.296875 -19.828125 C 6.078125 -17.378906 5.46875 -14.441406 5.46875 -11.015625 C 5.46875 -5.785156 6.835938 -1.75 9.578125 1.09375 C 12.328125 3.9375 16.332031 5.359375 21.59375 5.359375 C 22.71875 5.359375 23.828125 5.25 24.921875 5.03125 C 26.023438 4.8125 26.992188 4.570312 27.828125 4.3125 C 28.671875 4.0625 29.28125 3.875 29.65625 3.75 L 30.515625 6.578125 C 29.878906 6.847656 29.050781 7.113281 28.03125 7.375 C 27.007812 7.644531 25.921875 7.867188 24.765625 8.046875 C 23.617188 8.222656 22.519531 8.3125 21.46875 8.3125 C 15.195312 8.3125 10.398438 6.625 7.078125 3.25 C 3.753906 -0.125 2.09375 -4.921875 2.09375 -11.140625 C 2.09375 -15.140625 2.84375 -18.570312 4.34375 -21.4375 C 5.851562 -24.300781 8.023438 -26.5 10.859375 -28.03125 C 13.691406 -29.5625 17.085938 -30.328125 21.046875 -30.328125 Z M 19.8125 -18.15625 C 18.644531 -18.15625 17.644531 -17.847656 16.8125 -17.234375 C 15.988281 -16.617188 15.359375 -15.804688 14.921875 -14.796875 C 14.492188 -13.796875 14.28125 -12.695312 14.28125 -11.5 C 14.28125 -10.1875 14.453125 -8.953125 14.796875 -7.796875 C 15.140625 -6.648438 15.707031 -5.71875 16.5 -5 C 17.289062 -4.289062 18.351562 -3.9375 19.6875 -3.9375 C 21.75 -3.9375 23.226562 -4.554688 24.125 -5.796875 C 25.019531 -7.046875 25.46875 -8.945312 25.46875 -11.5 C 25.46875 -14.082031 24.984375 -15.835938 24.015625 -16.765625 C 23.054688 -17.691406 21.65625 -18.15625 19.8125 -18.15625 Z M 19.8125 -18.15625 "/></g></g></g><g fill="#ffffff" fill-opacity="1"><g transform="translate(120.255908, 41.094748)"><g><path d="M 13.109375 0.4375 C 11.296875 0.4375 9.664062 0.078125 8.21875 -0.640625 C 6.78125 -1.359375 5.625 -2.34375 4.75 -3.59375 C 3.882812 -4.84375 3.410156 -6.269531 3.328125 -7.875 L 7.015625 -7.875 C 7.160156 -6.445312 7.804688 -5.269531 8.953125 -4.34375 C 10.109375 -3.414062 11.492188 -2.953125 13.109375 -2.953125 C 14.398438 -2.953125 15.550781 -3.253906 16.5625 -3.859375 C 17.570312 -4.460938 18.363281 -5.296875 18.9375 -6.359375 C 19.519531 -7.421875 19.8125 -8.625 19.8125 -9.96875 C 19.8125 -11.34375 19.507812 -12.566406 18.90625 -13.640625 C 18.3125 -14.722656 17.488281 -15.578125 16.4375 -16.203125 C 15.394531 -16.835938 14.203125 -17.160156 12.859375 -17.171875 C 11.890625 -17.179688 10.898438 -17.03125 9.890625 -16.71875 C 8.878906 -16.414062 8.046875 -16.03125 7.390625 -15.5625 L 3.8125 -16 L 5.71875 -31.5 L 22.09375 -31.5 L 22.09375 -28.109375 L 8.921875 -28.109375 L 7.8125 -18.828125 L 8 -18.828125 C 8.644531 -19.335938 9.453125 -19.757812 10.421875 -20.09375 C 11.398438 -20.4375 12.414062 -20.609375 13.46875 -20.609375 C 15.394531 -20.609375 17.113281 -20.148438 18.625 -19.234375 C 20.144531 -18.316406 21.335938 -17.0625 22.203125 -15.46875 C 23.066406 -13.882812 23.5 -12.070312 23.5 -10.03125 C 23.5 -8.019531 23.050781 -6.226562 22.15625 -4.65625 C 21.257812 -3.082031 20.023438 -1.835938 18.453125 -0.921875 C 16.890625 -0.015625 15.109375 0.4375 13.109375 0.4375 Z M 13.109375 0.4375 "/></g></g></g><g fill="#ffffff" fill-opacity="1"><g transform="translate(146.586597, 41.094748)"><g><path d="M 20.0625 -18.328125 L 16.796875 -17.40625 C 16.472656 -18.226562 15.9375 -19 15.1875 -19.71875 C 14.445312 -20.4375 13.28125 -20.796875 11.6875 -20.796875 C 10.238281 -20.796875 9.035156 -20.460938 8.078125 -19.796875 C 7.117188 -19.140625 6.640625 -18.300781 6.640625 -17.28125 C 6.640625 -16.382812 6.96875 -15.671875 7.625 -15.140625 C 8.28125 -14.617188 9.304688 -14.1875 10.703125 -13.84375 L 14.21875 -12.984375 C 18.394531 -11.953125 20.484375 -9.816406 20.484375 -6.578125 C 20.484375 -5.222656 20.097656 -4.015625 19.328125 -2.953125 C 18.554688 -1.890625 17.476562 -1.046875 16.09375 -0.421875 C 14.707031 0.191406 13.097656 0.5 11.265625 0.5 C 8.847656 0.5 6.847656 -0.0195312 5.265625 -1.0625 C 3.691406 -2.113281 2.695312 -3.644531 2.28125 -5.65625 L 5.71875 -6.515625 C 6.363281 -3.972656 8.191406 -2.703125 11.203125 -2.703125 C 12.890625 -2.703125 14.234375 -3.0625 15.234375 -3.78125 C 16.234375 -4.507812 16.734375 -5.382812 16.734375 -6.40625 C 16.734375 -8.070312 15.566406 -9.175781 13.234375 -9.71875 L 9.296875 -10.640625 C 7.128906 -11.148438 5.539062 -11.945312 4.53125 -13.03125 C 3.519531 -14.113281 3.015625 -15.472656 3.015625 -17.109375 C 3.015625 -18.441406 3.390625 -19.617188 4.140625 -20.640625 C 4.898438 -21.660156 5.929688 -22.460938 7.234375 -23.046875 C 8.546875 -23.640625 10.03125 -23.9375 11.6875 -23.9375 C 14.03125 -23.9375 15.867188 -23.421875 17.203125 -22.390625 C 18.535156 -21.367188 19.488281 -20.015625 20.0625 -18.328125 Z M 20.0625 -18.328125 "/></g></g></g><g fill="#ffffff" fill-opacity="1"><g transform="translate(169.22607, 41.094748)"><g><path d="M 13.84375 -23.625 L 13.84375 -20.546875 L 8.546875 -20.546875 L 8.546875 0 L 4.921875 0 L 4.921875 -20.546875 L 1.109375 -20.546875 L 1.109375 -23.625 L 4.921875 -23.625 L 4.921875 -26.890625 C 4.921875 -28.242188 5.238281 -29.367188 5.875 -30.265625 C 6.507812 -31.171875 7.332031 -31.847656 8.34375 -32.296875 C 9.363281 -32.753906 10.4375 -32.984375 11.5625 -32.984375 C 12.457031 -32.984375 13.1875 -32.910156 13.75 -32.765625 C 14.3125 -32.617188 14.734375 -32.484375 15.015625 -32.359375 L 13.96875 -29.21875 C 13.78125 -29.28125 13.523438 -29.359375 13.203125 -29.453125 C 12.878906 -29.546875 12.457031 -29.59375 11.9375 -29.59375 C 10.738281 -29.59375 9.875 -29.289062 9.34375 -28.6875 C 8.8125 -28.082031 8.546875 -27.195312 8.546875 -26.03125 L 8.546875 -23.625 Z M 13.84375 -23.625 "/></g></g></g><g fill="#ffffff" fill-opacity="1"><g transform="translate(184.852227, 41.094748)"><g><path d="M 12.921875 0.5 C 10.785156 0.5 8.914062 -0.00390625 7.3125 -1.015625 C 5.707031 -2.035156 4.457031 -3.457031 3.5625 -5.28125 C 2.664062 -7.113281 2.21875 -9.25 2.21875 -11.6875 C 2.21875 -14.144531 2.664062 -16.289062 3.5625 -18.125 C 4.457031 -19.96875 5.707031 -21.394531 7.3125 -22.40625 C 8.914062 -23.425781 10.785156 -23.9375 12.921875 -23.9375 C 15.054688 -23.9375 16.925781 -23.425781 18.53125 -22.40625 C 20.132812 -21.394531 21.382812 -19.96875 22.28125 -18.125 C 23.175781 -16.289062 23.625 -14.144531 23.625 -11.6875 C 23.625 -9.25 23.175781 -7.113281 22.28125 -5.28125 C 21.382812 -3.457031 20.132812 -2.035156 18.53125 -1.015625 C 16.925781 -0.00390625 15.054688 0.5 12.921875 0.5 Z M 12.921875 -2.765625 C 14.535156 -2.765625 15.863281 -3.179688 16.90625 -4.015625 C 17.957031 -4.847656 18.734375 -5.941406 19.234375 -7.296875 C 19.742188 -8.648438 20 -10.113281 20 -11.6875 C 20 -13.269531 19.742188 -14.742188 19.234375 -16.109375 C 18.734375 -17.472656 17.957031 -18.570312 16.90625 -19.40625 C 15.863281 -20.25 14.535156 -20.671875 12.921875 -20.671875 C 11.296875 -20.671875 9.960938 -20.25 8.921875 -19.40625 C 7.878906 -18.570312 7.101562 -17.472656 6.59375 -16.109375 C 6.09375 -14.742188 5.84375 -13.269531 5.84375 -11.6875 C 5.84375 -10.113281 6.09375 -8.648438 6.59375 -7.296875 C 7.101562 -5.941406 7.878906 -4.847656 8.921875 -4.015625 C 9.960938 -3.179688 11.296875 -2.765625 12.921875 -2.765625 Z M 12.921875 -2.765625 "/></g></g></g><g fill="#ffffff" fill-opacity="1"><g transform="translate(210.690771, 41.094748)"><g><path d="M 10.28125 0.546875 C 8.78125 0.546875 7.421875 0.265625 6.203125 -0.296875 C 4.984375 -0.867188 4.015625 -1.695312 3.296875 -2.78125 C 2.578125 -3.863281 2.21875 -5.171875 2.21875 -6.703125 C 2.21875 -8.054688 2.484375 -9.15625 3.015625 -10 C 3.546875 -10.851562 4.253906 -11.519531 5.140625 -12 C 6.035156 -12.476562 7.023438 -12.835938 8.109375 -13.078125 C 9.191406 -13.316406 10.28125 -13.507812 11.375 -13.65625 C 12.8125 -13.84375 13.976562 -13.984375 14.875 -14.078125 C 15.78125 -14.179688 16.4375 -14.347656 16.84375 -14.578125 C 17.257812 -14.816406 17.46875 -15.226562 17.46875 -15.8125 L 17.46875 -15.9375 C 17.46875 -17.457031 17.054688 -18.632812 16.234375 -19.46875 C 15.410156 -20.3125 14.160156 -20.734375 12.484375 -20.734375 C 10.753906 -20.734375 9.394531 -20.351562 8.40625 -19.59375 C 7.425781 -18.832031 6.738281 -18.023438 6.34375 -17.171875 L 2.890625 -18.390625 C 3.503906 -19.828125 4.328125 -20.945312 5.359375 -21.75 C 6.390625 -22.5625 7.515625 -23.128906 8.734375 -23.453125 C 9.960938 -23.773438 11.171875 -23.9375 12.359375 -23.9375 C 13.117188 -23.9375 13.992188 -23.84375 14.984375 -23.65625 C 15.972656 -23.476562 16.929688 -23.113281 17.859375 -22.5625 C 18.785156 -22.007812 19.554688 -21.171875 20.171875 -20.046875 C 20.796875 -18.929688 21.109375 -17.4375 21.109375 -15.5625 L 21.109375 0 L 17.46875 0 L 17.46875 -3.203125 L 17.28125 -3.203125 C 17.039062 -2.691406 16.632812 -2.140625 16.0625 -1.546875 C 15.488281 -0.960938 14.722656 -0.46875 13.765625 -0.0625 C 12.804688 0.34375 11.644531 0.546875 10.28125 0.546875 Z M 10.828125 -2.703125 C 12.265625 -2.703125 13.476562 -2.984375 14.46875 -3.546875 C 15.457031 -4.117188 16.203125 -4.847656 16.703125 -5.734375 C 17.210938 -6.628906 17.46875 -7.566406 17.46875 -8.546875 L 17.46875 -11.875 C 17.3125 -11.6875 16.972656 -11.519531 16.453125 -11.375 C 15.941406 -11.226562 15.347656 -11.097656 14.671875 -10.984375 C 14.003906 -10.878906 13.351562 -10.785156 12.71875 -10.703125 C 12.09375 -10.628906 11.585938 -10.566406 11.203125 -10.515625 C 10.253906 -10.398438 9.375 -10.203125 8.5625 -9.921875 C 7.75 -9.648438 7.09375 -9.242188 6.59375 -8.703125 C 6.09375 -8.171875 5.84375 -7.441406 5.84375 -6.515625 C 5.84375 -5.253906 6.3125 -4.300781 7.25 -3.65625 C 8.1875 -3.019531 9.378906 -2.703125 10.828125 -2.703125 Z M 10.828125 -2.703125 "/></g></g></g><g fill="#ffffff" fill-opacity="1"><g transform="translate(235.114331, 41.094748)"><g><path d="M 3.328125 0 L 3.328125 -23.625 L 6.828125 -23.625 L 6.828125 -19.9375 L 7.140625 -19.9375 C 7.628906 -21.195312 8.421875 -22.175781 9.515625 -22.875 C 10.617188 -23.582031 11.9375 -23.9375 13.46875 -23.9375 C 15.03125 -23.9375 16.332031 -23.582031 17.375 -22.875 C 18.414062 -22.175781 19.226562 -21.195312 19.8125 -19.9375 L 20.0625 -19.9375 C 20.664062 -21.15625 21.570312 -22.125 22.78125 -22.84375 C 23.988281 -23.570312 25.4375 -23.9375 27.125 -23.9375 C 29.238281 -23.9375 30.96875 -23.273438 32.3125 -21.953125 C 33.65625 -20.640625 34.328125 -18.59375 34.328125 -15.8125 L 34.328125 0 L 30.703125 0 L 30.703125 -15.8125 C 30.703125 -17.550781 30.222656 -18.796875 29.265625 -19.546875 C 28.316406 -20.296875 27.195312 -20.671875 25.90625 -20.671875 C 24.238281 -20.671875 22.945312 -20.171875 22.03125 -19.171875 C 21.125 -18.171875 20.671875 -16.90625 20.671875 -15.375 L 20.671875 0 L 16.984375 0 L 16.984375 -16.1875 C 16.984375 -17.53125 16.546875 -18.613281 15.671875 -19.4375 C 14.796875 -20.257812 13.675781 -20.671875 12.3125 -20.671875 C 11.363281 -20.671875 10.476562 -20.421875 9.65625 -19.921875 C 8.84375 -19.421875 8.1875 -18.722656 7.6875 -17.828125 C 7.195312 -16.941406 6.953125 -15.921875 6.953125 -14.765625 L 6.953125 0 Z M 3.328125 0 "/></g></g></g><g fill="#ffffff" fill-opacity="1"><g transform="translate(272.764762, 41.094748)"><g><path d="M 5.96875 0.25 C 5.207031 0.25 4.554688 -0.0195312 4.015625 -0.5625 C 3.472656 -1.113281 3.203125 -1.765625 3.203125 -2.515625 C 3.203125 -3.273438 3.472656 -3.925781 4.015625 -4.46875 C 4.554688 -5.019531 5.207031 -5.296875 5.96875 -5.296875 C 6.726562 -5.296875 7.378906 -5.019531 7.921875 -4.46875 C 8.460938 -3.925781 8.734375 -3.273438 8.734375 -2.515625 C 8.734375 -1.765625 8.460938 -1.113281 7.921875 -0.5625 C 7.378906 -0.0195312 6.726562 0.25 5.96875 0.25 Z M 5.96875 0.25 "/></g></g></g><g fill="#ffffff" fill-opacity="1"><g transform="translate(284.699704, 41.094748)"><g><path d="M 12.921875 0.5 C 10.703125 0.5 8.789062 -0.0195312 7.1875 -1.0625 C 5.59375 -2.113281 4.363281 -3.554688 3.5 -5.390625 C 2.644531 -7.234375 2.21875 -9.332031 2.21875 -11.6875 C 2.21875 -14.082031 2.660156 -16.203125 3.546875 -18.046875 C 4.429688 -19.890625 5.671875 -21.332031 7.265625 -22.375 C 8.859375 -23.414062 10.722656 -23.9375 12.859375 -23.9375 C 14.515625 -23.9375 16.007812 -23.628906 17.34375 -23.015625 C 18.675781 -22.398438 19.769531 -21.535156 20.625 -20.421875 C 21.476562 -19.316406 22.003906 -18.023438 22.203125 -16.546875 L 18.578125 -16.546875 C 18.304688 -17.628906 17.691406 -18.585938 16.734375 -19.421875 C 15.785156 -20.253906 14.515625 -20.671875 12.921875 -20.671875 C 10.796875 -20.671875 9.082031 -19.863281 7.78125 -18.25 C 6.488281 -16.632812 5.84375 -14.488281 5.84375 -11.8125 C 5.84375 -9.070312 6.484375 -6.878906 7.765625 -5.234375 C 9.046875 -3.585938 10.765625 -2.765625 12.921875 -2.765625 C 14.335938 -2.765625 15.550781 -3.128906 16.5625 -3.859375 C 17.570312 -4.585938 18.242188 -5.597656 18.578125 -6.890625 L 22.203125 -6.890625 C 22.003906 -5.492188 21.5 -4.238281 20.6875 -3.125 C 19.882812 -2.019531 18.820312 -1.140625 17.5 -0.484375 C 16.1875 0.171875 14.660156 0.5 12.921875 0.5 Z M 12.921875 0.5 "/></g></g></g><g fill="#ffffff" fill-opacity="1"><g transform="translate(308.87718, 41.094748)"><g><path d="M 12.921875 0.5 C 10.785156 0.5 8.914062 -0.00390625 7.3125 -1.015625 C 5.707031 -2.035156 4.457031 -3.457031 3.5625 -5.28125 C 2.664062 -7.113281 2.21875 -9.25 2.21875 -11.6875 C 2.21875 -14.144531 2.664062 -16.289062 3.5625 -18.125 C 4.457031 -19.96875 5.707031 -21.394531 7.3125 -22.40625 C 8.914062 -23.425781 10.785156 -23.9375 12.921875 -23.9375 C 15.054688 -23.9375 16.925781 -23.425781 18.53125 -22.40625 C 20.132812 -21.394531 21.382812 -19.96875 22.28125 -18.125 C 23.175781 -16.289062 23.625 -14.144531 23.625 -11.6875 C 23.625 -9.25 23.175781 -7.113281 22.28125 -5.28125 C 21.382812 -3.457031 20.132812 -2.035156 18.53125 -1.015625 C 16.925781 -0.00390625 15.054688 0.5 12.921875 0.5 Z M 12.921875 -2.765625 C 14.535156 -2.765625 15.863281 -3.179688 16.90625 -4.015625 C 17.957031 -4.847656 18.734375 -5.941406 19.234375 -7.296875 C 19.742188 -8.648438 20 -10.113281 20 -11.6875 C 20 -13.269531 19.742188 -14.742188 19.234375 -16.109375 C 18.734375 -17.472656 17.957031 -18.570312 16.90625 -19.40625 C 15.863281 -20.25 14.535156 -20.671875 12.921875 -20.671875 C 11.296875 -20.671875 9.960938 -20.25 8.921875 -19.40625 C 7.878906 -18.570312 7.101562 -17.472656 6.59375 -16.109375 C 6.09375 -14.742188 5.84375 -13.269531 5.84375 -11.6875 C 5.84375 -10.113281 6.09375 -8.648438 6.59375 -7.296875 C 7.101562 -5.941406 7.878906 -4.847656 8.921875 -4.015625 C 9.960938 -3.179688 11.296875 -2.765625 12.921875 -2.765625 Z M 12.921875 -2.765625 "/></g></g></g><g fill="#ffffff" fill-opacity="1"><g transform="translate(334.715712, 41.094748)"><g><path d="M 3.328125 0 L 3.328125 -23.625 L 6.828125 -23.625 L 6.828125 -19.9375 L 7.140625 -19.9375 C 7.628906 -21.195312 8.421875 -22.175781 9.515625 -22.875 C 10.617188 -23.582031 11.9375 -23.9375 13.46875 -23.9375 C 15.03125 -23.9375 16.332031 -23.582031 17.375 -22.875 C 18.414062 -22.175781 19.226562 -21.195312 19.8125 -19.9375 L 20.0625 -19.9375 C 20.664062 -21.15625 21.570312 -22.125 22.78125 -22.84375 C 23.988281 -23.570312 25.4375 -23.9375 27.125 -23.9375 C 29.238281 -23.9375 30.96875 -23.273438 32.3125 -21.953125 C 33.65625 -20.640625 34.328125 -18.59375 34.328125 -15.8125 L 34.328125 0 L 30.703125 0 L 30.703125 -15.8125 C 30.703125 -17.550781 30.222656 -18.796875 29.265625 -19.546875 C 28.316406 -20.296875 27.195312 -20.671875 25.90625 -20.671875 C 24.238281 -20.671875 22.945312 -20.171875 22.03125 -19.171875 C 21.125 -18.171875 20.671875 -16.90625 20.671875 -15.375 L 20.671875 0 L 16.984375 0 L 16.984375 -16.1875 C 16.984375 -17.53125 16.546875 -18.613281 15.671875 -19.4375 C 14.796875 -20.257812 13.675781 -20.671875 12.3125 -20.671875 C 11.363281 -20.671875 10.476562 -20.421875 9.65625 -19.921875 C 8.84375 -19.421875 8.1875 -18.722656 7.6875 -17.828125 C 7.195312 -16.941406 6.953125 -15.921875 6.953125 -14.765625 L 6.953125 0 Z M 3.328125 0 "/></g></g></g></svg>