<svg xmlns="http://www.w3.org/2000/svg" xmlns:xlink="http://www.w3.org/1999/xlink" width="48" zoomAndPan="magnify" viewBox="0 0 36 36.000001" height="48" preserveAspectRatio="xMidYMid meet" version="1.0"><defs><clipPath id="5043f3b194"><path d="M 9.703125 0 L 26.488281 0 L 26.488281 35.027344 L 9.703125 35.027344 Z M 9.703125 0 " clip-rule="nonzero"/></clipPath></defs><g clip-path="url(#5043f3b194)"><path fill="#646464" d="M 26.355469 0.0234375 L 19.933594 0.0234375 C 16.582031 0.0234375 13.867188 2.707031 13.867188 6.019531 C 13.867188 9.324219 13.867188 12.765625 13.867188 12.765625 L 9.703125 12.765625 L 9.703125 18.9375 L 13.867188 18.9375 L 13.867188 35.003906 L 20.113281 35.003906 L 20.113281 18.9375 L 25.875 18.9375 L 26.488281 12.765625 L 20.113281 12.765625 L 20.113281 9.554688 C 20.113281 7.699219 21.632812 6.195312 23.507812 6.195312 C 24.972656 6.195312 26.355469 6.195312 26.355469 6.195312 Z M 26.355469 0.0234375 " fill-opacity="1" fill-rule="evenodd"/></g></svg>