<svg xmlns="http://www.w3.org/2000/svg" xmlns:xlink="http://www.w3.org/1999/xlink" width="500" zoomAndPan="magnify" viewBox="0 0 375 374.999991" height="500" preserveAspectRatio="xMidYMid meet" version="1.0"><path fill="#ec3337" d="M 374.96875 187.472656 C 374.96875 291.023438 291.023438 374.964844 187.472656 374.964844 C 83.921875 374.964844 -0.0195312 291.023438 -0.0195312 187.472656 C -0.0234375 83.921875 83.921875 -0.0234375 187.472656 -0.0234375 C 291.023438 -0.0234375 374.96875 83.921875 374.96875 187.472656 Z M 374.96875 187.472656 " fill-opacity="1" fill-rule="nonzero"/><path fill="#ffffff" d="M 116.683594 94.082031 L 262.042969 94.082031 C 275.851562 94.082031 287.140625 105.375 287.140625 119.1875 L 287.140625 264.546875 C 287.140625 278.351562 275.851562 289.636719 262.042969 289.636719 L 116.683594 289.636719 C 102.871094 289.636719 91.570312 278.351562 91.570312 264.546875 L 91.570312 119.1875 C 91.570312 105.375 102.871094 94.082031 116.683594 94.082031 Z M 234.042969 115.800781 C 229.191406 115.800781 225.238281 119.777344 225.238281 124.617188 L 225.238281 145.679688 C 225.238281 150.53125 229.191406 154.492188 234.042969 154.492188 L 256.140625 154.492188 C 260.980469 154.492188 264.949219 150.53125 264.949219 145.679688 L 264.949219 124.617188 C 264.949219 119.777344 260.980469 115.800781 256.140625 115.800781 Z M 265.03125 176.777344 L 247.820312 176.777344 C 249.457031 182.113281 250.339844 187.726562 250.339844 193.570312 C 250.339844 226.089844 223.113281 252.464844 189.542969 252.464844 C 155.972656 252.464844 128.746094 226.089844 128.746094 193.570312 C 128.746094 187.726562 129.640625 182.113281 131.265625 176.777344 L 113.3125 176.777344 L 113.3125 259.398438 C 113.3125 263.675781 116.804688 267.152344 121.078125 267.152344 L 257.265625 267.152344 C 261.542969 267.152344 265.03125 263.675781 265.03125 259.398438 Z M 189.539062 153.382812 C 167.855469 153.382812 150.269531 170.414062 150.269531 191.445312 C 150.269531 212.453125 167.855469 229.5 189.539062 229.5 C 211.234375 229.5 228.824219 212.453125 228.824219 191.445312 C 228.824219 170.414062 211.234375 153.382812 189.539062 153.382812 Z M 189.539062 153.382812 " fill-opacity="1" fill-rule="nonzero"/></svg>