<svg xmlns="http://www.w3.org/2000/svg" xmlns:xlink="http://www.w3.org/1999/xlink" width="500" zoomAndPan="magnify" viewBox="0 0 375 374.999991" height="500" preserveAspectRatio="xMidYMid meet" version="1.0"><path fill="#ec3337" d="M 375.007812 187.507812 C 375.007812 190.578125 374.929688 193.644531 374.78125 196.707031 C 374.628906 199.773438 374.402344 202.832031 374.101562 205.886719 C 373.800781 208.941406 373.425781 211.984375 372.976562 215.019531 C 372.527344 218.054688 372.003906 221.078125 371.402344 224.085938 C 370.804688 227.097656 370.132812 230.089844 369.386719 233.066406 C 368.640625 236.042969 367.824219 239 366.933594 241.9375 C 366.042969 244.871094 365.078125 247.785156 364.046875 250.675781 C 363.011719 253.5625 361.90625 256.425781 360.734375 259.261719 C 359.558594 262.097656 358.316406 264.902344 357.003906 267.675781 C 355.691406 270.449219 354.3125 273.1875 352.867188 275.894531 C 351.417969 278.601562 349.90625 281.269531 348.332031 283.902344 C 346.753906 286.535156 345.113281 289.125 343.40625 291.675781 C 341.703125 294.230469 339.933594 296.738281 338.105469 299.203125 C 336.28125 301.667969 334.390625 304.085938 332.445312 306.457031 C 330.5 308.828125 328.496094 311.152344 326.433594 313.425781 C 324.375 315.699219 322.257812 317.921875 320.089844 320.089844 C 317.917969 322.261719 315.695312 324.375 313.421875 326.4375 C 311.148438 328.496094 308.828125 330.5 306.453125 332.449219 C 304.082031 334.394531 301.664062 336.28125 299.199219 338.109375 C 296.734375 339.9375 294.226562 341.703125 291.675781 343.410156 C 289.125 345.113281 286.53125 346.753906 283.898438 348.332031 C 281.269531 349.910156 278.597656 351.421875 275.890625 352.867188 C 273.1875 354.316406 270.445312 355.695312 267.671875 357.007812 C 264.898438 358.316406 262.09375 359.5625 259.257812 360.734375 C 256.421875 361.910156 253.5625 363.015625 250.671875 364.046875 C 247.785156 365.082031 244.871094 366.042969 241.933594 366.933594 C 238.996094 367.824219 236.039062 368.644531 233.0625 369.390625 C 230.085938 370.136719 227.09375 370.808594 224.085938 371.40625 C 221.074219 372.003906 218.054688 372.527344 215.015625 372.980469 C 211.980469 373.429688 208.9375 373.804688 205.882812 374.105469 C 202.828125 374.40625 199.769531 374.632812 196.707031 374.78125 C 193.640625 374.933594 190.574219 375.007812 187.503906 375.007812 C 184.4375 375.007812 181.371094 374.933594 178.304688 374.78125 C 175.242188 374.632812 172.179688 374.40625 169.128906 374.105469 C 166.074219 373.804688 163.027344 373.429688 159.992188 372.980469 C 156.957031 372.527344 153.933594 372.003906 150.925781 371.40625 C 147.917969 370.808594 144.921875 370.136719 141.945312 369.390625 C 138.96875 368.644531 136.011719 367.824219 133.078125 366.933594 C 130.140625 366.042969 127.226562 365.082031 124.339844 364.046875 C 121.449219 363.015625 118.585938 361.910156 115.75 360.734375 C 112.917969 359.5625 110.113281 358.316406 107.339844 357.007812 C 104.566406 355.695312 101.824219 354.316406 99.117188 352.867188 C 96.410156 351.421875 93.742188 349.910156 91.109375 348.332031 C 88.480469 346.753906 85.886719 345.113281 83.335938 343.410156 C 80.785156 341.703125 78.277344 339.9375 75.8125 338.109375 C 73.347656 336.28125 70.929688 334.394531 68.554688 332.449219 C 66.183594 330.5 63.859375 328.496094 61.585938 326.4375 C 59.3125 324.375 57.09375 322.261719 54.921875 320.089844 C 52.753906 317.921875 50.636719 315.699219 48.578125 313.425781 C 46.515625 311.152344 44.511719 308.828125 42.566406 306.457031 C 40.617188 304.085938 38.730469 301.667969 36.902344 299.203125 C 35.074219 296.738281 33.308594 294.230469 31.605469 291.675781 C 29.898438 289.125 28.257812 286.535156 26.679688 283.902344 C 25.101562 281.269531 23.589844 278.601562 22.144531 275.894531 C 20.699219 273.1875 19.320312 270.449219 18.007812 267.675781 C 16.695312 264.902344 15.453125 262.097656 14.277344 259.261719 C 13.101562 256.425781 12 253.5625 10.964844 250.675781 C 9.929688 247.785156 8.96875 244.871094 8.078125 241.9375 C 7.1875 239 6.371094 236.042969 5.625 233.066406 C 4.878906 230.089844 4.207031 227.097656 3.605469 224.085938 C 3.007812 221.078125 2.484375 218.054688 2.035156 215.019531 C 1.582031 211.984375 1.207031 208.941406 0.90625 205.886719 C 0.605469 202.832031 0.382812 199.773438 0.230469 196.707031 C 0.078125 193.644531 0.00390625 190.578125 0.00390625 187.507812 C 0.00390625 184.4375 0.078125 181.371094 0.230469 178.308594 C 0.382812 175.242188 0.605469 172.183594 0.90625 169.128906 C 1.207031 166.074219 1.582031 163.03125 2.035156 159.996094 C 2.484375 156.960938 3.007812 153.9375 3.605469 150.929688 C 4.207031 147.917969 4.878906 144.925781 5.625 141.949219 C 6.371094 138.972656 7.1875 136.015625 8.078125 133.078125 C 8.96875 130.144531 9.929688 127.230469 10.964844 124.339844 C 12 121.453125 13.101562 118.589844 14.277344 115.753906 C 15.453125 112.917969 16.695312 110.113281 18.007812 107.339844 C 19.320312 104.566406 20.699219 101.828125 22.144531 99.121094 C 23.589844 96.414062 25.101562 93.746094 26.679688 91.113281 C 28.257812 88.480469 29.898438 85.890625 31.605469 83.335938 C 33.308594 80.785156 35.074219 78.277344 36.902344 75.8125 C 38.730469 73.347656 40.617188 70.929688 42.566406 68.558594 C 44.511719 66.1875 46.515625 63.863281 48.578125 61.589844 C 50.636719 59.316406 52.753906 57.09375 54.921875 54.925781 C 57.09375 52.753906 59.3125 50.640625 61.585938 48.578125 C 63.859375 46.519531 66.183594 44.515625 68.554688 42.566406 C 70.929688 40.621094 73.347656 38.734375 75.8125 36.90625 C 78.277344 35.078125 80.785156 33.3125 83.335938 31.605469 C 85.886719 29.902344 88.480469 28.261719 91.109375 26.683594 C 93.742188 25.105469 96.410156 23.59375 99.117188 22.148438 C 101.824219 20.699219 104.566406 19.320312 107.339844 18.007812 C 110.113281 16.695312 112.917969 15.453125 115.75 14.28125 C 118.585938 13.105469 121.449219 12 124.339844 10.96875 C 127.226562 9.933594 130.140625 8.972656 133.078125 8.082031 C 136.011719 7.191406 138.96875 6.371094 141.945312 5.625 C 144.921875 4.878906 147.917969 4.207031 150.925781 3.609375 C 153.933594 3.011719 156.957031 2.488281 159.992188 2.035156 C 163.027344 1.585938 166.074219 1.210938 169.128906 0.910156 C 172.179688 0.609375 175.242188 0.382812 178.304688 0.234375 C 181.371094 0.0820312 184.4375 0.0078125 187.503906 0.0078125 C 190.574219 0.0078125 193.640625 0.0820312 196.707031 0.234375 C 199.769531 0.382812 202.828125 0.609375 205.882812 0.910156 C 208.9375 1.210938 211.980469 1.585938 215.015625 2.035156 C 218.054688 2.488281 221.074219 3.011719 224.085938 3.609375 C 227.09375 4.207031 230.085938 4.878906 233.0625 5.625 C 236.039062 6.371094 238.996094 7.191406 241.933594 8.082031 C 244.871094 8.972656 247.785156 9.933594 250.671875 10.96875 C 253.5625 12 256.421875 13.105469 259.257812 14.28125 C 262.09375 15.453125 264.898438 16.695312 267.671875 18.007812 C 270.445312 19.320312 273.1875 20.699219 275.890625 22.148438 C 278.597656 23.59375 281.269531 25.105469 283.898438 26.683594 C 286.53125 28.261719 289.125 29.902344 291.675781 31.605469 C 294.226562 33.3125 296.734375 35.078125 299.199219 36.90625 C 301.664062 38.734375 304.082031 40.621094 306.453125 42.566406 C 308.828125 44.515625 311.148438 46.519531 313.421875 48.578125 C 315.695312 50.640625 317.917969 52.753906 320.089844 54.925781 C 322.257812 57.09375 324.375 59.316406 326.433594 61.589844 C 328.496094 63.863281 330.5 66.1875 332.445312 68.558594 C 334.390625 70.929688 336.28125 73.347656 338.105469 75.8125 C 339.933594 78.277344 341.703125 80.785156 343.40625 83.335938 C 345.109375 85.890625 346.753906 88.480469 348.328125 91.113281 C 349.90625 93.746094 351.417969 96.414062 352.867188 99.121094 C 354.3125 101.828125 355.691406 104.566406 357.003906 107.339844 C 358.316406 110.113281 359.558594 112.917969 360.734375 115.753906 C 361.90625 118.589844 363.011719 121.453125 364.046875 124.339844 C 365.078125 127.230469 366.042969 130.144531 366.933594 133.078125 C 367.824219 136.015625 368.640625 138.972656 369.386719 141.949219 C 370.132812 144.925781 370.804688 147.917969 371.402344 150.929688 C 372.003906 153.9375 372.527344 156.960938 372.976562 159.996094 C 373.425781 163.03125 373.800781 166.074219 374.101562 169.128906 C 374.402344 172.183594 374.628906 175.242188 374.78125 178.308594 C 374.929688 181.371094 375.007812 184.4375 375.007812 187.507812 Z M 375.007812 187.507812 " fill-opacity="1" fill-rule="nonzero"/><path fill="#ffffff" d="M 140.289062 97.394531 C 140.289062 98.210938 140.25 99.027344 140.167969 99.839844 C 140.089844 100.652344 139.96875 101.460938 139.808594 102.261719 C 139.648438 103.0625 139.453125 103.855469 139.214844 104.636719 C 138.976562 105.421875 138.703125 106.1875 138.390625 106.945312 C 138.078125 107.699219 137.726562 108.4375 137.34375 109.15625 C 136.957031 109.878906 136.539062 110.578125 136.082031 111.257812 C 135.628906 111.9375 135.144531 112.59375 134.625 113.226562 C 134.105469 113.855469 133.558594 114.460938 132.980469 115.039062 C 132.402344 115.617188 131.796875 116.164062 131.164062 116.683594 C 130.535156 117.203125 129.878906 117.6875 129.199219 118.144531 C 128.519531 118.597656 127.820312 119.015625 127.097656 119.402344 C 126.378906 119.789062 125.640625 120.136719 124.882812 120.449219 C 124.128906 120.761719 123.359375 121.035156 122.578125 121.273438 C 121.796875 121.511719 121.003906 121.710938 120.203125 121.871094 C 119.402344 122.027344 118.59375 122.148438 117.78125 122.226562 C 116.96875 122.308594 116.152344 122.347656 115.335938 122.347656 C 114.519531 122.347656 113.703125 122.308594 112.890625 122.226562 C 112.074219 122.148438 111.269531 122.027344 110.464844 121.871094 C 109.664062 121.710938 108.875 121.511719 108.089844 121.273438 C 107.308594 121.035156 106.539062 120.761719 105.785156 120.449219 C 105.03125 120.136719 104.292969 119.789062 103.570312 119.402344 C 102.851562 119.015625 102.152344 118.597656 101.472656 118.144531 C 100.792969 117.6875 100.136719 117.203125 99.503906 116.683594 C 98.871094 116.164062 98.269531 115.617188 97.691406 115.039062 C 97.113281 114.460938 96.5625 113.855469 96.046875 113.226562 C 95.527344 112.59375 95.039062 111.9375 94.585938 111.257812 C 94.132812 110.578125 93.710938 109.878906 93.328125 109.15625 C 92.941406 108.4375 92.59375 107.699219 92.28125 106.945312 C 91.96875 106.1875 91.691406 105.421875 91.457031 104.636719 C 91.21875 103.855469 91.019531 103.0625 90.859375 102.261719 C 90.699219 101.460938 90.582031 100.652344 90.5 99.839844 C 90.421875 99.027344 90.378906 98.210938 90.378906 97.394531 C 90.378906 96.578125 90.421875 95.761719 90.5 94.949219 C 90.582031 94.136719 90.699219 93.328125 90.859375 92.527344 C 91.019531 91.722656 91.21875 90.933594 91.457031 90.152344 C 91.691406 89.367188 91.96875 88.601562 92.28125 87.84375 C 92.59375 87.089844 92.941406 86.351562 93.328125 85.632812 C 93.710938 84.910156 94.132812 84.210938 94.585938 83.53125 C 95.039062 82.851562 95.527344 82.195312 96.046875 81.5625 C 96.5625 80.933594 97.113281 80.328125 97.691406 79.75 C 98.269531 79.171875 98.871094 78.621094 99.503906 78.105469 C 100.136719 77.585938 100.792969 77.101562 101.472656 76.644531 C 102.152344 76.191406 102.851562 75.773438 103.570312 75.386719 C 104.292969 75 105.03125 74.652344 105.785156 74.339844 C 106.539062 74.027344 107.308594 73.75 108.089844 73.515625 C 108.875 73.277344 109.664062 73.078125 110.464844 72.917969 C 111.269531 72.761719 112.074219 72.640625 112.890625 72.558594 C 113.703125 72.480469 114.519531 72.441406 115.335938 72.441406 C 116.152344 72.441406 116.96875 72.480469 117.78125 72.558594 C 118.59375 72.640625 119.402344 72.761719 120.203125 72.917969 C 121.003906 73.078125 121.796875 73.277344 122.578125 73.515625 C 123.359375 73.75 124.128906 74.027344 124.882812 74.339844 C 125.640625 74.652344 126.378906 75 127.097656 75.386719 C 127.820312 75.773438 128.519531 76.191406 129.199219 76.644531 C 129.878906 77.101562 130.535156 77.585938 131.164062 78.105469 C 131.796875 78.621094 132.402344 79.171875 132.980469 79.75 C 133.558594 80.328125 134.105469 80.933594 134.625 81.5625 C 135.144531 82.195312 135.628906 82.851562 136.082031 83.53125 C 136.539062 84.210938 136.957031 84.910156 137.34375 85.632812 C 137.726562 86.351562 138.078125 87.089844 138.390625 87.84375 C 138.703125 88.601562 138.976562 89.367188 139.214844 90.152344 C 139.453125 90.933594 139.648438 91.722656 139.808594 92.527344 C 139.96875 93.328125 140.089844 94.136719 140.167969 94.949219 C 140.25 95.761719 140.289062 96.578125 140.289062 97.394531 Z M 140.289062 97.394531 " fill-opacity="1" fill-rule="nonzero"/><path fill="#ffffff" d="M 93.824219 140.746094 L 136.695312 140.746094 L 136.695312 278.660156 L 93.824219 278.660156 Z M 93.824219 140.746094 " fill-opacity="1" fill-rule="nonzero"/><path fill="#ffffff" d="M 163.65625 140.746094 L 204.460938 140.746094 L 204.460938 278.660156 L 163.65625 278.660156 Z M 163.65625 140.746094 " fill-opacity="1" fill-rule="nonzero"/><path fill="#ffffff" d="M 165.421875 214.175781 L 206.226562 214.175781 L 206.226562 278.660156 L 165.421875 278.660156 Z M 165.421875 214.175781 " fill-opacity="1" fill-rule="nonzero"/><path fill="#ffffff" d="M 206.226562 214.175781 C 206.226562 214.175781 205.589844 196.289062 210.304688 186.988281 C 210.304688 186.988281 215.023438 175.535156 229.851562 175.464844 C 229.851562 175.464844 247.242188 172.429688 252.230469 189.683594 C 252.230469 189.683594 254.117188 199.253906 254.117188 203.300781 C 254.117188 207.347656 254.25 278.664062 254.25 278.664062 L 296.988281 278.664062 L 296.988281 199.664062 C 296.988281 199.664062 300.089844 155.039062 273.304688 142.816406 C 273.304688 142.816406 229.265625 123.042969 205.359375 159.355469 C 205.359375 159.355469 200.148438 162.949219 199.425781 152.882812 C 198.707031 142.816406 192.597656 168.339844 192.417969 168.878906 C 192.238281 169.421875 199.425781 219.75 199.425781 219.75 Z M 206.226562 214.175781 " fill-opacity="1" fill-rule="nonzero"/></svg>