<svg xmlns="http://www.w3.org/2000/svg" xmlns:xlink="http://www.w3.org/1999/xlink" width="1080" zoomAndPan="magnify" viewBox="0 0 810 809.999993" height="1080" preserveAspectRatio="xMidYMid meet" version="1.0"><path fill="#ffffff" d="M 405 0 C 398.371094 0 391.746094 0.164062 385.128906 0.488281 C 378.507812 0.8125 371.898438 1.300781 365.304688 1.949219 C 358.707031 2.601562 352.128906 3.410156 345.574219 4.382812 C 339.019531 5.355469 332.488281 6.488281 325.988281 7.78125 C 319.488281 9.074219 313.023438 10.527344 306.59375 12.136719 C 300.164062 13.746094 293.777344 15.515625 287.433594 17.4375 C 281.09375 19.363281 274.800781 21.441406 268.558594 23.675781 C 262.320312 25.90625 256.136719 28.292969 250.011719 30.828125 C 243.890625 33.367188 237.832031 36.050781 231.839844 38.882812 C 225.847656 41.71875 219.929688 44.699219 214.085938 47.820312 C 208.238281 50.945312 202.472656 54.210938 196.789062 57.621094 C 191.101562 61.027344 185.503906 64.574219 179.992188 68.253906 C 174.484375 71.9375 169.066406 75.753906 163.742188 79.699219 C 158.417969 83.648438 153.195312 87.726562 148.070312 91.929688 C 142.945312 96.136719 137.929688 100.464844 133.019531 104.914062 C 128.109375 109.367188 123.308594 113.933594 118.621094 118.621094 C 113.933594 123.308594 109.367188 128.109375 104.914062 133.019531 C 100.464844 137.929688 96.136719 142.945312 91.929688 148.070312 C 87.726562 153.195312 83.648438 158.417969 79.699219 163.742188 C 75.753906 169.066406 71.9375 174.484375 68.253906 179.992188 C 64.574219 185.503906 61.027344 191.101562 57.621094 196.789062 C 54.210938 202.472656 50.945312 208.238281 47.820312 214.085938 C 44.699219 219.929688 41.71875 225.847656 38.882812 231.839844 C 36.050781 237.832031 33.363281 243.890625 30.828125 250.011719 C 28.292969 256.136719 25.90625 262.320312 23.675781 268.558594 C 21.441406 274.800781 19.363281 281.09375 17.4375 287.433594 C 15.515625 293.777344 13.746094 300.164062 12.136719 306.59375 C 10.527344 313.023438 9.074219 319.488281 7.78125 325.988281 C 6.488281 332.488281 5.355469 339.019531 4.382812 345.574219 C 3.410156 352.128906 2.601562 358.707031 1.949219 365.304688 C 1.300781 371.898438 0.8125 378.507812 0.488281 385.128906 C 0.164062 391.746094 0 398.371094 0 405 C 0 411.628906 0.164062 418.253906 0.488281 424.871094 C 0.8125 431.492188 1.300781 438.101562 1.949219 444.695312 C 2.601562 451.292969 3.410156 457.871094 4.382812 464.425781 C 5.355469 470.980469 6.488281 477.511719 7.78125 484.011719 C 9.074219 490.511719 10.527344 496.976562 12.136719 503.40625 C 13.746094 509.835938 15.515625 516.222656 17.4375 522.566406 C 19.363281 528.90625 21.441406 535.199219 23.675781 541.441406 C 25.90625 547.679688 28.292969 553.863281 30.828125 559.988281 C 33.363281 566.109375 36.050781 572.167969 38.882812 578.160156 C 41.71875 584.152344 44.699219 590.070312 47.820312 595.914062 C 50.945312 601.761719 54.210938 607.527344 57.621094 613.210938 C 61.027344 618.898438 64.574219 624.496094 68.253906 630.007812 C 71.9375 635.515625 75.753906 640.933594 79.699219 646.257812 C 83.648438 651.582031 87.726562 656.804688 91.929688 661.929688 C 96.136719 667.054688 100.464844 672.070312 104.914062 676.980469 C 109.367188 681.890625 113.933594 686.691406 118.621094 691.378906 C 123.308594 696.066406 128.109375 700.632812 133.019531 705.085938 C 137.929688 709.535156 142.945312 713.863281 148.070312 718.070312 C 153.195312 722.273438 158.417969 726.351562 163.742188 730.300781 C 169.066406 734.246094 174.484375 738.0625 179.992188 741.746094 C 185.503906 745.425781 191.101562 748.972656 196.789062 752.378906 C 202.472656 755.789062 208.238281 759.054688 214.085938 762.179688 C 219.929688 765.300781 225.847656 768.28125 231.839844 771.117188 C 237.832031 773.949219 243.890625 776.632812 250.011719 779.171875 C 256.136719 781.707031 262.320312 784.09375 268.558594 786.324219 C 274.800781 788.558594 281.09375 790.636719 287.433594 792.5625 C 293.777344 794.484375 300.164062 796.253906 306.59375 797.863281 C 313.023438 799.472656 319.488281 800.925781 325.988281 802.21875 C 332.488281 803.511719 339.019531 804.644531 345.574219 805.617188 C 352.128906 806.589844 358.707031 807.398438 365.304688 808.050781 C 371.898438 808.699219 378.507812 809.1875 385.128906 809.511719 C 391.746094 809.835938 398.371094 810 405 810 C 411.628906 810 418.253906 809.835938 424.871094 809.511719 C 431.492188 809.1875 438.101562 808.699219 444.695312 808.050781 C 451.292969 807.398438 457.871094 806.589844 464.425781 805.617188 C 470.980469 804.644531 477.511719 803.511719 484.011719 802.21875 C 490.511719 800.925781 496.976562 799.472656 503.40625 797.863281 C 509.835938 796.253906 516.222656 794.484375 522.566406 792.5625 C 528.90625 790.636719 535.199219 788.558594 541.441406 786.324219 C 547.679688 784.09375 553.863281 781.707031 559.988281 779.171875 C 566.109375 776.632812 572.167969 773.949219 578.160156 771.117188 C 584.152344 768.28125 590.070312 765.300781 595.914062 762.179688 C 601.761719 759.054688 607.527344 755.789062 613.210938 752.378906 C 618.898438 748.972656 624.496094 745.425781 630.003906 741.746094 C 635.515625 738.0625 640.933594 734.246094 646.257812 730.300781 C 651.582031 726.351562 656.804688 722.273438 661.929688 718.070312 C 667.050781 713.863281 672.070312 709.535156 676.980469 705.085938 C 681.890625 700.632812 686.691406 696.066406 691.378906 691.378906 C 696.066406 686.691406 700.632812 681.890625 705.085938 676.980469 C 709.535156 672.070312 713.863281 667.054688 718.070312 661.929688 C 722.273438 656.804688 726.351562 651.582031 730.300781 646.257812 C 734.246094 640.933594 738.0625 635.515625 741.746094 630.007812 C 745.425781 624.496094 748.972656 618.898438 752.378906 613.210938 C 755.789062 607.527344 759.054688 601.761719 762.179688 595.914062 C 765.300781 590.070312 768.28125 584.152344 771.117188 578.160156 C 773.949219 572.167969 776.632812 566.109375 779.171875 559.988281 C 781.707031 553.863281 784.09375 547.679688 786.324219 541.441406 C 788.558594 535.199219 790.636719 528.90625 792.5625 522.566406 C 794.484375 516.222656 796.253906 509.835938 797.863281 503.40625 C 799.472656 496.976562 800.925781 490.511719 802.21875 484.011719 C 803.511719 477.511719 804.644531 470.980469 805.617188 464.425781 C 806.589844 457.871094 807.398438 451.292969 808.050781 444.695312 C 808.699219 438.101562 809.1875 431.492188 809.511719 424.871094 C 809.835938 418.253906 810 411.628906 810 405 C 809.996094 398.371094 809.832031 391.75 809.503906 385.128906 C 809.175781 378.511719 808.683594 371.90625 808.03125 365.308594 C 807.378906 358.714844 806.566406 352.140625 805.589844 345.582031 C 804.617188 339.027344 803.480469 332.5 802.1875 326.003906 C 800.890625 319.503906 799.4375 313.039062 797.824219 306.609375 C 796.210938 300.183594 794.441406 293.796875 792.515625 287.457031 C 790.589844 281.117188 788.511719 274.824219 786.277344 268.585938 C 784.042969 262.347656 781.65625 256.164062 779.117188 250.042969 C 776.582031 243.921875 773.894531 237.863281 771.058594 231.875 C 768.226562 225.882812 765.246094 219.96875 762.121094 214.121094 C 758.996094 208.277344 755.730469 202.515625 752.320312 196.832031 C 748.914062 191.148438 745.367188 185.550781 741.683594 180.039062 C 738.003906 174.53125 734.1875 169.113281 730.238281 163.792969 C 726.289062 158.46875 722.214844 153.246094 718.007812 148.125 C 713.804688 143 709.476562 137.984375 705.027344 133.074219 C 700.574219 128.164062 696.007812 123.363281 691.320312 118.679688 C 686.636719 113.992188 681.835938 109.425781 676.925781 104.972656 C 672.015625 100.523438 667 96.195312 661.875 91.992188 C 656.753906 87.785156 651.53125 83.710938 646.207031 79.761719 C 640.886719 75.8125 635.46875 71.996094 629.960938 68.316406 C 624.449219 64.632812 618.851562 61.085938 613.167969 57.679688 C 607.484375 54.269531 601.722656 51.003906 595.878906 47.878906 C 590.03125 44.753906 584.117188 41.773438 578.125 38.941406 C 572.136719 36.105469 566.078125 33.417969 559.957031 30.882812 C 553.835938 28.34375 547.652344 25.957031 541.414062 23.722656 C 535.175781 21.488281 528.886719 19.410156 522.542969 17.484375 C 516.203125 15.558594 509.816406 13.789062 503.390625 12.175781 C 496.960938 10.5625 490.496094 9.109375 483.996094 7.8125 C 477.5 6.519531 470.972656 5.382812 464.417969 4.410156 C 457.859375 3.433594 451.285156 2.621094 444.691406 1.96875 C 438.097656 1.316406 431.488281 0.824219 424.871094 0.496094 C 418.25 0.167969 411.628906 0.00390625 405 0 Z M 527.367188 589.847656 C 523.523438 593.488281 519.511719 596.929688 515.332031 600.175781 C 511.152344 603.417969 506.824219 606.449219 502.347656 609.269531 C 497.867188 612.089844 493.261719 614.683594 488.527344 617.050781 C 483.796875 619.414062 478.957031 621.542969 474.015625 623.433594 C 469.074219 625.328125 464.050781 626.96875 458.945312 628.367188 C 453.84375 629.765625 448.683594 630.90625 443.464844 631.796875 C 438.25 632.6875 433.003906 633.320312 427.722656 633.691406 C 422.445312 634.066406 417.160156 634.179688 411.871094 634.035156 C 406.386719 634.332031 400.902344 634.371094 395.414062 634.152344 C 389.929688 633.929688 384.464844 633.453125 379.023438 632.714844 C 373.582031 631.980469 368.1875 630.988281 362.839844 629.742188 C 357.492188 628.496094 352.214844 627 347.007812 625.253906 C 341.800781 623.507812 336.6875 621.523438 331.667969 619.292969 C 326.648438 617.066406 321.746094 614.605469 316.960938 611.914062 C 312.171875 609.222656 307.523438 606.3125 303.011719 603.179688 C 298.503906 600.050781 294.148438 596.714844 289.953125 593.171875 C 286.390625 590.035156 282.972656 586.753906 279.691406 583.324219 C 276.414062 579.894531 273.289062 576.332031 270.316406 572.632812 C 267.34375 568.933594 264.535156 565.117188 261.886719 561.179688 C 259.242188 557.238281 256.769531 553.195312 254.472656 549.042969 C 252.175781 544.890625 250.058594 540.652344 248.125 536.316406 C 246.191406 531.984375 244.445312 527.578125 242.890625 523.097656 C 241.332031 518.613281 239.972656 514.074219 238.804688 509.472656 C 237.640625 504.875 236.671875 500.234375 235.90625 495.550781 C 235.792969 494.878906 235.742188 494.203125 235.753906 493.523438 C 235.761719 492.839844 235.835938 492.164062 235.96875 491.496094 C 236.105469 490.828125 236.300781 490.179688 236.550781 489.546875 C 236.804688 488.914062 237.113281 488.308594 237.480469 487.734375 C 237.84375 487.15625 238.257812 486.617188 238.71875 486.117188 C 239.179688 485.617188 239.6875 485.164062 240.230469 484.753906 C 240.777344 484.347656 241.355469 483.992188 241.964844 483.6875 C 242.578125 483.386719 243.210938 483.140625 243.867188 482.957031 L 330.0625 458.320312 C 330.808594 458.113281 331.566406 457.988281 332.339844 457.9375 C 333.113281 457.890625 333.882812 457.921875 334.652344 458.03125 C 335.417969 458.144531 336.164062 458.335938 336.890625 458.601562 C 337.617188 458.867188 338.3125 459.207031 338.96875 459.617188 C 339.625 460.03125 340.230469 460.503906 340.789062 461.042969 C 341.347656 461.578125 341.84375 462.167969 342.28125 462.808594 C 342.714844 463.449219 343.082031 464.128906 343.375 464.84375 C 343.667969 465.5625 343.886719 466.300781 344.027344 467.0625 C 344.742188 471.097656 345.761719 475.054688 347.082031 478.933594 C 348.402344 482.8125 350.011719 486.570312 351.90625 490.203125 C 353.800781 493.835938 355.960938 497.304688 358.386719 500.609375 C 360.8125 503.914062 363.472656 507.011719 366.371094 509.910156 C 368.875 512.625 371.628906 515.058594 374.632812 517.207031 C 377.640625 519.351562 380.832031 521.171875 384.214844 522.65625 C 387.597656 524.144531 391.09375 525.273438 394.707031 526.035156 C 398.320312 526.800781 401.976562 527.1875 405.671875 527.199219 C 409.179688 527.402344 412.671875 527.257812 416.152344 526.757812 C 419.632812 526.257812 423.027344 525.414062 426.335938 524.226562 C 429.644531 523.042969 432.800781 521.539062 435.808594 519.714844 C 438.8125 517.890625 441.605469 515.789062 444.1875 513.402344 C 445.269531 512.351562 446.296875 511.25 447.269531 510.097656 C 448.242188 508.949219 449.15625 507.75 450.011719 506.507812 C 450.867188 505.265625 451.660156 503.984375 452.386719 502.664062 C 453.117188 501.34375 453.777344 499.992188 454.371094 498.605469 C 454.964844 497.222656 455.488281 495.808594 455.945312 494.371094 C 456.398438 492.933594 456.78125 491.476562 457.089844 490.003906 C 457.402344 488.527344 457.636719 487.039062 457.800781 485.539062 C 457.964844 484.042969 458.050781 482.539062 458.066406 481.03125 C 458.082031 479.523438 458.019531 478.019531 457.886719 476.515625 C 457.75 475.015625 457.542969 473.523438 457.261719 472.042969 C 456.976562 470.5625 456.625 469.097656 456.195312 467.652344 C 455.769531 466.207031 455.273438 464.785156 454.703125 463.386719 C 454.136719 461.992188 453.5 460.625 452.796875 459.292969 C 452.09375 457.960938 451.328125 456.664062 450.496094 455.40625 C 449.664062 454.148438 448.773438 452.933594 447.820312 451.765625 C 446.871094 450.59375 445.863281 449.476562 444.800781 448.40625 C 442.332031 446.078125 439.648438 444.027344 436.757812 442.25 C 433.867188 440.472656 430.824219 439.007812 427.632812 437.851562 C 424.4375 436.699219 421.164062 435.882812 417.804688 435.402344 C 414.441406 434.921875 411.070312 434.785156 407.679688 434.996094 C 402.183594 434.8125 396.738281 435.265625 391.347656 436.367188 C 385.957031 437.46875 380.769531 439.179688 375.785156 441.507812 C 375.417969 441.691406 375.042969 441.859375 374.65625 442.003906 C 374.273438 442.148438 373.882812 442.269531 373.484375 442.371094 C 373.085938 442.472656 372.683594 442.554688 372.277344 442.609375 C 371.867188 442.667969 371.460938 442.703125 371.050781 442.714844 C 370.636719 442.726562 370.226562 442.714844 369.820312 442.683594 C 369.410156 442.648438 369.003906 442.59375 368.597656 442.515625 C 368.195312 442.4375 367.796875 442.339844 367.40625 442.214844 C 367.011719 442.09375 366.628906 441.949219 366.25 441.785156 C 365.875 441.621094 365.507812 441.4375 365.152344 441.234375 C 364.796875 441.027344 364.453125 440.804688 364.121094 440.5625 C 363.789062 440.320312 363.472656 440.058594 363.167969 439.78125 C 362.867188 439.503906 362.578125 439.210938 362.308594 438.898438 C 362.039062 438.589844 361.785156 438.265625 361.550781 437.929688 C 361.316406 437.59375 361.101562 437.242188 360.90625 436.882812 C 360.707031 436.523438 360.53125 436.152344 360.375 435.769531 C 360.222656 435.390625 360.085938 435.003906 359.976562 434.605469 L 343.941406 378.1875 C 343.703125 377.335938 343.5625 376.46875 343.527344 375.585938 C 343.492188 374.703125 343.5625 373.828125 343.734375 372.960938 C 343.90625 372.09375 344.179688 371.261719 344.546875 370.457031 C 344.917969 369.65625 345.378906 368.910156 345.925781 368.214844 L 398.074219 302.128906 L 259.757812 302.128906 C 259.023438 302.128906 258.296875 302.058594 257.578125 301.914062 C 256.859375 301.773438 256.160156 301.558594 255.484375 301.28125 C 254.804688 301 254.160156 300.65625 253.550781 300.246094 C 252.941406 299.839844 252.378906 299.375 251.859375 298.859375 C 251.339844 298.339844 250.875 297.773438 250.46875 297.164062 C 250.0625 296.554688 249.71875 295.910156 249.4375 295.234375 C 249.15625 294.554688 248.945312 293.855469 248.800781 293.136719 C 248.65625 292.417969 248.585938 291.691406 248.585938 290.957031 L 248.585938 203.898438 C 248.585938 203.164062 248.65625 202.4375 248.800781 201.71875 C 248.945312 200.996094 249.15625 200.300781 249.4375 199.621094 C 249.71875 198.945312 250.0625 198.300781 250.46875 197.691406 C 250.875 197.078125 251.339844 196.515625 251.859375 195.996094 C 252.378906 195.476562 252.941406 195.015625 253.550781 194.605469 C 254.160156 194.199219 254.804688 193.855469 255.484375 193.574219 C 256.160156 193.292969 256.859375 193.082031 257.578125 192.9375 C 258.296875 192.796875 259.023438 192.722656 259.757812 192.722656 L 549.039062 192.722656 C 549.773438 192.722656 550.5 192.796875 551.21875 192.9375 C 551.9375 193.082031 552.636719 193.292969 553.316406 193.574219 C 553.992188 193.855469 554.636719 194.199219 555.246094 194.605469 C 555.855469 195.015625 556.421875 195.476562 556.941406 195.996094 C 557.460938 196.515625 557.921875 197.078125 558.328125 197.691406 C 558.738281 198.300781 559.082031 198.941406 559.363281 199.621094 C 559.644531 200.300781 559.855469 200.996094 559.996094 201.71875 C 560.140625 202.4375 560.210938 203.164062 560.210938 203.898438 L 560.210938 268.136719 C 560.214844 269.550781 559.957031 270.917969 559.441406 272.234375 C 558.925781 273.550781 558.1875 274.726562 557.222656 275.761719 L 485.554688 352.824219 C 491.269531 354.835938 496.832031 357.214844 502.230469 359.960938 C 507.632812 362.710938 512.832031 365.804688 517.820312 369.242188 C 522.8125 372.683594 527.554688 376.4375 532.046875 380.503906 C 536.539062 384.574219 540.742188 388.921875 544.65625 393.546875 C 547.140625 396.582031 549.488281 399.726562 551.691406 402.972656 C 553.894531 406.21875 555.949219 409.558594 557.851562 412.988281 C 559.757812 416.421875 561.5 419.929688 563.089844 423.519531 C 564.675781 427.105469 566.101562 430.757812 567.359375 434.476562 C 568.617188 438.191406 569.707031 441.957031 570.628906 445.773438 C 571.550781 449.585938 572.296875 453.4375 572.871094 457.316406 C 573.445312 461.199219 573.84375 465.101562 574.066406 469.015625 C 574.289062 472.933594 574.335938 476.855469 574.207031 480.777344 C 574.296875 485.878906 574.121094 490.96875 573.671875 496.050781 C 573.226562 501.132812 572.511719 506.179688 571.527344 511.183594 C 570.546875 516.191406 569.300781 521.132812 567.796875 526.007812 C 566.289062 530.882812 564.53125 535.660156 562.515625 540.351562 C 560.503906 545.039062 558.246094 549.605469 555.75 554.054688 C 553.253906 558.503906 550.527344 562.808594 547.574219 566.96875 C 544.617188 571.128906 541.453125 575.121094 538.074219 578.941406 C 534.699219 582.765625 531.128906 586.402344 527.367188 589.847656 Z M 527.367188 589.847656 " fill-opacity="1" fill-rule="evenodd"/></svg>