<svg xmlns="http://www.w3.org/2000/svg" xmlns:xlink="http://www.w3.org/1999/xlink" width="1080" zoomAndPan="magnify" viewBox="0 0 810 809.999993" height="1080" preserveAspectRatio="xMidYMid meet" version="1.0"><path fill="#ffffff" d="M 405 0 C 398.371094 0 391.746094 0.164062 385.128906 0.488281 C 378.507812 0.8125 371.898438 1.300781 365.304688 1.949219 C 358.707031 2.601562 352.128906 3.410156 345.574219 4.382812 C 339.019531 5.355469 332.488281 6.488281 325.988281 7.78125 C 319.488281 9.074219 313.023438 10.527344 306.59375 12.136719 C 300.164062 13.746094 293.777344 15.515625 287.433594 17.4375 C 281.09375 19.363281 274.800781 21.441406 268.558594 23.675781 C 262.320312 25.90625 256.136719 28.292969 250.011719 30.828125 C 243.890625 33.367188 237.832031 36.050781 231.839844 38.882812 C 225.847656 41.71875 219.929688 44.699219 214.085938 47.820312 C 208.238281 50.945312 202.472656 54.210938 196.789062 57.621094 C 191.101562 61.027344 185.503906 64.574219 179.992188 68.253906 C 174.484375 71.9375 169.066406 75.753906 163.742188 79.699219 C 158.417969 83.648438 153.195312 87.726562 148.070312 91.929688 C 142.945312 96.136719 137.929688 100.464844 133.019531 104.914062 C 128.109375 109.367188 123.308594 113.933594 118.621094 118.621094 C 113.933594 123.308594 109.367188 128.109375 104.914062 133.019531 C 100.464844 137.929688 96.136719 142.945312 91.929688 148.070312 C 87.726562 153.195312 83.648438 158.417969 79.699219 163.742188 C 75.753906 169.066406 71.9375 174.484375 68.253906 179.992188 C 64.574219 185.503906 61.027344 191.101562 57.621094 196.789062 C 54.210938 202.472656 50.945312 208.238281 47.820312 214.085938 C 44.699219 219.929688 41.71875 225.847656 38.882812 231.839844 C 36.050781 237.832031 33.363281 243.890625 30.828125 250.011719 C 28.292969 256.136719 25.90625 262.320312 23.675781 268.558594 C 21.441406 274.800781 19.363281 281.09375 17.4375 287.433594 C 15.515625 293.777344 13.746094 300.164062 12.136719 306.59375 C 10.527344 313.023438 9.074219 319.488281 7.78125 325.988281 C 6.488281 332.488281 5.355469 339.019531 4.382812 345.574219 C 3.410156 352.128906 2.601562 358.707031 1.949219 365.304688 C 1.300781 371.898438 0.8125 378.507812 0.488281 385.128906 C 0.164062 391.746094 0 398.371094 0 405 C 0 411.628906 0.164062 418.253906 0.488281 424.871094 C 0.8125 431.492188 1.300781 438.101562 1.949219 444.695312 C 2.601562 451.292969 3.410156 457.871094 4.382812 464.425781 C 5.355469 470.980469 6.488281 477.511719 7.78125 484.011719 C 9.074219 490.511719 10.527344 496.976562 12.136719 503.40625 C 13.746094 509.835938 15.515625 516.222656 17.4375 522.566406 C 19.363281 528.90625 21.441406 535.199219 23.675781 541.441406 C 25.90625 547.679688 28.292969 553.863281 30.828125 559.988281 C 33.363281 566.109375 36.050781 572.167969 38.882812 578.160156 C 41.71875 584.152344 44.699219 590.070312 47.820312 595.914062 C 50.945312 601.761719 54.210938 607.527344 57.621094 613.210938 C 61.027344 618.898438 64.574219 624.496094 68.253906 630.003906 C 71.9375 635.515625 75.753906 640.933594 79.699219 646.257812 C 83.648438 651.582031 87.726562 656.804688 91.929688 661.929688 C 96.136719 667.054688 100.464844 672.070312 104.914062 676.980469 C 109.367188 681.890625 113.933594 686.691406 118.621094 691.378906 C 123.308594 696.066406 128.109375 700.632812 133.019531 705.085938 C 137.929688 709.535156 142.945312 713.863281 148.070312 718.070312 C 153.195312 722.273438 158.417969 726.351562 163.742188 730.300781 C 169.066406 734.246094 174.484375 738.0625 179.992188 741.746094 C 185.503906 745.425781 191.101562 748.972656 196.789062 752.378906 C 202.472656 755.789062 208.238281 759.054688 214.085938 762.179688 C 219.929688 765.300781 225.847656 768.28125 231.839844 771.117188 C 237.832031 773.949219 243.890625 776.632812 250.011719 779.171875 C 256.136719 781.707031 262.320312 784.09375 268.558594 786.324219 C 274.800781 788.558594 281.09375 790.636719 287.433594 792.5625 C 293.777344 794.484375 300.164062 796.253906 306.59375 797.863281 C 313.023438 799.472656 319.488281 800.925781 325.988281 802.21875 C 332.488281 803.511719 339.019531 804.644531 345.574219 805.617188 C 352.128906 806.589844 358.707031 807.398438 365.304688 808.050781 C 371.898438 808.699219 378.507812 809.1875 385.128906 809.511719 C 391.746094 809.835938 398.371094 810 405 810 C 411.628906 810 418.253906 809.835938 424.871094 809.511719 C 431.492188 809.1875 438.101562 808.699219 444.695312 808.050781 C 451.292969 807.398438 457.871094 806.589844 464.425781 805.617188 C 470.980469 804.644531 477.511719 803.511719 484.011719 802.21875 C 490.511719 800.925781 496.976562 799.472656 503.40625 797.863281 C 509.835938 796.253906 516.222656 794.484375 522.566406 792.5625 C 528.90625 790.636719 535.199219 788.558594 541.441406 786.324219 C 547.679688 784.09375 553.863281 781.707031 559.988281 779.171875 C 566.109375 776.632812 572.167969 773.949219 578.160156 771.117188 C 584.152344 768.28125 590.070312 765.300781 595.914062 762.179688 C 601.761719 759.054688 607.527344 755.789062 613.210938 752.378906 C 618.898438 748.972656 624.496094 745.425781 630.003906 741.746094 C 635.515625 738.0625 640.933594 734.246094 646.257812 730.300781 C 651.582031 726.351562 656.804688 722.273438 661.929688 718.070312 C 667.050781 713.863281 672.070312 709.535156 676.980469 705.085938 C 681.890625 700.632812 686.691406 696.066406 691.378906 691.378906 C 696.066406 686.691406 700.632812 681.890625 705.085938 676.980469 C 709.535156 672.070312 713.863281 667.054688 718.070312 661.929688 C 722.273438 656.804688 726.351562 651.582031 730.300781 646.257812 C 734.246094 640.933594 738.0625 635.515625 741.746094 630.003906 C 745.425781 624.496094 748.972656 618.898438 752.378906 613.210938 C 755.789062 607.527344 759.054688 601.761719 762.179688 595.914062 C 765.300781 590.070312 768.28125 584.152344 771.117188 578.160156 C 773.949219 572.167969 776.632812 566.109375 779.171875 559.988281 C 781.707031 553.863281 784.09375 547.679688 786.324219 541.441406 C 788.558594 535.199219 790.636719 528.90625 792.5625 522.566406 C 794.484375 516.222656 796.253906 509.835938 797.863281 503.40625 C 799.472656 496.976562 800.925781 490.511719 802.21875 484.011719 C 803.511719 477.511719 804.644531 470.980469 805.617188 464.425781 C 806.589844 457.871094 807.398438 451.292969 808.050781 444.695312 C 808.699219 438.101562 809.1875 431.492188 809.511719 424.871094 C 809.835938 418.253906 810 411.628906 810 405 C 809.996094 398.371094 809.832031 391.75 809.503906 385.128906 C 809.175781 378.511719 808.683594 371.902344 808.03125 365.308594 C 807.378906 358.714844 806.566406 352.140625 805.589844 345.582031 C 804.617188 339.027344 803.480469 332.5 802.1875 326 C 800.890625 319.503906 799.4375 313.039062 797.824219 306.609375 C 796.210938 300.183594 794.441406 293.796875 792.515625 287.457031 C 790.589844 281.113281 788.511719 274.824219 786.277344 268.585938 C 784.042969 262.347656 781.65625 256.164062 779.117188 250.042969 C 776.582031 243.921875 773.894531 237.863281 771.058594 231.875 C 768.226562 225.882812 765.246094 219.96875 762.121094 214.121094 C 758.996094 208.277344 755.730469 202.515625 752.320312 196.832031 C 748.914062 191.148438 745.367188 185.550781 741.683594 180.039062 C 738.003906 174.53125 734.1875 169.113281 730.238281 163.792969 C 726.289062 158.46875 722.214844 153.246094 718.007812 148.125 C 713.804688 143 709.476562 137.984375 705.027344 133.074219 C 700.574219 128.164062 696.007812 123.363281 691.320312 118.679688 C 686.636719 113.992188 681.835938 109.425781 676.925781 104.972656 C 672.015625 100.523438 667 96.195312 661.875 91.992188 C 656.753906 87.785156 651.53125 83.710938 646.207031 79.761719 C 640.886719 75.8125 635.46875 71.996094 629.960938 68.316406 C 624.449219 64.632812 618.851562 61.085938 613.167969 57.679688 C 607.484375 54.269531 601.722656 51.003906 595.878906 47.878906 C 590.03125 44.753906 584.117188 41.773438 578.125 38.941406 C 572.136719 36.105469 566.078125 33.417969 559.957031 30.882812 C 553.835938 28.34375 547.652344 25.957031 541.414062 23.722656 C 535.175781 21.488281 528.886719 19.410156 522.542969 17.484375 C 516.203125 15.558594 509.816406 13.789062 503.390625 12.175781 C 496.960938 10.5625 490.496094 9.109375 483.996094 7.8125 C 477.5 6.519531 470.972656 5.382812 464.417969 4.410156 C 457.859375 3.433594 451.285156 2.621094 444.691406 1.96875 C 438.097656 1.316406 431.488281 0.824219 424.871094 0.496094 C 418.25 0.167969 411.628906 0.00390625 405 0 Z M 567.417969 594.066406 C 567.417969 594.796875 567.347656 595.523438 567.203125 596.246094 C 567.0625 596.964844 566.847656 597.664062 566.570312 598.339844 C 566.289062 599.019531 565.945312 599.664062 565.535156 600.273438 C 565.128906 600.882812 564.664062 601.445312 564.148438 601.964844 C 563.628906 602.484375 563.0625 602.945312 562.453125 603.355469 C 561.84375 603.761719 561.199219 604.105469 560.523438 604.386719 C 559.84375 604.667969 559.144531 604.878906 558.425781 605.023438 C 557.707031 605.164062 556.980469 605.238281 556.246094 605.238281 L 256.296875 605.238281 C 255.5625 605.238281 254.835938 605.164062 254.117188 605.023438 C 253.394531 604.878906 252.699219 604.667969 252.019531 604.386719 C 251.34375 604.105469 250.699219 603.761719 250.089844 603.355469 C 249.476562 602.945312 248.914062 602.484375 248.394531 601.964844 C 247.875 601.445312 247.414062 600.882812 247.003906 600.273438 C 246.597656 599.664062 246.253906 599.019531 245.972656 598.339844 C 245.691406 597.664062 245.480469 596.964844 245.335938 596.246094 C 245.195312 595.523438 245.121094 594.796875 245.121094 594.066406 L 245.121094 530.019531 C 245.125 528.464844 245.433594 526.976562 246.058594 525.554688 C 246.679688 524.132812 247.558594 522.890625 248.699219 521.835938 L 405 376.679688 C 416.679688 366.734375 427.035156 355.5625 436.058594 343.160156 C 438.757812 339.292969 440.824219 335.109375 442.25 330.613281 C 443.679688 326.117188 444.410156 321.511719 444.4375 316.792969 C 444.605469 314.199219 444.503906 311.617188 444.132812 309.042969 C 443.757812 306.472656 443.125 303.964844 442.230469 301.523438 C 441.335938 299.082031 440.199219 296.761719 438.820312 294.558594 C 437.441406 292.351562 435.851562 290.316406 434.046875 288.445312 C 431.972656 286.648438 429.742188 285.070312 427.355469 283.714844 C 424.96875 282.355469 422.472656 281.242188 419.871094 280.371094 C 417.265625 279.5 414.601562 278.894531 411.878906 278.546875 C 409.15625 278.199219 406.425781 278.117188 403.6875 278.304688 C 400.628906 278.261719 397.597656 278.523438 394.589844 279.085938 C 391.582031 279.652344 388.664062 280.507812 385.828125 281.65625 C 382.992188 282.804688 380.300781 284.222656 377.746094 285.910156 C 375.195312 287.597656 372.839844 289.523438 370.671875 291.683594 C 368.132812 294.246094 365.796875 296.988281 363.675781 299.90625 C 361.550781 302.828125 359.660156 305.890625 358 309.097656 C 356.34375 312.304688 354.9375 315.617188 353.785156 319.039062 C 352.632812 322.457031 351.742188 325.945312 351.121094 329.503906 C 350.960938 330.25 350.722656 330.96875 350.414062 331.667969 C 350.105469 332.363281 349.726562 333.023438 349.28125 333.644531 C 348.835938 334.261719 348.335938 334.832031 347.773438 335.347656 C 347.210938 335.867188 346.605469 336.320312 345.949219 336.714844 C 345.296875 337.105469 344.609375 337.429688 343.890625 337.679688 C 343.167969 337.929688 342.429688 338.109375 341.675781 338.207031 C 340.917969 338.308594 340.160156 338.332031 339.398438 338.277344 C 338.636719 338.222656 337.890625 338.089844 337.15625 337.882812 L 250.820312 313.050781 C 250.183594 312.867188 249.566406 312.628906 248.972656 312.335938 C 248.378906 312.042969 247.816406 311.699219 247.28125 311.308594 C 246.75 310.914062 246.253906 310.476562 245.796875 309.996094 C 245.34375 309.515625 244.933594 308.996094 244.570312 308.441406 C 244.207031 307.886719 243.894531 307.304688 243.632812 306.695312 C 243.375 306.085938 243.171875 305.460938 243.023438 304.8125 C 242.875 304.167969 242.785156 303.515625 242.75 302.851562 C 242.71875 302.191406 242.746094 301.53125 242.832031 300.875 C 243.421875 296.414062 244.222656 291.996094 245.226562 287.613281 C 246.230469 283.230469 247.433594 278.902344 248.84375 274.632812 C 250.253906 270.363281 251.855469 266.167969 253.65625 262.046875 C 255.457031 257.929688 257.445312 253.902344 259.625 249.96875 C 261.800781 246.03125 264.15625 242.207031 266.691406 238.496094 C 269.222656 234.78125 271.925781 231.191406 274.796875 227.730469 C 277.664062 224.269531 280.691406 220.949219 283.871094 217.769531 C 287.050781 214.59375 290.371094 211.570312 293.835938 208.699219 C 297.519531 205.519531 301.347656 202.515625 305.3125 199.691406 C 309.273438 196.863281 313.359375 194.226562 317.570312 191.777344 C 321.777344 189.328125 326.089844 187.078125 330.503906 185.027344 C 334.921875 182.976562 339.421875 181.132812 344.007812 179.496094 C 348.59375 177.863281 353.246094 176.441406 357.964844 175.238281 C 362.679688 174.035156 367.445312 173.046875 372.253906 172.285156 C 377.0625 171.519531 381.894531 170.976562 386.753906 170.660156 C 391.609375 170.339844 396.472656 170.246094 401.339844 170.378906 C 406.5 170.132812 411.65625 170.113281 416.816406 170.324219 C 421.976562 170.53125 427.117188 170.964844 432.238281 171.625 C 437.359375 172.285156 442.441406 173.167969 447.484375 174.273438 C 452.527344 175.382812 457.511719 176.707031 462.4375 178.253906 C 467.367188 179.800781 472.214844 181.558594 476.988281 183.53125 C 481.757812 185.503906 486.4375 187.679688 491.015625 190.0625 C 495.597656 192.445312 500.0625 195.027344 504.417969 197.804688 C 508.769531 200.578125 512.996094 203.542969 517.085938 206.691406 C 520.832031 209.855469 524.382812 213.226562 527.734375 216.800781 C 531.089844 220.378906 534.230469 224.132812 537.152344 228.070312 C 540.074219 232.007812 542.757812 236.101562 545.207031 240.351562 C 547.65625 244.597656 549.851562 248.972656 551.796875 253.472656 C 553.742188 257.976562 555.417969 262.574219 556.832031 267.269531 C 558.246094 271.964844 559.382812 276.722656 560.246094 281.550781 C 561.109375 286.378906 561.695312 291.238281 561.996094 296.132812 C 562.296875 301.023438 562.320312 305.921875 562.054688 310.816406 C 562.132812 317.082031 561.78125 323.324219 561 329.542969 C 560.21875 335.761719 559.015625 341.898438 557.390625 347.949219 C 555.765625 354.003906 553.734375 359.917969 551.300781 365.691406 C 548.863281 371.464844 546.042969 377.046875 542.839844 382.433594 C 534.933594 394.773438 526.1875 406.488281 516.601562 417.570312 C 507.011719 428.65625 496.683594 439 485.609375 448.601562 L 432.539062 496.304688 L 556.105469 496.304688 C 556.839844 496.304688 557.566406 496.378906 558.285156 496.519531 C 559.007812 496.664062 559.703125 496.875 560.382812 497.15625 C 561.058594 497.4375 561.703125 497.78125 562.3125 498.1875 C 562.925781 498.597656 563.488281 499.058594 564.007812 499.578125 C 564.527344 500.097656 564.988281 500.660156 565.398438 501.273438 C 565.804688 501.882812 566.148438 502.527344 566.429688 503.203125 C 566.710938 503.882812 566.921875 504.578125 567.066406 505.300781 C 567.207031 506.019531 567.28125 506.746094 567.28125 507.480469 Z M 567.417969 594.066406 " fill-opacity="1" fill-rule="evenodd"/></svg>