<svg xmlns="http://www.w3.org/2000/svg" xmlns:xlink="http://www.w3.org/1999/xlink" width="1080" zoomAndPan="magnify" viewBox="0 0 810 809.999993" height="1080" preserveAspectRatio="xMidYMid meet" version="1.0"><path fill="#ffffff" d="M 405 0 C 398.371094 0 391.746094 0.164062 385.128906 0.488281 C 378.507812 0.8125 371.898438 1.300781 365.304688 1.949219 C 358.707031 2.601562 352.128906 3.410156 345.574219 4.382812 C 339.019531 5.355469 332.488281 6.488281 325.988281 7.78125 C 319.488281 9.074219 313.023438 10.527344 306.59375 12.136719 C 300.164062 13.746094 293.777344 15.515625 287.433594 17.4375 C 281.09375 19.363281 274.800781 21.441406 268.558594 23.675781 C 262.320312 25.90625 256.136719 28.292969 250.011719 30.828125 C 243.890625 33.367188 237.832031 36.050781 231.839844 38.882812 C 225.847656 41.71875 219.929688 44.699219 214.085938 47.820312 C 208.238281 50.945312 202.472656 54.210938 196.789062 57.621094 C 191.101562 61.027344 185.503906 64.574219 179.992188 68.253906 C 174.484375 71.9375 169.066406 75.753906 163.742188 79.699219 C 158.417969 83.648438 153.195312 87.726562 148.070312 91.929688 C 142.945312 96.136719 137.929688 100.464844 133.019531 104.914062 C 128.109375 109.367188 123.308594 113.933594 118.621094 118.621094 C 113.933594 123.308594 109.367188 128.109375 104.914062 133.019531 C 100.464844 137.929688 96.136719 142.945312 91.929688 148.070312 C 87.726562 153.195312 83.648438 158.417969 79.699219 163.742188 C 75.753906 169.066406 71.9375 174.484375 68.253906 179.996094 C 64.574219 185.503906 61.027344 191.101562 57.621094 196.789062 C 54.210938 202.472656 50.945312 208.238281 47.820312 214.085938 C 44.699219 219.929688 41.71875 225.847656 38.882812 231.839844 C 36.050781 237.832031 33.363281 243.890625 30.828125 250.011719 C 28.292969 256.136719 25.90625 262.320312 23.675781 268.558594 C 21.441406 274.800781 19.363281 281.09375 17.4375 287.433594 C 15.515625 293.777344 13.746094 300.164062 12.136719 306.59375 C 10.527344 313.023438 9.074219 319.488281 7.78125 325.988281 C 6.488281 332.488281 5.355469 339.019531 4.382812 345.574219 C 3.410156 352.128906 2.601562 358.707031 1.949219 365.304688 C 1.300781 371.898438 0.8125 378.507812 0.488281 385.128906 C 0.164062 391.746094 0 398.371094 0 405 C 0 411.628906 0.164062 418.253906 0.488281 424.871094 C 0.8125 431.492188 1.300781 438.101562 1.949219 444.695312 C 2.601562 451.292969 3.410156 457.871094 4.382812 464.425781 C 5.355469 470.980469 6.488281 477.511719 7.78125 484.011719 C 9.074219 490.511719 10.527344 496.976562 12.136719 503.40625 C 13.746094 509.835938 15.515625 516.222656 17.4375 522.566406 C 19.363281 528.90625 21.441406 535.199219 23.675781 541.441406 C 25.90625 547.679688 28.292969 553.863281 30.828125 559.988281 C 33.363281 566.109375 36.050781 572.167969 38.882812 578.160156 C 41.71875 584.152344 44.699219 590.070312 47.820312 595.914062 C 50.945312 601.761719 54.210938 607.527344 57.621094 613.210938 C 61.027344 618.898438 64.574219 624.496094 68.253906 630.007812 C 71.9375 635.515625 75.753906 640.933594 79.699219 646.257812 C 83.648438 651.582031 87.726562 656.804688 91.929688 661.929688 C 96.136719 667.054688 100.464844 672.070312 104.914062 676.980469 C 109.367188 681.890625 113.933594 686.691406 118.621094 691.378906 C 123.308594 696.066406 128.109375 700.632812 133.019531 705.085938 C 137.929688 709.535156 142.945312 713.863281 148.070312 718.070312 C 153.195312 722.273438 158.417969 726.351562 163.742188 730.300781 C 169.066406 734.246094 174.484375 738.0625 179.992188 741.746094 C 185.503906 745.425781 191.101562 748.972656 196.789062 752.378906 C 202.472656 755.789062 208.238281 759.054688 214.085938 762.179688 C 219.929688 765.300781 225.847656 768.28125 231.839844 771.117188 C 237.832031 773.949219 243.890625 776.632812 250.011719 779.171875 C 256.136719 781.707031 262.320312 784.09375 268.558594 786.324219 C 274.800781 788.558594 281.09375 790.636719 287.433594 792.5625 C 293.777344 794.484375 300.164062 796.253906 306.59375 797.863281 C 313.023438 799.472656 319.488281 800.925781 325.988281 802.21875 C 332.488281 803.511719 339.019531 804.644531 345.574219 805.617188 C 352.128906 806.589844 358.707031 807.398438 365.304688 808.050781 C 371.898438 808.699219 378.507812 809.1875 385.128906 809.511719 C 391.746094 809.835938 398.371094 810 405 810 C 411.628906 810 418.253906 809.835938 424.871094 809.511719 C 431.492188 809.1875 438.101562 808.699219 444.695312 808.050781 C 451.292969 807.398438 457.871094 806.589844 464.425781 805.617188 C 470.980469 804.644531 477.511719 803.511719 484.011719 802.21875 C 490.511719 800.925781 496.976562 799.472656 503.40625 797.863281 C 509.835938 796.253906 516.222656 794.484375 522.566406 792.5625 C 528.90625 790.636719 535.199219 788.558594 541.441406 786.324219 C 547.679688 784.09375 553.863281 781.707031 559.988281 779.171875 C 566.109375 776.632812 572.167969 773.949219 578.160156 771.117188 C 584.152344 768.28125 590.070312 765.300781 595.914062 762.179688 C 601.761719 759.054688 607.527344 755.789062 613.210938 752.378906 C 618.898438 748.972656 624.496094 745.425781 630.003906 741.746094 C 635.515625 738.0625 640.933594 734.246094 646.257812 730.300781 C 651.582031 726.351562 656.804688 722.273438 661.929688 718.070312 C 667.050781 713.863281 672.070312 709.535156 676.980469 705.085938 C 681.890625 700.632812 686.691406 696.066406 691.378906 691.378906 C 696.066406 686.691406 700.632812 681.890625 705.085938 676.980469 C 709.535156 672.070312 713.863281 667.054688 718.070312 661.929688 C 722.273438 656.804688 726.351562 651.582031 730.300781 646.257812 C 734.246094 640.933594 738.0625 635.515625 741.746094 630.007812 C 745.425781 624.496094 748.972656 618.898438 752.378906 613.210938 C 755.789062 607.527344 759.054688 601.761719 762.179688 595.914062 C 765.300781 590.070312 768.28125 584.152344 771.117188 578.160156 C 773.949219 572.167969 776.632812 566.109375 779.171875 559.988281 C 781.707031 553.863281 784.09375 547.679688 786.324219 541.441406 C 788.558594 535.199219 790.636719 528.90625 792.5625 522.566406 C 794.484375 516.222656 796.253906 509.835938 797.863281 503.40625 C 799.472656 496.976562 800.925781 490.511719 802.21875 484.011719 C 803.511719 477.511719 804.644531 470.980469 805.617188 464.425781 C 806.589844 457.871094 807.398438 451.292969 808.050781 444.695312 C 808.699219 438.101562 809.1875 431.492188 809.511719 424.871094 C 809.835938 418.253906 810 411.628906 810 405 C 809.996094 398.371094 809.832031 391.75 809.503906 385.128906 C 809.175781 378.511719 808.683594 371.90625 808.03125 365.308594 C 807.378906 358.714844 806.566406 352.140625 805.589844 345.582031 C 804.617188 339.027344 803.480469 332.5 802.1875 326.003906 C 800.890625 319.503906 799.4375 313.039062 797.824219 306.609375 C 796.210938 300.183594 794.441406 293.796875 792.515625 287.457031 C 790.589844 281.117188 788.511719 274.824219 786.277344 268.585938 C 784.042969 262.347656 781.65625 256.164062 779.117188 250.042969 C 776.582031 243.921875 773.894531 237.863281 771.058594 231.875 C 768.226562 225.882812 765.246094 219.96875 762.121094 214.125 C 758.996094 208.277344 755.730469 202.515625 752.320312 196.832031 C 748.914062 191.148438 745.367188 185.550781 741.683594 180.039062 C 738.003906 174.53125 734.1875 169.113281 730.238281 163.792969 C 726.289062 158.46875 722.214844 153.246094 718.007812 148.125 C 713.804688 143 709.476562 137.984375 705.027344 133.074219 C 700.574219 128.164062 696.007812 123.367188 691.320312 118.679688 C 686.636719 113.992188 681.835938 109.425781 676.925781 104.972656 C 672.015625 100.523438 667 96.195312 661.875 91.992188 C 656.753906 87.785156 651.53125 83.710938 646.207031 79.761719 C 640.886719 75.8125 635.46875 71.996094 629.960938 68.316406 C 624.449219 64.632812 618.851562 61.085938 613.167969 57.679688 C 607.484375 54.269531 601.722656 51.003906 595.878906 47.878906 C 590.03125 44.753906 584.117188 41.773438 578.125 38.941406 C 572.136719 36.105469 566.078125 33.417969 559.957031 30.882812 C 553.835938 28.34375 547.652344 25.957031 541.414062 23.722656 C 535.175781 21.488281 528.886719 19.410156 522.542969 17.484375 C 516.203125 15.558594 509.816406 13.789062 503.390625 12.175781 C 496.960938 10.5625 490.496094 9.109375 483.996094 7.8125 C 477.5 6.519531 470.972656 5.382812 464.417969 4.410156 C 457.859375 3.433594 451.285156 2.621094 444.691406 1.96875 C 438.097656 1.316406 431.488281 0.824219 424.871094 0.496094 C 418.25 0.167969 411.628906 0.00390625 405 0 Z M 484.101562 606.105469 C 484.101562 606.835938 484.027344 607.5625 483.886719 608.28125 C 483.742188 609.003906 483.53125 609.703125 483.25 610.378906 C 482.96875 611.058594 482.625 611.699219 482.21875 612.308594 C 481.808594 612.921875 481.347656 613.484375 480.828125 614.003906 C 480.308594 614.523438 479.746094 614.984375 479.136719 615.394531 C 478.523438 615.800781 477.882812 616.144531 477.203125 616.425781 C 476.527344 616.707031 475.828125 616.917969 475.109375 617.0625 C 474.386719 617.203125 473.660156 617.277344 472.929688 617.277344 L 376.425781 617.277344 C 375.691406 617.277344 374.964844 617.203125 374.246094 617.0625 C 373.527344 616.917969 372.828125 616.707031 372.152344 616.425781 C 371.472656 616.144531 370.828125 615.800781 370.21875 615.394531 C 369.609375 614.984375 369.046875 614.523438 368.527344 614.003906 C 368.007812 613.484375 367.542969 612.921875 367.136719 612.3125 C 366.730469 611.699219 366.386719 611.058594 366.105469 610.378906 C 365.824219 609.703125 365.613281 609.003906 365.46875 608.28125 C 365.324219 607.5625 365.253906 606.835938 365.253906 606.105469 L 365.253906 326.484375 L 296.070312 358.214844 C 294.589844 358.894531 293.035156 359.234375 291.40625 359.234375 C 289.773438 359.234375 288.21875 358.894531 286.738281 358.214844 C 285.265625 357.535156 283.996094 356.578125 282.9375 355.34375 C 281.878906 354.109375 281.128906 352.710938 280.679688 351.148438 L 257.664062 270.34375 C 257.488281 269.730469 257.367188 269.105469 257.296875 268.46875 C 257.226562 267.832031 257.214844 267.195312 257.253906 266.558594 C 257.296875 265.921875 257.390625 265.289062 257.539062 264.667969 C 257.6875 264.046875 257.886719 263.441406 258.140625 262.855469 C 258.394531 262.265625 258.695312 261.707031 259.042969 261.171875 C 259.394531 260.632812 259.785156 260.132812 260.21875 259.664062 C 260.65625 259.195312 261.128906 258.765625 261.636719 258.378906 C 262.144531 257.992188 262.683594 257.652344 263.25 257.355469 L 386.148438 193.953125 C 387.75 193.132812 389.453125 192.722656 391.257812 192.722656 L 472.898438 192.722656 C 473.632812 192.722656 474.359375 192.796875 475.078125 192.9375 C 475.800781 193.082031 476.496094 193.292969 477.175781 193.574219 C 477.851562 193.855469 478.496094 194.199219 479.105469 194.605469 C 479.71875 195.015625 480.28125 195.476562 480.800781 195.996094 C 481.320312 196.515625 481.78125 197.078125 482.191406 197.691406 C 482.597656 198.300781 482.941406 198.941406 483.222656 199.621094 C 483.503906 200.300781 483.714844 200.996094 483.859375 201.71875 C 484 202.4375 484.074219 203.164062 484.074219 203.898438 Z M 484.101562 606.105469 " fill-opacity="1" fill-rule="evenodd"/></svg>