<svg xmlns="http://www.w3.org/2000/svg" xmlns:xlink="http://www.w3.org/1999/xlink" width="500" zoomAndPan="magnify" viewBox="0 0 375 374.999991" height="500" preserveAspectRatio="xMidYMid meet" version="1.0"><defs><clipPath id="a64ecee69d"><path d="M 0 7.109375 L 375 7.109375 L 375 375 L 0 375 Z M 0 7.109375 " clip-rule="nonzero"/></clipPath><clipPath id="a04ccebe9a"><path d="M 0 30.46875 L 252.683594 30.46875 L 252.683594 375 L 0 375 Z M 0 30.46875 " clip-rule="nonzero"/></clipPath></defs><g clip-path="url(#a64ecee69d)"><path fill="#ec3337" d="M 140.507812 45.523438 L 153.25 46.355469 L 181.078125 48.179688 L 185.308594 48.457031 L 185.753906 41.664062 L 183.777344 40.175781 C 183.777344 40.175781 184.085938 28.539062 176.992188 26.261719 C 169.898438 23.988281 159.988281 23.226562 156.082031 25.796875 C 152.179688 28.375 149.023438 40.269531 149.023438 40.269531 L 140.25 44.027344 C 139.496094 44.351562 139.691406 45.46875 140.507812 45.523438 Z M 83.714844 32.613281 L 100.496094 14.445312 L 101.195312 15.117188 L 105.824219 9.621094 L 103.785156 7.648438 L 98.445312 12.460938 L 99.148438 13.140625 L 81.546875 30.523438 Z M 249.769531 88.398438 C 256.71875 89.75 262.796875 84.46875 262.796875 77.765625 C 262.796875 75.800781 262.273438 73.957031 261.351562 72.367188 C 259.074219 68.421875 257.5625 64.085938 257.5625 59.527344 L 257.5625 58.011719 L 246.332031 58.011719 L 246.332031 58.671875 C 246.332031 63.335938 245.296875 68.027344 242.789062 71.960938 C 241.410156 74.121094 240.777344 76.800781 241.257812 79.644531 C 241.988281 83.996094 245.429688 87.558594 249.769531 88.398438 Z M -80.015625 366.132812 C -48.394531 310.585938 -30.320312 309.226562 -68.339844 229.980469 C -106.363281 150.734375 -72.753906 84.527344 -4.648438 55.300781 C 53.410156 30.386719 63.199219 84.3125 210.722656 135.867188 C 358.246094 187.417969 285.476562 316.003906 328.640625 346.171875 C 371.808594 376.335938 381.425781 493.550781 381.425781 493.550781 L -125.367188 493.550781 C -125.367188 493.550781 -111.636719 421.683594 -80.015625 366.132812 " fill-opacity="1" fill-rule="nonzero"/></g><g clip-path="url(#a04ccebe9a)"><path fill="#ffffff" d="M 238.042969 268.800781 C 237.835938 268.804688 237.710938 268.808594 237.710938 268.808594 C 237.710938 268.808594 237.640625 269.183594 237.519531 269.738281 C 237.71875 269.421875 237.894531 269.109375 238.042969 268.800781 Z M 252.394531 269.183594 C 252.246094 271.289062 250.160156 271.765625 248.484375 272.117188 C 246.800781 272.460938 246.296875 274 244.339844 273.90625 C 242.382812 273.804688 240.800781 275.507812 239.296875 275.507812 C 238.375 275.507812 236.996094 274.914062 236.054688 274.449219 C 236.003906 274.496094 235.953125 274.527344 235.90625 274.527344 C 235.71875 274.527344 235.402344 274.28125 235.027344 273.90625 L 235.023438 273.902344 C 234.039062 272.914062 232.625 270.992188 231.914062 270.011719 C 230.9375 268.65625 231.539062 265.339844 232.214844 263.613281 C 232.894531 261.886719 233.121094 259.472656 233.648438 257.894531 C 234.144531 256.402344 236.820312 252.769531 237.117188 252.363281 C 236.78125 251.128906 233.445312 238.847656 231.164062 226.355469 C 229.457031 217.035156 227.152344 195.5625 225.945312 183.785156 C 225.480469 183.21875 225.066406 182.597656 224.710938 181.917969 L 210.300781 154.347656 L 237.144531 147.023438 L 245.046875 173.691406 C 245.292969 174.527344 245.421875 175.371094 245.472656 176.210938 C 245.480469 176.242188 245.492188 176.265625 245.5 176.296875 C 249.878906 192.128906 251.546875 248.972656 251.636719 252.316406 C 251.640625 252.320312 251.640625 252.320312 251.640625 252.324219 C 252.011719 253.058594 251.988281 255.0625 251.640625 257.371094 C 251.640625 257.371094 251.640625 257.371094 251.640625 257.375 C 251.492188 258.554688 252.546875 267.078125 252.394531 269.183594 Z M 184.542969 48.726562 C 183.515625 48.519531 182.4375 48.757812 181.511719 49.253906 C 181.4375 48.890625 181.359375 48.535156 181.28125 48.179688 L 153.449219 46.355469 C 153.355469 46.660156 153.25 46.964844 153.164062 47.277344 C 150.496094 57.730469 151.585938 72.25 153.378906 74.675781 C 156.019531 78.238281 159.96875 77.851562 159.96875 77.851562 L 158.730469 91.089844 L 185.832031 91.089844 C 185.832031 91.089844 185.316406 75.539062 183.386719 60.714844 C 183.5625 60.625 183.726562 60.527344 183.875 60.402344 C 184.460938 59.910156 184.808594 59.203125 185.117188 58.503906 C 185.71875 57.164062 186.253906 55.792969 186.722656 54.402344 C 187.121094 53.203125 187.472656 51.875 187.011719 50.699219 C 186.613281 49.675781 185.621094 48.9375 184.542969 48.726562 Z M 87.507812 96.21875 L 82.824219 55.53125 C 84.113281 53.132812 85.203125 50.738281 85.015625 49.804688 C 84.710938 48.261719 85.585938 44.101562 85.523438 40.738281 C 85.546875 40.285156 85.550781 39.839844 85.53125 39.390625 C 85.53125 39.390625 85.875 36.894531 83.734375 35.765625 C 83.675781 35.734375 83.609375 35.722656 83.550781 35.699219 C 82.121094 34.664062 80.414062 35.15625 79.003906 35.121094 C 77.117188 35.074219 77.078125 31.371094 75.320312 30.921875 C 73.566406 30.464844 71.21875 31.5 68.816406 33.410156 C 66.410156 35.320312 64.582031 34.394531 62.164062 34.960938 C 59.742188 35.527344 59.46875 41.585938 57.867188 42.75 C 56.261719 43.910156 57.304688 46.925781 58.953125 50.140625 C 60.605469 53.359375 66.492188 56.925781 66.492188 56.925781 L 67.203125 57.199219 L 63.507812 107.59375 C 63.445312 108.066406 63.402344 108.550781 63.402344 109.042969 C 63.402344 114.851562 67.917969 119.664062 73.722656 120.035156 L 104.773438 122.011719 L 100.582031 94.511719 Z M -1.09375 53.910156 L -1.09375 492.835938 C -1.09375 492.835938 -127.601562 493.597656 -126.242188 494.957031 C -126.242188 494.957031 -111.695312 435.992188 -94.019531 392.734375 C -73.132812 341.601562 -30.625 314.957031 -57.28125 260.945312 C -83.9375 206.929688 -119.238281 105.042969 -1.09375 53.910156 " fill-opacity="1" fill-rule="nonzero"/></g><path fill="#000000" d="M -22.988281 139.460938 L -27.929688 139.460938 C -46.300781 135.632812 -62.867188 130.449219 -76.25 124.273438 C -76.382812 124.605469 -76.519531 124.933594 -76.648438 125.265625 C -64.378906 130.917969 -49.464844 135.746094 -32.953125 139.460938 L -82.207031 139.460938 L -82.207031 216.699219 L -38.578125 216.699219 C -45.398438 224.003906 -51.410156 231.425781 -54.808594 238.859375 C -58.179688 246.238281 -58.980469 253.738281 -57.214844 261.222656 C -55.246094 265.226562 -53.664062 269.085938 -52.417969 272.8125 C -44.109375 286.890625 -26.914062 300.503906 -1.101562 313.464844 L -1.101562 312.238281 C -30.132812 297.507812 -48.515625 281.644531 -54.675781 265.804688 C -58.109375 256.960938 -57.832031 248.046875 -53.839844 239.304688 C -50.390625 231.753906 -44.152344 224.171875 -37.121094 216.699219 L -22.988281 216.699219 L -22.988281 202.34375 C -16.269531 195.585938 -9.617188 188.664062 -4.632812 181.769531 C -3.351562 179.996094 -2.183594 178.214844 -1.101562 176.433594 L -1.101562 174.351562 C -2.410156 176.621094 -3.863281 178.890625 -5.496094 181.144531 C -10.246094 187.71875 -16.558594 194.34375 -22.988281 200.828125 L -22.988281 141.527344 C -15.90625 142.886719 -8.589844 144.039062 -1.101562 144.976562 L -1.101562 143.902344 C -8.59375 142.964844 -15.910156 141.804688 -22.988281 140.445312 Z M 221.097656 475.207031 L 220.039062 470.585938 C 219.664062 468.949219 218.097656 467.625 216.535156 467.625 L 216.136719 467.625 C 216.136719 467.625 216.351562 465.625 216.65625 461.917969 C 218.6875 437.429688 224.835938 337.621094 201.042969 233.75 C 199.304688 226.167969 198.917969 219.238281 199.351562 212.425781 C 199.339844 212.515625 199.332031 212.605469 199.328125 212.691406 L 229.960938 212.691406 C 229.875 212 229.789062 211.300781 229.695312 210.589844 L 199.484375 210.585938 C 200.339844 200.480469 202.917969 190.535156 205.542969 179.011719 C 207.601562 169.996094 209.351562 159.816406 209.820312 149.972656 L 189.832031 131.851562 C 189.832031 131.851562 191.648438 106.691406 197.910156 89.640625 C 198.320312 88.515625 197.574219 87.351562 196.402344 87.269531 L 189.191406 86.753906 C 188.511719 86.703125 187.835938 87.03125 187.457031 87.617188 C 176.984375 103.84375 174.054688 128.898438 174.054688 128.898438 L 145.074219 126.585938 C 145.074219 126.585938 147.878906 102.273438 154.445312 88.6875 C 155.179688 87.175781 154.175781 85.484375 152.527344 85.484375 L 145.402344 85.484375 C 144.652344 85.484375 143.9375 85.894531 143.542969 86.542969 C 136.15625 98.632812 131.933594 108.289062 131.21875 127.429688 L 124.902344 130.992188 L 121.40625 210.574219 L 69.453125 210.570312 L 69.453125 212.691406 L 121.3125 212.691406 L 121.347656 211.902344 L 110.417969 460.792969 L 122.890625 461.050781 L 122.617188 467.621094 L 121.425781 467.621094 C 120.132812 467.621094 119.089844 468.683594 119.042969 470.035156 L 118.882812 475.207031 C 118.882812 475.207031 101.683594 476.867188 101.984375 492.511719 L 142.871094 492.511719 C 142.871094 492.511719 145.765625 477.554688 142.183594 469.359375 C 141.726562 468.3125 140.746094 467.625 139.65625 467.625 L 140.585938 467.625 L 141.414062 461.433594 L 161.695312 269.648438 C 162.902344 269.640625 162.503906 269.644531 163.710938 269.632812 L 186.707031 461.410156 L 197.324219 461.585938 L 198.324219 467.625 L 198.355469 467.625 C 193.765625 475.207031 197.949219 492.511719 197.949219 492.511719 L 235.445312 492.511719 C 230.535156 478.941406 221.097656 475.207031 221.097656 475.207031 Z M 161.980469 62.378906 C 163.222656 62.148438 162.050781 58.789062 161.421875 57.207031 C 161.289062 56.859375 160.816406 56.824219 160.625 57.144531 C 159.808594 58.464844 158.195312 61.136719 158.113281 61.703125 C 158 62.449219 160.347656 62.675781 161.980469 62.378906 Z M 301.148438 212.691406 C 301.148438 212.691406 300.699219 211.589844 300.269531 210.597656 L 287.863281 210.597656 L 287.863281 211.628906 L 285.730469 211.628906 L 285.730469 210.597656 L 250.359375 210.59375 C 250.40625 211.289062 250.457031 211.992188 250.5 212.691406 Z M -49.476562 305.386719 C -49.546875 305.75 -49.621094 306.109375 -49.703125 306.46875 C -41.074219 310.996094 -33.484375 315.867188 -26.128906 320.597656 L -0.527344 337.054688 L -0.527344 335.789062 L -25.554688 319.703125 C -33.003906 314.910156 -40.699219 309.972656 -49.476562 305.386719 Z M -45.558594 324.46875 C -49.820312 323.878906 -54.066406 324.929688 -57.101562 326.574219 C -57.40625 327.183594 -57.71875 327.796875 -58.03125 328.410156 C -55.527344 326.628906 -50.933594 324.804688 -45.707031 325.523438 C -42.570312 325.957031 -40.800781 327.15625 -39.117188 328.445312 L -0.527344 358.054688 L -0.527344 356.714844 L -38.46875 327.601562 C -40.199219 326.273438 -42.164062 324.9375 -45.558594 324.46875 Z M -25.75 404.585938 C -25.625 403.761719 -25.492188 402.929688 -25.355469 402.097656 C -24.148438 394.601562 -22.902344 386.851562 -27.105469 379.367188 C -30.535156 373.265625 -37.519531 367.558594 -44.273438 362.042969 C -47.285156 359.582031 -50.394531 357.035156 -53.140625 354.5 C -59.753906 348.390625 -63.136719 342.847656 -63.195312 338.015625 C -63.195312 337.90625 -63.183594 337.800781 -63.179688 337.6875 C -63.503906 338.238281 -63.832031 338.796875 -64.164062 339.351562 C -63.589844 344.191406 -60.214844 349.414062 -53.863281 355.28125 C -51.09375 357.839844 -47.972656 360.398438 -44.949219 362.867188 C -38.269531 368.324219 -31.367188 373.960938 -28.035156 379.890625 C -24.015625 387.046875 -25.230469 394.613281 -26.40625 401.933594 C -26.542969 402.761719 -26.675781 403.59375 -26.804688 404.429688 C -28.007812 412.328125 -28.628906 421.433594 -20.796875 429.550781 C -16.34375 434.164062 -9.179688 438.046875 -0.527344 440.816406 L -0.527344 439.703125 C -8.859375 437.007812 -15.742188 433.253906 -20.03125 428.8125 C -27.527344 421.046875 -26.964844 412.585938 -25.75 404.585938 Z M -12.617188 83.042969 C -12.628906 87.539062 -8.171875 91.957031 -0.527344 95.191406 L -0.527344 94.039062 C -7.503906 91.007812 -11.5625 87.027344 -11.550781 83.046875 C -11.539062 79.085938 -7.480469 75.121094 -0.527344 72.101562 L -0.527344 70.945312 C -8.144531 74.167969 -12.601562 78.570312 -12.617188 83.042969 Z M -31.148438 84.453125 C -33.148438 80.089844 -33.097656 76.117188 -31.007812 72.972656 C -29.769531 71.105469 -28.253906 69.269531 -26.53125 67.460938 C -27.613281 68.136719 -28.695312 68.8125 -29.746094 69.5 C -30.515625 70.453125 -31.25 71.414062 -31.894531 72.378906 C -34.199219 75.851562 -34.28125 80.179688 -32.117188 84.898438 C -28.199219 93.429688 -16.570312 103.011719 -0.527344 107.589844 L -0.527344 106.488281 C -16.101562 101.976562 -27.363281 92.707031 -31.148438 84.453125 Z M -61.394531 98.144531 C -61.613281 98.429688 -61.832031 98.71875 -62.050781 99.003906 C -59.875 101.339844 -57.328125 103.554688 -54.375 105.625 C -42.066406 114.246094 -22.109375 120.527344 -0.527344 122.648438 L -0.527344 121.578125 C -21.890625 119.464844 -41.617188 113.257812 -53.761719 104.75 C -56.710938 102.6875 -59.242188 100.480469 -61.394531 98.144531 Z M -19.609375 251.90625 C -23.253906 265.730469 -16.472656 280.125 -0.527344 292.496094 L -0.527344 291.140625 C -15.648438 279.167969 -22.054688 265.375 -18.582031 252.175781 C -16.371094 243.789062 -10.148438 235.484375 -0.527344 227.828125 L -0.527344 226.480469 C -10.707031 234.425781 -17.296875 243.113281 -19.609375 251.90625 Z M -59.519531 476.445312 L -62.609375 476.351562 C -74.03125 476.007812 -87.386719 475.375 -99.871094 473.34375 C -107.308594 472.140625 -113.769531 470.5 -118.910156 468.558594 C -119.007812 468.902344 -119.105469 469.242188 -119.195312 469.585938 C -113.992188 471.539062 -107.492188 473.1875 -100.042969 474.398438 C -87.496094 476.4375 -74.101562 477.070312 -62.644531 477.417969 L -59.550781 477.511719 C -51.027344 477.753906 -42.214844 478.007812 -34.308594 479.308594 C -20.734375 481.539062 -11.992188 486.332031 -4.347656 491.835938 C -3.660156 491.832031 -3.058594 491.828125 -2.546875 491.828125 C -10.589844 485.886719 -19.640625 480.640625 -34.136719 478.257812 C -42.109375 476.945312 -50.960938 476.691406 -59.519531 476.445312 Z M -112.851562 484.835938 C -115.800781 483.453125 -118.824219 482.050781 -122.28125 480.847656 C -122.371094 481.191406 -122.46875 481.542969 -122.554688 481.878906 C -119.171875 483.0625 -116.199219 484.441406 -113.300781 485.796875 C -112.023438 486.398438 -110.746094 486.996094 -109.4375 487.574219 C -105.113281 489.492188 -100.355469 491.242188 -95.253906 492.804688 C -94.085938 492.785156 -92.898438 492.765625 -91.691406 492.746094 C -97.996094 490.960938 -103.8125 488.90625 -109.007812 486.605469 C -110.308594 486.023438 -111.578125 485.429688 -112.851562 484.835938 Z M -55.433594 461.585938 C -59.914062 461.164062 -64.550781 460.726562 -69.03125 460.199219 C -83.621094 458.480469 -93.578125 456.019531 -99.476562 452.667969 C -106.335938 448.777344 -108.035156 443.597656 -104.820312 436.363281 C -104.214844 435.011719 -103.496094 433.628906 -102.800781 432.292969 C -100.492188 427.867188 -98.109375 423.285156 -99.34375 418.636719 C -99.5625 417.828125 -100.234375 416.273438 -102.300781 415.207031 C -102.417969 415.546875 -102.539062 415.886719 -102.65625 416.226562 C -101.066406 417.097656 -100.542969 418.28125 -100.375 418.914062 C -99.242188 423.15625 -101.429688 427.359375 -103.746094 431.800781 C -104.449219 433.15625 -105.175781 434.550781 -105.792969 435.929688 C -109.222656 443.660156 -107.332031 449.4375 -100.003906 453.597656 C -93.976562 457.015625 -83.890625 459.523438 -69.160156 461.257812 C -64.664062 461.785156 -60.019531 462.222656 -55.53125 462.648438 C -48.207031 463.339844 -40.632812 464.058594 -33.550781 465.175781 C -20.375 467.265625 -8.917969 470.824219 -0.527344 475.242188 L -0.527344 474.058594 C -8.996094 469.691406 -20.375 466.183594 -33.382812 464.125 C -40.5 463 -48.089844 462.28125 -55.433594 461.585938 Z M -81.78125 435.488281 C -87.777344 426.109375 -82.050781 416.707031 -75.988281 406.753906 C -73.035156 401.90625 -69.980469 396.890625 -68.449219 391.910156 C -64.925781 380.449219 -69.441406 368.996094 -75.542969 357.773438 C -75.761719 358.125 -75.976562 358.472656 -76.191406 358.820312 C -70.347656 369.671875 -66.121094 380.703125 -69.46875 391.597656 C -70.957031 396.449219 -73.976562 401.40625 -76.898438 406.203125 C -82.867188 415.996094 -89.035156 426.125 -82.679688 436.0625 C -76.804688 445.242188 -59.679688 453.5 -36.863281 458.160156 C -25.769531 460.425781 -13.425781 461.867188 -0.527344 462.460938 L -0.527344 461.394531 C -13.351562 460.796875 -25.621094 459.367188 -36.648438 457.117188 C -59.191406 452.515625 -76.058594 444.429688 -81.78125 435.488281 Z M 245.28125 88.257812 C 245.035156 88.097656 244.703125 88.171875 244.542969 88.417969 L 240.363281 94.886719 C 240.203125 95.132812 240.277344 95.460938 240.523438 95.625 C 240.613281 95.679688 240.710938 95.707031 240.8125 95.707031 C 240.988281 95.707031 241.15625 95.621094 241.261719 95.464844 L 245.4375 88.996094 C 245.597656 88.75 245.527344 88.421875 245.28125 88.257812 Z M 261.773438 62.734375 C 261.859375 62.789062 261.964844 62.816406 262.0625 62.816406 C 262.238281 62.816406 262.40625 62.734375 262.511719 62.574219 L 265.222656 58.375 C 265.378906 58.128906 265.308594 57.796875 265.0625 57.640625 C 264.816406 57.480469 264.488281 57.550781 264.328125 57.796875 L 261.613281 61.996094 C 261.457031 62.242188 261.527344 62.574219 261.773438 62.734375 Z M 233.953125 65.101562 L 240.425781 69.277344 C 240.515625 69.339844 240.613281 69.367188 240.714844 69.367188 C 240.886719 69.367188 241.058594 69.277344 241.160156 69.121094 C 241.324219 68.875 241.25 68.542969 241.003906 68.386719 L 234.535156 64.207031 C 234.285156 64.050781 233.953125 64.117188 233.796875 64.367188 C 233.632812 64.613281 233.707031 64.941406 233.953125 65.101562 Z M 265.164062 83.984375 C 264.917969 83.824219 264.585938 83.894531 264.425781 84.144531 C 264.265625 84.390625 264.335938 84.71875 264.582031 84.878906 L 271.050781 89.054688 C 271.144531 89.113281 271.242188 89.140625 271.339844 89.140625 C 271.515625 89.140625 271.6875 89.054688 271.789062 88.894531 C 271.953125 88.648438 271.875 88.320312 271.628906 88.164062 Z M 264.328125 95.464844 C 264.429688 95.621094 264.597656 95.707031 264.773438 95.707031 C 264.871094 95.707031 264.976562 95.679688 265.0625 95.625 C 265.308594 95.460938 265.378906 95.132812 265.222656 94.886719 L 261.042969 88.417969 C 260.882812 88.171875 260.550781 88.101562 260.304688 88.257812 C 260.058594 88.421875 259.988281 88.75 260.144531 88.996094 Z M 243.078125 62.574219 C 243.175781 62.734375 243.347656 62.816406 243.523438 62.816406 C 243.621094 62.816406 243.726562 62.789062 243.8125 62.734375 C 244.0625 62.574219 244.128906 62.242188 243.972656 61.996094 L 241.261719 57.796875 C 241.101562 57.550781 240.769531 57.484375 240.523438 57.640625 C 240.277344 57.796875 240.203125 58.128906 240.363281 58.375 Z M 264.425781 69.121094 C 264.527344 69.277344 264.699219 69.367188 264.871094 69.367188 C 264.972656 69.367188 265.070312 69.339844 265.164062 69.277344 L 271.628906 65.101562 C 271.875 64.941406 271.953125 64.613281 271.789062 64.367188 C 271.628906 64.117188 271.300781 64.050781 271.050781 64.207031 L 264.582031 68.386719 C 264.335938 68.542969 264.265625 68.875 264.425781 69.121094 Z M 240.425781 83.984375 L 233.953125 88.164062 C 233.707031 88.320312 233.632812 88.648438 233.796875 88.894531 C 233.898438 89.054688 234.070312 89.140625 234.246094 89.140625 C 234.34375 89.140625 234.441406 89.113281 234.535156 89.054688 L 241.003906 84.878906 C 241.25 84.71875 241.324219 84.390625 241.160156 84.144531 C 241.003906 83.894531 240.671875 83.824219 240.425781 83.984375 Z M 266.636719 76.628906 C 266.636719 76.925781 266.875 77.164062 267.175781 77.164062 L 274.878906 77.164062 C 275.171875 77.164062 275.410156 76.925781 275.410156 76.628906 C 275.410156 76.335938 275.171875 76.097656 274.878906 76.097656 L 267.175781 76.097656 C 266.875 76.097656 266.636719 76.335938 266.636719 76.628906 Z M 230.707031 77.164062 L 238.414062 77.164062 C 238.707031 77.164062 238.945312 76.925781 238.945312 76.628906 C 238.945312 76.335938 238.707031 76.097656 238.414062 76.097656 L 230.707031 76.097656 C 230.414062 76.097656 230.175781 76.335938 230.175781 76.628906 C 230.175781 76.925781 230.414062 77.164062 230.707031 77.164062 Z M 252.792969 99.238281 C 253.085938 99.238281 253.324219 99 253.324219 98.707031 L 253.324219 91.007812 C 253.324219 90.714844 253.085938 90.476562 252.792969 90.476562 C 252.5 90.476562 252.261719 90.714844 252.261719 91.007812 L 252.261719 98.707031 C 252.261719 99 252.5 99.238281 252.792969 99.238281 Z M 320.398438 396.828125 C 320.398438 394.035156 318.132812 391.765625 315.335938 391.765625 C 312.542969 391.765625 310.273438 394.035156 310.273438 396.828125 C 310.273438 399.625 312.542969 401.890625 315.335938 401.890625 C 318.132812 401.890625 320.398438 399.625 320.398438 396.828125 Z M 295.855469 396.828125 C 295.855469 394.035156 293.589844 391.765625 290.789062 391.765625 C 287.992188 391.765625 285.726562 394.035156 285.726562 396.828125 C 285.726562 399.625 287.992188 401.890625 290.789062 401.890625 C 293.589844 401.890625 295.855469 399.625 295.855469 396.828125 Z M 271.304688 396.828125 C 271.304688 394.035156 269.039062 391.765625 266.242188 391.765625 C 263.449219 391.765625 261.179688 394.035156 261.179688 396.828125 C 261.179688 399.625 263.449219 401.890625 266.242188 401.890625 C 269.039062 401.890625 271.304688 399.625 271.304688 396.828125 Z M 331.117188 415.449219 L 250.460938 415.449219 C 246.464844 415.449219 243.222656 412.210938 243.222656 408.210938 L 243.222656 385.441406 C 243.222656 381.445312 246.464844 378.207031 250.460938 378.207031 L 331.117188 378.207031 C 335.117188 378.207031 338.355469 381.445312 338.355469 385.441406 L 338.355469 408.210938 C 338.355469 412.210938 335.117188 415.449219 331.117188 415.449219 Z M 262.527344 445.890625 C 262.527344 450.214844 266.035156 453.714844 270.355469 453.714844 C 274.683594 453.714844 278.191406 450.214844 278.191406 445.890625 C 278.191406 441.566406 274.683594 438.0625 270.355469 438.0625 C 266.035156 438.0625 262.527344 441.566406 262.527344 445.890625 Z M 243.222656 428.785156 L 294.90625 428.785156 L 294.90625 466.035156 L 243.222656 466.035156 Z M 347.386719 450.679688 L 353.371094 450.679688 L 353.371094 448.550781 L 347.386719 448.550781 Z M 347.386719 444.820312 L 347.386719 446.957031 L 353.371094 446.957031 L 353.371094 444.820312 Z M 333.230469 450.679688 L 339.21875 450.679688 L 339.21875 448.550781 L 333.230469 448.550781 Z M 333.230469 446.957031 L 339.21875 446.957031 L 339.21875 444.820312 L 333.230469 444.820312 Z M 319.074219 450.679688 L 325.0625 450.679688 L 325.0625 448.550781 L 319.074219 448.550781 Z M 319.074219 446.957031 L 325.0625 446.957031 L 325.0625 444.820312 L 319.074219 444.820312 Z M 39.890625 50.699219 C 39.890625 50.699219 38.320312 50.230469 37.773438 50.046875 L 37.742188 210.5625 L 31.898438 210.5625 L 31.898438 157.746094 L 31.769531 157.746094 L 31.769531 151.421875 L 37.566406 151.421875 L 37.566406 145.097656 L 31.898438 145.097656 L 31.898438 125.453125 L 31.769531 125.453125 L 31.769531 119.132812 L 37.566406 119.132812 L 37.566406 112.808594 L 31.898438 112.808594 L 31.902344 93.164062 L 31.769531 93.164062 L 31.769531 86.839844 L 37.566406 86.839844 L 37.566406 80.515625 L 31.902344 80.515625 L 31.902344 48.71875 L 29.804688 48.402344 L 29.765625 212.691406 L 50.074219 212.691406 L 50.074219 210.566406 L 39.875 210.5625 Z M 66.316406 215.683594 C 65.316406 215.683594 64.5 216.417969 64.347656 217.371094 C 64.332031 217.476562 64.316406 217.578125 64.316406 217.6875 C 64.316406 217.820312 64.328125 217.953125 64.355469 218.078125 C 64.367188 218.132812 64.386719 218.191406 64.402344 218.246094 C 64.421875 218.3125 64.4375 218.378906 64.464844 218.445312 C 64.5 218.515625 64.539062 218.585938 64.578125 218.65625 C 64.597656 218.695312 64.617188 218.734375 64.636719 218.769531 C 64.691406 218.851562 64.757812 218.933594 64.824219 219.007812 C 64.839844 219.023438 64.851562 219.039062 64.863281 219.054688 C 64.941406 219.136719 65.035156 219.21875 65.128906 219.285156 C 65.128906 219.289062 65.132812 219.289062 65.132812 219.292969 C 65.429688 219.507812 65.789062 219.644531 66.175781 219.667969 C 66.222656 219.671875 66.269531 219.683594 66.316406 219.683594 C 66.363281 219.683594 66.40625 219.671875 66.449219 219.667969 C 66.839844 219.644531 67.199219 219.507812 67.5 219.292969 C 67.5 219.292969 67.5 219.289062 67.503906 219.289062 C 67.597656 219.21875 67.683594 219.136719 67.769531 219.054688 C 67.78125 219.039062 67.792969 219.023438 67.804688 219.011719 C 67.871094 218.9375 67.933594 218.851562 67.996094 218.769531 C 68.015625 218.734375 68.03125 218.699219 68.054688 218.660156 C 68.09375 218.589844 68.132812 218.519531 68.164062 218.445312 C 68.191406 218.378906 68.207031 218.308594 68.226562 218.242188 C 68.246094 218.1875 68.265625 218.132812 68.277344 218.078125 C 68.304688 217.953125 68.316406 217.820312 68.316406 217.6875 C 68.316406 217.578125 68.300781 217.476562 68.285156 217.371094 C 68.132812 216.417969 67.3125 215.683594 66.316406 215.683594 Z M 59.765625 215.683594 C 58.769531 215.683594 57.945312 216.421875 57.796875 217.371094 C 57.78125 217.476562 57.761719 217.578125 57.761719 217.6875 C 57.761719 217.820312 57.78125 217.953125 57.804688 218.078125 C 57.816406 218.132812 57.835938 218.1875 57.851562 218.242188 C 57.871094 218.308594 57.890625 218.375 57.914062 218.441406 C 57.945312 218.515625 57.984375 218.582031 58.027344 218.652344 C 58.046875 218.691406 58.0625 218.730469 58.085938 218.765625 C 58.140625 218.847656 58.203125 218.925781 58.269531 219 C 58.285156 219.015625 58.296875 219.035156 58.3125 219.050781 C 58.390625 219.132812 58.476562 219.210938 58.570312 219.277344 C 58.574219 219.28125 58.574219 219.285156 58.578125 219.289062 C 58.871094 219.503906 59.226562 219.640625 59.613281 219.667969 C 59.664062 219.671875 59.710938 219.683594 59.765625 219.683594 C 59.816406 219.683594 59.863281 219.671875 59.914062 219.667969 C 60.300781 219.640625 60.65625 219.503906 60.949219 219.289062 C 60.953125 219.285156 60.957031 219.28125 60.960938 219.277344 C 61.054688 219.210938 61.140625 219.132812 61.21875 219.050781 C 61.234375 219.035156 61.242188 219.019531 61.261719 219.003906 C 61.328125 218.925781 61.386719 218.847656 61.441406 218.765625 C 61.464844 218.730469 61.484375 218.691406 61.507812 218.652344 C 61.546875 218.582031 61.585938 218.515625 61.617188 218.441406 C 61.640625 218.375 61.65625 218.304688 61.675781 218.242188 C 61.691406 218.1875 61.714844 218.132812 61.722656 218.078125 C 61.75 217.953125 61.765625 217.820312 61.765625 217.6875 C 61.765625 216.578125 60.871094 215.683594 59.765625 215.683594 Z M 55.183594 217.371094 C 55.199219 217.476562 55.210938 217.578125 55.210938 217.6875 C 55.210938 217.820312 55.199219 217.953125 55.175781 218.074219 C 55.164062 218.128906 55.144531 218.1875 55.125 218.238281 C 55.109375 218.304688 55.09375 218.375 55.066406 218.441406 C 55.035156 218.511719 54.992188 218.578125 54.957031 218.644531 C 54.933594 218.6875 54.917969 218.726562 54.894531 218.765625 C 54.84375 218.84375 54.78125 218.917969 54.714844 218.992188 C 54.699219 219.011719 54.6875 219.03125 54.671875 219.046875 C 54.59375 219.128906 54.507812 219.203125 54.421875 219.269531 C 54.414062 219.273438 54.410156 219.28125 54.402344 219.285156 C 54.113281 219.5 53.757812 219.636719 53.375 219.667969 C 53.324219 219.671875 53.269531 219.683594 53.214844 219.683594 C 53.160156 219.683594 53.105469 219.671875 53.050781 219.667969 C 52.667969 219.636719 52.316406 219.5 52.019531 219.285156 C 52.015625 219.28125 52.011719 219.273438 52.003906 219.269531 C 51.917969 219.203125 51.835938 219.128906 51.753906 219.046875 C 51.738281 219.03125 51.726562 219.011719 51.710938 218.992188 C 51.648438 218.917969 51.585938 218.84375 51.53125 218.765625 C 51.507812 218.726562 51.488281 218.683594 51.46875 218.640625 C 51.429688 218.578125 51.394531 218.511719 51.363281 218.441406 C 51.335938 218.371094 51.320312 218.300781 51.300781 218.234375 C 51.28125 218.183594 51.261719 218.128906 51.25 218.078125 C 51.226562 217.953125 51.210938 217.820312 51.210938 217.6875 C 51.210938 217.578125 51.226562 217.476562 51.242188 217.375 C 51.394531 216.421875 52.214844 215.683594 53.214844 215.683594 C 54.210938 215.683594 55.035156 216.421875 55.183594 217.371094 " fill-opacity="1" fill-rule="nonzero"/><path fill="#423f3f" d="M -54.230469 180.191406 L -59.796875 181.683594 L -52.421875 166.605469 L -53.609375 175.855469 L -48.039062 174.367188 L -55.421875 189.449219 Z M -88.898438 221.511719 C -88.898438 222.78125 -89.925781 223.808594 -91.195312 223.808594 C -92.460938 223.808594 -93.488281 222.78125 -93.488281 221.511719 C -93.488281 220.242188 -92.460938 219.214844 -91.195312 219.214844 C -89.925781 219.214844 -88.898438 220.242188 -88.898438 221.511719 Z M -88.898438 130.496094 C -88.898438 131.761719 -89.925781 132.792969 -91.195312 132.792969 C -92.460938 132.792969 -93.488281 131.761719 -93.488281 130.496094 C -93.488281 129.226562 -92.460938 128.199219 -91.195312 128.199219 C -89.925781 128.199219 -88.898438 129.226562 -88.898438 130.496094 Z M -15.585938 221.511719 C -15.585938 222.78125 -16.613281 223.808594 -17.878906 223.808594 C -19.148438 223.808594 -20.175781 222.78125 -20.175781 221.511719 C -20.175781 220.242188 -19.148438 219.214844 -17.878906 219.214844 C -16.613281 219.214844 -15.585938 220.242188 -15.585938 221.511719 Z M -15.585938 130.496094 C -15.585938 131.761719 -16.613281 132.792969 -17.878906 132.792969 C -19.148438 132.792969 -20.175781 131.761719 -20.175781 130.496094 C -20.175781 129.226562 -19.148438 128.199219 -17.878906 128.199219 C -16.613281 128.199219 -15.585938 129.226562 -15.585938 130.496094 Z M -83.097656 138.59375 L -25.976562 138.59375 L -25.976562 213.414062 L -83.097656 213.414062 Z M -84.160156 214.480469 L -24.914062 214.480469 L -24.914062 137.527344 L -84.160156 137.527344 Z M 233.738281 488.773438 C 233.738281 489.359375 233.265625 489.835938 232.675781 489.835938 L 196.679688 489.835938 C 196.089844 489.835938 195.617188 489.359375 195.617188 488.773438 C 195.617188 488.183594 196.089844 487.707031 196.679688 487.707031 L 232.675781 487.707031 C 233.265625 487.707031 233.738281 488.183594 233.738281 488.773438 Z M 143.980469 488.773438 C 143.980469 489.359375 143.503906 489.835938 142.914062 489.835938 L 101.878906 489.835938 C 101.289062 489.835938 100.8125 489.359375 100.8125 488.773438 C 100.8125 488.183594 101.289062 487.707031 101.878906 487.707031 L 142.914062 487.707031 C 143.503906 487.707031 143.980469 488.183594 143.980469 488.773438 Z M 138.503906 144.722656 L 177.875 147.214844 L 175.015625 179.832031 C 169.582031 181.886719 155.949219 186.753906 153.367188 186.457031 C 149.964844 186.078125 136.929688 175.742188 136.5 174.269531 C 136.144531 173.019531 137.519531 155.707031 138.503906 144.722656 Z M 153.25 187.515625 C 153.34375 187.527344 153.445312 187.53125 153.5625 187.53125 C 157.703125 187.53125 174.957031 180.996094 175.707031 180.707031 L 176.019531 180.59375 L 179.035156 146.21875 L 137.539062 143.589844 L 137.488281 144.105469 C 137.226562 147.03125 134.9375 172.714844 135.476562 174.566406 C 136.101562 176.710938 149.789062 187.132812 153.25 187.515625 Z M 190.996094 219.058594 L 198.558594 219.335938 L 199.738281 219.378906 L 199.738281 226.027344 L 198.945312 226 L 185.597656 225.511719 L 185.285156 221.386719 L 185.089844 218.84375 Z M 199.953125 232.652344 L 159.703125 236.816406 L 118.859375 255.078125 L 117.703125 281.378906 L 103.613281 273.941406 C 102.140625 273.160156 101.351562 271.5 101.6875 269.867188 L 103.898438 258.992188 L 101.539062 258.085938 C 99.867188 257.441406 99.097656 255.507812 99.875 253.894531 L 105.429688 242.3125 L 107.238281 242.542969 L 107.890625 239.335938 C 108.136719 238.132812 108.949219 237.125 110.066406 236.636719 L 119.855469 232.359375 L 198.984375 226.40625 L 199.816406 226.34375 C 200.371094 226.300781 200.863281 226.695312 200.941406 227.242188 L 201.539062 231.386719 C 201.628906 231.980469 201.203125 232.523438 200.609375 232.585938 Z M 120.546875 216.492188 L 131.355469 216.886719 L 130.851562 223.519531 L 120.546875 223.144531 Z M 104.773438 122.011719 L 100.582031 94.511719 L 142.109375 89.101562 C 141.839844 89.507812 141.328125 90.453125 141.328125 90.265625 C 140.945312 90.910156 140.578125 91.550781 140.214844 92.1875 C 140.074219 92.445312 139.9375 92.699219 139.796875 92.953125 C 139.589844 93.332031 139.378906 93.710938 139.175781 94.089844 C 139 94.414062 138.835938 94.734375 138.664062 95.066406 C 138.503906 95.367188 138.347656 95.667969 138.195312 95.96875 C 138.007812 96.339844 137.832031 96.707031 137.652344 97.078125 C 137.523438 97.335938 137.402344 97.589844 137.277344 97.847656 C 137.089844 98.25 136.902344 98.660156 136.71875 99.066406 C 136.621094 99.285156 136.523438 99.5 136.429688 99.71875 C 136.234375 100.167969 136.046875 100.609375 135.859375 101.0625 C 135.789062 101.238281 135.714844 101.417969 135.644531 101.589844 C 135.445312 102.085938 135.253906 102.582031 135.070312 103.082031 C 135.019531 103.203125 134.980469 103.324219 134.9375 103.445312 C 134.730469 104.003906 134.527344 104.570312 134.339844 105.144531 C 134.335938 105.160156 134.332031 105.175781 134.328125 105.1875 C 132.578125 110.457031 131.414062 116.332031 130.855469 123.671875 C 130.738281 125.222656 130.636719 126.820312 130.574219 128.515625 L 129.589844 129.070312 C 129.65625 127.222656 129.753906 125.402344 129.878906 123.609375 Z M 191.007812 117.390625 C 191.429688 114.574219 191.941406 111.542969 192.546875 108.445312 C 192.546875 108.441406 192.550781 108.4375 192.550781 108.433594 C 192.800781 107.144531 193.070312 105.84375 193.359375 104.542969 C 193.640625 103.285156 193.9375 102.027344 194.246094 100.777344 C 194.269531 100.679688 194.292969 100.578125 194.320312 100.484375 C 194.621094 99.296875 194.933594 98.125 195.261719 96.964844 C 195.289062 96.871094 195.316406 96.765625 195.34375 96.671875 C 195.699219 95.441406 196.066406 94.230469 196.460938 93.058594 C 196.675781 92.402344 196.902344 91.769531 197.128906 91.132812 C 206.375 91.632812 218.484375 93.492188 221.976562 99.671875 C 227.851562 110.058594 237.144531 147.023438 237.144531 147.023438 L 210.300781 154.347656 L 208.058594 150.046875 L 189.191406 132.941406 C 189.191406 132.941406 189.675781 126.234375 191.003906 117.402344 L 190.996094 117.390625 Z M 135.03125 223.671875 L 135.542969 217.039062 L 137.792969 217.121094 L 180.878906 218.695312 L 181.390625 225.359375 Z M 173.410156 129.984375 L 144.429688 127.671875 C 144.429688 127.671875 144.566406 126.511719 144.839844 124.5625 C 144.84375 124.558594 144.84375 124.558594 144.84375 124.554688 C 145.160156 122.300781 145.671875 118.992188 146.390625 115.1875 C 146.390625 115.179688 146.394531 115.175781 146.394531 115.167969 C 147.84375 107.5 150.128906 97.832031 153.371094 90.707031 L 149.542969 89.054688 L 153.082031 81.847656 L 159.511719 80.691406 L 160.796875 88.328125 C 161.535156 88.359375 162.292969 88.394531 163.058594 88.4375 L 167.535156 81.847656 L 187.230469 78.238281 L 192.007812 86.570312 L 187.230469 89.476562 L 185.34375 91.148438 C 176.070312 107.324219 173.410156 129.984375 173.410156 129.984375 Z M 286.152344 300.695312 L 286.152344 309.613281 L 196.546875 309.613281 L 196.546875 300.695312 L 201.570312 300.695312 L 206.992188 278.886719 L 275.710938 278.886719 L 281.128906 300.695312 Z M 272.753906 340.679688 L 252.761719 340.679688 L 256.480469 313.21875 L 277.238281 313.21875 Z M 277.867188 312.152344 L 256.015625 312.152344 C 255.75 312.152344 255.523438 312.351562 255.488281 312.617188 L 251.621094 341.144531 C 251.601562 341.292969 251.644531 341.449219 251.746094 341.566406 C 251.847656 341.679688 251.996094 341.746094 252.148438 341.746094 L 273.207031 341.746094 C 273.464844 341.746094 273.691406 341.554688 273.730469 341.296875 L 278.390625 312.769531 C 278.414062 312.617188 278.371094 312.460938 278.269531 312.34375 C 278.171875 312.222656 278.019531 312.152344 277.867188 312.152344 Z M 36.921875 158.832031 L 31.128906 158.832031 L 31.128906 146.191406 L 36.921875 146.191406 Z M 44.671875 142.46875 L 23.378906 142.46875 L 23.378906 163.757812 L 44.671875 163.757812 Z M 36.921875 126.542969 L 31.128906 126.542969 L 31.128906 113.898438 L 36.921875 113.898438 Z M 44.671875 110.179688 L 23.378906 110.179688 L 23.378906 131.46875 L 44.671875 131.46875 Z M 36.921875 94.25 L 31.128906 94.25 L 31.128906 81.605469 L 36.921875 81.605469 Z M 44.671875 77.886719 L 23.378906 77.886719 L 23.378906 99.175781 L 44.671875 99.175781 Z M 67.535156 218.773438 C 67.535156 218.894531 67.523438 219.019531 67.5 219.136719 C 67.496094 219.15625 67.488281 219.175781 67.480469 219.195312 C 67.457031 219.292969 67.429688 219.386719 67.394531 219.480469 C 67.378906 219.515625 67.355469 219.546875 67.339844 219.585938 C 67.308594 219.648438 67.277344 219.722656 67.230469 219.78125 C 67.179688 219.863281 67.121094 219.9375 67.058594 220.011719 C 67.046875 220.023438 67.039062 220.035156 67.027344 220.046875 C 67.023438 220.046875 67.023438 220.046875 67.023438 220.046875 C 66.957031 220.113281 66.886719 220.175781 66.8125 220.234375 C 66.800781 220.246094 66.789062 220.257812 66.777344 220.269531 C 66.652344 220.355469 66.511719 220.425781 66.367188 220.488281 C 66.332031 220.5 66.296875 220.515625 66.261719 220.523438 C 66.113281 220.574219 65.957031 220.613281 65.796875 220.621094 L 65.546875 220.621094 C 64.578125 220.558594 63.808594 219.757812 63.808594 218.773438 C 63.808594 218.671875 63.824219 218.578125 63.839844 218.484375 C 63.976562 217.59375 64.742188 216.910156 65.671875 216.910156 C 66.601562 216.910156 67.367188 217.59375 67.507812 218.484375 C 67.523438 218.578125 67.535156 218.671875 67.535156 218.773438 Z M 59.253906 220.621094 L 58.984375 220.621094 C 58.023438 220.550781 57.257812 219.757812 57.257812 218.773438 C 57.257812 218.671875 57.273438 218.578125 57.289062 218.484375 C 57.425781 217.59375 58.191406 216.910156 59.121094 216.910156 C 60.054688 216.910156 60.816406 217.59375 60.953125 218.484375 C 60.96875 218.578125 60.984375 218.671875 60.984375 218.773438 C 60.984375 219.757812 60.21875 220.550781 59.253906 220.621094 Z M 52.71875 220.621094 L 52.421875 220.621094 C 52.257812 220.605469 52.109375 220.566406 51.960938 220.519531 C 51.925781 220.507812 51.890625 220.492188 51.859375 220.480469 C 51.714844 220.417969 51.582031 220.351562 51.460938 220.261719 C 51.425781 220.238281 51.398438 220.207031 51.367188 220.175781 C 51.3125 220.132812 51.257812 220.089844 51.210938 220.042969 C 51.199219 220.027344 51.183594 220.007812 51.171875 219.992188 C 51.171875 219.992188 51.171875 219.992188 51.167969 219.992188 C 51.148438 219.96875 51.132812 219.941406 51.113281 219.917969 C 50.964844 219.734375 50.855469 219.523438 50.789062 219.289062 C 50.789062 219.289062 50.789062 219.285156 50.789062 219.285156 C 50.78125 219.273438 50.78125 219.265625 50.777344 219.257812 C 50.765625 219.21875 50.75 219.175781 50.742188 219.136719 C 50.71875 219.019531 50.707031 218.894531 50.707031 218.773438 C 50.707031 218.671875 50.71875 218.578125 50.734375 218.484375 C 50.875 217.59375 51.640625 216.910156 52.570312 216.910156 C 53.5 216.910156 54.261719 217.59375 54.402344 218.484375 C 54.417969 218.578125 54.433594 218.671875 54.433594 218.773438 C 54.433594 219.753906 53.675781 220.542969 52.71875 220.621094 Z M 70.363281 199.871094 L 47.878906 199.871094 C 46.109375 199.871094 44.671875 201.304688 44.671875 203.074219 L 44.671875 230.746094 C 44.671875 232.515625 46.109375 233.953125 47.878906 233.953125 L 70.363281 233.953125 C 72.132812 233.953125 73.570312 232.515625 73.570312 230.746094 L 73.570312 203.074219 C 73.570312 201.304688 72.132812 199.871094 70.363281 199.871094 " fill-opacity="1" fill-rule="nonzero"/><path fill="#000000" d="M 170.21875 155.4375 C 170.667969 153.96875 169.316406 143.695312 166.832031 143.355469 C 164.347656 143.015625 160.164062 140.648438 158.476562 140.304688 C 156.78125 139.96875 151.945312 144.449219 151.945312 144.449219 C 151.945312 144.449219 153.277344 145.839844 153.164062 146.855469 C 153.050781 147.871094 150.34375 151.261719 149.550781 154.378906 C 148.761719 157.496094 153.617188 156.226562 155.195312 154.378906 C 156.78125 152.53125 158.359375 148.664062 158.359375 148.664062 C 158.359375 148.664062 158.359375 151.035156 157.117188 154.378906 C 155.875 157.722656 157.230469 161.535156 159.265625 161.421875 C 161.296875 161.308594 161.070312 158.9375 162.3125 156.933594 C 163.554688 154.929688 163.21875 147.761719 163.21875 147.761719 C 163.21875 147.761719 164.683594 154.648438 166.265625 156.117188 C 167.847656 157.582031 169.769531 156.90625 170.21875 155.4375 Z M -52.421875 166.605469 L -59.796875 181.683594 L -54.230469 180.191406 L -55.421875 189.449219 L -48.039062 174.367188 L -53.609375 175.855469 Z M -83.160156 213.398438 L -83.097656 213.398438 L -83.097656 213.414062 L -82.277344 213.414062 L -82.277344 213.398438 L -82.214844 213.398438 L -82.214844 139.40625 L -25.976562 139.40625 L -25.976562 139.398438 L -25.933594 139.398438 L -25.933594 138.453125 C -25.976562 138.496094 -83.160156 138.546875 -83.160156 138.546875 Z M -23.066406 216.644531 L -23.066406 139.40625 L -24.914062 139.40625 L -24.914062 137.527344 L -84.160156 137.527344 L -84.160156 214.480469 L -82.277344 214.480469 L -82.277344 216.644531 Z M -88.898438 130.496094 C -88.898438 129.226562 -89.925781 128.199219 -91.195312 128.199219 C -92.460938 128.199219 -93.488281 129.226562 -93.488281 130.496094 C -93.488281 131.761719 -92.460938 132.792969 -91.195312 132.792969 C -89.925781 132.792969 -88.898438 131.761719 -88.898438 130.496094 Z M -88.898438 221.511719 C -88.898438 220.242188 -89.925781 219.214844 -91.195312 219.214844 C -92.460938 219.214844 -93.488281 220.242188 -93.488281 221.511719 C -93.488281 222.78125 -92.460938 223.808594 -91.195312 223.808594 C -89.925781 223.808594 -88.898438 222.78125 -88.898438 221.511719 Z M -20.175781 221.511719 C -20.175781 222.78125 -19.148438 223.808594 -17.878906 223.808594 C -16.613281 223.808594 -15.585938 222.78125 -15.585938 221.511719 C -15.585938 220.242188 -16.613281 219.214844 -17.878906 219.214844 C -19.148438 219.214844 -20.175781 220.242188 -20.175781 221.511719 Z M -20.175781 130.496094 C -20.175781 131.761719 -19.148438 132.792969 -17.878906 132.792969 C -16.613281 132.792969 -15.585938 131.761719 -15.585938 130.496094 C -15.585938 129.226562 -16.613281 128.199219 -17.878906 128.199219 C -19.148438 128.199219 -20.175781 129.226562 -20.175781 130.496094 Z M -41.703125 436.425781 L -41.703125 233.589844 L -99.539062 233.589844 L -99.539062 118.414062 L -9.539062 118.414062 L -9.539062 233.589844 L -27.996094 233.589844 L -27.996094 422.730469 L -0.21875 422.730469 L -0.21875 424.859375 L -30.125 424.859375 L -30.125 233.589844 L -39.570312 233.589844 L -39.570312 434.296875 L -0.21875 434.296875 L -0.21875 436.425781 Z M 181.957031 218.730469 L 181.78125 216.496094 L 181.777344 216.414062 C 181.730469 215.824219 181.230469 215.382812 180.628906 215.433594 C 180.046875 215.476562 179.605469 215.988281 179.648438 216.574219 L 179.808594 218.652344 L 180.058594 221.886719 L 180.320312 225.324219 L 180.40625 226.433594 C 180.449219 226.992188 180.917969 227.417969 181.46875 227.417969 C 181.496094 227.417969 181.519531 227.417969 181.546875 227.417969 C 182.105469 227.375 182.519531 226.90625 182.519531 226.355469 C 182.519531 226.328125 182.53125 226.296875 182.53125 226.273438 L 182.464844 225.398438 L 182.183594 221.71875 Z M 186.339844 221.230469 L 186.164062 218.882812 L 185.972656 216.414062 C 185.929688 215.824219 185.4375 215.382812 184.828125 215.433594 C 184.269531 215.472656 183.859375 215.945312 183.859375 216.496094 C 183.855469 216.519531 183.84375 216.546875 183.847656 216.574219 L 184.019531 218.804688 L 184.226562 221.515625 L 184.527344 225.472656 L 184.59375 226.355469 L 184.597656 226.433594 C 184.644531 226.980469 185.089844 227.394531 185.621094 227.414062 C 185.640625 227.414062 185.652344 227.417969 185.664062 227.417969 C 185.691406 227.417969 185.714844 227.417969 185.746094 227.417969 C 185.765625 227.414062 185.785156 227.402344 185.808594 227.398438 C 186.359375 227.320312 186.769531 226.839844 186.726562 226.273438 L 186.671875 225.554688 Z M 116.636719 281.332031 C 116.613281 281.917969 117.066406 282.414062 117.65625 282.441406 C 117.671875 282.441406 117.6875 282.441406 117.703125 282.441406 C 118.269531 282.441406 118.738281 281.996094 118.765625 281.425781 L 119.605469 262.332031 C 119.605469 262.316406 119.605469 262.300781 119.609375 262.285156 L 119.945312 254.589844 L 120.605469 239.5625 C 120.632812 238.96875 120.175781 238.472656 119.589844 238.445312 C 119.589844 238.445312 119.589844 238.445312 119.585938 238.445312 C 118.992188 238.4375 118.5 238.878906 118.472656 239.464844 L 117.660156 258.066406 L 107.140625 258.996094 L 104.945312 259.191406 L 108.605469 242.71875 L 109.011719 240.910156 C 109.140625 240.339844 108.777344 239.765625 108.203125 239.640625 C 108.074219 239.613281 107.949219 239.617188 107.828125 239.632812 C 107.402344 239.691406 107.03125 240 106.929688 240.449219 L 106.484375 242.445312 L 102.890625 258.601562 L 102.550781 260.121094 C 102.546875 260.136719 102.542969 260.160156 102.539062 260.179688 L 101.828125 263.378906 C 101.820312 263.402344 101.8125 263.425781 101.808594 263.457031 L 100.65625 268.652344 C 100.527344 269.226562 100.890625 269.792969 101.464844 269.921875 C 101.535156 269.941406 101.605469 269.925781 101.679688 269.925781 C 102.171875 269.933594 102.621094 269.617188 102.734375 269.117188 L 103.730469 264.640625 L 117.421875 263.425781 L 116.660156 280.828125 Z M 108.71875 122.148438 C 108.722656 122.1875 108.746094 122.222656 108.753906 122.265625 C 108.875 122.734375 109.285156 123.078125 109.773438 123.078125 C 109.816406 123.078125 109.867188 123.074219 109.914062 123.070312 C 110.308594 123.019531 110.617188 122.742188 110.753906 122.390625 C 110.816406 122.230469 110.851562 122.058594 110.828125 121.875 L 107.183594 93.652344 C 107.101562 93.070312 106.570312 92.652344 105.988281 92.730469 C 105.40625 92.808594 104.992188 93.34375 105.066406 93.925781 L 105.066406 93.929688 Z M 128.519531 123.527344 C 128.800781 123.949219 128.992188 124.207031 129.023438 124.25 C 129.21875 124.503906 129.507812 124.640625 129.808594 124.660156 C 129.832031 124.660156 129.855469 124.675781 129.875 124.675781 C 130.101562 124.675781 130.324219 124.605469 130.511719 124.460938 C 130.660156 124.355469 130.753906 124.210938 130.828125 124.0625 C 130.828125 124.058594 130.828125 124.054688 130.832031 124.050781 C 130.886719 123.929688 130.917969 123.808594 130.925781 123.675781 C 130.933594 123.554688 130.925781 123.425781 130.886719 123.308594 C 130.886719 123.304688 130.886719 123.300781 130.882812 123.300781 C 130.851562 123.183594 130.804688 123.074219 130.726562 122.96875 C 130.71875 122.957031 130.429688 122.570312 130.003906 121.878906 C 129.007812 120.28125 127.234375 117.035156 126.339844 112.988281 C 126.207031 112.414062 125.636719 112.054688 125.0625 112.179688 C 124.488281 112.304688 124.128906 112.878906 124.253906 113.453125 C 125.335938 118.3125 127.53125 122.023438 128.519531 123.527344 Z M 130.464844 214.539062 L 130.289062 216.847656 L 129.78125 223.480469 L 129.710938 224.398438 C 129.667969 224.984375 130.109375 225.496094 130.695312 225.546875 C 130.722656 225.546875 130.75 225.550781 130.777344 225.550781 C 131.332031 225.550781 131.792969 225.121094 131.839844 224.5625 L 131.847656 224.480469 L 131.914062 223.558594 L 132.421875 216.925781 L 132.59375 214.703125 C 132.59375 214.675781 132.582031 214.652344 132.582031 214.621094 C 132.582031 214.070312 132.167969 213.601562 131.613281 213.558594 C 131 213.511719 130.507812 213.953125 130.464844 214.539062 Z M 160.203125 228.265625 C 159.59375 228.226562 159.113281 228.679688 159.082031 229.265625 L 159.074219 229.410156 L 158.640625 236.753906 C 158.632812 236.929688 158.675781 237.09375 158.746094 237.25 C 158.902344 237.597656 159.234375 237.855469 159.640625 237.878906 C 159.664062 237.882812 159.683594 237.882812 159.707031 237.882812 C 160.269531 237.882812 160.738281 237.445312 160.769531 236.878906 L 160.78125 236.703125 L 161.207031 229.390625 C 161.214844 229.339844 161.191406 229.296875 161.1875 229.25 C 161.144531 228.726562 160.746094 228.296875 160.203125 228.265625 Z M 162.652344 218.085938 L 154.921875 217.949219 L 154.851562 221.851562 L 154.8125 224.257812 L 162.542969 224.394531 L 162.582031 222.238281 L 158.734375 222.238281 C 158.472656 222.238281 158.242188 222.132812 158.058594 221.976562 C 157.824219 221.785156 157.664062 221.503906 157.664062 221.171875 C 157.664062 220.585938 158.140625 220.105469 158.734375 220.105469 L 162.617188 220.105469 Z M 162.957031 226.535156 L 154.324219 226.382812 C 153.875 226.375 153.453125 226.191406 153.140625 225.871094 C 152.832031 225.546875 152.664062 225.121094 152.671875 224.671875 L 152.675781 224.316406 L 152.722656 221.757812 L 152.796875 217.667969 L 152.800781 217.460938 C 152.808594 217.011719 152.992188 216.59375 153.3125 216.28125 C 153.636719 215.96875 154.050781 215.8125 154.511719 215.808594 L 163.140625 215.964844 C 163.589844 215.972656 164.011719 216.15625 164.320312 216.476562 C 164.632812 216.800781 164.800781 217.226562 164.792969 217.675781 L 164.785156 218.105469 L 164.714844 222.152344 L 164.664062 224.75 L 164.664062 224.886719 C 164.648438 225.804688 163.894531 226.535156 162.984375 226.535156 C 162.976562 226.535156 162.964844 226.535156 162.957031 226.535156 Z M 134.890625 225.546875 C 134.917969 225.546875 134.945312 225.550781 134.972656 225.550781 C 135.523438 225.550781 135.992188 225.121094 136.039062 224.5625 L 136.101562 223.707031 L 136.605469 217.078125 L 136.789062 214.703125 C 136.835938 214.117188 136.394531 213.605469 135.808594 213.558594 C 135.207031 213.511719 134.707031 213.953125 134.664062 214.539062 L 134.65625 214.621094 L 134.472656 217 L 133.96875 223.632812 L 133.910156 224.398438 C 133.910156 224.429688 133.921875 224.453125 133.921875 224.480469 C 133.921875 225.03125 134.335938 225.5 134.890625 225.546875 Z M 192.125 226.6875 C 191.949219 226.125 191.351562 225.8125 190.789062 225.980469 C 190.304688 226.128906 190.023438 226.59375 190.058594 227.082031 C 190.066406 227.15625 190.058594 227.230469 190.082031 227.308594 L 191.96875 233.480469 L 192.03125 233.675781 C 192.171875 234.136719 192.589844 234.433594 193.046875 234.433594 C 193.152344 234.433594 193.257812 234.417969 193.359375 234.386719 C 193.851562 234.238281 194.140625 233.757812 194.085938 233.261719 C 194.078125 233.195312 194.085938 233.125 194.066406 233.058594 L 192.191406 226.917969 Z M 201.875 133.875 C 203.414062 138.566406 205.023438 143.121094 206.347656 146.773438 C 206.683594 147.699219 206.996094 148.554688 207.289062 149.351562 C 207.554688 150.070312 207.796875 150.71875 208.019531 151.3125 C 208.441406 152.4375 208.773438 153.324219 208.996094 153.90625 C 209.1875 154.40625 209.300781 154.710938 209.308594 154.730469 C 209.472656 155.152344 209.878906 155.414062 210.300781 155.414062 C 210.433594 155.414062 210.566406 155.390625 210.6875 155.339844 C 210.726562 155.328125 210.753906 155.292969 210.789062 155.273438 C 211.230469 155.042969 211.445312 154.546875 211.320312 154.070312 C 211.304688 154.03125 211.308594 153.996094 211.296875 153.960938 C 211.285156 153.929688 210.976562 153.128906 210.460938 151.753906 L 235.757812 143.390625 L 236.171875 143.25 L 236.234375 143.226562 C 236.796875 143.042969 237.097656 142.441406 236.914062 141.882812 C 236.738281 141.347656 236.171875 141.054688 235.632812 141.199219 C 235.609375 141.203125 235.589844 141.199219 235.566406 141.203125 L 234.996094 141.394531 L 209.714844 149.761719 C 209.386719 148.878906 209.015625 147.871094 208.621094 146.78125 C 206.636719 141.34375 203.917969 133.613281 201.761719 126.460938 C 200.261719 121.476562 200.476562 117.695312 201.25 114.9375 C 202.34375 111.058594 204.546875 109.230469 204.710938 109.101562 C 205.175781 108.738281 205.257812 108.074219 204.898438 107.613281 C 204.539062 107.144531 203.871094 107.0625 203.402344 107.417969 C 203.199219 107.578125 200.039062 110.109375 198.914062 115.496094 C 198.304688 118.398438 198.285156 122.132812 199.636719 126.769531 C 199.667969 126.875 199.691406 126.972656 199.722656 127.074219 C 200.164062 128.539062 200.628906 130.023438 201.105469 131.511719 C 197.210938 130.386719 196.546875 127.886719 196.511719 127.742188 C 196.449219 127.464844 196.285156 127.242188 196.066406 127.097656 C 195.832031 126.9375 195.542969 126.871094 195.25 126.933594 C 194.675781 127.054688 194.304688 127.621094 194.429688 128.195312 C 194.464844 128.351562 195.179688 131.410156 199.199219 133.089844 C 199.964844 133.40625 200.839844 133.683594 201.875 133.875 Z M 178.152344 93.738281 L 176.179688 91.089844 L 174.875 89.34375 L 171.550781 84.882812 C 171.359375 84.625 171.058594 84.46875 170.738281 84.453125 C 170.417969 84.441406 170.105469 84.574219 169.894531 84.820312 L 166.574219 88.640625 L 164.445312 91.089844 L 161.671875 94.285156 L 161.023438 95.035156 L 160.402344 93.734375 L 159.140625 91.089844 L 158.796875 90.363281 L 157.777344 88.230469 L 156.332031 85.191406 C 156.320312 85.167969 156.3125 85.148438 156.300781 85.125 L 155.269531 82.964844 C 155.019531 82.4375 154.382812 82.207031 153.851562 82.460938 C 153.320312 82.714844 153.09375 83.351562 153.347656 83.882812 L 154.050781 85.355469 L 152.582031 86.6875 L 150.929688 88.179688 L 150.835938 88.265625 C 150.476562 88.589844 150.40625 89.097656 150.609375 89.515625 C 150.652344 89.601562 150.691406 89.695312 150.765625 89.769531 C 151.054688 90.089844 151.496094 90.1875 151.882812 90.0625 C 152.019531 90.019531 152.152344 89.949219 152.269531 89.84375 L 153.988281 88.289062 L 154.121094 88.167969 L 155.007812 87.363281 L 155.394531 88.179688 L 157.429688 92.453125 L 159.800781 97.421875 C 159.949219 97.742188 160.261719 97.96875 160.617188 98.015625 C 160.664062 98.023438 160.714844 98.027344 160.761719 98.027344 C 161.066406 98.027344 161.359375 97.894531 161.566406 97.660156 L 163.730469 95.167969 L 167.273438 91.089844 L 169.230469 88.835938 L 170.632812 87.21875 L 172.015625 89.070312 L 173.519531 91.089844 L 177.023438 95.792969 C 177.351562 96.230469 177.960938 96.351562 178.433594 96.066406 L 182.765625 93.433594 L 184.726562 92.242188 L 185.984375 91.480469 L 186.691406 91.050781 L 186.816406 90.972656 L 191.613281 88.058594 L 192.5625 87.484375 C 193.0625 87.179688 193.226562 86.523438 192.921875 86.019531 C 192.621094 85.527344 191.984375 85.371094 191.484375 85.65625 C 191.472656 85.660156 191.464844 85.660156 191.457031 85.664062 L 185.753906 89.125 L 183.582031 90.441406 L 182.519531 91.089844 Z M 129.832031 362.199219 C 130.226562 362.199219 130.609375 361.976562 130.789062 361.59375 C 131.042969 361.0625 130.828125 360.429688 130.292969 360.171875 C 124.9375 357.582031 120.441406 353.273438 117.632812 348.027344 C 117.355469 347.511719 116.707031 347.3125 116.191406 347.59375 C 115.671875 347.871094 115.476562 348.515625 115.753906 349.035156 C 118.769531 354.671875 123.609375 359.308594 129.367188 362.089844 C 129.515625 362.160156 129.675781 362.199219 129.832031 362.199219 Z M 140.308594 269.945312 L 154.316406 270.558594 L 142.871094 274.5 C 142.3125 274.691406 142.019531 275.296875 142.207031 275.851562 C 142.402344 276.40625 143.003906 276.707031 143.566406 276.515625 L 156.929688 271.914062 L 151.5 278.917969 C 151.132812 279.382812 151.21875 280.054688 151.683594 280.414062 C 152.152344 280.777344 152.820312 280.6875 153.179688 280.222656 L 160.472656 270.828125 L 161.039062 270.855469 L 163.09375 270.945312 L 163.710938 270.972656 L 170.625 281.945312 C 170.828125 282.265625 171.171875 282.441406 171.527344 282.441406 C 171.722656 282.441406 171.917969 282.390625 172.09375 282.277344 C 172.59375 281.964844 172.742188 281.308594 172.429688 280.8125 L 166.300781 271.089844 L 174.640625 271.453125 C 175.25 271.46875 175.730469 271.023438 175.757812 270.433594 C 175.78125 269.847656 175.324219 269.351562 174.738281 269.324219 L 160.035156 268.679688 C 160.019531 268.679688 160.007812 268.679688 159.992188 268.675781 L 140.402344 267.820312 C 139.820312 267.800781 139.316406 268.25 139.292969 268.839844 C 139.261719 269.421875 139.71875 269.921875 140.308594 269.945312 Z M 194.171875 367.785156 C 188.421875 366.683594 183.226562 363.289062 179.914062 358.464844 C 179.578125 357.980469 178.917969 357.859375 178.433594 358.1875 C 177.949219 358.519531 177.824219 359.183594 178.152344 359.671875 C 181.78125 364.949219 187.472656 368.671875 193.769531 369.875 C 193.835938 369.890625 193.90625 369.894531 193.96875 369.894531 C 194.472656 369.894531 194.917969 369.539062 195.015625 369.027344 C 195.128906 368.449219 194.746094 367.894531 194.171875 367.785156 Z M 58.394531 52.074219 C 57.125 53.390625 57.160156 55.484375 58.472656 56.757812 C 59.792969 58.027344 61.886719 57.992188 63.160156 56.679688 L 64.328125 55.46875 L 67.578125 52.109375 L 69.847656 49.761719 C 69.765625 49.761719 69.679688 49.757812 69.601562 49.757812 C 69.722656 49.378906 69.640625 48.953125 69.339844 48.660156 L 68.089844 47.453125 L 65.390625 44.835938 L 61.511719 41.074219 L 60.246094 39.855469 C 60.015625 39.628906 59.707031 39.542969 59.40625 39.574219 C 59.164062 39.597656 58.921875 39.6875 58.738281 39.878906 C 58.332031 40.300781 58.339844 40.976562 58.765625 41.386719 L 60.519531 43.082031 L 63.910156 46.367188 L 67.390625 49.742188 C 67.257812 49.769531 67.128906 49.804688 67.015625 49.855469 C 65.773438 50.441406 66.113281 51.121094 64.191406 50.667969 C 64.140625 50.65625 64.09375 50.628906 64.042969 50.613281 C 64.304688 50.179688 64.25 49.621094 63.855469 49.273438 L 62.375 47.960938 L 60.242188 46.066406 L 59.761719 45.636719 C 59.320312 45.25 58.648438 45.285156 58.253906 45.730469 C 57.867188 46.167969 57.90625 46.839844 58.347656 47.234375 L 60.890625 49.492188 L 59.464844 50.964844 Z M 64.882812 37.085938 L 68.0625 42.078125 L 71.582031 47.609375 C 71.625 47.679688 71.691406 47.734375 71.753906 47.789062 C 71.78125 47.816406 71.804688 47.851562 71.835938 47.875 C 72.136719 48.109375 72.542969 48.152344 72.902344 47.996094 C 72.949219 47.976562 73.007812 47.96875 73.050781 47.933594 C 73.550781 47.621094 73.695312 46.964844 73.378906 46.46875 L 73.242188 46.25 L 71.703125 43.835938 C 72.226562 44.109375 72.839844 44.324219 73.550781 44.488281 C 73.648438 44.886719 73.746094 45.28125 73.816406 45.652344 L 74.746094 44.699219 C 75.121094 44.746094 75.527344 44.78125 75.945312 44.804688 C 76 44.808594 76.039062 44.816406 76.089844 44.820312 C 75.3125 45.460938 74.53125 46.226562 73.902344 47.078125 C 73.789062 47.238281 73.667969 47.390625 73.566406 47.554688 C 73.464844 47.714844 73.386719 47.875 73.304688 48.042969 C 73.171875 48.285156 73.070312 48.53125 72.980469 48.785156 C 72.726562 49.496094 72.609375 50.234375 72.746094 51 C 72.800781 51.316406 72.996094 51.5625 73.25 51.710938 C 73.410156 51.8125 73.59375 51.882812 73.792969 51.882812 C 73.851562 51.882812 73.914062 51.875 73.980469 51.867188 C 74.558594 51.761719 74.945312 51.210938 74.839844 50.632812 C 74.707031 49.878906 75.058594 49.074219 75.640625 48.304688 C 76.859375 46.683594 79.101562 45.210938 80.117188 44.664062 C 80.554688 44.425781 80.773438 43.914062 80.632812 43.4375 C 80.5 42.957031 80.085938 42.640625 79.546875 42.664062 C 78.433594 42.726562 77.488281 42.734375 76.667969 42.707031 C 75.171875 42.65625 74.125 42.472656 73.394531 42.238281 C 72.796875 42.039062 72.40625 41.808594 72.15625 41.585938 C 71.621094 41.105469 71.539062 40.484375 71.496094 39.675781 C 71.867188 39.175781 73.832031 38.496094 76.179688 37.996094 C 76.964844 37.832031 77.789062 37.683594 78.613281 37.574219 C 79.195312 37.492188 79.605469 36.957031 79.523438 36.375 C 79.515625 36.3125 79.484375 36.261719 79.464844 36.199219 C 81.101562 35.6875 82.539062 35.359375 83.472656 35.667969 L 83.484375 35.65625 L 85.273438 33.808594 C 85.636719 33.429688 85.625 32.828125 85.25 32.46875 L 84.617188 31.851562 L 82.488281 29.792969 L 81.851562 29.183594 C 81.476562 28.816406 80.875 28.828125 80.507812 29.207031 L 78.433594 31.347656 L 77.675781 30.613281 L 76.449219 31.882812 L 75.171875 33.207031 C 75.234375 33.390625 75.296875 33.589844 75.355469 33.800781 L 75.726562 34.152344 L 75.519531 34.363281 C 75.652344 34.839844 75.78125 35.347656 75.886719 35.863281 C 75.074219 36.023438 74.273438 36.210938 73.519531 36.429688 C 71.128906 37.136719 69.292969 38.164062 69.363281 39.679688 C 69.371094 39.839844 69.378906 40.011719 69.390625 40.203125 L 66.566406 35.757812 L 65.863281 34.652344 L 65.546875 34.15625 C 65.230469 33.65625 64.574219 33.511719 64.074219 33.828125 C 63.742188 34.039062 63.585938 34.398438 63.601562 34.765625 C 63.605469 34.945312 63.640625 35.132812 63.75 35.300781 Z M 80.792969 107.429688 C 80.53125 107.957031 80.75 108.597656 81.277344 108.855469 C 81.425781 108.929688 81.589844 108.964844 81.746094 108.964844 C 82.140625 108.964844 82.519531 108.746094 82.707031 108.371094 L 83.324219 107.117188 L 87.734375 98.175781 L 88.464844 96.691406 C 88.5625 96.496094 88.574219 96.285156 88.546875 96.085938 C 88.5 95.742188 88.308594 95.429688 87.980469 95.265625 C 87.789062 95.171875 87.585938 95.160156 87.386719 95.183594 C 87.042969 95.222656 86.71875 95.414062 86.554688 95.75 L 86.238281 96.386719 L 80.828125 107.355469 Z M 231.707031 265.339844 L 230.1875 265.339844 L 227.703125 278.886719 L 233.6875 278.886719 L 234.671875 273.53125 L 235.425781 269.40625 L 237.71875 269.40625 C 237.84375 269.199219 237.945312 268.996094 238.042969 268.800781 C 238.304688 268.246094 238.460938 267.722656 238.390625 267.304688 C 238.164062 265.945312 234.699219 265.339844 234.699219 265.339844 Z M 250.144531 271.683594 L 251.46875 278.886719 L 257.453125 278.886719 L 254.96875 265.339844 L 252.226562 265.339844 C 252.359375 267 252.449219 268.464844 252.394531 269.183594 C 252.292969 270.617188 251.296875 271.285156 250.144531 271.683594 Z M 211.527344 297.441406 L 202.382812 297.441406 L 201.953125 299.164062 L 201.570312 300.695312 L 281.128906 300.695312 L 280.320312 297.441406 L 250.144531 297.441406 L 245.625 278.886719 L 244.53125 278.886719 L 249.050781 297.441406 L 247.472656 297.441406 L 242.949219 278.886719 L 241.855469 278.886719 L 246.375 297.441406 Z M 277.238281 313.21875 L 256.480469 313.21875 L 252.761719 340.679688 L 272.753906 340.679688 Z M 251.621094 341.144531 C 251.601562 341.292969 251.644531 341.449219 251.746094 341.566406 C 251.847656 341.679688 251.996094 341.746094 252.148438 341.746094 L 273.207031 341.746094 C 273.464844 341.746094 273.691406 341.554688 273.730469 341.296875 L 278.390625 312.769531 C 278.414062 312.617188 278.371094 312.460938 278.269531 312.34375 C 278.171875 312.222656 278.019531 312.152344 277.867188 312.152344 L 256.015625 312.152344 C 255.75 312.152344 255.523438 312.351562 255.488281 312.617188 Z M 213.015625 309.613281 L 281.507812 309.613281 L 275.710938 345.128906 L 206.992188 345.128906 L 201.195312 309.613281 Z M 196.679688 462.679688 L 197.574219 468.710938 L 197.699219 468.726562 C 197.703125 468.722656 197.707031 468.714844 197.710938 468.710938 L 215.492188 468.710938 L 215.492188 468.707031 L 216.050781 462.5625 L 216.054688 462.523438 Z M 121.972656 468.710938 L 139.011719 468.710938 C 139.011719 468.710938 139.015625 468.710938 139.015625 468.710938 C 139.332031 468.710938 139.632812 468.777344 139.917969 468.882812 L 140.015625 468.164062 L 140.773438 462.523438 L 122.242188 462.136719 Z M 157.175781 65.675781 C 156.949219 65.492188 156.613281 65.535156 156.429688 65.761719 C 156.246094 65.992188 156.285156 66.328125 156.515625 66.507812 C 158.027344 67.71875 159.929688 68.390625 161.867188 68.402344 C 161.886719 68.402344 161.90625 68.402344 161.925781 68.402344 C 163.84375 68.402344 165.730469 67.757812 167.25 66.585938 C 167.480469 66.40625 167.523438 66.070312 167.339844 65.835938 C 167.160156 65.605469 166.828125 65.5625 166.59375 65.742188 C 165.25 66.78125 163.5625 67.339844 161.875 67.339844 C 160.175781 67.328125 158.507812 66.738281 157.175781 65.675781 Z M 157.164062 52.402344 C 156.449219 52.011719 155.617188 51.890625 154.828125 52.054688 C 154.539062 52.113281 154.351562 52.394531 154.410156 52.679688 C 154.46875 52.96875 154.757812 53.15625 155.039062 53.097656 C 155.582031 52.988281 156.171875 53.074219 156.65625 53.339844 C 157.144531 53.601562 157.539062 54.046875 157.742188 54.5625 C 157.824219 54.773438 158.027344 54.902344 158.238281 54.902344 C 158.304688 54.902344 158.367188 54.890625 158.429688 54.867188 C 158.703125 54.753906 158.84375 54.445312 158.734375 54.175781 C 158.4375 53.417969 157.878906 52.785156 157.164062 52.402344 Z M 169.84375 54.867188 C 170.117188 54.753906 170.253906 54.445312 170.144531 54.175781 C 169.851562 53.417969 169.292969 52.785156 168.578125 52.402344 C 167.875 52.019531 167.023438 51.890625 166.238281 52.054688 C 165.949219 52.113281 165.765625 52.394531 165.820312 52.679688 C 165.878906 52.96875 166.160156 53.15625 166.453125 53.097656 C 166.996094 52.984375 167.582031 53.074219 168.070312 53.339844 C 168.558594 53.601562 168.953125 54.046875 169.152344 54.5625 C 169.238281 54.773438 169.441406 54.902344 169.648438 54.902344 C 169.714844 54.902344 169.78125 54.890625 169.84375 54.867188 Z M 157.28125 58.722656 C 157.808594 58.722656 158.238281 58.066406 158.238281 57.253906 C 158.238281 56.445312 157.808594 55.785156 157.28125 55.785156 C 156.75 55.785156 156.320312 56.445312 156.320312 57.253906 C 156.320312 58.066406 156.75 58.722656 157.28125 58.722656 Z M 168.460938 55.785156 C 167.925781 55.785156 167.5 56.445312 167.5 57.253906 C 167.5 58.066406 167.925781 58.722656 168.460938 58.722656 C 168.992188 58.722656 169.417969 58.066406 169.417969 57.253906 C 169.417969 56.445312 168.992188 55.785156 168.460938 55.785156 Z M 176.234375 54.832031 L 178.589844 54.832031 C 178.371094 52.667969 179.484375 50.40625 181.371094 49.320312 C 181.417969 49.292969 181.46875 49.277344 181.511719 49.253906 C 181.824219 49.082031 182.160156 48.953125 182.5 48.855469 C 182.511719 48.65625 182.519531 48.457031 182.527344 48.265625 L 181.285156 48.179688 L 174.507812 47.738281 C 173.847656 53.273438 176.234375 54.832031 176.234375 54.832031 Z M 152.613281 49.476562 C 152.613281 49.476562 152.648438 49.480469 152.667969 49.488281 C 153.257812 49.542969 161.367188 50.332031 165.503906 50.332031 C 168.980469 50.332031 172.746094 48.429688 174.058594 47.710938 L 153.449219 46.355469 L 149.242188 46.082031 C 149.089844 49.195312 152.613281 49.476562 152.613281 49.476562 Z M 51.003906 219.777344 C 51.039062 219.828125 51.078125 219.871094 51.113281 219.917969 C 51.042969 219.824219 50.976562 219.730469 50.921875 219.621094 C 50.929688 219.636719 50.9375 219.652344 50.945312 219.664062 C 50.964844 219.703125 50.980469 219.742188 51.003906 219.777344 Z M 50.921875 219.617188 C 50.867188 219.515625 50.824219 219.402344 50.789062 219.289062 C 50.808594 219.351562 50.824219 219.414062 50.847656 219.476562 C 50.867188 219.527344 50.894531 219.570312 50.921875 219.617188 Z M 51.445312 220.25 C 51.417969 220.230469 51.394531 220.203125 51.367188 220.175781 C 51.398438 220.207031 51.425781 220.238281 51.460938 220.261719 C 51.457031 220.257812 51.449219 220.253906 51.445312 220.25 Z M -1.285156 460.6875 L 31.253906 460.6875 L 31.253906 220.617188 L 44.671875 220.617188 L 44.671875 218.484375 L 29.125 218.488281 L 29.125 458.554688 L -1.285156 458.554688 Z M 73.570312 220.625 L 120.371094 220.632812 L 120.460938 218.476562 L 73.570312 218.484375 Z M 51.769531 233.953125 L 49.640625 233.953125 L 49.640625 471.039062 L -1.285156 471.039062 L -1.285156 473.171875 L 51.769531 473.171875 L 51.769531 453.105469 L 110.160156 453.105469 L 110.253906 450.976562 L 51.769531 450.976562 L 51.769531 442.980469 L 110.601562 442.980469 L 110.699219 440.851562 L 51.769531 440.851562 L 51.769531 404.160156 L 112.308594 404.164062 L 112.402344 402.035156 L 51.769531 402.027344 L 51.769531 394.035156 L 112.753906 394.046875 L 112.84375 391.902344 L 51.769531 391.902344 Z M 229.941406 218.46875 L 198.550781 218.472656 C 198.550781 219.195312 198.546875 219.914062 198.570312 220.644531 L 230.246094 220.652344 C 230.148438 219.949219 230.046875 219.222656 229.941406 218.46875 Z M 295.328125 379.292969 L 295.328125 220.664062 L 302.824219 220.664062 L 302.148438 218.460938 L 250.144531 218.464844 C 250.1875 219.199219 250.234375 219.929688 250.273438 220.65625 L 293.195312 220.664062 L 293.195312 379.292969 Z M 357.398438 439.632812 L 312.445312 439.632812 C 311.386719 439.632812 310.527344 440.492188 310.527344 441.558594 L 310.527344 447.433594 L 294.261719 447.433594 L 294.261719 449.5625 L 310.527344 449.5625 L 310.527344 455.441406 C 310.527344 456.503906 311.386719 457.367188 312.445312 457.367188 L 357.398438 457.367188 C 358.457031 457.367188 359.316406 456.503906 359.316406 455.441406 L 359.316406 441.558594 C 359.316406 440.492188 358.457031 439.632812 357.398438 439.632812 Z M 258.117188 50.816406 L 253.214844 50.816406 L 253.214844 2.128906 L 285.085938 2.128906 L 285.085938 212.714844 L 287.21875 212.714844 L 287.21875 0 L 251.082031 0 L 251.082031 50.816406 L 246.179688 50.816406 L 246.179688 60.183594 L 258.117188 60.183594 Z M 267.351562 416.539062 L 267.351562 429.878906 L 269.484375 429.878906 L 269.484375 416.539062 Z M 36.921875 158.832031 L 36.921875 152.511719 L 31.128906 152.511719 L 31.128906 158.832031 Z M 36.921875 126.542969 L 36.921875 120.222656 L 31.128906 120.222656 L 31.128906 126.542969 Z M 36.921875 94.25 L 36.921875 87.929688 L 31.128906 87.929688 L 31.128906 94.25 Z M 68.8125 213.777344 L 68.8125 204.234375 L 49.429688 204.234375 L 49.429688 213.871094 L 68.8125 213.871094 Z M 148.238281 391.902344 L 148.015625 394.050781 L 177.855469 394.058594 L 177.597656 391.90625 Z M 242.554688 391.90625 L 218.167969 391.90625 C 218.179688 392.628906 218.1875 393.351562 218.195312 394.066406 L 242.554688 394.070312 Z M 147.167969 402.039062 L 146.941406 404.171875 L 179.066406 404.175781 L 178.8125 402.042969 Z M 142.839844 442.980469 L 183.722656 442.980469 L 183.46875 440.851562 L 143.066406 440.851562 Z M 141.992188 450.976562 L 141.769531 453.105469 L 184.9375 453.105469 L 184.683594 450.976562 Z M 218.246094 404.179688 L 242.554688 404.179688 L 242.570312 402.050781 L 218.246094 402.046875 C 218.246094 402.757812 218.246094 403.476562 218.246094 404.179688 Z M 216.734375 453.105469 L 242.375 453.105469 L 242.375 450.976562 L 216.867188 450.976562 C 216.824219 451.703125 216.777344 452.414062 216.734375 453.105469 Z M 217.40625 440.851562 L 242.375 440.851562 L 242.375 442.980469 L 217.308594 442.980469 C 217.34375 442.28125 217.375 441.574219 217.40625 440.851562 " fill-opacity="1" fill-rule="nonzero"/></svg>