<svg xmlns="http://www.w3.org/2000/svg" xmlns:xlink="http://www.w3.org/1999/xlink" width="500" zoomAndPan="magnify" viewBox="0 0 375 374.999991" height="500" preserveAspectRatio="xMidYMid meet" version="1.0"><defs><clipPath id="12db5ae73b"><path d="M 0.320312 5.386719 L 375 5.386719 L 375 373.921875 L 0.320312 373.921875 Z M 0.320312 5.386719 " clip-rule="nonzero"/></clipPath><clipPath id="5f220c140d"><path d="M 0.320312 23.082031 L 287 23.082031 L 287 374.96875 L 0.320312 374.96875 Z M 0.320312 23.082031 " clip-rule="nonzero"/></clipPath></defs><g clip-path="url(#12db5ae73b)"><path fill="#ffffff" d="M 202.160156 34.488281 L 211.800781 35.117188 L 232.859375 36.5 L 236.058594 36.710938 L 236.394531 31.5625 L 234.898438 30.4375 C 234.898438 30.4375 235.132812 21.621094 229.765625 19.894531 C 224.398438 18.171875 216.898438 17.597656 213.945312 19.542969 C 210.992188 21.496094 208.601562 30.507812 208.601562 30.507812 L 201.964844 33.355469 C 201.394531 33.601562 201.542969 34.445312 202.160156 34.488281 Z M 159.1875 24.707031 L 171.886719 10.941406 L 172.414062 11.453125 L 175.917969 7.289062 L 174.375 5.792969 L 170.332031 9.441406 L 170.863281 9.953125 L 157.546875 23.125 Z M 284.832031 66.96875 C 290.089844 67.992188 294.691406 63.992188 294.691406 58.914062 C 294.691406 57.425781 294.292969 56.027344 293.597656 54.824219 C 291.871094 51.835938 290.730469 48.550781 290.730469 45.097656 L 290.730469 43.949219 L 282.230469 43.949219 L 282.230469 44.445312 C 282.230469 47.980469 281.449219 51.535156 279.550781 54.515625 C 278.507812 56.152344 278.027344 58.183594 278.390625 60.335938 C 278.945312 63.632812 281.550781 66.332031 284.832031 66.96875 Z M 35.304688 277.375 C 59.226562 235.292969 72.90625 234.265625 44.136719 174.226562 C 15.367188 114.195312 40.796875 64.035156 92.328125 41.894531 C 136.257812 23.023438 143.667969 63.875 255.289062 102.929688 C 366.910156 141.980469 311.851562 239.398438 344.511719 262.25 C 377.171875 285.105469 384.449219 373.902344 384.449219 373.902344 L 0.988281 373.902344 C 0.988281 373.902344 11.378906 319.457031 35.304688 277.375 " fill-opacity="1" fill-rule="nonzero"/></g><g clip-path="url(#5f220c140d)"><path fill="#ffffff" d="M 275.957031 203.636719 C 275.800781 203.636719 275.710938 203.640625 275.710938 203.640625 C 275.710938 203.640625 275.65625 203.925781 275.5625 204.347656 C 275.714844 204.105469 275.847656 203.871094 275.957031 203.636719 Z M 286.820312 203.925781 C 286.707031 205.523438 285.128906 205.882812 283.859375 206.148438 C 282.585938 206.410156 282.203125 207.574219 280.722656 207.503906 C 279.242188 207.429688 278.046875 208.71875 276.90625 208.71875 C 276.210938 208.71875 275.167969 208.265625 274.453125 207.914062 C 274.414062 207.953125 274.378906 207.976562 274.34375 207.976562 C 274.203125 207.976562 273.960938 207.789062 273.675781 207.503906 L 273.671875 207.5 C 272.929688 206.753906 271.859375 205.296875 271.324219 204.554688 C 270.585938 203.527344 271.039062 201.015625 271.550781 199.707031 C 272.0625 198.398438 272.234375 196.570312 272.636719 195.375 C 273.011719 194.242188 275.035156 191.492188 275.257812 191.183594 C 275.003906 190.25 272.480469 180.945312 270.753906 171.480469 C 269.464844 164.421875 267.71875 148.152344 266.808594 139.230469 C 266.457031 138.800781 266.140625 138.332031 265.871094 137.816406 L 254.96875 116.929688 L 275.28125 111.382812 L 281.257812 131.582031 C 281.445312 132.21875 281.542969 132.859375 281.578125 133.492188 C 281.585938 133.515625 281.59375 133.535156 281.601562 133.558594 C 284.914062 145.550781 286.175781 188.613281 286.246094 191.148438 C 286.25 191.152344 286.25 191.152344 286.25 191.152344 C 286.527344 191.710938 286.511719 193.226562 286.25 194.976562 C 286.25 194.976562 286.25 194.976562 286.25 194.980469 C 286.136719 195.875 286.933594 202.332031 286.820312 203.925781 Z M 235.480469 36.914062 C 234.703125 36.757812 233.886719 36.9375 233.1875 37.3125 C 233.128906 37.039062 233.070312 36.769531 233.011719 36.5 L 211.953125 35.117188 C 211.882812 35.351562 211.800781 35.578125 211.738281 35.816406 C 209.714844 43.734375 210.542969 54.734375 211.898438 56.570312 C 213.894531 59.269531 216.882812 58.976562 216.882812 58.976562 L 215.945312 69.007812 L 236.457031 69.007812 C 236.457031 69.007812 236.066406 57.226562 234.605469 45.996094 C 234.738281 45.929688 234.859375 45.855469 234.976562 45.761719 C 235.417969 45.386719 235.679688 44.851562 235.914062 44.320312 C 236.367188 43.304688 236.773438 42.269531 237.128906 41.214844 C 237.429688 40.304688 237.695312 39.300781 237.347656 38.410156 C 237.046875 37.632812 236.296875 37.074219 235.480469 36.914062 Z M 162.058594 72.894531 L 158.515625 42.070312 C 159.492188 40.25 160.3125 38.4375 160.171875 37.730469 C 159.941406 36.5625 160.605469 33.410156 160.558594 30.863281 C 160.574219 30.519531 160.578125 30.179688 160.5625 29.839844 C 160.5625 29.839844 160.824219 27.949219 159.203125 27.09375 C 159.160156 27.074219 159.109375 27.0625 159.066406 27.046875 C 157.984375 26.261719 156.691406 26.632812 155.625 26.605469 C 154.195312 26.570312 154.167969 23.765625 152.835938 23.425781 C 151.507812 23.078125 149.734375 23.863281 147.914062 25.3125 C 146.097656 26.757812 144.710938 26.058594 142.882812 26.488281 C 141.050781 26.914062 140.84375 31.507812 139.632812 32.386719 C 138.417969 33.265625 139.203125 35.550781 140.453125 37.984375 C 141.703125 40.421875 146.15625 43.125 146.15625 43.125 L 146.695312 43.332031 L 143.898438 81.511719 C 143.851562 81.867188 143.820312 82.234375 143.820312 82.605469 C 143.820312 87.011719 147.238281 90.65625 151.625 90.933594 L 175.121094 92.433594 L 171.953125 71.601562 Z M 95.019531 40.839844 L 95.019531 373.359375 C 95.019531 373.359375 -0.703125 373.9375 0.328125 374.96875 C 0.328125 374.96875 11.332031 330.296875 24.707031 297.523438 C 40.511719 258.789062 72.675781 238.605469 52.503906 197.683594 C 32.335938 156.765625 5.628906 79.578125 95.019531 40.839844 " fill-opacity="1" fill-rule="nonzero"/></g><path fill="#ec3337" d="M 78.453125 105.652344 L 74.714844 105.652344 C 60.8125 102.753906 48.277344 98.824219 38.152344 94.148438 C 38.054688 94.398438 37.949219 94.648438 37.851562 94.898438 C 47.136719 99.179688 58.421875 102.835938 70.910156 105.652344 L 33.644531 105.652344 L 33.644531 164.164062 L 66.65625 164.164062 C 61.496094 169.703125 56.945312 175.320312 54.375 180.953125 C 51.828125 186.542969 51.21875 192.226562 52.554688 197.894531 C 54.046875 200.929688 55.242188 203.851562 56.1875 206.675781 C 62.472656 217.339844 75.480469 227.65625 95.015625 237.472656 L 95.015625 236.542969 C 73.046875 225.386719 59.136719 213.367188 54.476562 201.367188 C 51.878906 194.667969 52.089844 187.914062 55.109375 181.289062 C 57.71875 175.570312 62.4375 169.828125 67.757812 164.164062 L 78.453125 164.164062 L 78.453125 153.292969 C 83.539062 148.171875 88.570312 142.925781 92.34375 137.707031 C 93.3125 136.363281 94.195312 135.011719 95.015625 133.664062 L 95.015625 132.085938 C 94.023438 133.804688 92.925781 135.523438 91.6875 137.230469 C 88.09375 142.210938 83.320312 147.230469 78.453125 152.144531 L 78.453125 107.21875 C 83.8125 108.246094 89.347656 109.121094 95.015625 109.832031 L 95.015625 109.015625 C 89.34375 108.304688 83.808594 107.429688 78.453125 106.398438 Z M 263.136719 360.003906 L 262.335938 356.503906 C 262.054688 355.265625 260.867188 354.261719 259.6875 354.261719 L 259.382812 354.261719 C 259.382812 354.261719 259.546875 352.746094 259.777344 349.9375 C 261.316406 331.386719 265.964844 255.773438 247.964844 177.082031 C 246.648438 171.339844 246.355469 166.089844 246.683594 160.929688 C 246.675781 160.996094 246.671875 161.0625 246.667969 161.128906 L 269.84375 161.128906 C 269.78125 160.605469 269.714844 160.074219 269.644531 159.535156 L 246.785156 159.535156 C 247.433594 151.878906 249.382812 144.34375 251.371094 135.613281 C 252.925781 128.785156 254.25 121.074219 254.605469 113.617188 L 239.480469 99.886719 C 239.480469 99.886719 240.855469 80.828125 245.59375 67.910156 C 245.90625 67.058594 245.339844 66.175781 244.453125 66.113281 L 238.996094 65.722656 C 238.480469 65.683594 237.972656 65.933594 237.683594 66.378906 C 229.757812 78.671875 227.542969 97.648438 227.542969 97.648438 L 205.613281 95.898438 C 205.613281 95.898438 207.738281 77.480469 212.707031 67.1875 C 213.261719 66.042969 212.503906 64.761719 211.253906 64.761719 L 205.863281 64.761719 C 205.296875 64.761719 204.757812 65.070312 204.457031 65.5625 C 198.867188 74.722656 195.671875 82.035156 195.132812 96.539062 L 190.351562 99.234375 L 187.707031 159.523438 L 148.398438 159.523438 L 148.398438 161.128906 L 187.636719 161.128906 L 187.660156 160.53125 L 179.394531 349.085938 L 188.828125 349.28125 L 188.621094 354.257812 L 187.722656 354.257812 C 186.742188 354.257812 185.953125 355.0625 185.921875 356.089844 L 185.796875 360.003906 C 185.796875 360.003906 172.785156 361.265625 173.011719 373.113281 L 203.949219 373.113281 C 203.949219 373.113281 206.136719 361.785156 203.429688 355.574219 C 203.082031 354.78125 202.34375 354.261719 201.515625 354.261719 L 202.21875 354.261719 L 202.847656 349.570312 L 218.191406 204.277344 C 219.105469 204.273438 218.804688 204.277344 219.714844 204.265625 L 237.117188 349.550781 L 245.152344 349.6875 L 245.90625 354.261719 L 245.929688 354.261719 C 242.457031 360.003906 245.621094 373.113281 245.621094 373.113281 L 273.996094 373.113281 C 270.277344 362.835938 263.136719 360.003906 263.136719 360.003906 Z M 218.40625 47.257812 C 219.347656 47.082031 218.460938 44.539062 217.984375 43.339844 C 217.882812 43.078125 217.527344 43.050781 217.382812 43.289062 C 216.765625 44.289062 215.542969 46.316406 215.480469 46.742188 C 215.394531 47.3125 217.171875 47.484375 218.40625 47.257812 Z M 323.707031 161.128906 C 323.707031 161.128906 323.367188 160.292969 323.042969 159.542969 L 313.65625 159.542969 L 313.65625 160.324219 L 312.042969 160.324219 L 312.042969 159.542969 L 285.277344 159.539062 C 285.316406 160.070312 285.351562 160.601562 285.382812 161.128906 Z M 58.410156 231.355469 C 58.359375 231.628906 58.300781 231.902344 58.242188 232.171875 C 64.769531 235.605469 70.511719 239.292969 76.078125 242.878906 L 95.445312 255.34375 L 95.445312 254.386719 L 76.511719 242.199219 C 70.875 238.566406 65.054688 234.828125 58.410156 231.355469 Z M 61.375 245.8125 C 58.148438 245.363281 54.9375 246.160156 52.640625 247.402344 C 52.414062 247.867188 52.175781 248.332031 51.9375 248.796875 C 53.832031 247.445312 57.308594 246.0625 61.265625 246.609375 C 63.636719 246.9375 64.976562 247.84375 66.25 248.820312 L 95.445312 271.253906 L 95.445312 270.238281 L 66.742188 248.183594 C 65.433594 247.179688 63.941406 246.164062 61.375 245.8125 Z M 76.363281 306.503906 C 76.457031 305.878906 76.558594 305.25 76.660156 304.621094 C 77.574219 298.941406 78.515625 293.066406 75.335938 287.398438 C 72.742188 282.777344 67.457031 278.453125 62.347656 274.273438 C 60.070312 272.410156 57.714844 270.480469 55.636719 268.5625 C 50.632812 263.933594 48.078125 259.730469 48.03125 256.070312 C 48.03125 255.988281 48.039062 255.910156 48.042969 255.824219 C 47.796875 256.242188 47.546875 256.664062 47.296875 257.085938 C 47.730469 260.75 50.285156 264.707031 55.089844 269.152344 C 57.1875 271.09375 59.550781 273.027344 61.835938 274.898438 C 66.890625 279.03125 72.113281 283.304688 74.636719 287.796875 C 77.675781 293.21875 76.753906 298.949219 75.867188 304.496094 C 75.765625 305.121094 75.660156 305.753906 75.566406 306.386719 C 74.65625 312.367188 74.183594 319.269531 80.113281 325.417969 C 83.480469 328.914062 88.902344 331.851562 95.445312 333.949219 L 95.445312 333.109375 C 89.144531 331.066406 83.933594 328.222656 80.691406 324.859375 C 75.019531 318.976562 75.441406 312.5625 76.363281 306.503906 Z M 86.300781 62.914062 C 86.292969 66.316406 89.664062 69.664062 95.445312 72.113281 L 95.445312 71.242188 C 90.167969 68.945312 87.097656 65.929688 87.109375 62.914062 C 87.117188 59.914062 90.1875 56.910156 95.445312 54.625 L 95.445312 53.746094 C 89.683594 56.1875 86.3125 59.523438 86.300781 62.914062 Z M 72.277344 63.980469 C 70.765625 60.671875 70.804688 57.664062 72.386719 55.28125 C 73.324219 53.871094 74.46875 52.476562 75.773438 51.105469 C 74.953125 51.617188 74.132812 52.132812 73.339844 52.652344 C 72.757812 53.375 72.203125 54.101562 71.714844 54.832031 C 69.96875 57.464844 69.910156 60.742188 71.546875 64.316406 C 74.507812 70.78125 83.308594 78.039062 95.445312 81.507812 L 95.445312 80.671875 C 83.664062 77.253906 75.140625 70.234375 72.277344 63.980469 Z M 49.394531 74.351562 C 49.226562 74.566406 49.0625 74.785156 48.894531 75.003906 C 50.542969 76.773438 52.46875 78.449219 54.703125 80.019531 C 64.019531 86.550781 79.117188 91.308594 95.445312 92.914062 L 95.445312 92.105469 C 79.285156 90.503906 64.355469 85.800781 55.167969 79.355469 C 52.9375 77.792969 51.023438 76.121094 49.394531 74.351562 Z M 81.011719 190.839844 C 78.253906 201.3125 83.382812 212.214844 95.445312 221.585938 L 95.445312 220.5625 C 84.007812 211.492188 79.160156 201.042969 81.789062 191.042969 C 83.460938 184.6875 88.167969 178.394531 95.445312 172.597656 L 95.445312 171.578125 C 87.746094 177.597656 82.761719 184.175781 81.011719 190.839844 Z M 50.8125 360.941406 L 48.472656 360.875 C 39.832031 360.613281 29.726562 360.132812 20.28125 358.59375 C 14.652344 357.679688 9.765625 356.441406 5.875 354.96875 C 5.800781 355.230469 5.726562 355.488281 5.65625 355.746094 C 9.597656 357.226562 14.511719 358.476562 20.152344 359.390625 C 29.644531 360.9375 39.78125 361.417969 48.449219 361.683594 L 50.789062 361.75 C 57.238281 361.933594 63.90625 362.125 69.886719 363.113281 C 80.15625 364.800781 86.773438 368.433594 92.558594 372.601562 C 93.078125 372.601562 93.535156 372.597656 93.917969 372.597656 C 87.835938 368.09375 80.984375 364.121094 70.015625 362.316406 C 63.984375 361.320312 57.289062 361.128906 50.8125 360.941406 Z M 10.457031 367.300781 C 8.226562 366.253906 5.941406 365.1875 3.324219 364.277344 C 3.253906 364.539062 3.183594 364.804688 3.117188 365.058594 C 5.675781 365.957031 7.925781 367 10.121094 368.027344 C 11.085938 368.484375 12.054688 368.9375 13.042969 369.375 C 16.3125 370.828125 19.914062 372.152344 23.773438 373.335938 C 24.660156 373.320312 25.554688 373.308594 26.46875 373.292969 C 21.699219 371.9375 17.300781 370.382812 13.367188 368.640625 C 12.382812 368.199219 11.421875 367.75 10.457031 367.300781 Z M 53.90625 349.6875 C 50.515625 349.367188 47.003906 349.035156 43.613281 348.636719 C 32.578125 347.332031 25.042969 345.46875 20.578125 342.929688 C 15.390625 339.984375 14.105469 336.058594 16.535156 330.578125 C 16.992188 329.554688 17.535156 328.507812 18.066406 327.496094 C 19.808594 324.140625 21.613281 320.667969 20.679688 317.152344 C 20.515625 316.539062 20.003906 315.359375 18.441406 314.550781 C 18.351562 314.808594 18.261719 315.066406 18.171875 315.324219 C 19.375 315.984375 19.773438 316.878906 19.898438 317.359375 C 20.753906 320.574219 19.101562 323.757812 17.347656 327.121094 C 16.816406 328.148438 16.265625 329.207031 15.800781 330.25 C 13.203125 336.105469 14.636719 340.480469 20.179688 343.632812 C 24.738281 346.226562 32.371094 348.125 43.519531 349.4375 C 46.921875 349.835938 50.433594 350.167969 53.828125 350.492188 C 59.371094 351.015625 65.101562 351.558594 70.460938 352.40625 C 80.429688 353.988281 89.097656 356.683594 95.445312 360.03125 L 95.445312 359.136719 C 89.039062 355.828125 80.429688 353.171875 70.585938 351.609375 C 65.203125 350.757812 59.460938 350.214844 53.90625 349.6875 Z M 33.964844 329.914062 C 29.429688 322.808594 33.761719 315.6875 38.351562 308.144531 C 40.585938 304.472656 42.898438 300.675781 44.054688 296.902344 C 46.722656 288.21875 43.304688 279.542969 38.6875 271.042969 C 38.523438 271.304688 38.359375 271.570312 38.199219 271.835938 C 42.617188 280.054688 45.820312 288.414062 43.285156 296.664062 C 42.15625 300.339844 39.875 304.09375 37.664062 307.726562 C 33.148438 315.148438 28.476562 322.820312 33.289062 330.351562 C 37.730469 337.304688 50.691406 343.5625 67.953125 347.089844 C 76.351562 348.804688 85.6875 349.902344 95.445312 350.347656 L 95.445312 349.539062 C 85.746094 349.089844 76.460938 348.003906 68.117188 346.300781 C 51.0625 342.8125 38.296875 336.6875 33.964844 329.914062 Z M 281.4375 66.863281 C 281.25 66.742188 281 66.796875 280.878906 66.980469 L 277.714844 71.882812 C 277.59375 72.070312 277.648438 72.320312 277.835938 72.441406 C 277.90625 72.484375 277.980469 72.503906 278.054688 72.503906 C 278.1875 72.503906 278.316406 72.441406 278.394531 72.324219 L 281.554688 67.421875 C 281.675781 67.234375 281.621094 66.984375 281.4375 66.863281 Z M 293.914062 47.523438 C 293.980469 47.566406 294.058594 47.585938 294.132812 47.585938 C 294.265625 47.585938 294.394531 47.523438 294.472656 47.40625 L 296.523438 44.226562 C 296.644531 44.039062 296.589844 43.785156 296.402344 43.664062 C 296.21875 43.546875 295.96875 43.601562 295.847656 43.785156 L 293.792969 46.964844 C 293.675781 47.152344 293.730469 47.40625 293.914062 47.523438 Z M 272.867188 49.320312 L 277.761719 52.484375 C 277.828125 52.527344 277.90625 52.550781 277.984375 52.550781 C 278.113281 52.550781 278.242188 52.484375 278.320312 52.363281 C 278.441406 52.175781 278.386719 51.925781 278.199219 51.808594 L 273.304688 48.644531 C 273.117188 48.523438 272.867188 48.574219 272.746094 48.761719 C 272.621094 48.949219 272.679688 49.199219 272.867188 49.320312 Z M 296.480469 63.625 C 296.292969 63.503906 296.042969 63.554688 295.921875 63.746094 C 295.800781 63.929688 295.855469 64.179688 296.039062 64.300781 L 300.933594 67.464844 C 301.003906 67.511719 301.078125 67.53125 301.15625 67.53125 C 301.285156 67.53125 301.414062 67.464844 301.492188 67.34375 C 301.617188 67.160156 301.558594 66.910156 301.375 66.789062 Z M 295.847656 72.324219 C 295.921875 72.441406 296.054688 72.503906 296.183594 72.503906 C 296.261719 72.503906 296.339844 72.484375 296.402344 72.441406 C 296.589844 72.320312 296.644531 72.070312 296.523438 71.882812 L 293.363281 66.980469 C 293.242188 66.796875 292.988281 66.746094 292.804688 66.863281 C 292.617188 66.984375 292.5625 67.234375 292.683594 67.421875 Z M 279.769531 47.40625 C 279.84375 47.523438 279.972656 47.585938 280.105469 47.585938 C 280.179688 47.585938 280.257812 47.566406 280.324219 47.523438 C 280.515625 47.40625 280.566406 47.152344 280.445312 46.964844 L 278.394531 43.785156 C 278.273438 43.601562 278.023438 43.546875 277.835938 43.664062 C 277.648438 43.785156 277.59375 44.039062 277.714844 44.226562 Z M 295.921875 52.363281 C 296 52.484375 296.128906 52.550781 296.261719 52.550781 C 296.335938 52.550781 296.410156 52.527344 296.480469 52.484375 L 301.375 49.320312 C 301.558594 49.199219 301.617188 48.949219 301.492188 48.761719 C 301.375 48.574219 301.125 48.523438 300.933594 48.644531 L 296.039062 51.808594 C 295.855469 51.925781 295.800781 52.175781 295.921875 52.363281 Z M 277.761719 63.625 L 272.867188 66.789062 C 272.679688 66.910156 272.621094 67.160156 272.746094 67.34375 C 272.824219 67.464844 272.953125 67.53125 273.085938 67.53125 C 273.160156 67.53125 273.234375 67.511719 273.304688 67.464844 L 278.199219 64.300781 C 278.386719 64.179688 278.441406 63.929688 278.320312 63.746094 C 278.199219 63.554688 277.949219 63.503906 277.761719 63.625 Z M 297.597656 58.054688 C 297.597656 58.277344 297.777344 58.457031 298 58.457031 L 303.828125 58.457031 C 304.050781 58.457031 304.230469 58.277344 304.230469 58.054688 C 304.230469 57.832031 304.050781 57.648438 303.828125 57.648438 L 298 57.648438 C 297.777344 57.648438 297.597656 57.832031 297.597656 58.054688 Z M 270.410156 58.457031 L 276.242188 58.457031 C 276.464844 58.457031 276.644531 58.277344 276.644531 58.054688 C 276.644531 57.832031 276.464844 57.648438 276.242188 57.648438 L 270.410156 57.648438 C 270.1875 57.648438 270.007812 57.832031 270.007812 58.054688 C 270.007812 58.277344 270.1875 58.457031 270.410156 58.457031 Z M 287.121094 75.179688 C 287.34375 75.179688 287.523438 75 287.523438 74.777344 L 287.523438 68.945312 C 287.523438 68.722656 287.34375 68.542969 287.121094 68.542969 C 286.898438 68.542969 286.71875 68.722656 286.71875 68.945312 L 286.71875 74.777344 C 286.71875 75 286.898438 75.179688 287.121094 75.179688 Z M 338.273438 300.625 C 338.273438 298.511719 336.558594 296.792969 334.441406 296.792969 C 332.328125 296.792969 330.609375 298.511719 330.609375 300.625 C 330.609375 302.746094 332.328125 304.460938 334.441406 304.460938 C 336.558594 304.460938 338.273438 302.746094 338.273438 300.625 Z M 319.703125 300.625 C 319.703125 298.511719 317.988281 296.792969 315.871094 296.792969 C 313.753906 296.792969 312.039062 298.511719 312.039062 300.625 C 312.039062 302.746094 313.753906 304.460938 315.871094 304.460938 C 317.988281 304.460938 319.703125 302.746094 319.703125 300.625 Z M 301.128906 300.625 C 301.128906 298.511719 299.414062 296.792969 297.296875 296.792969 C 295.183594 296.792969 293.464844 298.511719 293.464844 300.625 C 293.464844 302.746094 295.183594 304.460938 297.296875 304.460938 C 299.414062 304.460938 301.128906 302.746094 301.128906 300.625 Z M 346.382812 314.734375 L 285.355469 314.734375 C 282.332031 314.734375 279.878906 312.28125 279.878906 309.253906 L 279.878906 292 C 279.878906 288.972656 282.332031 286.519531 285.355469 286.519531 L 346.382812 286.519531 C 349.410156 286.519531 351.859375 288.972656 351.859375 292 L 351.859375 309.253906 C 351.859375 312.28125 349.410156 314.734375 346.382812 314.734375 Z M 294.484375 337.792969 C 294.484375 341.070312 297.140625 343.722656 300.410156 343.722656 C 303.683594 343.722656 306.335938 341.070312 306.335938 337.792969 C 306.335938 334.519531 303.683594 331.863281 300.410156 331.863281 C 297.140625 331.863281 294.484375 334.519531 294.484375 337.792969 Z M 279.878906 324.839844 L 318.984375 324.839844 L 318.984375 353.054688 L 279.878906 353.054688 Z M 358.695312 341.425781 L 363.222656 341.425781 L 363.222656 339.8125 L 358.695312 339.8125 Z M 358.695312 336.984375 L 358.695312 338.601562 L 363.222656 338.601562 L 363.222656 336.984375 Z M 347.980469 341.425781 L 352.511719 341.425781 L 352.511719 339.8125 L 347.980469 339.8125 Z M 347.980469 338.601562 L 352.511719 338.601562 L 352.511719 336.984375 L 347.980469 336.984375 Z M 337.269531 341.425781 L 341.800781 341.425781 L 341.800781 339.8125 L 337.269531 339.8125 Z M 337.269531 338.601562 L 341.800781 338.601562 L 341.800781 336.984375 L 337.269531 336.984375 Z M 126.027344 38.410156 C 126.027344 38.410156 124.84375 38.054688 124.429688 37.914062 L 124.40625 159.515625 L 119.980469 159.515625 L 119.980469 119.503906 L 119.886719 119.503906 L 119.886719 114.714844 L 124.273438 114.714844 L 124.273438 109.921875 L 119.980469 109.921875 L 119.980469 95.039062 L 119.886719 95.039062 L 119.886719 90.253906 L 124.273438 90.253906 L 124.273438 85.460938 L 119.980469 85.460938 L 119.984375 70.578125 L 119.886719 70.578125 L 119.886719 65.789062 L 124.273438 65.789062 L 124.273438 61 L 119.984375 61 L 119.984375 36.910156 L 118.398438 36.667969 L 118.367188 161.128906 L 133.734375 161.128906 L 133.734375 159.519531 L 126.015625 159.515625 Z M 146.023438 163.394531 C 145.265625 163.394531 144.648438 163.953125 144.535156 164.675781 C 144.523438 164.753906 144.511719 164.832031 144.511719 164.914062 C 144.511719 165.015625 144.519531 165.113281 144.539062 165.210938 C 144.550781 165.253906 144.566406 165.296875 144.578125 165.335938 C 144.589844 165.386719 144.605469 165.441406 144.625 165.488281 C 144.648438 165.542969 144.679688 165.597656 144.707031 165.648438 C 144.722656 165.675781 144.738281 165.707031 144.753906 165.734375 C 144.796875 165.796875 144.84375 165.855469 144.894531 165.914062 C 144.90625 165.925781 144.914062 165.9375 144.925781 165.949219 C 144.984375 166.011719 145.054688 166.074219 145.125 166.125 C 145.125 166.128906 145.128906 166.128906 145.128906 166.128906 C 145.355469 166.292969 145.625 166.398438 145.917969 166.417969 C 145.953125 166.417969 145.988281 166.429688 146.023438 166.429688 C 146.058594 166.429688 146.09375 166.417969 146.125 166.417969 C 146.421875 166.398438 146.695312 166.292969 146.917969 166.128906 C 146.917969 166.128906 146.917969 166.128906 146.921875 166.128906 C 146.992188 166.074219 147.058594 166.011719 147.121094 165.949219 C 147.132812 165.9375 147.140625 165.925781 147.148438 165.917969 C 147.199219 165.859375 147.25 165.796875 147.292969 165.734375 C 147.308594 165.707031 147.320312 165.679688 147.339844 165.652344 C 147.367188 165.597656 147.398438 165.542969 147.421875 165.488281 C 147.445312 165.441406 147.457031 165.386719 147.472656 165.335938 C 147.484375 165.292969 147.5 165.253906 147.507812 165.210938 C 147.527344 165.113281 147.539062 165.015625 147.539062 164.914062 C 147.539062 164.832031 147.523438 164.753906 147.511719 164.675781 C 147.398438 163.953125 146.777344 163.394531 146.023438 163.394531 Z M 141.066406 163.394531 C 140.3125 163.394531 139.691406 163.953125 139.578125 164.675781 C 139.566406 164.753906 139.554688 164.832031 139.554688 164.914062 C 139.554688 165.015625 139.566406 165.113281 139.582031 165.210938 C 139.59375 165.253906 139.605469 165.292969 139.617188 165.335938 C 139.632812 165.386719 139.648438 165.4375 139.667969 165.484375 C 139.691406 165.542969 139.722656 165.59375 139.75 165.648438 C 139.765625 165.675781 139.777344 165.703125 139.796875 165.730469 C 139.839844 165.792969 139.886719 165.855469 139.933594 165.910156 C 139.945312 165.921875 139.957031 165.933594 139.96875 165.949219 C 140.027344 166.011719 140.09375 166.066406 140.164062 166.117188 C 140.164062 166.121094 140.164062 166.125 140.167969 166.128906 C 140.390625 166.289062 140.660156 166.394531 140.953125 166.417969 C 140.992188 166.417969 141.027344 166.429688 141.066406 166.429688 C 141.105469 166.429688 141.140625 166.417969 141.179688 166.417969 C 141.472656 166.394531 141.742188 166.289062 141.964844 166.128906 C 141.96875 166.125 141.96875 166.121094 141.972656 166.117188 C 142.042969 166.066406 142.109375 166.011719 142.167969 165.949219 C 142.179688 165.933594 142.1875 165.921875 142.199219 165.910156 C 142.25 165.855469 142.292969 165.792969 142.335938 165.730469 C 142.355469 165.703125 142.371094 165.675781 142.382812 165.648438 C 142.414062 165.59375 142.445312 165.542969 142.46875 165.484375 C 142.488281 165.4375 142.5 165.382812 142.515625 165.335938 C 142.527344 165.292969 142.542969 165.253906 142.550781 165.210938 C 142.570312 165.113281 142.578125 165.015625 142.578125 164.914062 C 142.578125 164.074219 141.902344 163.394531 141.066406 163.394531 Z M 137.601562 164.675781 C 137.613281 164.753906 137.621094 164.832031 137.621094 164.914062 C 137.621094 165.015625 137.613281 165.113281 137.59375 165.207031 C 137.585938 165.25 137.570312 165.292969 137.554688 165.332031 C 137.542969 165.382812 137.53125 165.4375 137.511719 165.484375 C 137.488281 165.539062 137.457031 165.589844 137.429688 165.640625 C 137.414062 165.671875 137.398438 165.699219 137.382812 165.730469 C 137.34375 165.792969 137.296875 165.847656 137.246094 165.902344 C 137.234375 165.917969 137.226562 165.933594 137.214844 165.945312 C 137.152344 166.007812 137.089844 166.0625 137.023438 166.113281 C 137.019531 166.117188 137.015625 166.121094 137.011719 166.125 C 136.789062 166.289062 136.523438 166.390625 136.230469 166.417969 C 136.191406 166.417969 136.152344 166.429688 136.113281 166.429688 C 136.070312 166.429688 136.027344 166.417969 135.984375 166.417969 C 135.699219 166.390625 135.429688 166.289062 135.207031 166.125 C 135.207031 166.121094 135.203125 166.117188 135.195312 166.113281 C 135.128906 166.0625 135.066406 166.007812 135.007812 165.945312 C 134.996094 165.933594 134.984375 165.917969 134.972656 165.902344 C 134.925781 165.847656 134.878906 165.792969 134.839844 165.730469 C 134.820312 165.699219 134.804688 165.667969 134.789062 165.636719 C 134.761719 165.589844 134.734375 165.539062 134.710938 165.484375 C 134.6875 165.433594 134.675781 165.378906 134.660156 165.328125 C 134.648438 165.289062 134.632812 165.25 134.625 165.210938 C 134.609375 165.113281 134.59375 165.015625 134.59375 164.914062 C 134.59375 164.832031 134.609375 164.753906 134.621094 164.679688 C 134.734375 163.953125 135.355469 163.394531 136.113281 163.394531 C 136.867188 163.394531 137.488281 163.953125 137.601562 164.675781 " fill-opacity="1" fill-rule="nonzero"/><path fill="#ffffff" d="M 54.8125 136.507812 L 50.601562 137.640625 L 56.183594 126.214844 L 55.28125 133.222656 L 59.5 132.097656 L 53.914062 143.519531 Z M 28.582031 167.8125 C 28.582031 168.773438 27.804688 169.550781 26.84375 169.550781 C 25.886719 169.550781 25.109375 168.773438 25.109375 167.8125 C 25.109375 166.847656 25.886719 166.070312 26.84375 166.070312 C 27.804688 166.070312 28.582031 166.847656 28.582031 167.8125 Z M 28.582031 98.859375 C 28.582031 99.820312 27.804688 100.601562 26.84375 100.601562 C 25.886719 100.601562 25.109375 99.820312 25.109375 98.859375 C 25.109375 97.898438 25.886719 97.121094 26.84375 97.121094 C 27.804688 97.121094 28.582031 97.898438 28.582031 98.859375 Z M 84.054688 167.8125 C 84.054688 168.773438 83.277344 169.550781 82.320312 169.550781 C 81.359375 169.550781 80.582031 168.773438 80.582031 167.8125 C 80.582031 166.847656 81.359375 166.070312 82.320312 166.070312 C 83.277344 166.070312 84.054688 166.847656 84.054688 167.8125 Z M 84.054688 98.859375 C 84.054688 99.820312 83.277344 100.601562 82.320312 100.601562 C 81.359375 100.601562 80.582031 99.820312 80.582031 98.859375 C 80.582031 97.898438 81.359375 97.121094 82.320312 97.121094 C 83.277344 97.121094 84.054688 97.898438 84.054688 98.859375 Z M 32.972656 104.996094 L 76.191406 104.996094 L 76.191406 161.675781 L 32.972656 161.675781 Z M 32.167969 162.484375 L 76.996094 162.484375 L 76.996094 104.1875 L 32.167969 104.1875 Z M 272.703125 370.285156 C 272.703125 370.726562 272.34375 371.089844 271.898438 371.089844 L 244.660156 371.089844 C 244.21875 371.089844 243.855469 370.726562 243.855469 370.285156 C 243.855469 369.835938 244.21875 369.476562 244.660156 369.476562 L 271.898438 369.476562 C 272.34375 369.476562 272.703125 369.835938 272.703125 370.285156 Z M 204.789062 370.285156 C 204.789062 370.726562 204.429688 371.089844 203.980469 371.089844 L 172.933594 371.089844 C 172.488281 371.089844 172.125 370.726562 172.125 370.285156 C 172.125 369.835938 172.488281 369.476562 172.933594 369.476562 L 203.980469 369.476562 C 204.429688 369.476562 204.789062 369.835938 204.789062 370.285156 Z M 200.644531 109.636719 L 230.433594 111.523438 L 228.269531 136.234375 C 224.160156 137.792969 213.84375 141.480469 211.890625 141.253906 C 209.316406 140.96875 199.453125 133.136719 199.128906 132.023438 C 198.859375 131.074219 199.902344 117.960938 200.644531 109.636719 Z M 211.800781 142.058594 C 211.871094 142.066406 211.949219 142.070312 212.039062 142.070312 C 215.171875 142.070312 228.226562 137.121094 228.792969 136.898438 L 229.03125 136.8125 L 231.3125 110.769531 L 199.914062 108.78125 L 199.875 109.171875 C 199.679688 111.386719 197.945312 130.84375 198.355469 132.246094 C 198.824219 133.871094 209.183594 141.765625 211.800781 142.058594 Z M 240.363281 165.953125 L 246.085938 166.164062 L 246.976562 166.195312 L 246.976562 171.234375 L 246.375 171.214844 L 236.277344 170.84375 L 236.042969 167.71875 L 235.894531 165.792969 Z M 247.140625 176.253906 L 216.6875 179.40625 L 185.78125 193.238281 L 184.90625 213.164062 L 174.246094 207.53125 C 173.128906 206.9375 172.535156 205.683594 172.785156 204.445312 L 174.460938 196.207031 L 172.675781 195.519531 C 171.410156 195.03125 170.828125 193.566406 171.417969 192.34375 L 175.617188 183.570312 L 176.988281 183.746094 L 177.480469 181.3125 C 177.667969 180.402344 178.28125 179.640625 179.128906 179.269531 L 186.53125 176.03125 L 246.40625 171.519531 L 247.035156 171.472656 C 247.453125 171.441406 247.828125 171.738281 247.886719 172.152344 L 248.339844 175.292969 C 248.40625 175.742188 248.085938 176.152344 247.632812 176.203125 Z M 187.058594 164.007812 L 195.234375 164.308594 L 194.851562 169.332031 L 187.058594 169.050781 Z M 175.121094 92.433594 L 171.953125 71.601562 L 203.371094 67.5 C 203.167969 67.808594 202.78125 68.523438 202.78125 68.382812 C 202.492188 68.871094 202.214844 69.355469 201.941406 69.839844 C 201.832031 70.035156 201.730469 70.226562 201.621094 70.421875 C 201.464844 70.707031 201.304688 70.992188 201.152344 71.28125 C 201.019531 71.527344 200.894531 71.769531 200.765625 72.019531 C 200.644531 72.246094 200.527344 72.476562 200.410156 72.703125 C 200.269531 72.984375 200.136719 73.261719 200 73.542969 C 199.902344 73.738281 199.8125 73.929688 199.71875 74.125 C 199.574219 74.433594 199.433594 74.742188 199.292969 75.050781 C 199.21875 75.214844 199.148438 75.378906 199.074219 75.542969 C 198.929688 75.882812 198.785156 76.21875 198.644531 76.5625 C 198.589844 76.695312 198.535156 76.832031 198.480469 76.964844 C 198.332031 77.339844 198.1875 77.714844 198.046875 78.09375 C 198.007812 78.183594 197.980469 78.277344 197.945312 78.367188 C 197.789062 78.789062 197.636719 79.21875 197.492188 79.65625 C 197.488281 79.667969 197.488281 79.679688 197.484375 79.6875 C 196.160156 83.679688 195.28125 88.132812 194.855469 93.691406 C 194.769531 94.867188 194.691406 96.078125 194.644531 97.359375 L 193.898438 97.78125 C 193.949219 96.382812 194.023438 95 194.117188 93.644531 Z M 240.371094 88.933594 C 240.6875 86.800781 241.078125 84.503906 241.535156 82.15625 C 241.535156 82.152344 241.539062 82.148438 241.539062 82.148438 C 241.726562 81.171875 241.933594 80.183594 242.152344 79.199219 C 242.363281 78.246094 242.585938 77.292969 242.820312 76.347656 C 242.839844 76.273438 242.855469 76.195312 242.878906 76.125 C 243.101562 75.226562 243.339844 74.335938 243.589844 73.457031 C 243.609375 73.386719 243.632812 73.308594 243.652344 73.234375 C 243.921875 72.304688 244.199219 71.386719 244.496094 70.5 C 244.660156 70.003906 244.828125 69.519531 245 69.039062 C 251.996094 69.417969 261.160156 70.828125 263.804688 75.507812 C 268.246094 83.375 275.28125 111.382812 275.28125 111.382812 L 254.96875 116.929688 L 253.273438 113.671875 L 238.996094 100.710938 C 238.996094 100.710938 239.363281 95.632812 240.367188 88.941406 L 240.363281 88.933594 Z M 198.019531 169.449219 L 198.402344 164.421875 L 200.105469 164.488281 L 232.707031 165.675781 L 233.09375 170.726562 Z M 227.058594 98.472656 L 205.128906 96.71875 C 205.128906 96.71875 205.230469 95.84375 205.4375 94.363281 C 205.441406 94.359375 205.441406 94.359375 205.441406 94.359375 C 205.679688 92.652344 206.070312 90.144531 206.613281 87.261719 C 206.613281 87.257812 206.613281 87.253906 206.613281 87.246094 C 207.710938 81.4375 209.441406 74.113281 211.894531 68.714844 L 208.996094 67.464844 L 211.675781 62.003906 L 216.539062 61.128906 L 217.511719 66.914062 C 218.070312 66.941406 218.644531 66.96875 219.222656 66.996094 L 222.609375 62.003906 L 237.511719 59.269531 L 241.128906 65.585938 L 237.511719 67.785156 L 236.085938 69.050781 C 229.070312 81.304688 227.058594 98.472656 227.058594 98.472656 Z M 312.359375 227.800781 L 312.359375 234.554688 L 244.5625 234.554688 L 244.5625 227.800781 L 248.363281 227.800781 L 252.464844 211.277344 L 304.460938 211.277344 L 308.558594 227.800781 Z M 302.222656 258.089844 L 287.097656 258.089844 L 289.910156 237.289062 L 305.617188 237.289062 Z M 306.089844 236.480469 L 289.558594 236.480469 C 289.355469 236.480469 289.1875 236.628906 289.160156 236.832031 L 286.234375 258.441406 C 286.21875 258.558594 286.253906 258.675781 286.328125 258.761719 C 286.40625 258.847656 286.515625 258.898438 286.632812 258.898438 L 302.566406 258.898438 C 302.761719 258.898438 302.933594 258.753906 302.960938 258.558594 L 306.488281 236.949219 C 306.503906 236.832031 306.472656 236.714844 306.398438 236.625 C 306.320312 236.53125 306.207031 236.480469 306.089844 236.480469 Z M 123.78125 120.328125 L 119.398438 120.328125 L 119.398438 110.75 L 123.78125 110.75 Z M 129.648438 107.929688 L 113.535156 107.929688 L 113.535156 124.058594 L 129.648438 124.058594 Z M 123.78125 95.867188 L 119.398438 95.867188 L 119.398438 86.285156 L 123.78125 86.285156 Z M 129.648438 83.46875 L 113.535156 83.46875 L 113.535156 99.597656 L 129.648438 99.597656 Z M 123.78125 71.402344 L 119.398438 71.402344 L 119.398438 61.820312 L 123.78125 61.820312 Z M 129.648438 59.003906 L 113.535156 59.003906 L 113.535156 75.132812 L 129.648438 75.132812 Z M 146.945312 165.738281 C 146.945312 165.832031 146.9375 165.921875 146.917969 166.011719 C 146.914062 166.027344 146.910156 166.042969 146.90625 166.054688 C 146.886719 166.128906 146.867188 166.203125 146.839844 166.273438 C 146.828125 166.300781 146.808594 166.324219 146.796875 166.351562 C 146.773438 166.402344 146.75 166.457031 146.71875 166.5 C 146.679688 166.5625 146.632812 166.621094 146.585938 166.675781 C 146.578125 166.683594 146.570312 166.691406 146.5625 166.703125 C 146.558594 166.703125 146.558594 166.703125 146.558594 166.703125 C 146.511719 166.753906 146.457031 166.800781 146.398438 166.84375 C 146.390625 166.851562 146.382812 166.859375 146.371094 166.871094 C 146.277344 166.9375 146.171875 166.992188 146.0625 167.035156 C 146.035156 167.042969 146.007812 167.054688 145.980469 167.0625 C 145.871094 167.101562 145.753906 167.132812 145.628906 167.136719 L 145.441406 167.136719 C 144.707031 167.089844 144.125 166.484375 144.125 165.738281 C 144.125 165.660156 144.136719 165.589844 144.148438 165.519531 C 144.253906 164.84375 144.835938 164.324219 145.539062 164.324219 C 146.238281 164.324219 146.820312 164.84375 146.925781 165.519531 C 146.9375 165.589844 146.945312 165.660156 146.945312 165.738281 Z M 140.683594 167.136719 L 140.476562 167.136719 C 139.75 167.082031 139.171875 166.484375 139.171875 165.738281 C 139.171875 165.660156 139.179688 165.589844 139.191406 165.519531 C 139.296875 164.84375 139.878906 164.324219 140.578125 164.324219 C 141.285156 164.324219 141.863281 164.84375 141.96875 165.519531 C 141.980469 165.589844 141.992188 165.660156 141.992188 165.738281 C 141.992188 166.484375 141.410156 167.082031 140.683594 167.136719 Z M 135.738281 167.136719 L 135.511719 167.136719 C 135.386719 167.125 135.273438 167.09375 135.164062 167.058594 C 135.136719 167.050781 135.109375 167.039062 135.085938 167.03125 C 134.976562 166.984375 134.875 166.933594 134.785156 166.863281 C 134.757812 166.847656 134.738281 166.820312 134.710938 166.800781 C 134.671875 166.769531 134.632812 166.734375 134.59375 166.699219 C 134.585938 166.6875 134.574219 166.671875 134.566406 166.660156 C 134.566406 166.660156 134.566406 166.660156 134.5625 166.660156 C 134.546875 166.640625 134.535156 166.625 134.519531 166.605469 C 134.410156 166.464844 134.324219 166.304688 134.273438 166.128906 C 134.273438 166.128906 134.273438 166.125 134.273438 166.125 C 134.269531 166.117188 134.269531 166.109375 134.269531 166.105469 C 134.257812 166.074219 134.246094 166.042969 134.242188 166.011719 C 134.222656 165.921875 134.214844 165.832031 134.214844 165.738281 C 134.214844 165.660156 134.222656 165.589844 134.234375 165.519531 C 134.339844 164.84375 134.917969 164.324219 135.621094 164.324219 C 136.328125 164.324219 136.90625 164.84375 137.011719 165.519531 C 137.023438 165.589844 137.035156 165.660156 137.035156 165.738281 C 137.035156 166.480469 136.460938 167.078125 135.738281 167.136719 Z M 149.085938 151.417969 L 132.074219 151.417969 C 130.734375 151.417969 129.648438 152.503906 129.648438 153.84375 L 129.648438 174.808594 C 129.648438 176.148438 130.734375 177.234375 132.074219 177.234375 L 149.085938 177.234375 C 150.425781 177.234375 151.511719 176.148438 151.511719 174.808594 L 151.511719 153.84375 C 151.511719 152.503906 150.425781 151.417969 149.085938 151.417969 " fill-opacity="1" fill-rule="nonzero"/><path fill="#000000" d="M 224.640625 117.753906 C 224.980469 116.644531 223.957031 108.859375 222.078125 108.605469 C 220.199219 108.34375 217.035156 106.550781 215.753906 106.292969 C 214.472656 106.039062 210.816406 109.429688 210.816406 109.429688 C 210.816406 109.429688 211.820312 110.484375 211.738281 111.253906 C 211.652344 112.023438 209.601562 114.589844 209.003906 116.953125 C 208.40625 119.316406 212.078125 118.355469 213.273438 116.953125 C 214.472656 115.550781 215.667969 112.625 215.667969 112.625 C 215.667969 112.625 215.667969 114.417969 214.726562 116.953125 C 213.789062 119.488281 214.8125 122.375 216.351562 122.289062 C 217.890625 122.203125 217.71875 120.40625 218.660156 118.886719 C 219.597656 117.371094 219.34375 111.941406 219.34375 111.941406 C 219.34375 111.941406 220.453125 117.15625 221.648438 118.269531 C 222.847656 119.382812 224.300781 118.867188 224.640625 117.753906 Z M 56.183594 126.214844 L 50.601562 137.640625 L 54.8125 136.507812 L 53.914062 143.519531 L 59.5 132.097656 L 55.28125 133.222656 Z M 32.925781 161.664062 L 32.972656 161.664062 L 32.972656 161.675781 L 33.589844 161.675781 L 33.589844 161.664062 L 33.640625 161.664062 L 33.640625 105.609375 L 76.191406 105.609375 L 76.191406 105.605469 L 76.222656 105.605469 L 76.222656 104.890625 C 76.191406 104.921875 32.925781 104.957031 32.925781 104.957031 Z M 78.394531 164.125 L 78.394531 105.609375 L 76.996094 105.609375 L 76.996094 104.1875 L 32.167969 104.1875 L 32.167969 162.484375 L 33.589844 162.484375 L 33.589844 164.125 Z M 28.582031 98.859375 C 28.582031 97.898438 27.804688 97.121094 26.84375 97.121094 C 25.886719 97.121094 25.109375 97.898438 25.109375 98.859375 C 25.109375 99.820312 25.886719 100.601562 26.84375 100.601562 C 27.804688 100.601562 28.582031 99.820312 28.582031 98.859375 Z M 28.582031 167.8125 C 28.582031 166.847656 27.804688 166.070312 26.84375 166.070312 C 25.886719 166.070312 25.109375 166.847656 25.109375 167.8125 C 25.109375 168.773438 25.886719 169.550781 26.84375 169.550781 C 27.804688 169.550781 28.582031 168.773438 28.582031 167.8125 Z M 80.582031 167.8125 C 80.582031 168.773438 81.359375 169.550781 82.320312 169.550781 C 83.277344 169.550781 84.054688 168.773438 84.054688 167.8125 C 84.054688 166.847656 83.277344 166.070312 82.320312 166.070312 C 81.359375 166.070312 80.582031 166.847656 80.582031 167.8125 Z M 80.582031 98.859375 C 80.582031 99.820312 81.359375 100.601562 82.320312 100.601562 C 83.277344 100.601562 84.054688 99.820312 84.054688 98.859375 C 84.054688 97.898438 83.277344 97.121094 82.320312 97.121094 C 81.359375 97.121094 80.582031 97.898438 80.582031 98.859375 Z M 64.292969 330.625 L 64.292969 176.960938 L 20.53125 176.960938 L 20.53125 89.707031 L 88.628906 89.707031 L 88.628906 176.960938 L 74.664062 176.960938 L 74.664062 320.25 L 95.679688 320.25 L 95.679688 321.863281 L 73.050781 321.863281 L 73.050781 176.960938 L 65.90625 176.960938 L 65.90625 329.011719 L 95.679688 329.011719 L 95.679688 330.625 Z M 233.523438 165.703125 L 233.390625 164.011719 L 233.386719 163.949219 C 233.351562 163.503906 232.972656 163.167969 232.519531 163.207031 C 232.078125 163.238281 231.746094 163.628906 231.777344 164.070312 L 231.898438 165.648438 L 232.085938 168.097656 L 232.285156 170.699219 L 232.347656 171.539062 C 232.382812 171.964844 232.734375 172.285156 233.152344 172.285156 C 233.171875 172.285156 233.191406 172.285156 233.210938 172.285156 C 233.636719 172.253906 233.949219 171.898438 233.949219 171.480469 C 233.949219 171.460938 233.957031 171.4375 233.957031 171.421875 L 233.90625 170.757812 L 233.691406 167.96875 Z M 236.839844 167.597656 L 236.703125 165.820312 L 236.5625 163.949219 C 236.527344 163.503906 236.15625 163.167969 235.695312 163.207031 C 235.273438 163.238281 234.964844 163.59375 234.964844 164.011719 C 234.960938 164.03125 234.953125 164.050781 234.953125 164.070312 L 235.082031 165.761719 L 235.238281 167.8125 L 235.46875 170.8125 L 235.519531 171.480469 L 235.523438 171.539062 C 235.554688 171.957031 235.894531 172.269531 236.296875 172.28125 C 236.308594 172.28125 236.316406 172.285156 236.328125 172.285156 C 236.347656 172.285156 236.367188 172.285156 236.390625 172.285156 C 236.40625 172.28125 236.417969 172.273438 236.4375 172.269531 C 236.855469 172.214844 237.164062 171.847656 237.132812 171.421875 L 237.089844 170.875 Z M 184.097656 213.128906 C 184.078125 213.574219 184.425781 213.949219 184.871094 213.972656 C 184.882812 213.972656 184.894531 213.972656 184.90625 213.972656 C 185.335938 213.972656 185.6875 213.632812 185.710938 213.203125 L 186.34375 198.738281 C 186.34375 198.726562 186.34375 198.710938 186.347656 198.699219 L 186.601562 192.871094 L 187.101562 181.484375 C 187.121094 181.039062 186.777344 180.660156 186.332031 180.640625 C 186.332031 180.640625 186.332031 180.640625 186.328125 180.640625 C 185.882812 180.636719 185.507812 180.96875 185.488281 181.414062 L 184.871094 195.503906 L 176.914062 196.210938 L 175.25 196.355469 L 178.023438 183.878906 L 178.328125 182.507812 C 178.425781 182.074219 178.152344 181.640625 177.71875 181.546875 C 177.621094 181.523438 177.523438 181.527344 177.433594 181.539062 C 177.109375 181.585938 176.832031 181.820312 176.753906 182.160156 L 176.417969 183.671875 L 173.695312 195.910156 L 173.441406 197.0625 C 173.4375 197.074219 173.433594 197.089844 173.433594 197.105469 L 172.894531 199.53125 C 172.890625 199.546875 172.882812 199.566406 172.878906 199.585938 L 172.007812 203.523438 C 171.910156 203.960938 172.183594 204.390625 172.617188 204.484375 C 172.671875 204.5 172.726562 204.488281 172.78125 204.488281 C 173.152344 204.496094 173.496094 204.253906 173.578125 203.875 L 174.332031 200.484375 L 184.691406 199.566406 L 184.117188 212.746094 Z M 178.109375 92.535156 C 178.109375 92.566406 178.128906 92.59375 178.132812 92.625 C 178.222656 92.980469 178.535156 93.242188 178.90625 93.242188 C 178.9375 93.242188 178.976562 93.238281 179.011719 93.234375 C 179.3125 93.195312 179.542969 92.988281 179.648438 92.71875 C 179.695312 92.601562 179.722656 92.46875 179.703125 92.328125 L 176.945312 70.949219 C 176.886719 70.507812 176.484375 70.191406 176.042969 70.25 C 175.601562 70.308594 175.289062 70.714844 175.34375 71.15625 L 175.34375 71.160156 Z M 193.089844 93.578125 C 193.304688 93.902344 193.449219 94.097656 193.472656 94.128906 C 193.621094 94.320312 193.839844 94.425781 194.0625 94.4375 C 194.082031 94.4375 194.101562 94.453125 194.113281 94.453125 C 194.285156 94.453125 194.453125 94.398438 194.597656 94.289062 C 194.710938 94.207031 194.78125 94.101562 194.835938 93.984375 C 194.835938 93.984375 194.835938 93.980469 194.839844 93.976562 C 194.878906 93.886719 194.90625 93.792969 194.910156 93.695312 C 194.917969 93.601562 194.910156 93.503906 194.878906 93.414062 C 194.878906 93.410156 194.878906 93.410156 194.878906 93.410156 C 194.851562 93.320312 194.816406 93.238281 194.761719 93.160156 C 194.753906 93.148438 194.535156 92.855469 194.214844 92.332031 C 193.460938 91.121094 192.117188 88.664062 191.4375 85.597656 C 191.339844 85.160156 190.90625 84.890625 190.476562 84.984375 C 190.039062 85.082031 189.765625 85.511719 189.863281 85.949219 C 190.679688 89.628906 192.34375 92.441406 193.089844 93.578125 Z M 194.5625 162.53125 L 194.429688 164.28125 L 194.046875 169.304688 L 193.992188 170 C 193.957031 170.445312 194.292969 170.832031 194.734375 170.867188 C 194.757812 170.867188 194.777344 170.871094 194.800781 170.871094 C 195.214844 170.871094 195.566406 170.546875 195.601562 170.121094 L 195.605469 170.0625 L 195.65625 169.363281 L 196.042969 164.335938 L 196.171875 162.652344 C 196.171875 162.632812 196.164062 162.613281 196.164062 162.589844 C 196.164062 162.175781 195.851562 161.816406 195.429688 161.789062 C 194.96875 161.75 194.59375 162.085938 194.5625 162.53125 Z M 217.0625 172.929688 C 216.601562 172.898438 216.238281 173.242188 216.214844 173.6875 L 216.207031 173.792969 L 215.882812 179.359375 C 215.875 179.492188 215.90625 179.617188 215.960938 179.734375 C 216.078125 179.996094 216.328125 180.191406 216.636719 180.210938 C 216.65625 180.214844 216.671875 180.214844 216.6875 180.214844 C 217.113281 180.214844 217.464844 179.882812 217.492188 179.453125 L 217.5 179.320312 L 217.824219 173.78125 C 217.828125 173.742188 217.8125 173.710938 217.808594 173.675781 C 217.777344 173.277344 217.472656 172.953125 217.0625 172.929688 Z M 218.917969 165.21875 L 213.066406 165.113281 L 213.011719 168.070312 L 212.984375 169.894531 L 218.832031 169.996094 L 218.863281 168.359375 L 215.949219 168.359375 C 215.753906 168.359375 215.578125 168.28125 215.441406 168.164062 C 215.261719 168.019531 215.140625 167.804688 215.140625 167.554688 C 215.140625 167.109375 215.503906 166.746094 215.949219 166.746094 L 218.890625 166.746094 Z M 219.144531 171.617188 L 212.613281 171.5 C 212.273438 171.496094 211.957031 171.355469 211.71875 171.113281 C 211.484375 170.867188 211.359375 170.546875 211.363281 170.207031 L 211.367188 169.9375 L 211.402344 167.996094 L 211.457031 164.898438 L 211.460938 164.742188 C 211.46875 164.402344 211.605469 164.085938 211.847656 163.851562 C 212.09375 163.613281 212.40625 163.496094 212.753906 163.492188 L 219.285156 163.609375 C 219.625 163.617188 219.945312 163.753906 220.179688 163.996094 C 220.414062 164.242188 220.542969 164.566406 220.535156 164.90625 L 220.53125 165.230469 L 220.476562 168.296875 L 220.4375 170.265625 L 220.4375 170.367188 C 220.425781 171.0625 219.855469 171.617188 219.167969 171.617188 C 219.160156 171.617188 219.152344 171.617188 219.144531 171.617188 Z M 197.910156 170.867188 C 197.929688 170.867188 197.953125 170.871094 197.972656 170.871094 C 198.390625 170.871094 198.746094 170.546875 198.777344 170.121094 L 198.824219 169.476562 L 199.207031 164.453125 L 199.34375 162.652344 C 199.382812 162.207031 199.046875 161.820312 198.605469 161.789062 C 198.148438 161.75 197.773438 162.085938 197.738281 162.53125 L 197.734375 162.589844 L 197.59375 164.394531 L 197.214844 169.417969 L 197.167969 170 C 197.167969 170.023438 197.175781 170.039062 197.175781 170.0625 C 197.175781 170.480469 197.488281 170.835938 197.910156 170.867188 Z M 241.214844 171.734375 C 241.082031 171.304688 240.632812 171.070312 240.207031 171.199219 C 239.839844 171.308594 239.625 171.660156 239.652344 172.03125 C 239.660156 172.085938 239.652344 172.144531 239.671875 172.203125 L 241.097656 176.878906 L 241.144531 177.027344 C 241.25 177.378906 241.570312 177.601562 241.914062 177.601562 C 241.992188 177.601562 242.074219 177.589844 242.152344 177.566406 C 242.523438 177.453125 242.738281 177.089844 242.699219 176.714844 C 242.695312 176.660156 242.699219 176.609375 242.6875 176.558594 L 241.265625 171.90625 Z M 248.59375 101.421875 C 249.757812 104.972656 250.976562 108.421875 251.976562 111.191406 C 252.230469 111.890625 252.46875 112.542969 252.691406 113.144531 C 252.890625 113.6875 253.074219 114.183594 253.242188 114.628906 C 253.5625 115.484375 253.8125 116.152344 253.980469 116.59375 C 254.125 116.972656 254.214844 117.207031 254.21875 117.21875 C 254.34375 117.539062 254.648438 117.738281 254.96875 117.738281 C 255.070312 117.738281 255.167969 117.71875 255.261719 117.679688 C 255.292969 117.671875 255.3125 117.648438 255.339844 117.632812 C 255.671875 117.457031 255.835938 117.082031 255.738281 116.71875 C 255.730469 116.691406 255.734375 116.664062 255.722656 116.636719 C 255.714844 116.613281 255.480469 116.007812 255.089844 114.964844 L 274.230469 108.628906 L 274.542969 108.523438 L 274.59375 108.503906 C 275.015625 108.367188 275.246094 107.910156 275.105469 107.484375 C 274.972656 107.082031 274.542969 106.859375 274.136719 106.96875 C 274.117188 106.972656 274.101562 106.96875 274.085938 106.972656 L 273.652344 107.117188 L 254.527344 113.453125 C 254.277344 112.789062 253.996094 112.023438 253.695312 111.199219 C 252.195312 107.078125 250.140625 101.222656 248.507812 95.804688 C 247.375 92.027344 247.535156 89.160156 248.121094 87.074219 C 248.945312 84.132812 250.617188 82.75 250.738281 82.652344 C 251.089844 82.378906 251.152344 81.875 250.878906 81.523438 C 250.609375 81.171875 250.101562 81.105469 249.75 81.378906 C 249.59375 81.5 247.207031 83.414062 246.351562 87.496094 C 245.894531 89.695312 245.878906 92.523438 246.898438 96.039062 C 246.921875 96.117188 246.941406 96.191406 246.964844 96.269531 C 247.296875 97.378906 247.648438 98.503906 248.011719 99.628906 C 245.0625 98.777344 244.5625 96.882812 244.535156 96.773438 C 244.488281 96.5625 244.363281 96.394531 244.199219 96.285156 C 244.023438 96.164062 243.804688 96.113281 243.582031 96.160156 C 243.144531 96.253906 242.867188 96.679688 242.960938 97.117188 C 242.988281 97.238281 243.527344 99.550781 246.570312 100.824219 C 247.148438 101.066406 247.8125 101.277344 248.59375 101.421875 Z M 230.644531 71.015625 L 229.148438 69.007812 L 228.164062 67.683594 L 225.648438 64.304688 C 225.503906 64.109375 225.277344 63.992188 225.035156 63.980469 C 224.792969 63.96875 224.554688 64.074219 224.398438 64.257812 L 221.882812 67.152344 L 220.273438 69.007812 L 218.175781 71.425781 L 217.683594 71.996094 L 217.214844 71.011719 L 216.257812 69.007812 L 216 68.457031 L 215.226562 66.839844 L 214.132812 64.539062 C 214.125 64.519531 214.117188 64.503906 214.109375 64.488281 L 213.328125 62.851562 C 213.140625 62.453125 212.660156 62.277344 212.257812 62.472656 C 211.855469 62.664062 211.683594 63.144531 211.875 63.546875 L 212.40625 64.664062 L 211.296875 65.671875 L 210.046875 66.800781 L 209.976562 66.867188 C 209.703125 67.113281 209.652344 67.5 209.804688 67.8125 C 209.835938 67.878906 209.867188 67.949219 209.921875 68.007812 C 210.140625 68.25 210.472656 68.324219 210.769531 68.230469 C 210.871094 68.195312 210.972656 68.140625 211.058594 68.0625 L 212.359375 66.886719 L 212.460938 66.792969 L 213.128906 66.183594 L 213.425781 66.800781 L 214.964844 70.042969 L 216.757812 73.804688 C 216.871094 74.046875 217.105469 74.21875 217.375 74.253906 C 217.414062 74.261719 217.449219 74.265625 217.484375 74.265625 C 217.714844 74.265625 217.9375 74.160156 218.09375 73.984375 L 219.730469 72.097656 L 222.410156 69.007812 L 223.890625 67.300781 L 224.957031 66.074219 L 226 67.476562 L 227.136719 69.007812 L 229.789062 72.570312 C 230.039062 72.902344 230.5 72.992188 230.855469 72.777344 L 234.132812 70.785156 L 235.617188 69.878906 L 236.570312 69.300781 L 237.105469 68.976562 L 237.199219 68.917969 L 240.832031 66.710938 L 241.546875 66.277344 C 241.925781 66.042969 242.050781 65.546875 241.816406 65.167969 C 241.589844 64.792969 241.109375 64.671875 240.730469 64.890625 C 240.722656 64.894531 240.714844 64.894531 240.710938 64.894531 L 236.394531 67.519531 L 234.753906 68.519531 L 233.949219 69.007812 Z M 194.082031 274.390625 C 194.382812 274.390625 194.671875 274.222656 194.808594 273.933594 C 195 273.53125 194.835938 273.050781 194.433594 272.855469 C 190.378906 270.898438 186.976562 267.628906 184.851562 263.65625 C 184.640625 263.265625 184.152344 263.117188 183.761719 263.328125 C 183.367188 263.539062 183.222656 264.027344 183.429688 264.421875 C 185.714844 268.691406 189.375 272.203125 193.730469 274.3125 C 193.84375 274.363281 193.964844 274.390625 194.082031 274.390625 Z M 202.007812 204.503906 L 212.609375 204.96875 L 203.949219 207.953125 C 203.523438 208.097656 203.304688 208.558594 203.445312 208.980469 C 203.59375 209.398438 204.050781 209.625 204.472656 209.480469 L 214.585938 205.996094 L 210.476562 211.300781 C 210.199219 211.652344 210.265625 212.160156 210.617188 212.433594 C 210.972656 212.707031 211.476562 212.644531 211.75 212.292969 L 217.265625 205.175781 L 217.695312 205.191406 L 219.25 205.261719 L 219.714844 205.28125 L 224.949219 213.59375 C 225.101562 213.839844 225.363281 213.972656 225.632812 213.972656 C 225.777344 213.972656 225.929688 213.933594 226.058594 213.847656 C 226.4375 213.609375 226.550781 213.113281 226.3125 212.734375 L 221.675781 205.371094 L 227.988281 205.644531 C 228.449219 205.65625 228.8125 205.320312 228.832031 204.875 C 228.851562 204.429688 228.503906 204.054688 228.058594 204.03125 L 216.933594 203.546875 C 216.921875 203.546875 216.914062 203.546875 216.902344 203.542969 L 202.082031 202.894531 C 201.640625 202.878906 201.257812 203.222656 201.238281 203.664062 C 201.21875 204.105469 201.5625 204.484375 202.007812 204.503906 Z M 242.765625 278.625 C 238.414062 277.792969 234.484375 275.21875 231.976562 271.5625 C 231.722656 271.199219 231.222656 271.105469 230.855469 271.355469 C 230.488281 271.605469 230.394531 272.109375 230.644531 272.476562 C 233.390625 276.476562 237.695312 279.296875 242.460938 280.207031 C 242.511719 280.21875 242.5625 280.222656 242.609375 280.222656 C 242.992188 280.222656 243.328125 279.957031 243.402344 279.566406 C 243.488281 279.128906 243.199219 278.707031 242.765625 278.625 Z M 140.03125 39.449219 C 139.070312 40.445312 139.097656 42.035156 140.089844 43 C 141.085938 43.960938 142.671875 43.933594 143.636719 42.9375 L 144.519531 42.023438 L 146.980469 39.476562 L 148.695312 37.695312 C 148.632812 37.695312 148.570312 37.695312 148.511719 37.695312 C 148.601562 37.410156 148.539062 37.085938 148.3125 36.863281 L 147.367188 35.949219 L 145.324219 33.96875 L 142.386719 31.117188 L 141.433594 30.191406 C 141.253906 30.019531 141.023438 29.957031 140.796875 29.980469 C 140.613281 29.996094 140.429688 30.066406 140.292969 30.210938 C 139.984375 30.53125 139.988281 31.042969 140.308594 31.351562 L 141.636719 32.640625 L 144.203125 35.128906 L 146.835938 37.683594 C 146.734375 37.703125 146.640625 37.730469 146.550781 37.769531 C 145.613281 38.214844 145.871094 38.726562 144.417969 38.386719 C 144.378906 38.375 144.34375 38.355469 144.304688 38.34375 C 144.5 38.015625 144.460938 37.59375 144.164062 37.328125 L 143.042969 36.332031 L 141.429688 34.898438 L 141.0625 34.574219 C 140.730469 34.28125 140.222656 34.308594 139.925781 34.644531 C 139.632812 34.976562 139.660156 35.484375 139.996094 35.78125 L 141.917969 37.492188 L 140.839844 38.609375 Z M 144.941406 28.09375 L 147.34375 31.878906 L 150.007812 36.066406 C 150.042969 36.121094 150.09375 36.160156 150.136719 36.203125 C 150.160156 36.222656 150.175781 36.25 150.199219 36.269531 C 150.429688 36.445312 150.734375 36.480469 151.007812 36.359375 C 151.042969 36.34375 151.085938 36.339844 151.121094 36.316406 C 151.496094 36.078125 151.609375 35.578125 151.367188 35.203125 L 151.261719 35.039062 L 150.101562 33.210938 C 150.496094 33.417969 150.960938 33.578125 151.496094 33.703125 C 151.574219 34.007812 151.644531 34.304688 151.699219 34.585938 L 152.402344 33.863281 C 152.6875 33.898438 152.992188 33.925781 153.3125 33.941406 C 153.351562 33.945312 153.378906 33.953125 153.417969 33.957031 C 152.832031 34.4375 152.238281 35.019531 151.765625 35.664062 C 151.679688 35.785156 151.585938 35.902344 151.507812 36.027344 C 151.433594 36.144531 151.375 36.269531 151.3125 36.394531 C 151.210938 36.578125 151.132812 36.765625 151.066406 36.957031 C 150.875 37.496094 150.785156 38.058594 150.886719 38.636719 C 150.929688 38.875 151.078125 39.0625 151.269531 39.175781 C 151.394531 39.25 151.53125 39.304688 151.679688 39.304688 C 151.726562 39.304688 151.773438 39.300781 151.820312 39.292969 C 152.261719 39.214844 152.554688 38.796875 152.472656 38.359375 C 152.375 37.789062 152.640625 37.175781 153.082031 36.59375 C 154 35.367188 155.699219 34.25 156.46875 33.835938 C 156.796875 33.65625 156.960938 33.265625 156.859375 32.90625 C 156.753906 32.542969 156.441406 32.300781 156.035156 32.320312 C 155.195312 32.367188 154.476562 32.375 153.859375 32.351562 C 152.726562 32.3125 151.933594 32.175781 151.378906 32 C 150.925781 31.847656 150.632812 31.675781 150.445312 31.507812 C 150.039062 31.140625 149.976562 30.671875 149.941406 30.058594 C 150.222656 29.679688 151.710938 29.164062 153.488281 28.785156 C 154.078125 28.660156 154.703125 28.546875 155.328125 28.464844 C 155.769531 28.402344 156.078125 28 156.015625 27.558594 C 156.011719 27.507812 155.988281 27.46875 155.972656 27.425781 C 157.210938 27.035156 158.296875 26.789062 159.003906 27.023438 L 159.011719 27.011719 L 160.367188 25.613281 C 160.644531 25.328125 160.636719 24.871094 160.347656 24.597656 L 159.871094 24.128906 L 158.257812 22.570312 L 157.78125 22.109375 C 157.492188 21.832031 157.039062 21.839844 156.761719 22.125 L 155.195312 23.75 L 154.621094 23.191406 L 153.691406 24.15625 L 152.726562 25.15625 C 152.769531 25.296875 152.820312 25.445312 152.863281 25.605469 L 153.144531 25.875 L 152.988281 26.03125 C 153.089844 26.394531 153.183594 26.777344 153.265625 27.167969 C 152.652344 27.289062 152.042969 27.433594 151.472656 27.597656 C 149.667969 28.132812 148.277344 28.914062 148.328125 30.058594 C 148.335938 30.179688 148.34375 30.3125 148.351562 30.457031 L 146.214844 27.085938 L 145.679688 26.253906 L 145.441406 25.875 C 145.203125 25.496094 144.707031 25.386719 144.328125 25.628906 C 144.078125 25.785156 143.957031 26.058594 143.96875 26.335938 C 143.972656 26.476562 144 26.617188 144.082031 26.742188 Z M 156.976562 81.386719 C 156.78125 81.785156 156.945312 82.269531 157.34375 82.464844 C 157.457031 82.523438 157.582031 82.550781 157.699219 82.550781 C 158 82.550781 158.285156 82.382812 158.425781 82.097656 L 158.894531 81.148438 L 162.230469 74.375 L 162.78125 73.25 C 162.855469 73.105469 162.867188 72.945312 162.84375 72.792969 C 162.808594 72.53125 162.664062 72.296875 162.414062 72.171875 C 162.269531 72.101562 162.117188 72.089844 161.96875 72.109375 C 161.707031 72.140625 161.460938 72.285156 161.335938 72.539062 L 161.097656 73.019531 L 157.003906 81.328125 Z M 271.167969 201.015625 L 270.015625 201.015625 L 268.136719 211.277344 L 272.664062 211.277344 L 273.410156 207.222656 L 273.980469 204.09375 L 275.714844 204.09375 C 275.808594 203.9375 275.886719 203.785156 275.957031 203.636719 C 276.15625 203.21875 276.277344 202.820312 276.222656 202.503906 C 276.050781 201.476562 273.429688 201.015625 273.429688 201.015625 Z M 285.117188 205.820312 L 286.117188 211.277344 L 290.644531 211.277344 L 288.765625 201.015625 L 286.691406 201.015625 C 286.792969 202.273438 286.859375 203.382812 286.820312 203.925781 C 286.742188 205.011719 285.988281 205.519531 285.117188 205.820312 Z M 255.898438 225.335938 L 248.976562 225.335938 L 248.652344 226.640625 L 248.363281 227.800781 L 308.558594 227.800781 L 307.949219 225.335938 L 285.117188 225.335938 L 281.695312 211.277344 L 280.867188 211.277344 L 284.289062 225.335938 L 283.09375 225.335938 L 279.671875 211.277344 L 278.84375 211.277344 L 282.265625 225.335938 Z M 305.617188 237.289062 L 289.910156 237.289062 L 287.097656 258.089844 L 302.222656 258.089844 Z M 286.234375 258.441406 C 286.21875 258.558594 286.253906 258.675781 286.328125 258.761719 C 286.40625 258.847656 286.515625 258.898438 286.632812 258.898438 L 302.566406 258.898438 C 302.761719 258.898438 302.933594 258.753906 302.960938 258.558594 L 306.488281 236.949219 C 306.503906 236.832031 306.472656 236.714844 306.398438 236.625 C 306.320312 236.53125 306.207031 236.480469 306.089844 236.480469 L 289.558594 236.480469 C 289.355469 236.480469 289.1875 236.628906 289.160156 236.832031 Z M 257.023438 234.554688 L 308.847656 234.554688 L 304.460938 261.460938 L 252.464844 261.460938 L 248.078125 234.554688 Z M 244.660156 350.511719 L 245.339844 355.085938 L 245.433594 355.097656 C 245.4375 355.09375 245.441406 355.085938 245.441406 355.085938 L 258.898438 355.085938 L 258.898438 355.082031 L 259.316406 350.425781 L 259.320312 350.394531 Z M 188.136719 355.085938 L 201.03125 355.085938 C 201.269531 355.085938 201.5 355.132812 201.714844 355.214844 L 201.789062 354.671875 L 202.359375 350.394531 L 188.339844 350.105469 Z M 214.773438 49.753906 C 214.601562 49.617188 214.347656 49.648438 214.207031 49.820312 C 214.066406 49.996094 214.097656 50.246094 214.273438 50.386719 C 215.414062 51.300781 216.855469 51.808594 218.324219 51.820312 C 218.335938 51.820312 218.351562 51.820312 218.367188 51.820312 C 219.816406 51.820312 221.242188 51.332031 222.394531 50.441406 C 222.566406 50.308594 222.601562 50.050781 222.464844 49.875 C 222.328125 49.699219 222.074219 49.667969 221.898438 49.804688 C 220.878906 50.59375 219.605469 51.015625 218.328125 51.015625 C 217.042969 51.003906 215.777344 50.558594 214.773438 49.753906 Z M 214.765625 39.699219 C 214.222656 39.402344 213.59375 39.3125 212.996094 39.433594 C 212.777344 39.480469 212.636719 39.691406 212.679688 39.910156 C 212.726562 40.128906 212.941406 40.269531 213.15625 40.222656 C 213.566406 40.144531 214.011719 40.207031 214.378906 40.40625 C 214.75 40.605469 215.046875 40.945312 215.199219 41.335938 C 215.261719 41.496094 215.414062 41.59375 215.574219 41.59375 C 215.625 41.59375 215.675781 41.582031 215.722656 41.566406 C 215.929688 41.480469 216.035156 41.246094 215.949219 41.042969 C 215.726562 40.46875 215.304688 39.988281 214.765625 39.699219 Z M 224.359375 41.566406 C 224.566406 41.480469 224.667969 41.246094 224.585938 41.042969 C 224.363281 40.46875 223.941406 39.988281 223.398438 39.699219 C 222.867188 39.410156 222.222656 39.3125 221.628906 39.433594 C 221.410156 39.480469 221.269531 39.691406 221.3125 39.910156 C 221.359375 40.128906 221.570312 40.269531 221.789062 40.222656 C 222.203125 40.140625 222.644531 40.207031 223.015625 40.40625 C 223.386719 40.605469 223.683594 40.945312 223.835938 41.335938 C 223.898438 41.496094 224.050781 41.59375 224.210938 41.59375 C 224.257812 41.59375 224.308594 41.582031 224.359375 41.566406 Z M 214.851562 44.484375 C 215.25 44.484375 215.574219 43.992188 215.574219 43.375 C 215.574219 42.761719 215.25 42.261719 214.851562 42.261719 C 214.449219 42.261719 214.125 42.761719 214.125 43.375 C 214.125 43.992188 214.449219 44.484375 214.851562 44.484375 Z M 223.308594 42.261719 C 222.90625 42.261719 222.582031 42.761719 222.582031 43.375 C 222.582031 43.992188 222.90625 44.484375 223.308594 44.484375 C 223.710938 44.484375 224.035156 43.992188 224.035156 43.375 C 224.035156 42.761719 223.710938 42.261719 223.308594 42.261719 Z M 229.191406 41.539062 L 230.976562 41.539062 C 230.808594 39.898438 231.652344 38.1875 233.082031 37.363281 C 233.113281 37.34375 233.152344 37.332031 233.1875 37.3125 C 233.421875 37.183594 233.675781 37.085938 233.933594 37.011719 C 233.941406 36.863281 233.949219 36.710938 233.953125 36.5625 L 233.015625 36.5 L 227.886719 36.164062 C 227.386719 40.359375 229.191406 41.539062 229.191406 41.539062 Z M 211.320312 37.484375 C 211.320312 37.484375 211.347656 37.488281 211.363281 37.488281 C 211.804688 37.53125 217.945312 38.128906 221.074219 38.128906 C 223.703125 38.128906 226.550781 36.691406 227.546875 36.144531 L 211.953125 35.117188 L 208.769531 34.910156 C 208.652344 37.269531 211.320312 37.484375 211.320312 37.484375 Z M 134.441406 166.496094 C 134.464844 166.535156 134.492188 166.570312 134.519531 166.605469 C 134.464844 166.535156 134.417969 166.460938 134.375 166.378906 C 134.382812 166.390625 134.386719 166.40625 134.394531 166.414062 C 134.410156 166.441406 134.421875 166.46875 134.441406 166.496094 Z M 134.375 166.378906 C 134.335938 166.300781 134.300781 166.214844 134.273438 166.128906 C 134.289062 166.175781 134.300781 166.222656 134.320312 166.269531 C 134.335938 166.308594 134.355469 166.339844 134.375 166.378906 Z M 134.773438 166.855469 C 134.75 166.839844 134.734375 166.820312 134.710938 166.800781 C 134.738281 166.820312 134.757812 166.847656 134.785156 166.863281 C 134.78125 166.859375 134.777344 166.859375 134.773438 166.855469 Z M 94.875 349.003906 L 119.496094 349.003906 L 119.496094 167.132812 L 129.648438 167.132812 L 129.648438 165.519531 L 117.882812 165.519531 L 117.882812 347.390625 L 94.875 347.390625 Z M 151.511719 167.140625 L 186.921875 167.148438 L 186.992188 165.511719 L 151.511719 165.519531 Z M 135.019531 177.234375 L 133.40625 177.234375 L 133.40625 356.847656 L 94.875 356.847656 L 94.875 358.464844 L 135.019531 358.464844 L 135.019531 343.261719 L 179.199219 343.261719 L 179.269531 341.648438 L 135.019531 341.648438 L 135.019531 335.589844 L 179.535156 335.589844 L 179.605469 333.976562 L 135.019531 333.976562 L 135.019531 306.179688 L 180.824219 306.183594 L 180.894531 304.574219 L 135.019531 304.566406 L 135.019531 298.511719 L 181.160156 298.519531 L 181.230469 296.898438 L 135.019531 296.898438 Z M 269.832031 165.503906 L 246.078125 165.507812 C 246.078125 166.054688 246.074219 166.601562 246.09375 167.15625 L 270.0625 167.160156 C 269.988281 166.625 269.910156 166.078125 269.832031 165.503906 Z M 319.300781 287.34375 L 319.300781 167.171875 L 324.972656 167.171875 L 324.464844 165.5 L 285.117188 165.503906 C 285.148438 166.058594 285.183594 166.613281 285.214844 167.164062 L 317.691406 167.171875 L 317.691406 287.34375 Z M 366.265625 333.054688 L 332.257812 333.054688 C 331.453125 333.054688 330.804688 333.707031 330.804688 334.511719 L 330.804688 338.964844 L 318.496094 338.964844 L 318.496094 340.578125 L 330.804688 340.578125 L 330.804688 345.03125 C 330.804688 345.835938 331.453125 346.488281 332.257812 346.488281 L 366.265625 346.488281 C 367.070312 346.488281 367.722656 345.835938 367.722656 345.03125 L 367.722656 334.511719 C 367.722656 333.707031 367.070312 333.054688 366.265625 333.054688 Z M 291.148438 38.496094 L 287.4375 38.496094 L 287.4375 1.613281 L 311.554688 1.613281 L 311.554688 161.148438 L 313.167969 161.148438 L 313.167969 0 L 285.824219 0 L 285.824219 38.496094 L 282.117188 38.496094 L 282.117188 45.59375 L 291.148438 45.59375 Z M 298.136719 315.558594 L 298.136719 325.664062 L 299.75 325.664062 L 299.75 315.558594 Z M 123.78125 120.328125 L 123.78125 115.539062 L 119.398438 115.539062 L 119.398438 120.328125 Z M 123.78125 95.867188 L 123.78125 91.078125 L 119.398438 91.078125 L 119.398438 95.867188 Z M 123.78125 71.402344 L 123.78125 66.613281 L 119.398438 66.613281 L 119.398438 71.402344 Z M 147.914062 161.953125 L 147.914062 154.722656 L 133.246094 154.722656 L 133.246094 162.023438 L 147.914062 162.023438 Z M 208.011719 296.898438 L 207.839844 298.523438 L 230.421875 298.527344 L 230.226562 296.898438 Z M 279.371094 296.898438 L 260.921875 296.898438 C 260.929688 297.445312 260.9375 297.992188 260.941406 298.535156 L 279.371094 298.539062 Z M 207.199219 304.574219 L 207.027344 306.191406 L 231.335938 306.191406 L 231.144531 304.578125 Z M 203.925781 335.589844 L 234.859375 335.589844 L 234.664062 333.976562 L 204.09375 333.976562 Z M 203.285156 341.648438 L 203.113281 343.261719 L 235.777344 343.261719 L 235.585938 341.648438 Z M 260.980469 306.195312 L 279.371094 306.195312 L 279.386719 304.585938 L 260.980469 304.582031 C 260.980469 305.121094 260.980469 305.664062 260.980469 306.195312 Z M 259.835938 343.261719 L 279.238281 343.261719 L 279.238281 341.648438 L 259.9375 341.648438 C 259.902344 342.199219 259.871094 342.738281 259.835938 343.261719 Z M 260.34375 333.976562 L 279.238281 333.976562 L 279.238281 335.589844 L 260.269531 335.589844 C 260.296875 335.0625 260.320312 334.523438 260.34375 333.976562 " fill-opacity="1" fill-rule="nonzero"/></svg>