<svg xmlns="http://www.w3.org/2000/svg" xmlns:xlink="http://www.w3.org/1999/xlink" width="800" zoomAndPan="magnify" viewBox="0 0 600 449.999984" height="600" preserveAspectRatio="xMidYMid meet" version="1.0"><path fill="#000000" d="M 300.449219 450.269531 L 295.964844 447.667969 C 292.011719 445.378906 288.09375 443.023438 284.21875 440.605469 C 280.339844 438.1875 276.503906 435.707031 272.707031 433.164062 C 268.910156 430.621094 265.15625 428.015625 261.445312 425.351562 C 257.730469 422.683594 254.066406 419.957031 250.441406 417.171875 C 246.820312 414.386719 243.242188 411.542969 239.714844 408.640625 C 236.183594 405.738281 232.703125 402.777344 229.269531 399.761719 C 225.835938 396.746094 222.453125 393.675781 219.117188 390.550781 C 215.785156 387.421875 212.503906 384.242188 209.277344 381.007812 C 206.046875 377.773438 202.871094 374.488281 199.75 371.152344 C 196.628906 367.816406 193.5625 364.425781 190.550781 360.992188 C 187.539062 357.554688 184.582031 354.066406 181.6875 350.535156 C 178.789062 347 175.949219 343.417969 173.167969 339.792969 C 170.386719 336.167969 167.667969 332.496094 165.007812 328.78125 C 162.34375 325.066406 159.746094 321.308594 157.207031 317.507812 C 154.667969 313.707031 152.195312 309.867188 149.78125 305.984375 C 147.367188 302.105469 145.019531 298.183594 142.734375 294.226562 C 140.449219 290.269531 138.230469 286.273438 136.074219 282.246094 C 133.921875 278.214844 131.832031 274.152344 129.8125 270.050781 C 127.789062 265.953125 125.835938 261.824219 123.949219 257.660156 C 122.0625 253.5 120.242188 249.308594 118.492188 245.085938 C 116.742188 240.863281 115.0625 236.617188 113.449219 232.339844 C 111.839844 228.0625 110.296875 223.761719 108.828125 219.433594 C 107.355469 215.109375 105.957031 210.757812 104.625 206.386719 C 103.296875 202.015625 102.039062 197.621094 100.855469 193.207031 C 99.667969 188.792969 98.554688 184.363281 97.515625 179.914062 C 96.472656 175.464844 95.503906 170.996094 94.609375 166.515625 C 93.714844 162.035156 92.894531 157.539062 92.144531 153.03125 C 91.394531 148.523438 90.722656 144.003906 90.121094 139.472656 C 89.519531 134.945312 88.992188 130.40625 88.539062 125.859375 C 88.085938 121.308594 87.707031 116.757812 87.40625 112.195312 C 87.101562 107.636719 86.871094 103.074219 86.714844 98.507812 C 86.5625 93.9375 86.480469 89.371094 86.472656 84.800781 L 86.472656 78.882812 L 300.449219 0.0898438 L 514.421875 78.882812 L 514.421875 85.160156 C 514.414062 89.726562 514.328125 94.289062 514.167969 98.855469 C 514.011719 103.417969 513.777344 107.976562 513.46875 112.53125 C 513.164062 117.089844 512.78125 121.636719 512.324219 126.179688 C 511.867188 130.722656 511.339844 135.257812 510.734375 139.785156 C 510.132812 144.3125 509.453125 148.828125 508.703125 153.332031 C 507.953125 157.835938 507.128906 162.324219 506.230469 166.800781 C 505.332031 171.277344 504.363281 175.742188 503.320312 180.1875 C 502.277344 184.632812 501.160156 189.058594 499.972656 193.46875 C 498.785156 197.875 497.527344 202.265625 496.195312 206.632812 C 494.863281 211 493.464844 215.347656 491.992188 219.667969 C 490.519531 223.992188 488.976562 228.289062 487.363281 232.558594 C 485.75 236.832031 484.070312 241.074219 482.320312 245.292969 C 480.566406 249.511719 478.75 253.699219 476.859375 257.855469 C 474.972656 262.011719 473.019531 266.140625 470.996094 270.234375 C 468.972656 274.328125 466.886719 278.386719 464.730469 282.414062 C 462.578125 286.4375 460.355469 290.429688 458.074219 294.382812 C 455.789062 298.335938 453.4375 302.25 451.027344 306.128906 C 448.613281 310.003906 446.140625 313.839844 443.601562 317.636719 C 441.0625 321.433594 438.464844 325.1875 435.804688 328.898438 C 433.144531 332.609375 430.425781 336.277344 427.644531 339.898438 C 424.867188 343.523438 422.027344 347.097656 419.132812 350.628906 C 416.234375 354.160156 413.28125 357.640625 410.273438 361.074219 C 407.261719 364.507812 404.199219 367.890625 401.078125 371.226562 C 397.957031 374.558594 394.785156 377.84375 391.558594 381.070312 C 388.328125 384.300781 385.050781 387.480469 381.71875 390.601562 C 378.390625 393.726562 375.007812 396.792969 371.578125 399.808594 C 368.148438 402.820312 364.667969 405.777344 361.140625 408.675781 C 357.613281 411.574219 354.039062 414.417969 350.417969 417.199219 C 346.800781 419.984375 343.132812 422.707031 339.425781 425.371094 C 335.714844 428.035156 331.964844 430.636719 328.171875 433.175781 C 324.378906 435.71875 320.542969 438.195312 316.667969 440.613281 C 312.792969 443.027344 308.882812 445.378906 304.929688 447.667969 Z M 104.492188 91.074219 C 104.636719 99.585938 105.050781 108.082031 105.734375 116.566406 C 106.417969 125.046875 107.367188 133.5 108.589844 141.921875 C 109.808594 150.347656 111.296875 158.722656 113.046875 167.050781 C 114.800781 175.378906 116.816406 183.644531 119.09375 191.84375 C 121.371094 200.042969 123.90625 208.164062 126.699219 216.203125 C 129.492188 224.242188 132.539062 232.183594 135.835938 240.03125 C 139.132812 247.875 142.675781 255.609375 146.464844 263.230469 C 150.253906 270.851562 154.28125 278.34375 158.546875 285.710938 C 162.8125 293.074219 167.304688 300.296875 172.027344 307.375 C 176.753906 314.457031 181.695312 321.378906 186.859375 328.144531 C 192.023438 334.910156 197.394531 341.503906 202.976562 347.929688 C 208.558594 354.351562 214.339844 360.59375 220.320312 366.648438 C 226.296875 372.707031 232.460938 378.570312 238.8125 384.234375 C 245.164062 389.898438 251.6875 395.359375 258.386719 400.609375 C 265.082031 405.859375 271.941406 410.894531 278.957031 415.707031 C 285.976562 420.523438 293.140625 425.113281 300.449219 429.472656 C 307.757812 425.113281 314.921875 420.523438 321.9375 415.707031 C 328.953125 410.894531 335.8125 405.859375 342.511719 400.609375 C 349.207031 395.359375 355.730469 389.898438 362.082031 384.234375 C 368.433594 378.570312 374.597656 372.707031 380.578125 366.648438 C 386.554688 360.59375 392.335938 354.351562 397.917969 347.929688 C 403.5 341.503906 408.875 334.910156 414.039062 328.144531 C 419.199219 321.378906 424.144531 314.457031 428.867188 307.375 C 433.589844 300.296875 438.085938 293.074219 442.351562 285.710938 C 446.617188 278.34375 450.640625 270.851562 454.429688 263.230469 C 458.21875 255.609375 461.761719 247.875 465.0625 240.03125 C 468.359375 232.183594 471.40625 224.242188 474.199219 216.203125 C 476.992188 208.164062 479.527344 200.042969 481.804688 191.84375 C 484.082031 183.644531 486.097656 175.378906 487.847656 167.050781 C 489.601562 158.722656 491.085938 150.347656 492.308594 141.921875 C 493.527344 133.5 494.480469 125.046875 495.164062 116.566406 C 495.847656 108.082031 496.261719 99.585938 496.40625 91.074219 L 300.449219 19.183594 Z M 104.492188 91.074219 " fill-opacity="1" fill-rule="nonzero"/><path fill="#000000" d="M 300.449219 338.84375 C 299.054688 338.839844 297.660156 338.804688 296.269531 338.734375 C 294.875 338.664062 293.484375 338.558594 292.097656 338.417969 C 290.710938 338.277344 289.328125 338.105469 287.949219 337.898438 C 286.570312 337.691406 285.195312 337.449219 283.828125 337.175781 C 282.460938 336.902344 281.101562 336.59375 279.75 336.253906 C 278.398438 335.914062 277.054688 335.539062 275.722656 335.132812 C 274.386719 334.726562 273.066406 334.289062 271.753906 333.816406 C 270.441406 333.34375 269.140625 332.84375 267.851562 332.308594 C 266.566406 331.773438 265.292969 331.207031 264.03125 330.609375 C 262.769531 330.011719 261.527344 329.382812 260.296875 328.726562 C 259.066406 328.066406 257.855469 327.378906 256.660156 326.660156 C 255.464844 325.945312 254.289062 325.199219 253.128906 324.421875 C 251.96875 323.648438 250.832031 322.84375 249.710938 322.011719 C 248.589844 321.183594 247.492188 320.324219 246.414062 319.4375 C 245.335938 318.554688 244.28125 317.644531 243.25 316.707031 C 242.214844 315.769531 241.207031 314.808594 240.21875 313.824219 C 239.234375 312.835938 238.273438 311.828125 237.335938 310.792969 C 236.398438 309.761719 235.488281 308.707031 234.605469 307.628906 C 233.71875 306.550781 232.863281 305.453125 232.03125 304.332031 C 231.199219 303.214844 230.394531 302.074219 229.621094 300.914062 C 228.847656 299.757812 228.097656 298.578125 227.382812 297.382812 C 226.664062 296.1875 225.976562 294.976562 225.316406 293.746094 C 224.660156 292.515625 224.03125 291.273438 223.433594 290.011719 C 222.835938 288.753906 222.269531 287.480469 221.734375 286.191406 C 221.203125 284.902344 220.699219 283.601562 220.226562 282.292969 C 219.753906 280.980469 219.316406 279.65625 218.910156 278.320312 C 218.503906 276.988281 218.128906 275.644531 217.789062 274.292969 C 217.449219 272.941406 217.140625 271.582031 216.867188 270.214844 C 216.59375 268.847656 216.351562 267.472656 216.144531 266.09375 C 215.9375 264.714844 215.765625 263.332031 215.625 261.945312 C 215.488281 260.558594 215.382812 259.167969 215.308594 257.777344 C 215.238281 256.382812 215.203125 254.988281 215.199219 253.59375 C 215.199219 210.03125 285.03125 103.804688 293.007812 92.242188 L 300.449219 80.585938 L 307.886719 91.882812 C 315.867188 103.804688 385.695312 210.03125 385.695312 253.238281 C 385.699219 254.636719 385.667969 256.03125 385.601562 257.429688 C 385.539062 258.824219 385.4375 260.21875 385.304688 261.613281 C 385.167969 263.003906 385 264.390625 384.800781 265.773438 C 384.597656 267.15625 384.359375 268.535156 384.089844 269.90625 C 383.820312 271.277344 383.515625 272.644531 383.179688 274 C 382.84375 275.355469 382.472656 276.703125 382.070312 278.042969 C 381.667969 279.382812 381.230469 280.710938 380.765625 282.027344 C 380.296875 283.34375 379.796875 284.648438 379.261719 285.941406 C 378.730469 287.234375 378.167969 288.515625 377.570312 289.78125 C 376.976562 291.042969 376.351562 292.292969 375.695312 293.527344 C 375.039062 294.761719 374.351562 295.980469 373.636719 297.179688 C 372.917969 298.382812 372.175781 299.566406 371.398438 300.730469 C 370.625 301.894531 369.824219 303.039062 368.992188 304.160156 C 368.160156 305.285156 367.304688 306.390625 366.417969 307.472656 C 365.535156 308.554688 364.625 309.617188 363.6875 310.652344 C 362.75 311.691406 361.789062 312.707031 360.800781 313.695312 C 359.816406 314.6875 358.804688 315.652344 357.773438 316.59375 C 356.738281 317.535156 355.679688 318.449219 354.601562 319.339844 C 353.523438 320.230469 352.421875 321.089844 351.300781 321.925781 C 350.179688 322.761719 349.039062 323.570312 347.878906 324.347656 C 346.71875 325.128906 345.539062 325.878906 344.339844 326.597656 C 343.144531 327.320312 341.929688 328.011719 340.699219 328.671875 C 339.464844 329.335938 338.21875 329.964844 336.957031 330.566406 C 335.695312 331.167969 334.417969 331.734375 333.125 332.273438 C 331.835938 332.8125 330.53125 333.316406 329.21875 333.789062 C 327.902344 334.265625 326.574219 334.707031 325.238281 335.113281 C 323.902344 335.523438 322.554688 335.898438 321.199219 336.242188 C 319.84375 336.582031 318.480469 336.890625 317.109375 337.167969 C 315.742188 337.445312 314.363281 337.6875 312.980469 337.894531 C 311.597656 338.101562 310.210938 338.277344 308.820312 338.414062 C 307.429688 338.554688 306.035156 338.660156 304.640625 338.734375 C 303.242188 338.804688 301.847656 338.839844 300.449219 338.84375 Z M 300.449219 113.21875 C 276.515625 150.597656 233.128906 224.640625 233.128906 253.59375 C 233.070312 254.730469 233.039062 255.871094 233.039062 257.007812 C 233.035156 258.144531 233.066406 259.28125 233.121094 260.417969 C 233.179688 261.554688 233.261719 262.691406 233.378906 263.824219 C 233.492188 264.953125 233.632812 266.082031 233.804688 267.207031 C 233.976562 268.332031 234.175781 269.453125 234.40625 270.566406 C 234.632812 271.683594 234.890625 272.792969 235.175781 273.894531 C 235.457031 274.996094 235.769531 276.089844 236.109375 277.175781 C 236.449219 278.261719 236.816406 279.335938 237.210938 280.40625 C 237.605469 281.472656 238.027344 282.527344 238.476562 283.574219 C 238.921875 284.621094 239.398438 285.65625 239.898438 286.675781 C 240.398438 287.699219 240.925781 288.707031 241.476562 289.703125 C 242.027344 290.699219 242.605469 291.679688 243.207031 292.644531 C 243.808594 293.613281 244.433594 294.5625 245.082031 295.496094 C 245.730469 296.429688 246.40625 297.347656 247.101562 298.246094 C 247.796875 299.148438 248.515625 300.03125 249.257812 300.894531 C 249.996094 301.757812 250.757812 302.601562 251.542969 303.425781 C 252.328125 304.253906 253.128906 305.058594 253.957031 305.84375 C 254.78125 306.625 255.625 307.390625 256.488281 308.132812 C 257.351562 308.871094 258.230469 309.589844 259.128906 310.289062 C 260.03125 310.984375 260.945312 311.660156 261.878906 312.308594 C 262.816406 312.960938 263.765625 313.585938 264.730469 314.1875 C 265.695312 314.789062 266.675781 315.367188 267.671875 315.921875 C 268.664062 316.472656 269.671875 317 270.695312 317.5 C 271.714844 318.003906 272.75 318.480469 273.796875 318.925781 C 274.839844 319.375 275.898438 319.796875 276.964844 320.195312 C 278.03125 320.589844 279.109375 320.957031 280.195312 321.296875 C 281.28125 321.640625 282.375 321.953125 283.476562 322.238281 C 284.578125 322.523438 285.683594 322.78125 286.800781 323.011719 C 287.914062 323.238281 289.035156 323.441406 290.160156 323.613281 C 291.285156 323.785156 292.410156 323.929688 293.542969 324.042969 C 294.675781 324.160156 295.808594 324.246094 296.945312 324.304688 C 298.082031 324.359375 299.21875 324.390625 300.359375 324.390625 C 301.496094 324.390625 302.632812 324.359375 303.769531 324.304688 C 304.90625 324.246094 306.042969 324.160156 307.171875 324.042969 C 308.304688 323.929688 309.433594 323.785156 310.558594 323.613281 C 311.683594 323.441406 312.804688 323.238281 313.917969 323.011719 C 315.03125 322.78125 316.140625 322.523438 317.242188 322.238281 C 318.34375 321.953125 319.4375 321.640625 320.523438 321.296875 C 321.609375 320.957031 322.683594 320.589844 323.753906 320.195312 C 324.820312 319.796875 325.875 319.375 326.921875 318.925781 C 327.96875 318.480469 329 318.003906 330.023438 317.5 C 331.042969 317 332.050781 316.472656 333.046875 315.921875 C 334.042969 315.367188 335.023438 314.789062 335.988281 314.1875 C 336.953125 313.585938 337.902344 312.960938 338.835938 312.308594 C 339.769531 311.660156 340.6875 310.984375 341.585938 310.289062 C 342.484375 309.589844 343.367188 308.871094 344.230469 308.132812 C 345.09375 307.390625 345.9375 306.625 346.761719 305.84375 C 347.585938 305.058594 348.390625 304.253906 349.175781 303.425781 C 349.957031 302.601562 350.71875 301.757812 351.460938 300.894531 C 352.203125 300.03125 352.921875 299.148438 353.617188 298.246094 C 354.3125 297.347656 354.984375 296.429688 355.632812 295.496094 C 356.285156 294.5625 356.910156 293.613281 357.511719 292.644531 C 358.113281 291.679688 358.6875 290.699219 359.242188 289.703125 C 359.792969 288.707031 360.316406 287.699219 360.820312 286.675781 C 361.320312 285.65625 361.792969 284.621094 362.242188 283.574219 C 362.691406 282.527344 363.109375 281.472656 363.503906 280.40625 C 363.898438 279.335938 364.265625 278.261719 364.605469 277.175781 C 364.945312 276.089844 365.257812 274.996094 365.542969 273.894531 C 365.828125 272.792969 366.082031 271.683594 366.3125 270.566406 C 366.539062 269.453125 366.738281 268.332031 366.910156 267.207031 C 367.082031 266.082031 367.226562 264.953125 367.339844 263.820312 C 367.453125 262.691406 367.539062 261.554688 367.597656 260.417969 C 367.652344 259.28125 367.679688 258.144531 367.679688 257.007812 C 367.679688 255.871094 367.648438 254.730469 367.589844 253.59375 C 367.769531 224.640625 324.382812 150.597656 300.449219 113.21875 Z M 300.449219 113.21875 " fill-opacity="1" fill-rule="nonzero"/><path fill="#000000" d="M 282.519531 279.769531 L 258.226562 255.566406 L 270.957031 242.839844 L 282.519531 254.492188 L 329.941406 206.980469 L 342.667969 219.710938 Z M 282.519531 279.769531 " fill-opacity="1" fill-rule="nonzero"/></svg>