<svg xmlns="http://www.w3.org/2000/svg" xmlns:xlink="http://www.w3.org/1999/xlink" width="500" zoomAndPan="magnify" viewBox="0 0 375 50.249999" height="67" preserveAspectRatio="xMidYMid meet" version="1.0"><defs><g/></defs><g fill="#ffffff" fill-opacity="1"><g transform="translate(3.149936, 38.728692)"><g><path d="M 11.625 -2.40625 L 11.625 -10.15625 L 3.875 -10.15625 L 3.875 -13.4375 L 11.625 -13.4375 L 11.625 -21.1875 L 14.90625 -21.1875 L 14.90625 -13.4375 L 22.65625 -13.4375 L 22.65625 -10.15625 L 14.90625 -10.15625 L 14.90625 -2.40625 Z M 11.625 -2.40625 "/></g></g></g><g fill="#ffffff" fill-opacity="1"><g transform="translate(29.67487, 38.728692)"><g><path d="M 12.5 0.40625 C 10.78125 0.40625 9.226562 0.0664062 7.84375 -0.609375 C 6.46875 -1.296875 5.363281 -2.234375 4.53125 -3.421875 C 3.695312 -4.617188 3.242188 -5.984375 3.171875 -7.515625 L 6.6875 -7.515625 C 6.820312 -6.148438 7.441406 -5.023438 8.546875 -4.140625 C 9.648438 -3.253906 10.96875 -2.8125 12.5 -2.8125 C 13.726562 -2.8125 14.820312 -3.097656 15.78125 -3.671875 C 16.75 -4.253906 17.507812 -5.050781 18.0625 -6.0625 C 18.613281 -7.070312 18.890625 -8.21875 18.890625 -9.5 C 18.890625 -10.8125 18.601562 -11.984375 18.03125 -13.015625 C 17.457031 -14.046875 16.671875 -14.859375 15.671875 -15.453125 C 14.679688 -16.054688 13.546875 -16.363281 12.265625 -16.375 C 11.347656 -16.382812 10.40625 -16.242188 9.4375 -15.953125 C 8.46875 -15.660156 7.671875 -15.289062 7.046875 -14.84375 L 3.640625 -15.25 L 5.453125 -30.046875 L 21.0625 -30.046875 L 21.0625 -26.8125 L 8.515625 -26.8125 L 7.453125 -17.953125 L 7.625 -17.953125 C 8.238281 -18.441406 9.007812 -18.847656 9.9375 -19.171875 C 10.875 -19.492188 11.84375 -19.65625 12.84375 -19.65625 C 14.6875 -19.65625 16.328125 -19.21875 17.765625 -18.34375 C 19.210938 -17.46875 20.347656 -16.269531 21.171875 -14.75 C 22.003906 -13.238281 22.421875 -11.507812 22.421875 -9.5625 C 22.421875 -7.644531 21.988281 -5.9375 21.125 -4.4375 C 20.269531 -2.9375 19.09375 -1.753906 17.59375 -0.890625 C 16.101562 -0.0234375 14.40625 0.40625 12.5 0.40625 Z M 12.5 0.40625 "/></g></g></g><g fill="#ffffff" fill-opacity="1"><g transform="translate(54.7914, 38.728692)"><g><path d="M 3.109375 0 L 3.109375 -2.640625 L 13.03125 -13.5 C 14.1875 -14.769531 15.140625 -15.875 15.890625 -16.8125 C 16.648438 -17.757812 17.210938 -18.648438 17.578125 -19.484375 C 17.953125 -20.328125 18.140625 -21.207031 18.140625 -22.125 C 18.140625 -23.707031 17.585938 -24.960938 16.484375 -25.890625 C 15.378906 -26.816406 14.007812 -27.28125 12.375 -27.28125 C 10.632812 -27.28125 9.25 -26.757812 8.21875 -25.71875 C 7.195312 -24.675781 6.6875 -23.300781 6.6875 -21.59375 L 3.234375 -21.59375 C 3.234375 -23.351562 3.632812 -24.894531 4.4375 -26.21875 C 5.25 -27.550781 6.359375 -28.585938 7.765625 -29.328125 C 9.171875 -30.078125 10.75 -30.453125 12.5 -30.453125 C 14.257812 -30.453125 15.816406 -30.078125 17.171875 -29.328125 C 18.535156 -28.585938 19.601562 -27.585938 20.375 -26.328125 C 21.144531 -25.066406 21.53125 -23.664062 21.53125 -22.125 C 21.53125 -21.019531 21.332031 -19.941406 20.9375 -18.890625 C 20.539062 -17.835938 19.851562 -16.664062 18.875 -15.375 C 17.90625 -14.09375 16.5625 -12.53125 14.84375 -10.6875 L 8.09375 -3.46875 L 8.09375 -3.234375 L 22.0625 -3.234375 L 22.0625 0 Z M 3.109375 0 "/></g></g></g><g fill="#ffffff" fill-opacity="1"><g transform="translate(79.790561, 38.728692)"><g/></g></g><g fill="#ffffff" fill-opacity="1"><g transform="translate(91.409885, 38.728692)"><g><path d="M 12.734375 0.40625 C 10.722656 0.40625 8.945312 0.046875 7.40625 -0.671875 C 5.863281 -1.390625 4.660156 -2.378906 3.796875 -3.640625 C 2.941406 -4.910156 2.515625 -6.359375 2.515625 -7.984375 C 2.515625 -9.253906 2.765625 -10.425781 3.265625 -11.5 C 3.773438 -12.582031 4.472656 -13.488281 5.359375 -14.21875 C 6.242188 -14.945312 7.234375 -15.410156 8.328125 -15.609375 L 8.328125 -15.78125 C 6.890625 -16.15625 5.742188 -16.960938 4.890625 -18.203125 C 4.046875 -19.453125 3.628906 -20.875 3.640625 -22.46875 C 3.628906 -24 4.015625 -25.363281 4.796875 -26.5625 C 5.578125 -27.769531 6.65625 -28.71875 8.03125 -29.40625 C 9.40625 -30.101562 10.972656 -30.453125 12.734375 -30.453125 C 14.472656 -30.453125 16.023438 -30.101562 17.390625 -29.40625 C 18.765625 -28.71875 19.84375 -27.769531 20.625 -26.5625 C 21.414062 -25.363281 21.816406 -24 21.828125 -22.46875 C 21.816406 -20.875 21.382812 -19.453125 20.53125 -18.203125 C 19.675781 -16.960938 18.546875 -16.15625 17.140625 -15.78125 L 17.140625 -15.609375 C 18.222656 -15.410156 19.195312 -14.945312 20.0625 -14.21875 C 20.9375 -13.488281 21.632812 -12.582031 22.15625 -11.5 C 22.675781 -10.425781 22.9375 -9.253906 22.9375 -7.984375 C 22.9375 -6.359375 22.5 -4.910156 21.625 -3.640625 C 20.757812 -2.378906 19.5625 -1.390625 18.03125 -0.671875 C 16.5 0.046875 14.734375 0.40625 12.734375 0.40625 Z M 12.734375 -2.8125 C 14.765625 -2.8125 16.375 -3.296875 17.5625 -4.265625 C 18.75 -5.242188 19.347656 -6.539062 19.359375 -8.15625 C 19.347656 -9.289062 19.054688 -10.289062 18.484375 -11.15625 C 17.910156 -12.03125 17.125 -12.71875 16.125 -13.21875 C 15.132812 -13.71875 14.003906 -13.96875 12.734375 -13.96875 C 11.453125 -13.96875 10.3125 -13.71875 9.3125 -13.21875 C 8.3125 -12.71875 7.523438 -12.03125 6.953125 -11.15625 C 6.378906 -10.289062 6.097656 -9.289062 6.109375 -8.15625 C 6.097656 -6.539062 6.679688 -5.242188 7.859375 -4.265625 C 9.046875 -3.296875 10.671875 -2.8125 12.734375 -2.8125 Z M 12.734375 -17.078125 C 14.347656 -17.078125 15.675781 -17.546875 16.71875 -18.484375 C 17.769531 -19.429688 18.300781 -20.679688 18.3125 -22.234375 C 18.300781 -23.765625 17.785156 -24.988281 16.765625 -25.90625 C 15.742188 -26.820312 14.398438 -27.28125 12.734375 -27.28125 C 11.046875 -27.28125 9.691406 -26.820312 8.671875 -25.90625 C 7.648438 -24.988281 7.144531 -23.765625 7.15625 -22.234375 C 7.144531 -20.679688 7.660156 -19.429688 8.703125 -18.484375 C 9.742188 -17.546875 11.085938 -17.078125 12.734375 -17.078125 Z M 12.734375 -17.078125 "/></g></g></g><g fill="#ffffff" fill-opacity="1"><g transform="translate(116.878513, 38.728692)"><g><path d="M 12.734375 -30.046875 L 12.734375 0 L 9.09375 0 L 9.09375 -24.765625 L 8.859375 -24.765625 C 8.722656 -24.492188 8.367188 -24.179688 7.796875 -23.828125 C 7.234375 -23.484375 6.5 -23.179688 5.59375 -22.921875 C 4.695312 -22.660156 3.671875 -22.53125 2.515625 -22.53125 L 2.515625 -25.578125 C 3.679688 -25.578125 4.691406 -25.785156 5.546875 -26.203125 C 6.398438 -26.628906 7.109375 -27.125 7.671875 -27.6875 C 8.242188 -28.257812 8.679688 -28.773438 8.984375 -29.234375 C 9.285156 -29.691406 9.457031 -29.960938 9.5 -30.046875 Z M 12.734375 -30.046875 "/></g></g></g><g fill="#ffffff" fill-opacity="1"><g transform="translate(135.129076, 38.728692)"><g/></g></g><g fill="#ffffff" fill-opacity="1"><g transform="translate(146.7484, 38.728692)"><g><path d="M 12.734375 -30.046875 L 12.734375 0 L 9.09375 0 L 9.09375 -24.765625 L 8.859375 -24.765625 C 8.722656 -24.492188 8.367188 -24.179688 7.796875 -23.828125 C 7.234375 -23.484375 6.5 -23.179688 5.59375 -22.921875 C 4.695312 -22.660156 3.671875 -22.53125 2.515625 -22.53125 L 2.515625 -25.578125 C 3.679688 -25.578125 4.691406 -25.785156 5.546875 -26.203125 C 6.398438 -26.628906 7.109375 -27.125 7.671875 -27.6875 C 8.242188 -28.257812 8.679688 -28.773438 8.984375 -29.234375 C 9.285156 -29.691406 9.457031 -29.960938 9.5 -30.046875 Z M 12.734375 -30.046875 "/></g></g></g><g fill="#ffffff" fill-opacity="1"><g transform="translate(164.998963, 38.728692)"><g><path d="M 4.046875 0 L 17.484375 -26.578125 L 17.484375 -26.8125 L 2 -26.8125 L 2 -30.046875 L 21.25 -30.046875 L 21.25 -26.640625 L 7.859375 0 Z M 4.046875 0 "/></g></g></g><g fill="#ffffff" fill-opacity="1"><g transform="translate(188.58972, 38.728692)"><g/></g></g><g fill="#ffffff" fill-opacity="1"><g transform="translate(200.209033, 38.728692)"><g><path d="M 12.734375 -30.046875 L 12.734375 0 L 9.09375 0 L 9.09375 -24.765625 L 8.859375 -24.765625 C 8.722656 -24.492188 8.367188 -24.179688 7.796875 -23.828125 C 7.234375 -23.484375 6.5 -23.179688 5.59375 -22.921875 C 4.695312 -22.660156 3.671875 -22.53125 2.515625 -22.53125 L 2.515625 -25.578125 C 3.679688 -25.578125 4.691406 -25.785156 5.546875 -26.203125 C 6.398438 -26.628906 7.109375 -27.125 7.671875 -27.6875 C 8.242188 -28.257812 8.679688 -28.773438 8.984375 -29.234375 C 9.285156 -29.691406 9.457031 -29.960938 9.5 -30.046875 Z M 12.734375 -30.046875 "/></g></g></g><g fill="#ffffff" fill-opacity="1"><g transform="translate(218.459585, 38.728692)"><g><path d="M 12.90625 0.40625 C 9.59375 0.40625 7.023438 -0.9375 5.203125 -3.625 C 3.378906 -6.3125 2.46875 -10.109375 2.46875 -15.015625 C 2.46875 -19.890625 3.382812 -23.679688 5.21875 -26.390625 C 7.0625 -29.097656 9.625 -30.453125 12.90625 -30.453125 C 16.195312 -30.453125 18.757812 -29.097656 20.59375 -26.390625 C 22.4375 -23.679688 23.359375 -19.890625 23.359375 -15.015625 C 23.359375 -10.109375 22.445312 -6.3125 20.625 -3.625 C 18.800781 -0.9375 16.226562 0.40625 12.90625 0.40625 Z M 12.90625 -2.8125 C 15.101562 -2.8125 16.804688 -3.867188 18.015625 -5.984375 C 19.222656 -8.097656 19.828125 -11.109375 19.828125 -15.015625 C 19.828125 -18.921875 19.21875 -21.941406 18 -24.078125 C 16.78125 -26.210938 15.082031 -27.28125 12.90625 -27.28125 C 10.738281 -27.28125 9.039062 -26.210938 7.8125 -24.078125 C 6.59375 -21.941406 5.984375 -18.921875 5.984375 -15.015625 C 5.984375 -11.109375 6.59375 -8.097656 7.8125 -5.984375 C 9.03125 -3.867188 10.726562 -2.8125 12.90625 -2.8125 Z M 12.90625 -2.8125 "/></g></g></g><g fill="#ffffff" fill-opacity="1"><g transform="translate(244.280299, 38.728692)"><g/></g></g><g fill="#ffffff" fill-opacity="1"><g transform="translate(255.899623, 38.728692)"><g><path d="M 12.671875 -30.515625 C 13.910156 -30.503906 15.144531 -30.269531 16.375 -29.8125 C 17.601562 -29.351562 18.722656 -28.585938 19.734375 -27.515625 C 20.753906 -26.453125 21.570312 -25.003906 22.1875 -23.171875 C 22.8125 -21.335938 23.125 -19.03125 23.125 -16.25 C 23.125 -10.914062 22.144531 -6.804688 20.1875 -3.921875 C 18.238281 -1.035156 15.578125 0.40625 12.203125 0.40625 C 9.679688 0.40625 7.582031 -0.328125 5.90625 -1.796875 C 4.238281 -3.265625 3.226562 -5.1875 2.875 -7.5625 L 6.453125 -7.5625 C 6.773438 -6.1875 7.414062 -5.050781 8.375 -4.15625 C 9.34375 -3.257812 10.617188 -2.8125 12.203125 -2.8125 C 14.523438 -2.8125 16.359375 -3.820312 17.703125 -5.84375 C 19.046875 -7.875 19.71875 -10.738281 19.71875 -14.4375 L 19.484375 -14.4375 C 18.660156 -13.207031 17.609375 -12.234375 16.328125 -11.515625 C 15.054688 -10.804688 13.644531 -10.453125 12.09375 -10.453125 C 10.363281 -10.453125 8.78125 -10.878906 7.34375 -11.734375 C 5.914062 -12.585938 4.773438 -13.765625 3.921875 -15.265625 C 3.066406 -16.765625 2.640625 -18.484375 2.640625 -20.421875 C 2.640625 -22.273438 3.050781 -23.96875 3.875 -25.5 C 4.707031 -27.039062 5.875 -28.265625 7.375 -29.171875 C 8.875 -30.085938 10.640625 -30.535156 12.671875 -30.515625 Z M 12.671875 -27.28125 C 11.441406 -27.28125 10.332031 -26.972656 9.34375 -26.359375 C 8.363281 -25.742188 7.585938 -24.914062 7.015625 -23.875 C 6.441406 -22.84375 6.15625 -21.691406 6.15625 -20.421875 C 6.15625 -19.171875 6.429688 -18.035156 6.984375 -17.015625 C 7.535156 -15.992188 8.289062 -15.179688 9.25 -14.578125 C 10.21875 -13.972656 11.320312 -13.671875 12.5625 -13.671875 C 13.789062 -13.671875 14.90625 -13.988281 15.90625 -14.625 C 16.90625 -15.257812 17.703125 -16.09375 18.296875 -17.125 C 18.890625 -18.164062 19.1875 -19.285156 19.1875 -20.484375 C 19.1875 -21.671875 18.90625 -22.78125 18.34375 -23.8125 C 17.78125 -24.851562 17.003906 -25.691406 16.015625 -26.328125 C 15.035156 -26.960938 13.921875 -27.28125 12.671875 -27.28125 Z M 12.671875 -27.28125 "/></g></g></g><g fill="#ffffff" fill-opacity="1"><g transform="translate(281.661681, 38.728692)"><g><path d="M 2.40625 -6.15625 L 2.40625 -9.15625 L 15.609375 -30.046875 L 20.015625 -30.046875 L 20.015625 -9.390625 L 24.125 -9.390625 L 24.125 -6.15625 L 20.015625 -6.15625 L 20.015625 0 L 16.546875 0 L 16.546875 -6.15625 Z M 16.546875 -9.390625 L 16.546875 -25.40625 L 16.3125 -25.40625 L 6.34375 -9.625 L 6.34375 -9.390625 Z M 16.546875 -9.390625 "/></g></g></g><g fill="#ffffff" fill-opacity="1"><g transform="translate(308.186615, 38.728692)"><g/></g></g><g fill="#ffffff" fill-opacity="1"><g transform="translate(319.805939, 38.728692)"><g><path d="M 12.671875 -30.515625 C 13.910156 -30.503906 15.144531 -30.269531 16.375 -29.8125 C 17.601562 -29.351562 18.722656 -28.585938 19.734375 -27.515625 C 20.753906 -26.453125 21.570312 -25.003906 22.1875 -23.171875 C 22.8125 -21.335938 23.125 -19.03125 23.125 -16.25 C 23.125 -10.914062 22.144531 -6.804688 20.1875 -3.921875 C 18.238281 -1.035156 15.578125 0.40625 12.203125 0.40625 C 9.679688 0.40625 7.582031 -0.328125 5.90625 -1.796875 C 4.238281 -3.265625 3.226562 -5.1875 2.875 -7.5625 L 6.453125 -7.5625 C 6.773438 -6.1875 7.414062 -5.050781 8.375 -4.15625 C 9.34375 -3.257812 10.617188 -2.8125 12.203125 -2.8125 C 14.523438 -2.8125 16.359375 -3.820312 17.703125 -5.84375 C 19.046875 -7.875 19.71875 -10.738281 19.71875 -14.4375 L 19.484375 -14.4375 C 18.660156 -13.207031 17.609375 -12.234375 16.328125 -11.515625 C 15.054688 -10.804688 13.644531 -10.453125 12.09375 -10.453125 C 10.363281 -10.453125 8.78125 -10.878906 7.34375 -11.734375 C 5.914062 -12.585938 4.773438 -13.765625 3.921875 -15.265625 C 3.066406 -16.765625 2.640625 -18.484375 2.640625 -20.421875 C 2.640625 -22.273438 3.050781 -23.96875 3.875 -25.5 C 4.707031 -27.039062 5.875 -28.265625 7.375 -29.171875 C 8.875 -30.085938 10.640625 -30.535156 12.671875 -30.515625 Z M 12.671875 -27.28125 C 11.441406 -27.28125 10.332031 -26.972656 9.34375 -26.359375 C 8.363281 -25.742188 7.585938 -24.914062 7.015625 -23.875 C 6.441406 -22.84375 6.15625 -21.691406 6.15625 -20.421875 C 6.15625 -19.171875 6.429688 -18.035156 6.984375 -17.015625 C 7.535156 -15.992188 8.289062 -15.179688 9.25 -14.578125 C 10.21875 -13.972656 11.320312 -13.671875 12.5625 -13.671875 C 13.789062 -13.671875 14.90625 -13.988281 15.90625 -14.625 C 16.90625 -15.257812 17.703125 -16.09375 18.296875 -17.125 C 18.890625 -18.164062 19.1875 -19.285156 19.1875 -20.484375 C 19.1875 -21.671875 18.90625 -22.78125 18.34375 -23.8125 C 17.78125 -24.851562 17.003906 -25.691406 16.015625 -26.328125 C 15.035156 -26.960938 13.921875 -27.28125 12.671875 -27.28125 Z M 12.671875 -27.28125 "/></g></g></g><g fill="#ffffff" fill-opacity="1"><g transform="translate(345.567975, 38.728692)"><g><path d="M 13.265625 0.40625 C 11.328125 0.40625 9.601562 0.078125 8.09375 -0.578125 C 6.582031 -1.242188 5.382812 -2.171875 4.5 -3.359375 C 3.613281 -4.554688 3.128906 -5.941406 3.046875 -7.515625 L 6.75 -7.515625 C 6.851562 -6.066406 7.519531 -4.921875 8.75 -4.078125 C 9.976562 -3.234375 11.460938 -2.8125 13.203125 -2.8125 C 15.128906 -2.8125 16.710938 -3.300781 17.953125 -4.28125 C 19.203125 -5.269531 19.828125 -6.5625 19.828125 -8.15625 C 19.828125 -9.820312 19.210938 -11.175781 17.984375 -12.21875 C 16.765625 -13.269531 15.015625 -13.796875 12.734375 -13.796875 L 10.328125 -13.796875 L 10.328125 -17.015625 L 12.734375 -17.015625 C 14.515625 -17.015625 15.96875 -17.488281 17.09375 -18.4375 C 18.21875 -19.382812 18.78125 -20.648438 18.78125 -22.234375 C 18.78125 -23.753906 18.285156 -24.972656 17.296875 -25.890625 C 16.304688 -26.816406 14.984375 -27.28125 13.328125 -27.28125 C 12.285156 -27.28125 11.304688 -27.09375 10.390625 -26.71875 C 9.472656 -26.34375 8.726562 -25.800781 8.15625 -25.09375 C 7.582031 -24.382812 7.269531 -23.53125 7.21875 -22.53125 L 3.703125 -22.53125 C 3.753906 -24.101562 4.222656 -25.484375 5.109375 -26.671875 C 6.003906 -27.867188 7.171875 -28.796875 8.609375 -29.453125 C 10.054688 -30.117188 11.644531 -30.453125 13.375 -30.453125 C 15.238281 -30.453125 16.832031 -30.078125 18.15625 -29.328125 C 19.488281 -28.585938 20.507812 -27.601562 21.21875 -26.375 C 21.9375 -25.15625 22.296875 -23.835938 22.296875 -22.421875 C 22.296875 -20.722656 21.851562 -19.273438 20.96875 -18.078125 C 20.082031 -16.890625 18.882812 -16.066406 17.375 -15.609375 L 17.375 -15.375 C 19.269531 -15.0625 20.75 -14.253906 21.8125 -12.953125 C 22.882812 -11.660156 23.421875 -10.0625 23.421875 -8.15625 C 23.421875 -6.519531 22.976562 -5.050781 22.09375 -3.75 C 21.207031 -2.457031 20 -1.441406 18.46875 -0.703125 C 16.945312 0.0351562 15.210938 0.40625 13.265625 0.40625 Z M 13.265625 0.40625 "/></g></g></g><g fill="#ffffff" fill-opacity="1"><g transform="translate(3.149936, 38.728692)"><g><path d="M 11.625 -2.40625 L 11.625 -10.15625 L 3.875 -10.15625 L 3.875 -13.4375 L 11.625 -13.4375 L 11.625 -21.1875 L 14.90625 -21.1875 L 14.90625 -13.4375 L 22.65625 -13.4375 L 22.65625 -10.15625 L 14.90625 -10.15625 L 14.90625 -2.40625 Z M 11.625 -2.40625 "/></g></g></g><g fill="#ffffff" fill-opacity="1"><g transform="translate(29.67487, 38.728692)"><g><path d="M 12.5 0.40625 C 10.78125 0.40625 9.226562 0.0664062 7.84375 -0.609375 C 6.46875 -1.296875 5.363281 -2.234375 4.53125 -3.421875 C 3.695312 -4.617188 3.242188 -5.984375 3.171875 -7.515625 L 6.6875 -7.515625 C 6.820312 -6.148438 7.441406 -5.023438 8.546875 -4.140625 C 9.648438 -3.253906 10.96875 -2.8125 12.5 -2.8125 C 13.726562 -2.8125 14.820312 -3.097656 15.78125 -3.671875 C 16.75 -4.253906 17.507812 -5.050781 18.0625 -6.0625 C 18.613281 -7.070312 18.890625 -8.21875 18.890625 -9.5 C 18.890625 -10.8125 18.601562 -11.984375 18.03125 -13.015625 C 17.457031 -14.046875 16.671875 -14.859375 15.671875 -15.453125 C 14.679688 -16.054688 13.546875 -16.363281 12.265625 -16.375 C 11.347656 -16.382812 10.40625 -16.242188 9.4375 -15.953125 C 8.46875 -15.660156 7.671875 -15.289062 7.046875 -14.84375 L 3.640625 -15.25 L 5.453125 -30.046875 L 21.0625 -30.046875 L 21.0625 -26.8125 L 8.515625 -26.8125 L 7.453125 -17.953125 L 7.625 -17.953125 C 8.238281 -18.441406 9.007812 -18.847656 9.9375 -19.171875 C 10.875 -19.492188 11.84375 -19.65625 12.84375 -19.65625 C 14.6875 -19.65625 16.328125 -19.21875 17.765625 -18.34375 C 19.210938 -17.46875 20.347656 -16.269531 21.171875 -14.75 C 22.003906 -13.238281 22.421875 -11.507812 22.421875 -9.5625 C 22.421875 -7.644531 21.988281 -5.9375 21.125 -4.4375 C 20.269531 -2.9375 19.09375 -1.753906 17.59375 -0.890625 C 16.101562 -0.0234375 14.40625 0.40625 12.5 0.40625 Z M 12.5 0.40625 "/></g></g></g><g fill="#ffffff" fill-opacity="1"><g transform="translate(54.7914, 38.728692)"><g><path d="M 3.109375 0 L 3.109375 -2.640625 L 13.03125 -13.5 C 14.1875 -14.769531 15.140625 -15.875 15.890625 -16.8125 C 16.648438 -17.757812 17.210938 -18.648438 17.578125 -19.484375 C 17.953125 -20.328125 18.140625 -21.207031 18.140625 -22.125 C 18.140625 -23.707031 17.585938 -24.960938 16.484375 -25.890625 C 15.378906 -26.816406 14.007812 -27.28125 12.375 -27.28125 C 10.632812 -27.28125 9.25 -26.757812 8.21875 -25.71875 C 7.195312 -24.675781 6.6875 -23.300781 6.6875 -21.59375 L 3.234375 -21.59375 C 3.234375 -23.351562 3.632812 -24.894531 4.4375 -26.21875 C 5.25 -27.550781 6.359375 -28.585938 7.765625 -29.328125 C 9.171875 -30.078125 10.75 -30.453125 12.5 -30.453125 C 14.257812 -30.453125 15.816406 -30.078125 17.171875 -29.328125 C 18.535156 -28.585938 19.601562 -27.585938 20.375 -26.328125 C 21.144531 -25.066406 21.53125 -23.664062 21.53125 -22.125 C 21.53125 -21.019531 21.332031 -19.941406 20.9375 -18.890625 C 20.539062 -17.835938 19.851562 -16.664062 18.875 -15.375 C 17.90625 -14.09375 16.5625 -12.53125 14.84375 -10.6875 L 8.09375 -3.46875 L 8.09375 -3.234375 L 22.0625 -3.234375 L 22.0625 0 Z M 3.109375 0 "/></g></g></g><g fill="#ffffff" fill-opacity="1"><g transform="translate(79.790561, 38.728692)"><g/></g></g><g fill="#ffffff" fill-opacity="1"><g transform="translate(91.409885, 38.728692)"><g><path d="M 12.734375 0.40625 C 10.722656 0.40625 8.945312 0.046875 7.40625 -0.671875 C 5.863281 -1.390625 4.660156 -2.378906 3.796875 -3.640625 C 2.941406 -4.910156 2.515625 -6.359375 2.515625 -7.984375 C 2.515625 -9.253906 2.765625 -10.425781 3.265625 -11.5 C 3.773438 -12.582031 4.472656 -13.488281 5.359375 -14.21875 C 6.242188 -14.945312 7.234375 -15.410156 8.328125 -15.609375 L 8.328125 -15.78125 C 6.890625 -16.15625 5.742188 -16.960938 4.890625 -18.203125 C 4.046875 -19.453125 3.628906 -20.875 3.640625 -22.46875 C 3.628906 -24 4.015625 -25.363281 4.796875 -26.5625 C 5.578125 -27.769531 6.65625 -28.71875 8.03125 -29.40625 C 9.40625 -30.101562 10.972656 -30.453125 12.734375 -30.453125 C 14.472656 -30.453125 16.023438 -30.101562 17.390625 -29.40625 C 18.765625 -28.71875 19.84375 -27.769531 20.625 -26.5625 C 21.414062 -25.363281 21.816406 -24 21.828125 -22.46875 C 21.816406 -20.875 21.382812 -19.453125 20.53125 -18.203125 C 19.675781 -16.960938 18.546875 -16.15625 17.140625 -15.78125 L 17.140625 -15.609375 C 18.222656 -15.410156 19.195312 -14.945312 20.0625 -14.21875 C 20.9375 -13.488281 21.632812 -12.582031 22.15625 -11.5 C 22.675781 -10.425781 22.9375 -9.253906 22.9375 -7.984375 C 22.9375 -6.359375 22.5 -4.910156 21.625 -3.640625 C 20.757812 -2.378906 19.5625 -1.390625 18.03125 -0.671875 C 16.5 0.046875 14.734375 0.40625 12.734375 0.40625 Z M 12.734375 -2.8125 C 14.765625 -2.8125 16.375 -3.296875 17.5625 -4.265625 C 18.75 -5.242188 19.347656 -6.539062 19.359375 -8.15625 C 19.347656 -9.289062 19.054688 -10.289062 18.484375 -11.15625 C 17.910156 -12.03125 17.125 -12.71875 16.125 -13.21875 C 15.132812 -13.71875 14.003906 -13.96875 12.734375 -13.96875 C 11.453125 -13.96875 10.3125 -13.71875 9.3125 -13.21875 C 8.3125 -12.71875 7.523438 -12.03125 6.953125 -11.15625 C 6.378906 -10.289062 6.097656 -9.289062 6.109375 -8.15625 C 6.097656 -6.539062 6.679688 -5.242188 7.859375 -4.265625 C 9.046875 -3.296875 10.671875 -2.8125 12.734375 -2.8125 Z M 12.734375 -17.078125 C 14.347656 -17.078125 15.675781 -17.546875 16.71875 -18.484375 C 17.769531 -19.429688 18.300781 -20.679688 18.3125 -22.234375 C 18.300781 -23.765625 17.785156 -24.988281 16.765625 -25.90625 C 15.742188 -26.820312 14.398438 -27.28125 12.734375 -27.28125 C 11.046875 -27.28125 9.691406 -26.820312 8.671875 -25.90625 C 7.648438 -24.988281 7.144531 -23.765625 7.15625 -22.234375 C 7.144531 -20.679688 7.660156 -19.429688 8.703125 -18.484375 C 9.742188 -17.546875 11.085938 -17.078125 12.734375 -17.078125 Z M 12.734375 -17.078125 "/></g></g></g><g fill="#ffffff" fill-opacity="1"><g transform="translate(116.878513, 38.728692)"><g><path d="M 12.734375 -30.046875 L 12.734375 0 L 9.09375 0 L 9.09375 -24.765625 L 8.859375 -24.765625 C 8.722656 -24.492188 8.367188 -24.179688 7.796875 -23.828125 C 7.234375 -23.484375 6.5 -23.179688 5.59375 -22.921875 C 4.695312 -22.660156 3.671875 -22.53125 2.515625 -22.53125 L 2.515625 -25.578125 C 3.679688 -25.578125 4.691406 -25.785156 5.546875 -26.203125 C 6.398438 -26.628906 7.109375 -27.125 7.671875 -27.6875 C 8.242188 -28.257812 8.679688 -28.773438 8.984375 -29.234375 C 9.285156 -29.691406 9.457031 -29.960938 9.5 -30.046875 Z M 12.734375 -30.046875 "/></g></g></g><g fill="#ffffff" fill-opacity="1"><g transform="translate(135.129076, 38.728692)"><g/></g></g><g fill="#ffffff" fill-opacity="1"><g transform="translate(146.7484, 38.728692)"><g><path d="M 12.734375 -30.046875 L 12.734375 0 L 9.09375 0 L 9.09375 -24.765625 L 8.859375 -24.765625 C 8.722656 -24.492188 8.367188 -24.179688 7.796875 -23.828125 C 7.234375 -23.484375 6.5 -23.179688 5.59375 -22.921875 C 4.695312 -22.660156 3.671875 -22.53125 2.515625 -22.53125 L 2.515625 -25.578125 C 3.679688 -25.578125 4.691406 -25.785156 5.546875 -26.203125 C 6.398438 -26.628906 7.109375 -27.125 7.671875 -27.6875 C 8.242188 -28.257812 8.679688 -28.773438 8.984375 -29.234375 C 9.285156 -29.691406 9.457031 -29.960938 9.5 -30.046875 Z M 12.734375 -30.046875 "/></g></g></g><g fill="#ffffff" fill-opacity="1"><g transform="translate(164.998963, 38.728692)"><g><path d="M 4.046875 0 L 17.484375 -26.578125 L 17.484375 -26.8125 L 2 -26.8125 L 2 -30.046875 L 21.25 -30.046875 L 21.25 -26.640625 L 7.859375 0 Z M 4.046875 0 "/></g></g></g><g fill="#ffffff" fill-opacity="1"><g transform="translate(188.58972, 38.728692)"><g/></g></g><g fill="#ffffff" fill-opacity="1"><g transform="translate(200.209033, 38.728692)"><g><path d="M 12.734375 -30.046875 L 12.734375 0 L 9.09375 0 L 9.09375 -24.765625 L 8.859375 -24.765625 C 8.722656 -24.492188 8.367188 -24.179688 7.796875 -23.828125 C 7.234375 -23.484375 6.5 -23.179688 5.59375 -22.921875 C 4.695312 -22.660156 3.671875 -22.53125 2.515625 -22.53125 L 2.515625 -25.578125 C 3.679688 -25.578125 4.691406 -25.785156 5.546875 -26.203125 C 6.398438 -26.628906 7.109375 -27.125 7.671875 -27.6875 C 8.242188 -28.257812 8.679688 -28.773438 8.984375 -29.234375 C 9.285156 -29.691406 9.457031 -29.960938 9.5 -30.046875 Z M 12.734375 -30.046875 "/></g></g></g><g fill="#ffffff" fill-opacity="1"><g transform="translate(218.459585, 38.728692)"><g><path d="M 12.90625 0.40625 C 9.59375 0.40625 7.023438 -0.9375 5.203125 -3.625 C 3.378906 -6.3125 2.46875 -10.109375 2.46875 -15.015625 C 2.46875 -19.890625 3.382812 -23.679688 5.21875 -26.390625 C 7.0625 -29.097656 9.625 -30.453125 12.90625 -30.453125 C 16.195312 -30.453125 18.757812 -29.097656 20.59375 -26.390625 C 22.4375 -23.679688 23.359375 -19.890625 23.359375 -15.015625 C 23.359375 -10.109375 22.445312 -6.3125 20.625 -3.625 C 18.800781 -0.9375 16.226562 0.40625 12.90625 0.40625 Z M 12.90625 -2.8125 C 15.101562 -2.8125 16.804688 -3.867188 18.015625 -5.984375 C 19.222656 -8.097656 19.828125 -11.109375 19.828125 -15.015625 C 19.828125 -18.921875 19.21875 -21.941406 18 -24.078125 C 16.78125 -26.210938 15.082031 -27.28125 12.90625 -27.28125 C 10.738281 -27.28125 9.039062 -26.210938 7.8125 -24.078125 C 6.59375 -21.941406 5.984375 -18.921875 5.984375 -15.015625 C 5.984375 -11.109375 6.59375 -8.097656 7.8125 -5.984375 C 9.03125 -3.867188 10.726562 -2.8125 12.90625 -2.8125 Z M 12.90625 -2.8125 "/></g></g></g><g fill="#ffffff" fill-opacity="1"><g transform="translate(244.280299, 38.728692)"><g/></g></g><g fill="#ffffff" fill-opacity="1"><g transform="translate(255.899623, 38.728692)"><g><path d="M 12.671875 -30.515625 C 13.910156 -30.503906 15.144531 -30.269531 16.375 -29.8125 C 17.601562 -29.351562 18.722656 -28.585938 19.734375 -27.515625 C 20.753906 -26.453125 21.570312 -25.003906 22.1875 -23.171875 C 22.8125 -21.335938 23.125 -19.03125 23.125 -16.25 C 23.125 -10.914062 22.144531 -6.804688 20.1875 -3.921875 C 18.238281 -1.035156 15.578125 0.40625 12.203125 0.40625 C 9.679688 0.40625 7.582031 -0.328125 5.90625 -1.796875 C 4.238281 -3.265625 3.226562 -5.1875 2.875 -7.5625 L 6.453125 -7.5625 C 6.773438 -6.1875 7.414062 -5.050781 8.375 -4.15625 C 9.34375 -3.257812 10.617188 -2.8125 12.203125 -2.8125 C 14.523438 -2.8125 16.359375 -3.820312 17.703125 -5.84375 C 19.046875 -7.875 19.71875 -10.738281 19.71875 -14.4375 L 19.484375 -14.4375 C 18.660156 -13.207031 17.609375 -12.234375 16.328125 -11.515625 C 15.054688 -10.804688 13.644531 -10.453125 12.09375 -10.453125 C 10.363281 -10.453125 8.78125 -10.878906 7.34375 -11.734375 C 5.914062 -12.585938 4.773438 -13.765625 3.921875 -15.265625 C 3.066406 -16.765625 2.640625 -18.484375 2.640625 -20.421875 C 2.640625 -22.273438 3.050781 -23.96875 3.875 -25.5 C 4.707031 -27.039062 5.875 -28.265625 7.375 -29.171875 C 8.875 -30.085938 10.640625 -30.535156 12.671875 -30.515625 Z M 12.671875 -27.28125 C 11.441406 -27.28125 10.332031 -26.972656 9.34375 -26.359375 C 8.363281 -25.742188 7.585938 -24.914062 7.015625 -23.875 C 6.441406 -22.84375 6.15625 -21.691406 6.15625 -20.421875 C 6.15625 -19.171875 6.429688 -18.035156 6.984375 -17.015625 C 7.535156 -15.992188 8.289062 -15.179688 9.25 -14.578125 C 10.21875 -13.972656 11.320312 -13.671875 12.5625 -13.671875 C 13.789062 -13.671875 14.90625 -13.988281 15.90625 -14.625 C 16.90625 -15.257812 17.703125 -16.09375 18.296875 -17.125 C 18.890625 -18.164062 19.1875 -19.285156 19.1875 -20.484375 C 19.1875 -21.671875 18.90625 -22.78125 18.34375 -23.8125 C 17.78125 -24.851562 17.003906 -25.691406 16.015625 -26.328125 C 15.035156 -26.960938 13.921875 -27.28125 12.671875 -27.28125 Z M 12.671875 -27.28125 "/></g></g></g><g fill="#ffffff" fill-opacity="1"><g transform="translate(281.661681, 38.728692)"><g><path d="M 2.40625 -6.15625 L 2.40625 -9.15625 L 15.609375 -30.046875 L 20.015625 -30.046875 L 20.015625 -9.390625 L 24.125 -9.390625 L 24.125 -6.15625 L 20.015625 -6.15625 L 20.015625 0 L 16.546875 0 L 16.546875 -6.15625 Z M 16.546875 -9.390625 L 16.546875 -25.40625 L 16.3125 -25.40625 L 6.34375 -9.625 L 6.34375 -9.390625 Z M 16.546875 -9.390625 "/></g></g></g><g fill="#ffffff" fill-opacity="1"><g transform="translate(308.186615, 38.728692)"><g/></g></g><g fill="#ffffff" fill-opacity="1"><g transform="translate(319.805939, 38.728692)"><g><path d="M 12.671875 -30.515625 C 13.910156 -30.503906 15.144531 -30.269531 16.375 -29.8125 C 17.601562 -29.351562 18.722656 -28.585938 19.734375 -27.515625 C 20.753906 -26.453125 21.570312 -25.003906 22.1875 -23.171875 C 22.8125 -21.335938 23.125 -19.03125 23.125 -16.25 C 23.125 -10.914062 22.144531 -6.804688 20.1875 -3.921875 C 18.238281 -1.035156 15.578125 0.40625 12.203125 0.40625 C 9.679688 0.40625 7.582031 -0.328125 5.90625 -1.796875 C 4.238281 -3.265625 3.226562 -5.1875 2.875 -7.5625 L 6.453125 -7.5625 C 6.773438 -6.1875 7.414062 -5.050781 8.375 -4.15625 C 9.34375 -3.257812 10.617188 -2.8125 12.203125 -2.8125 C 14.523438 -2.8125 16.359375 -3.820312 17.703125 -5.84375 C 19.046875 -7.875 19.71875 -10.738281 19.71875 -14.4375 L 19.484375 -14.4375 C 18.660156 -13.207031 17.609375 -12.234375 16.328125 -11.515625 C 15.054688 -10.804688 13.644531 -10.453125 12.09375 -10.453125 C 10.363281 -10.453125 8.78125 -10.878906 7.34375 -11.734375 C 5.914062 -12.585938 4.773438 -13.765625 3.921875 -15.265625 C 3.066406 -16.765625 2.640625 -18.484375 2.640625 -20.421875 C 2.640625 -22.273438 3.050781 -23.96875 3.875 -25.5 C 4.707031 -27.039062 5.875 -28.265625 7.375 -29.171875 C 8.875 -30.085938 10.640625 -30.535156 12.671875 -30.515625 Z M 12.671875 -27.28125 C 11.441406 -27.28125 10.332031 -26.972656 9.34375 -26.359375 C 8.363281 -25.742188 7.585938 -24.914062 7.015625 -23.875 C 6.441406 -22.84375 6.15625 -21.691406 6.15625 -20.421875 C 6.15625 -19.171875 6.429688 -18.035156 6.984375 -17.015625 C 7.535156 -15.992188 8.289062 -15.179688 9.25 -14.578125 C 10.21875 -13.972656 11.320312 -13.671875 12.5625 -13.671875 C 13.789062 -13.671875 14.90625 -13.988281 15.90625 -14.625 C 16.90625 -15.257812 17.703125 -16.09375 18.296875 -17.125 C 18.890625 -18.164062 19.1875 -19.285156 19.1875 -20.484375 C 19.1875 -21.671875 18.90625 -22.78125 18.34375 -23.8125 C 17.78125 -24.851562 17.003906 -25.691406 16.015625 -26.328125 C 15.035156 -26.960938 13.921875 -27.28125 12.671875 -27.28125 Z M 12.671875 -27.28125 "/></g></g></g><g fill="#ffffff" fill-opacity="1"><g transform="translate(345.567975, 38.728692)"><g><path d="M 13.265625 0.40625 C 11.328125 0.40625 9.601562 0.078125 8.09375 -0.578125 C 6.582031 -1.242188 5.382812 -2.171875 4.5 -3.359375 C 3.613281 -4.554688 3.128906 -5.941406 3.046875 -7.515625 L 6.75 -7.515625 C 6.851562 -6.066406 7.519531 -4.921875 8.75 -4.078125 C 9.976562 -3.234375 11.460938 -2.8125 13.203125 -2.8125 C 15.128906 -2.8125 16.710938 -3.300781 17.953125 -4.28125 C 19.203125 -5.269531 19.828125 -6.5625 19.828125 -8.15625 C 19.828125 -9.820312 19.210938 -11.175781 17.984375 -12.21875 C 16.765625 -13.269531 15.015625 -13.796875 12.734375 -13.796875 L 10.328125 -13.796875 L 10.328125 -17.015625 L 12.734375 -17.015625 C 14.515625 -17.015625 15.96875 -17.488281 17.09375 -18.4375 C 18.21875 -19.382812 18.78125 -20.648438 18.78125 -22.234375 C 18.78125 -23.753906 18.285156 -24.972656 17.296875 -25.890625 C 16.304688 -26.816406 14.984375 -27.28125 13.328125 -27.28125 C 12.285156 -27.28125 11.304688 -27.09375 10.390625 -26.71875 C 9.472656 -26.34375 8.726562 -25.800781 8.15625 -25.09375 C 7.582031 -24.382812 7.269531 -23.53125 7.21875 -22.53125 L 3.703125 -22.53125 C 3.753906 -24.101562 4.222656 -25.484375 5.109375 -26.671875 C 6.003906 -27.867188 7.171875 -28.796875 8.609375 -29.453125 C 10.054688 -30.117188 11.644531 -30.453125 13.375 -30.453125 C 15.238281 -30.453125 16.832031 -30.078125 18.15625 -29.328125 C 19.488281 -28.585938 20.507812 -27.601562 21.21875 -26.375 C 21.9375 -25.15625 22.296875 -23.835938 22.296875 -22.421875 C 22.296875 -20.722656 21.851562 -19.273438 20.96875 -18.078125 C 20.082031 -16.890625 18.882812 -16.066406 17.375 -15.609375 L 17.375 -15.375 C 19.269531 -15.0625 20.75 -14.253906 21.8125 -12.953125 C 22.882812 -11.660156 23.421875 -10.0625 23.421875 -8.15625 C 23.421875 -6.519531 22.976562 -5.050781 22.09375 -3.75 C 21.207031 -2.457031 20 -1.441406 18.46875 -0.703125 C 16.945312 0.0351562 15.210938 0.40625 13.265625 0.40625 Z M 13.265625 0.40625 "/></g></g></g></svg>