<svg xmlns="http://www.w3.org/2000/svg" xmlns:xlink="http://www.w3.org/1999/xlink" width="500" zoomAndPan="magnify" viewBox="0 0 375 374.999991" height="500" preserveAspectRatio="xMidYMid meet" version="1.0"><path fill="#ec3337" d="M 187.5 375 C 83.875 375 0 291.140625 0 187.5 C 0 83.875 83.859375 0 187.5 0 C 291.125 0 375 83.859375 375 187.5 C 375 291.125 291.140625 375 187.5 375 Z M 187.5 375 " fill-opacity="1" fill-rule="nonzero"/><path fill="#ffffff" d="M 297.058594 120.589844 C 272.695312 120.589844 252.941406 100.835938 252.941406 76.46875 L 208.824219 76.46875 L 208.824219 219.851562 C 208.824219 244.21875 189.070312 263.96875 164.707031 263.96875 C 140.339844 263.96875 120.589844 244.21875 120.589844 219.851562 C 120.589844 195.488281 140.339844 175.734375 164.707031 175.734375 L 164.707031 131.617188 C 115.976562 131.617188 76.46875 171.121094 76.46875 219.851562 C 76.46875 268.582031 115.976562 308.089844 164.707031 308.089844 C 213.4375 308.089844 252.941406 268.582031 252.941406 219.851562 L 252.941406 152.898438 C 265.917969 160.40625 280.988281 164.707031 297.058594 164.707031 Z M 297.058594 120.589844 " fill-opacity="1" fill-rule="nonzero"/><path fill="#ffffff" d="M 164.707031 87.5 C 158.613281 87.5 153.675781 82.5625 153.675781 76.46875 L 153.675781 65.441406 C 153.675781 59.351562 158.613281 54.410156 164.707031 54.410156 C 170.796875 54.410156 175.734375 59.351562 175.734375 65.441406 L 175.734375 76.46875 C 175.734375 82.5625 170.796875 87.5 164.707031 87.5 Z M 164.707031 87.5 " fill-opacity="1" fill-rule="nonzero"/><path fill="#ffffff" d="M 131.617188 109.558594 C 125.527344 109.558594 120.589844 104.621094 120.589844 98.53125 L 120.589844 76.46875 C 120.589844 70.378906 125.527344 65.441406 131.617188 65.441406 C 137.707031 65.441406 142.648438 70.378906 142.648438 76.46875 L 142.648438 98.53125 C 142.648438 104.621094 137.707031 109.558594 131.617188 109.558594 Z M 131.617188 109.558594 " fill-opacity="1" fill-rule="nonzero"/></svg>