<svg xmlns="http://www.w3.org/2000/svg" xmlns:xlink="http://www.w3.org/1999/xlink" width="48" zoomAndPan="magnify" viewBox="0 0 36 36.000001" height="48" preserveAspectRatio="xMidYMid meet" version="1.0"><defs><clipPath id="d53a198113"><path d="M 1 1 L 32 1 L 32 34 L 1 34 Z M 1 1 " clip-rule="nonzero"/></clipPath><clipPath id="9599b3b22b"><path d="M 15.082031 2.917969 C 15.082031 2.113281 15.734375 1.460938 16.539062 1.460938 L 20.917969 1.460938 C 21.726562 1.460938 22.378906 2.113281 22.378906 2.917969 C 22.378906 6.949219 25.644531 10.214844 29.675781 10.214844 C 30.480469 10.214844 31.136719 10.871094 31.136719 11.675781 L 31.136719 16.054688 C 31.136719 16.859375 30.480469 17.511719 29.675781 17.511719 C 27.019531 17.511719 24.523438 16.800781 22.378906 15.5625 L 22.378906 23.351562 C 22.378906 28.992188 17.804688 33.566406 12.164062 33.566406 C 6.519531 33.566406 1.945312 28.992188 1.945312 23.351562 C 1.945312 17.710938 6.519531 13.136719 12.164062 13.136719 C 12.96875 13.136719 13.621094 13.789062 13.621094 14.59375 L 13.621094 18.972656 C 13.621094 19.777344 12.96875 20.433594 12.164062 20.433594 C 10.550781 20.433594 9.242188 21.738281 9.242188 23.351562 C 9.242188 24.964844 10.550781 26.269531 12.164062 26.269531 C 13.773438 26.269531 15.082031 24.964844 15.082031 23.351562 Z M 18 4.378906 L 18 23.351562 C 18 26.574219 15.386719 29.1875 12.164062 29.1875 C 8.9375 29.1875 6.324219 26.574219 6.324219 23.351562 C 6.324219 20.632812 8.183594 18.34375 10.703125 17.699219 L 10.703125 16.199219 C 7.371094 16.875 4.863281 19.820312 4.863281 23.351562 C 4.863281 27.382812 8.132812 30.648438 12.164062 30.648438 C 16.191406 30.648438 19.460938 27.382812 19.460938 23.351562 L 19.460938 12.710938 C 19.460938 12.132812 19.796875 11.613281 20.324219 11.378906 C 20.847656 11.140625 21.464844 11.238281 21.890625 11.621094 C 23.617188 13.164062 25.800781 14.203125 28.214844 14.503906 L 28.214844 13.03125 C 23.742188 12.390625 20.203125 8.851562 19.5625 4.378906 Z M 18 4.378906 " clip-rule="evenodd"/></clipPath></defs><g clip-path="url(#d53a198113)"><g clip-path="url(#9599b3b22b)"><path fill="#646464" d="M 1.945312 1.460938 L 1.945312 33.566406 L 31.136719 33.566406 L 31.136719 1.460938 Z M 1.945312 1.460938 " fill-opacity="1" fill-rule="nonzero"/></g></g></svg>