<svg xmlns="http://www.w3.org/2000/svg" xmlns:xlink="http://www.w3.org/1999/xlink" width="48" zoomAndPan="magnify" viewBox="0 0 36 36.000001" height="48" preserveAspectRatio="xMidYMid meet" version="1.0"><defs><clipPath id="b5664d5c47"><path d="M 0.488281 4.488281 L 35.511719 4.488281 L 35.511719 30.757812 L 0.488281 30.757812 Z M 0.488281 4.488281 " clip-rule="nonzero"/></clipPath></defs><g clip-path="url(#b5664d5c47)"><path fill="#646464" d="M 34.535156 9.015625 C 34.214844 7.210938 32.671875 5.898438 30.878906 5.488281 C 28.199219 4.914062 23.242188 4.507812 17.875 4.507812 C 12.515625 4.507812 7.476562 4.914062 4.792969 5.488281 C 3.007812 5.898438 1.460938 7.128906 1.136719 9.015625 C 0.808594 11.066406 0.488281 13.933594 0.488281 17.621094 C 0.488281 21.3125 0.808594 24.179688 1.214844 26.230469 C 1.542969 28.035156 3.085938 29.347656 4.875 29.757812 C 7.71875 30.328125 12.59375 30.738281 17.960938 30.738281 C 23.324219 30.738281 28.199219 30.328125 31.046875 29.757812 C 32.832031 29.347656 34.375 28.117188 34.703125 26.230469 C 35.027344 24.179688 35.433594 21.230469 35.515625 17.621094 C 35.351562 13.933594 34.945312 11.066406 34.535156 9.015625 Z M 13.488281 23.363281 L 13.488281 11.882812 L 23.402344 17.621094 Z M 13.488281 23.363281 " fill-opacity="1" fill-rule="nonzero"/></g></svg>